<svg width="1920" height="1080" viewBox="0 0 1920 1080" fill="none" xmlns="http://www.w3.org/2000/svg">
<rect width="1920" height="1080" fill="black"/>
<path d="M1665.36 871.423C1670.6 871.601 1675.7 873.159 1680.16 875.944V804.015H1657.88V872.96C1660.25 871.956 1662.79 871.433 1665.36 871.423Z" fill="white" fill-opacity="0.7"/>
<path d="M1657.88 926.398V1016.5H1680.16V942.357C1672.66 938.855 1665.78 934.119 1659.79 928.342C1659.79 928.342 1658.81 927.438 1657.88 926.398Z" fill="white" fill-opacity="0.7"/>
<path d="M1669.42 927.845C1678.91 935.754 1690.67 940.351 1702.94 940.956C1710.25 940.921 1717.42 938.857 1723.66 934.988C1724.07 924.151 1726.89 913.548 1731.91 903.974C1732.36 903.235 1733.08 902.703 1733.91 902.492C1734.74 902.281 1735.62 902.407 1736.37 902.844C1737.08 903.317 1737.59 904.046 1737.79 904.883C1738 905.721 1737.89 906.607 1737.48 907.365C1737.48 907.636 1721.52 934.807 1736.81 974.546H1846.23C1861.52 934.807 1845.74 907.636 1845.56 907.365C1845.16 906.607 1845.04 905.721 1845.25 904.883C1845.46 904.046 1845.97 903.317 1846.68 902.844C1847.42 902.407 1848.3 902.281 1849.13 902.492C1849.97 902.703 1850.68 903.235 1851.14 903.974C1857.16 915.542 1860.05 928.52 1859.52 941.588L1882.47 930.738C1881.09 903.025 1875.2 883.449 1867.67 869.569C1866.65 871.785 1865.53 874.09 1864.24 876.306C1863.66 877.349 1862.82 878.217 1861.8 878.821C1860.78 879.425 1859.63 879.742 1858.45 879.742C1857.97 879.811 1857.49 879.811 1857.02 879.742C1855.89 879.505 1854.84 878.958 1853.99 878.159C1848.86 897.645 1833.98 921.922 1794.13 939.102C1793.3 939.46 1792.4 939.645 1791.5 939.645C1790.6 939.645 1789.7 939.46 1788.87 939.102C1749.11 921.922 1734.23 897.645 1729.19 878.159C1728.36 878.911 1727.34 879.426 1726.25 879.651C1725.78 879.72 1725.29 879.72 1724.82 879.651C1723.64 879.652 1722.48 879.334 1721.47 878.73C1720.45 878.126 1719.61 877.258 1719.03 876.215C1717.03 872.739 1715.28 869.129 1713.77 865.41C1707.2 875.102 1701.89 885.618 1697.99 896.695L1689.08 890.818L1670.22 926.986C1669.98 927.295 1669.71 927.582 1669.42 927.845Z" fill="white" fill-opacity="0.7"/>
<path d="M1853.36 974.501C1866.42 973.733 1875.65 969.98 1880.51 962.747C1882.7 959.005 1884.12 954.858 1884.7 950.548C1885.28 946.239 1885.01 941.855 1883.9 937.655L1859.25 949.274C1858.32 957.898 1856.35 966.372 1853.36 974.501Z" fill="white" fill-opacity="0.7"/>
<path d="M1773.98 1023.78H1778.44H1778.71C1779.52 1023.8 1780.32 1023.89 1781.12 1024.05C1783.08 1012.25 1785.57 995.026 1787.85 981.554H1738.82L1743.5 1009.72C1754.17 1012.52 1764.3 1017.11 1773.49 1023.28C1773.54 1023.39 1773.6 1023.5 1773.69 1023.58C1773.77 1023.67 1773.87 1023.73 1773.98 1023.78Z" fill="white" fill-opacity="0.7"/>
<path d="M1734.67 847.598C1734.67 847.598 1719.16 901.623 1791.59 932.863C1864.02 901.623 1848.51 847.598 1848.51 847.598C1856.8 852.797 1858.45 873.051 1858.45 873.051C1879.71 835.21 1864.37 806.638 1854.7 794.07C1853.04 809.875 1845.68 824.499 1834.03 835.126C1822.38 845.754 1807.26 851.634 1791.59 851.634C1775.92 851.634 1760.8 845.754 1749.15 835.126C1737.5 824.499 1730.14 809.875 1728.48 794.07C1718.8 806.638 1703.47 835.21 1724.73 873.051C1724.73 873.051 1726.38 852.797 1734.67 847.598Z" fill="white" fill-opacity="0.7"/>
<path d="M1778.57 1030.47H1774.12C1772.66 1030.48 1771.23 1030.06 1770.02 1029.25C1764.49 1025.54 1747.73 1015.24 1733.42 1015.24C1730.15 1015.05 1726.89 1015.69 1723.92 1017.09C1720.94 1018.49 1718.36 1020.62 1716.4 1023.28C1707.08 1035.99 1717.16 1042.9 1721.43 1045.12C1722.47 1045.62 1723.59 1045.88 1724.73 1045.89H1778.57C1779.62 1045.97 1780.67 1045.83 1781.67 1045.48C1782.66 1045.13 1783.57 1044.57 1784.34 1043.85C1785.11 1043.13 1785.72 1042.25 1786.14 1041.27C1786.56 1040.3 1786.78 1039.24 1786.78 1038.18C1786.78 1037.11 1786.56 1036.06 1786.14 1035.08C1785.72 1034.11 1785.11 1033.23 1784.34 1032.51C1783.57 1031.78 1782.66 1031.23 1781.67 1030.88C1780.67 1030.53 1779.62 1030.39 1778.57 1030.47Z" fill="white" fill-opacity="0.7"/>
<path d="M1834.82 824.36C1842.35 815.435 1847.01 804.395 1848.19 792.713L1847.35 792.261C1828.72 777.071 1809.95 769.385 1791.63 769.385C1773.32 769.385 1754.55 777.071 1735.92 792.261L1735.07 792.713C1736.26 804.395 1740.92 815.435 1748.44 824.36C1749.51 823.23 1763.51 808.763 1791.68 808.763C1819.85 808.763 1833.75 823.32 1834.82 824.36Z" fill="white" fill-opacity="0.7"/>
<path d="M1753.17 829.107C1763.65 839.016 1777.44 844.526 1791.77 844.526C1806.09 844.526 1819.89 839.016 1830.37 829.107C1830.37 829.107 1817.53 815.544 1791.95 815.544C1766.36 815.544 1753.3 828.881 1753.17 829.107Z" fill="white" fill-opacity="0.7"/>
<path d="M1791.59 762.694C1811.56 762.694 1831.53 770.816 1851.49 787.062C1851.49 787.062 1856.62 686.787 1791.59 639C1726.56 686.787 1731.69 787.062 1731.69 787.062C1751.65 770.786 1771.62 762.664 1791.59 762.694Z" fill="white" fill-opacity="0.7"/>
<path d="M1804.6 1023.69H1804.96H1809.42C1809.56 1023.73 1809.72 1023.73 1809.86 1023.69C1819.05 1017.51 1829.19 1012.93 1839.86 1010.13L1844.72 981.69H1795.69C1797.74 995.253 1800.41 1012.39 1802.38 1024.19C1803.1 1023.96 1803.85 1023.79 1804.6 1023.69Z" fill="white" fill-opacity="0.7"/>
<path d="M1809.42 1030.56H1804.96C1803.91 1030.48 1802.86 1030.62 1801.87 1030.97C1800.88 1031.32 1799.97 1031.87 1799.2 1032.6C1798.43 1033.32 1797.81 1034.2 1797.39 1035.17C1796.97 1036.15 1796.76 1037.2 1796.76 1038.27C1796.76 1039.33 1796.97 1040.39 1797.39 1041.36C1797.81 1042.34 1798.43 1043.22 1799.2 1043.94C1799.97 1044.66 1800.88 1045.22 1801.87 1045.57C1802.86 1045.92 1803.91 1046.06 1804.96 1045.98H1858.45C1859.6 1045.98 1860.74 1045.71 1861.79 1045.21C1866.25 1042.99 1876.14 1036.17 1866.83 1023.37C1864.87 1020.75 1862.31 1018.66 1859.37 1017.27C1856.44 1015.89 1853.21 1015.25 1849.98 1015.42C1835.63 1015.42 1818.78 1025.72 1813.38 1029.43C1812.2 1030.18 1810.82 1030.58 1809.42 1030.56Z" fill="white" fill-opacity="0.7"/>
<path d="M1683.51 886.84C1683.51 886.84 1674.37 878.205 1665.36 878.205C1663.06 878.215 1660.8 878.855 1658.83 880.056C1656.85 881.257 1655.23 882.976 1654.13 885.031C1643.39 902.256 1664.34 923.459 1664.34 923.459L1683.51 886.84Z" fill="white" fill-opacity="0.7"/>
<path d="M1712.92 774.9C1710.74 747.367 1702 703.559 1669.06 698.044C1636.13 703.514 1627.39 747.322 1625.21 774.9C1624.97 777.733 1625.32 780.585 1626.22 783.275C1627.13 785.966 1628.57 788.438 1630.46 790.535C1632.36 792.632 1634.66 794.31 1637.22 795.463C1639.78 796.616 1642.55 797.219 1645.35 797.234H1692.69C1695.5 797.231 1698.28 796.637 1700.85 795.49C1703.42 794.343 1705.73 792.667 1707.63 790.568C1709.53 788.469 1710.99 785.993 1711.9 783.297C1712.81 780.6 1713.16 777.741 1712.92 774.9Z" fill="white" fill-opacity="0.7"/>
<path d="M1638.62 1045.89H1657.88H1680.16H1695.58V1023.28H1638.62V1045.89Z" fill="white" fill-opacity="0.7"/>
<mask id="path-17-inside-1_182_60" fill="white">
<path fill-rule="evenodd" clip-rule="evenodd" d="M1806.25 698.718L1810.86 694.131L1817.9 701.15L1813.28 705.738C1815.23 708.598 1816.6 711.864 1817.28 715.364H1823.82V725.29H1817.28C1816.6 728.786 1815.23 732.059 1813.28 734.916L1817.9 739.507L1810.86 746.531L1806.25 741.943C1803.38 743.864 1800.1 745.251 1796.58 745.914V752.426L1786.62 752.418V745.906C1783.08 745.243 1779.83 743.86 1776.95 741.936L1772.35 746.523L1765.3 739.5L1769.9 734.908C1767.97 732.052 1766.58 728.783 1765.9 725.282H1759.38V715.364H1765.9C1766.58 711.863 1767.98 708.598 1769.9 705.737L1765.3 701.15L1772.35 694.13L1776.95 698.718C1779.83 696.797 1783.08 695.41 1786.62 694.747V688.235H1796.58V694.747C1800.1 695.406 1803.38 696.794 1806.25 698.718ZM1819.49 686.315V689.774C1819.49 690.562 1818.83 691.225 1818.04 691.225H1803.91V694.301C1802.97 693.85 1802.01 693.471 1801.02 693.127V689.774C1801.02 688.963 1801.66 688.323 1802.48 688.323H1816.58V686.315C1814.78 685.698 1813.47 684.012 1813.47 682.004C1813.47 679.485 1815.53 677.458 1818.03 677.458C1820.54 677.458 1822.6 679.489 1822.6 682.004C1822.6 684.012 1821.29 685.694 1819.49 686.315ZM1763.71 686.315V689.774C1763.71 690.562 1764.35 691.225 1765.17 691.225H1779.27V694.301C1780.21 693.85 1781.2 693.471 1782.18 693.127V689.774C1782.18 688.963 1781.51 688.323 1780.72 688.323L1766.6 688.319V686.312C1768.42 685.694 1769.73 684.008 1769.73 682C1769.73 679.481 1767.67 677.454 1765.17 677.454C1762.64 677.454 1760.6 679.485 1760.6 682C1760.6 684.012 1761.89 685.694 1763.71 686.315ZM1766.6 754.34V752.336H1780.72C1781.52 752.336 1782.18 751.673 1782.18 750.885V747.536C1781.2 747.191 1780.21 746.812 1779.27 746.361V749.434H1765.17C1764.35 749.434 1763.71 750.097 1763.71 750.885V754.34C1761.91 754.961 1760.6 756.666 1760.6 758.651C1760.6 761.17 1762.64 763.197 1765.17 763.197C1767.67 763.197 1769.73 761.17 1769.73 758.651C1769.73 756.669 1768.43 754.961 1766.6 754.34ZM1766.24 734.746H1755.05C1754.24 734.746 1753.6 735.386 1753.6 736.178V739.997C1751.77 740.596 1750.47 742.304 1750.47 744.308C1750.47 746.805 1752.52 748.854 1755.05 748.854C1757.56 748.854 1759.62 746.808 1759.62 744.308C1759.62 742.304 1758.31 740.596 1756.49 739.997V737.629H1763.32L1766.24 734.746ZM1756.66 718.206C1755.89 716.774 1754.36 715.77 1752.61 715.77C1750.1 715.77 1748.04 717.82 1748.04 720.316C1748.04 722.835 1750.1 724.862 1752.61 724.862C1754.36 724.862 1755.89 723.877 1756.66 722.449V718.206ZM1763.33 703.026H1756.49V700.659C1758.31 700.064 1759.62 698.351 1759.62 696.347C1759.62 693.851 1757.56 691.801 1755.05 691.801C1752.52 691.801 1750.47 693.847 1750.47 696.347C1750.47 698.351 1751.77 700.06 1753.6 700.659V704.477C1753.6 705.265 1754.24 705.909 1755.05 705.909H1766.24L1763.33 703.026ZM1763.49 682C1763.49 681.084 1764.24 680.337 1765.17 680.337C1766.09 680.337 1766.82 681.084 1766.82 682C1766.82 682.898 1766.07 683.645 1765.17 683.645C1764.25 683.648 1763.49 682.898 1763.49 682ZM1753.38 696.347C1753.38 695.43 1754.11 694.707 1755.05 694.707C1755.97 694.707 1756.7 695.43 1756.7 696.347C1756.7 697.264 1755.95 698.014 1755.05 698.014C1754.13 698.01 1753.38 697.264 1753.38 696.347ZM1750.96 720.316C1750.96 719.399 1751.68 718.676 1752.61 718.676C1753.53 718.676 1754.28 719.399 1754.28 720.316C1754.28 721.233 1753.53 721.983 1752.61 721.983C1751.71 721.979 1750.96 721.237 1750.96 720.316ZM1753.38 744.308C1753.38 743.391 1754.11 742.641 1755.05 742.641C1755.97 742.641 1756.7 743.387 1756.7 744.308C1756.7 745.206 1755.95 745.952 1755.05 745.952C1754.13 745.952 1753.38 745.206 1753.38 744.308ZM1763.49 758.654C1763.49 757.738 1764.24 757.01 1765.17 757.01C1766.09 757.01 1766.82 757.734 1766.82 758.654C1766.82 759.571 1766.07 760.321 1765.17 760.321C1764.25 760.317 1763.49 759.571 1763.49 758.654ZM1816.58 754.339V752.335H1802.48C1801.66 752.335 1801.02 751.672 1801.02 750.884V747.535C1802.01 747.191 1802.97 746.812 1803.92 746.361V749.434H1818.04C1818.83 749.434 1819.5 750.096 1819.5 750.884V754.339C1821.3 754.961 1822.6 756.665 1822.6 758.651C1822.6 761.17 1820.57 763.197 1818.04 763.197C1815.51 763.197 1813.47 761.17 1813.47 758.651C1813.47 756.669 1814.78 754.961 1816.58 754.339ZM1816.97 734.746H1828.15C1828.94 734.746 1829.61 735.386 1829.61 736.178V739.997C1831.41 740.595 1832.72 742.304 1832.72 744.308C1832.72 746.804 1830.68 748.854 1828.15 748.854C1825.62 748.854 1823.59 746.808 1823.59 744.308C1823.59 742.304 1824.9 740.595 1826.7 739.997V737.629H1819.86L1816.97 734.746ZM1826.54 718.206C1827.29 716.774 1828.84 715.77 1830.57 715.77C1833.1 715.77 1835.14 717.819 1835.14 720.316C1835.14 722.835 1833.1 724.862 1830.57 724.862C1828.81 724.862 1827.29 723.877 1826.54 722.449V718.206ZM1819.86 703.026H1826.7V700.658C1824.9 700.064 1823.59 698.351 1823.59 696.347C1823.59 693.851 1825.65 691.801 1828.15 691.801C1830.68 691.801 1832.72 693.847 1832.72 696.347C1832.72 698.351 1831.41 700.06 1829.61 700.658V704.477C1829.61 705.265 1828.94 705.909 1828.15 705.909L1816.97 705.913L1819.86 703.026ZM1819.71 682C1819.71 681.084 1818.96 680.337 1818.03 680.337C1817.11 680.337 1816.36 681.084 1816.36 682C1816.36 682.898 1817.11 683.644 1818.03 683.644C1818.96 683.644 1819.71 682.898 1819.71 682ZM1829.83 696.347C1829.83 695.43 1829.08 694.707 1828.15 694.707C1827.23 694.707 1826.48 695.43 1826.48 696.347C1826.48 697.264 1827.23 698.014 1828.15 698.014C1829.07 698.01 1829.83 697.264 1829.83 696.347ZM1832.25 720.316C1832.25 719.399 1831.5 718.676 1830.57 718.676C1829.65 718.676 1828.92 719.399 1828.92 720.316C1828.92 721.233 1829.65 721.983 1830.57 721.983C1831.5 721.979 1832.25 721.237 1832.25 720.316ZM1829.83 744.308C1829.83 743.391 1829.08 742.641 1828.15 742.641C1827.23 742.641 1826.48 743.387 1826.48 744.308C1826.48 745.205 1827.23 745.952 1828.15 745.952C1829.07 745.952 1829.83 745.205 1829.83 744.308ZM1819.71 758.654C1819.71 757.737 1818.96 757.01 1818.03 757.01C1817.11 757.01 1816.36 757.734 1816.36 758.654C1816.36 759.571 1817.11 760.321 1818.03 760.321C1818.96 760.317 1819.71 759.571 1819.71 758.654ZM1808.22 719.399C1808.22 724.502 1805.9 729.048 1802.26 732.101V735.708C1802.26 736.753 1801.41 737.587 1800.38 737.587H1798.49V734.151H1795.58V737.587H1793.05V734.151H1790.15V737.587H1787.61V734.151H1784.71V737.587H1782.82C1781.77 737.587 1780.92 736.753 1780.92 735.708V732.101C1777.27 729.052 1774.96 724.502 1774.96 719.399C1774.96 697.604 1808.22 697.604 1808.22 719.399ZM1794.42 721.168C1794.92 723.111 1797.29 724.198 1799.74 723.604C1802.2 723.005 1803.79 720.933 1803.31 718.971C1803.08 718.054 1802.41 717.326 1801.52 716.879L1794.42 721.168ZM1788.76 721.168C1788.29 723.111 1785.91 724.198 1783.45 723.604C1781.01 723.005 1779.42 720.933 1779.89 718.971C1780.13 718.054 1780.79 717.326 1781.67 716.879L1788.76 721.168ZM1789.79 730.177C1789.24 730.73 1788.31 730.73 1787.73 730.177C1787.18 729.601 1787.18 728.684 1787.73 728.131L1789.21 726.657C1789.88 726.017 1790.74 725.676 1791.59 725.676C1792.45 725.676 1793.33 726.017 1793.97 726.657H1793.99L1795.44 728.131C1796.02 728.684 1796.02 729.604 1795.44 730.177C1794.89 730.73 1793.96 730.73 1793.39 730.177L1791.93 728.703C1791.84 728.616 1791.71 728.574 1791.59 728.574C1791.48 728.574 1791.35 728.62 1791.27 728.703L1789.79 730.177Z"/>
</mask>
<path fill-rule="evenodd" clip-rule="evenodd" d="M1806.25 698.718L1810.86 694.131L1817.9 701.15L1813.28 705.738C1815.23 708.598 1816.6 711.864 1817.28 715.364H1823.82V725.29H1817.28C1816.6 728.786 1815.23 732.059 1813.28 734.916L1817.9 739.507L1810.86 746.531L1806.25 741.943C1803.38 743.864 1800.1 745.251 1796.58 745.914V752.426L1786.62 752.418V745.906C1783.08 745.243 1779.83 743.86 1776.95 741.936L1772.35 746.523L1765.3 739.5L1769.9 734.908C1767.97 732.052 1766.58 728.783 1765.9 725.282H1759.38V715.364H1765.9C1766.58 711.863 1767.98 708.598 1769.9 705.737L1765.3 701.15L1772.35 694.13L1776.95 698.718C1779.83 696.797 1783.08 695.41 1786.62 694.747V688.235H1796.58V694.747C1800.1 695.406 1803.38 696.794 1806.25 698.718ZM1819.49 686.315V689.774C1819.49 690.562 1818.83 691.225 1818.04 691.225H1803.91V694.301C1802.97 693.85 1802.01 693.471 1801.02 693.127V689.774C1801.02 688.963 1801.66 688.323 1802.48 688.323H1816.58V686.315C1814.78 685.698 1813.47 684.012 1813.47 682.004C1813.47 679.485 1815.53 677.458 1818.03 677.458C1820.54 677.458 1822.6 679.489 1822.6 682.004C1822.6 684.012 1821.29 685.694 1819.49 686.315ZM1763.71 686.315V689.774C1763.71 690.562 1764.35 691.225 1765.17 691.225H1779.27V694.301C1780.21 693.85 1781.2 693.471 1782.18 693.127V689.774C1782.18 688.963 1781.51 688.323 1780.72 688.323L1766.6 688.319V686.312C1768.42 685.694 1769.73 684.008 1769.73 682C1769.73 679.481 1767.67 677.454 1765.17 677.454C1762.64 677.454 1760.6 679.485 1760.6 682C1760.6 684.012 1761.89 685.694 1763.71 686.315ZM1766.6 754.34V752.336H1780.72C1781.52 752.336 1782.18 751.673 1782.18 750.885V747.536C1781.2 747.191 1780.21 746.812 1779.27 746.361V749.434H1765.17C1764.35 749.434 1763.71 750.097 1763.71 750.885V754.34C1761.91 754.961 1760.6 756.666 1760.6 758.651C1760.6 761.17 1762.64 763.197 1765.17 763.197C1767.67 763.197 1769.73 761.17 1769.73 758.651C1769.73 756.669 1768.43 754.961 1766.6 754.34ZM1766.24 734.746H1755.05C1754.24 734.746 1753.6 735.386 1753.6 736.178V739.997C1751.77 740.596 1750.47 742.304 1750.47 744.308C1750.47 746.805 1752.52 748.854 1755.05 748.854C1757.56 748.854 1759.62 746.808 1759.62 744.308C1759.62 742.304 1758.31 740.596 1756.49 739.997V737.629H1763.32L1766.24 734.746ZM1756.66 718.206C1755.89 716.774 1754.36 715.77 1752.61 715.77C1750.1 715.77 1748.04 717.82 1748.04 720.316C1748.04 722.835 1750.1 724.862 1752.61 724.862C1754.36 724.862 1755.89 723.877 1756.66 722.449V718.206ZM1763.33 703.026H1756.49V700.659C1758.31 700.064 1759.62 698.351 1759.62 696.347C1759.62 693.851 1757.56 691.801 1755.05 691.801C1752.52 691.801 1750.47 693.847 1750.47 696.347C1750.47 698.351 1751.77 700.06 1753.6 700.659V704.477C1753.6 705.265 1754.24 705.909 1755.05 705.909H1766.24L1763.33 703.026ZM1763.49 682C1763.49 681.084 1764.24 680.337 1765.17 680.337C1766.09 680.337 1766.82 681.084 1766.82 682C1766.82 682.898 1766.07 683.645 1765.17 683.645C1764.25 683.648 1763.49 682.898 1763.49 682ZM1753.38 696.347C1753.38 695.43 1754.11 694.707 1755.05 694.707C1755.97 694.707 1756.7 695.43 1756.7 696.347C1756.7 697.264 1755.95 698.014 1755.05 698.014C1754.13 698.01 1753.38 697.264 1753.38 696.347ZM1750.96 720.316C1750.96 719.399 1751.68 718.676 1752.61 718.676C1753.53 718.676 1754.28 719.399 1754.28 720.316C1754.28 721.233 1753.53 721.983 1752.61 721.983C1751.71 721.979 1750.96 721.237 1750.96 720.316ZM1753.38 744.308C1753.38 743.391 1754.11 742.641 1755.05 742.641C1755.97 742.641 1756.7 743.387 1756.7 744.308C1756.7 745.206 1755.95 745.952 1755.05 745.952C1754.13 745.952 1753.38 745.206 1753.38 744.308ZM1763.49 758.654C1763.49 757.738 1764.24 757.01 1765.17 757.01C1766.09 757.01 1766.82 757.734 1766.82 758.654C1766.82 759.571 1766.07 760.321 1765.17 760.321C1764.25 760.317 1763.49 759.571 1763.49 758.654ZM1816.58 754.339V752.335H1802.48C1801.66 752.335 1801.02 751.672 1801.02 750.884V747.535C1802.01 747.191 1802.97 746.812 1803.92 746.361V749.434H1818.04C1818.83 749.434 1819.5 750.096 1819.5 750.884V754.339C1821.3 754.961 1822.6 756.665 1822.6 758.651C1822.6 761.17 1820.57 763.197 1818.04 763.197C1815.51 763.197 1813.47 761.17 1813.47 758.651C1813.47 756.669 1814.78 754.961 1816.58 754.339ZM1816.97 734.746H1828.15C1828.94 734.746 1829.61 735.386 1829.61 736.178V739.997C1831.41 740.595 1832.72 742.304 1832.72 744.308C1832.72 746.804 1830.68 748.854 1828.15 748.854C1825.62 748.854 1823.59 746.808 1823.59 744.308C1823.59 742.304 1824.9 740.595 1826.7 739.997V737.629H1819.86L1816.97 734.746ZM1826.54 718.206C1827.29 716.774 1828.84 715.77 1830.57 715.77C1833.1 715.77 1835.14 717.819 1835.14 720.316C1835.14 722.835 1833.1 724.862 1830.57 724.862C1828.81 724.862 1827.29 723.877 1826.54 722.449V718.206ZM1819.86 703.026H1826.7V700.658C1824.9 700.064 1823.59 698.351 1823.59 696.347C1823.59 693.851 1825.65 691.801 1828.15 691.801C1830.68 691.801 1832.72 693.847 1832.72 696.347C1832.72 698.351 1831.41 700.06 1829.61 700.658V704.477C1829.61 705.265 1828.94 705.909 1828.15 705.909L1816.97 705.913L1819.86 703.026ZM1819.71 682C1819.71 681.084 1818.96 680.337 1818.03 680.337C1817.11 680.337 1816.36 681.084 1816.36 682C1816.36 682.898 1817.11 683.644 1818.03 683.644C1818.96 683.644 1819.71 682.898 1819.71 682ZM1829.83 696.347C1829.83 695.43 1829.08 694.707 1828.15 694.707C1827.23 694.707 1826.48 695.43 1826.48 696.347C1826.48 697.264 1827.23 698.014 1828.15 698.014C1829.07 698.01 1829.83 697.264 1829.83 696.347ZM1832.25 720.316C1832.25 719.399 1831.5 718.676 1830.57 718.676C1829.65 718.676 1828.92 719.399 1828.92 720.316C1828.92 721.233 1829.65 721.983 1830.57 721.983C1831.5 721.979 1832.25 721.237 1832.25 720.316ZM1829.83 744.308C1829.83 743.391 1829.08 742.641 1828.15 742.641C1827.23 742.641 1826.48 743.387 1826.48 744.308C1826.48 745.205 1827.23 745.952 1828.15 745.952C1829.07 745.952 1829.83 745.205 1829.83 744.308ZM1819.71 758.654C1819.71 757.737 1818.96 757.01 1818.03 757.01C1817.11 757.01 1816.36 757.734 1816.36 758.654C1816.36 759.571 1817.11 760.321 1818.03 760.321C1818.96 760.317 1819.71 759.571 1819.71 758.654ZM1808.22 719.399C1808.22 724.502 1805.9 729.048 1802.26 732.101V735.708C1802.26 736.753 1801.41 737.587 1800.38 737.587H1798.49V734.151H1795.58V737.587H1793.05V734.151H1790.15V737.587H1787.61V734.151H1784.71V737.587H1782.82C1781.77 737.587 1780.92 736.753 1780.92 735.708V732.101C1777.27 729.052 1774.96 724.502 1774.96 719.399C1774.96 697.604 1808.22 697.604 1808.22 719.399ZM1794.42 721.168C1794.92 723.111 1797.29 724.198 1799.74 723.604C1802.2 723.005 1803.79 720.933 1803.31 718.971C1803.08 718.054 1802.41 717.326 1801.52 716.879L1794.42 721.168ZM1788.76 721.168C1788.29 723.111 1785.91 724.198 1783.45 723.604C1781.01 723.005 1779.42 720.933 1779.89 718.971C1780.13 718.054 1780.79 717.326 1781.67 716.879L1788.76 721.168ZM1789.79 730.177C1789.24 730.73 1788.31 730.73 1787.73 730.177C1787.18 729.601 1787.18 728.684 1787.73 728.131L1789.21 726.657C1789.88 726.017 1790.74 725.676 1791.59 725.676C1792.45 725.676 1793.33 726.017 1793.97 726.657H1793.99L1795.44 728.131C1796.02 728.684 1796.02 729.604 1795.44 730.177C1794.89 730.73 1793.96 730.73 1793.39 730.177L1791.93 728.703C1791.84 728.616 1791.71 728.574 1791.59 728.574C1791.48 728.574 1791.35 728.62 1791.27 728.703L1789.79 730.177Z" fill="black" stroke="black" stroke-width="2" mask="url(#path-17-inside-1_182_60)"/>
<path d="M1740.91 936.158C1741.09 936.184 1741.24 936.267 1741.34 936.381C1741.43 936.487 1741.49 936.644 1741.46 936.885L1740.7 942.144L1740.66 942.43L1740.89 942.609L1744.2 945.223L1744.77 945.674L1744.99 944.978L1745.21 944.266C1746.99 946.457 1749.37 948.118 1752.16 948.597V963.097C1750.58 962.684 1749.11 961.683 1747.88 960.223L1747.65 959.956L1747.32 960.077L1742.22 961.961L1741.74 962.141L1741.94 962.621L1743.76 967.056C1743.85 967.279 1743.83 967.449 1743.77 967.574C1743.7 967.71 1743.57 967.829 1743.41 967.899C1743.24 967.969 1743.07 967.976 1742.93 967.929C1742.8 967.886 1742.67 967.787 1742.58 967.563L1740.28 961.987C1740.16 961.64 1740.34 961.264 1740.67 961.141L1746.31 959.056L1746.86 958.851L1746.57 958.339C1745.8 957 1745.23 955.482 1744.86 953.857L1744.78 953.466H1736.37C1736.13 953.466 1735.99 953.381 1735.9 953.277C1735.8 953.163 1735.74 952.994 1735.74 952.807C1735.74 952.62 1735.8 952.452 1735.9 952.337C1735.99 952.233 1736.13 952.148 1736.37 952.148L1744.01 952.149H1744.56L1744.5 951.6C1744.37 950.227 1744.38 948.819 1744.54 947.452L1744.57 947.174L1744.35 947.002L1739.58 943.24L1739.51 943.176C1739.36 943.02 1739.3 942.799 1739.34 942.586L1739.34 942.575L1739.34 942.563L1740.19 936.703V936.702C1740.22 936.457 1740.33 936.324 1740.44 936.25C1740.57 936.168 1740.74 936.132 1740.91 936.158ZM1766.7 936.157C1766.88 936.131 1767.05 936.166 1767.17 936.248C1767.28 936.322 1767.39 936.454 1767.42 936.697L1768.27 942.574L1768.27 942.583L1768.27 942.593C1768.32 942.831 1768.23 943.082 1768.04 943.237L1763.26 947L1763.04 947.171L1763.08 947.449C1763.23 948.815 1763.24 950.22 1763.11 951.597L1763.06 952.146H1771.25C1771.48 952.146 1771.63 952.231 1771.72 952.335C1771.82 952.45 1771.88 952.619 1771.88 952.805C1771.88 952.992 1771.82 953.161 1771.72 953.275C1771.63 953.379 1771.48 953.465 1771.25 953.465H1762.84L1762.75 953.856C1762.33 955.74 1761.96 956.456 1761.21 958.041C1761.14 958.162 1761.08 958.277 1761.02 958.388L1760.71 958.908L1761.28 959.112L1766.94 961.141C1767.27 961.264 1767.45 961.64 1767.33 961.986L1765.03 967.562C1764.94 967.786 1764.81 967.885 1764.68 967.928C1764.54 967.975 1764.37 967.969 1764.21 967.899C1764.04 967.829 1763.91 967.709 1763.84 967.573C1763.78 967.447 1763.76 967.278 1763.85 967.054L1763.85 967.053L1765.67 962.62L1765.88 962.134L1765.38 961.958L1760.24 960.128L1759.91 960.013L1759.69 960.275C1758.47 961.707 1757.01 962.689 1755.45 963.097V948.597C1758.24 948.118 1760.62 946.458 1762.4 944.268L1762.62 944.978L1762.84 945.674L1763.41 945.223L1766.73 942.609L1766.95 942.43L1766.91 942.145L1766.15 936.889C1766.12 936.646 1766.18 936.487 1766.27 936.381C1766.37 936.266 1766.52 936.183 1766.7 936.157ZM1761.17 931.294C1761.32 931.323 1761.46 931.416 1761.58 931.562C1761.69 931.708 1761.74 931.879 1761.73 932.032C1761.72 932.154 1761.67 932.289 1761.54 932.418L1761.47 932.474C1760.02 933.61 1758.91 935.37 1758.16 937.146L1758.01 937.495L1758.3 937.731C1759.31 938.537 1760.17 939.572 1760.87 940.733C1758.96 943.906 1756.35 945.419 1753.8 945.418C1751.26 945.418 1748.65 943.905 1746.74 940.733C1747.44 939.571 1748.3 938.537 1749.31 937.731L1749.6 937.495L1749.46 937.146C1748.71 935.37 1747.59 933.607 1746.14 932.473C1745.95 932.328 1745.89 932.172 1745.88 932.032C1745.87 931.879 1745.92 931.708 1746.04 931.562C1746.15 931.416 1746.29 931.323 1746.44 931.294C1746.57 931.269 1746.73 931.287 1746.92 931.433C1748.98 933.048 1750.48 935.756 1751.28 938.428L1751.55 939.333L1752.15 938.598C1752.51 938.154 1752.53 937.598 1752.49 937.131C1752.46 936.832 1752.39 936.513 1752.33 936.217C1753.31 935.987 1754.31 935.988 1755.29 936.218C1755.22 936.514 1755.15 936.833 1755.12 937.132C1755.08 937.598 1755.11 938.155 1755.46 938.598L1756.06 939.333L1756.33 938.428C1757.14 935.758 1758.63 933.048 1760.7 931.433C1760.88 931.288 1761.04 931.269 1761.17 931.294Z" fill="black" stroke="black"/>
<path d="M73.0951 280.144C78.3135 280.314 83.3963 281.804 87.8434 284.465V215.717H65.6321V281.613C67.997 280.653 70.5326 280.154 73.0951 280.144Z" fill="white" fill-opacity="0.6"/>
<path d="M65.6321 332.687V418.805H87.8434V347.94C80.3643 344.593 73.5049 340.067 67.5423 334.545C67.5423 334.545 66.565 333.681 65.6321 332.687Z" fill="white" fill-opacity="0.6"/>
<path d="M77.1375 334.07C86.5998 341.629 98.3133 346.023 110.543 346.601C117.835 346.568 124.978 344.595 131.2 340.898C131.602 330.54 134.412 320.405 139.418 311.255C139.869 310.549 140.585 310.041 141.414 309.839C142.243 309.637 143.121 309.758 143.86 310.175C144.57 310.628 145.078 311.324 145.284 312.124C145.49 312.925 145.378 313.772 144.971 314.496C144.971 314.755 129.068 340.725 144.305 378.706H253.362C268.599 340.725 252.874 314.755 252.696 314.496C252.289 313.772 252.177 312.925 252.383 312.124C252.589 311.324 253.097 310.628 253.806 310.175C254.546 309.758 255.423 309.637 256.253 309.839C257.082 310.041 257.798 310.549 258.249 311.255C264.248 322.311 267.129 334.715 266.6 347.206L289.478 336.836C288.101 310.348 282.237 291.638 274.729 278.372C273.708 280.49 272.597 282.693 271.309 284.811C270.733 285.808 269.894 286.637 268.879 287.214C267.864 287.792 266.71 288.095 265.534 288.095C265.063 288.161 264.584 288.161 264.112 288.095C262.982 287.869 261.937 287.346 261.092 286.582C255.983 305.206 241.146 328.41 201.432 344.83C200.603 345.172 199.712 345.348 198.811 345.348C197.911 345.348 197.019 345.172 196.19 344.83C156.565 328.41 141.728 305.206 136.708 286.582C135.877 287.301 134.866 287.792 133.776 288.008C133.305 288.074 132.826 288.074 132.355 288.008C131.179 288.009 130.024 287.705 129.009 287.128C127.994 286.551 127.156 285.721 126.58 284.724C124.593 281.402 122.842 277.951 121.338 274.397C114.788 283.66 109.502 293.711 105.612 304.298L96.7278 298.681L77.9371 333.249C77.6955 333.545 77.4279 333.82 77.1375 334.07Z" fill="white" fill-opacity="0.6"/>
<path d="M260.47 378.663C273.486 377.928 282.682 374.342 287.524 367.428C289.703 363.852 291.124 359.888 291.704 355.769C292.284 351.65 292.01 347.461 290.9 343.446L266.334 354.551C265.414 362.794 263.444 370.893 260.47 378.663Z" fill="white" fill-opacity="0.6"/>
<path d="M181.353 425.762H185.795H186.062C186.868 425.782 187.67 425.869 188.461 426.021C190.415 414.744 192.903 398.28 195.169 385.404H146.304L150.968 412.324C161.603 415.004 171.706 419.385 180.865 425.287C180.909 425.394 180.975 425.491 181.059 425.573C181.143 425.654 181.243 425.719 181.353 425.762Z" fill="white" fill-opacity="0.6"/>
<path d="M142.173 257.372C142.173 257.372 126.713 309.008 198.9 338.866C271.087 309.008 255.628 257.372 255.628 257.372C263.891 262.341 265.534 281.699 265.534 281.699C286.724 245.532 271.443 218.223 261.803 206.211C260.15 221.317 252.81 235.294 241.197 245.452C229.584 255.609 214.518 261.229 198.9 261.229C183.283 261.229 168.217 255.609 156.604 245.452C144.991 235.294 137.651 221.317 135.998 206.211C126.358 218.223 111.077 245.532 132.266 281.699C132.266 281.699 133.91 262.341 142.173 257.372Z" fill="white" fill-opacity="0.6"/>
<path d="M185.929 432.157H181.487C180.036 432.17 178.613 431.764 177.4 430.99C171.891 427.447 155.188 417.595 140.929 417.595C137.668 417.417 134.412 418.026 131.451 419.368C128.491 420.71 125.917 422.743 123.959 425.287C114.675 437.429 124.715 444.04 128.979 446.157C130.006 446.633 131.129 446.884 132.266 446.892H185.929C186.972 446.97 188.021 446.837 189.009 446.502C189.997 446.167 190.904 445.637 191.672 444.945C192.439 444.253 193.052 443.415 193.471 442.482C193.889 441.549 194.106 440.542 194.106 439.524C194.106 438.506 193.889 437.5 193.471 436.567C193.052 435.634 192.439 434.795 191.672 434.104C190.904 433.412 189.997 432.882 189.009 432.547C188.021 432.212 186.972 432.079 185.929 432.157Z" fill="white" fill-opacity="0.6"/>
<path d="M241.99 235.162C249.489 226.632 254.138 216.081 255.317 204.915L254.473 204.483C235.904 189.964 217.202 182.619 198.945 182.619C180.687 182.619 161.985 189.964 143.416 204.483L142.572 204.915C143.751 216.081 148.4 226.632 155.899 235.162C156.965 234.082 170.914 220.255 198.989 220.255C227.064 220.255 240.924 234.168 241.99 235.162Z" fill="white" fill-opacity="0.6"/>
<path d="M160.608 239.699C171.052 249.17 184.799 254.436 199.078 254.436C213.356 254.436 227.104 249.17 237.548 239.699C237.548 239.699 224.754 226.736 199.256 226.736C173.757 226.736 160.741 239.483 160.608 239.699Z" fill="white" fill-opacity="0.6"/>
<path d="M198.9 176.223C218.802 176.223 238.703 183.987 258.604 199.513C258.604 199.513 263.713 103.673 198.9 58C134.088 103.673 139.196 199.513 139.196 199.513C159.098 183.958 178.999 176.194 198.9 176.223Z" fill="white" fill-opacity="0.6"/>
<path d="M211.872 425.676H212.227H216.669C216.815 425.715 216.968 425.715 217.114 425.676C226.272 419.774 236.375 415.393 247.01 412.713L251.852 385.534H202.987C205.031 398.497 207.696 414.873 209.651 426.151C210.377 425.935 211.12 425.776 211.872 425.676Z" fill="white" fill-opacity="0.6"/>
<path d="M216.669 432.244H212.227C211.184 432.166 210.135 432.299 209.147 432.634C208.159 432.969 207.252 433.499 206.485 434.19C205.717 434.882 205.104 435.721 204.685 436.653C204.267 437.586 204.05 438.593 204.05 439.611C204.05 440.629 204.267 441.636 204.685 442.569C205.104 443.502 205.717 444.34 206.485 445.032C207.252 445.724 208.159 446.254 209.147 446.589C210.135 446.923 211.184 447.056 212.227 446.978H265.534C266.687 446.977 267.825 446.726 268.866 446.244C273.308 444.127 283.17 437.602 273.886 425.373C271.936 422.871 269.386 420.87 266.46 419.545C263.533 418.219 260.318 417.609 257.094 417.768C242.79 417.768 225.998 427.62 220.623 431.164C219.438 431.883 218.066 432.257 216.669 432.244Z" fill="white" fill-opacity="0.6"/>
<path d="M91.1753 294.879C91.1753 294.879 82.0687 286.625 73.0953 286.625C70.7991 286.636 68.5481 287.247 66.5785 288.395C64.6088 289.543 62.9931 291.186 61.9008 293.15C51.1949 309.613 72.0736 329.879 72.0736 329.879L91.1753 294.879Z" fill="white" fill-opacity="0.6"/>
<path d="M120.494 187.89C118.318 161.575 109.611 119.704 76.7824 114.433C43.954 119.661 35.2472 161.532 33.0705 187.89C32.8377 190.598 33.1831 193.323 34.0851 195.895C34.9871 198.466 36.4262 200.829 38.3118 202.833C40.1975 204.838 42.4891 206.442 45.0426 207.543C47.596 208.645 50.3561 209.221 53.1495 209.236H100.326C103.127 209.233 105.897 208.666 108.461 207.569C111.025 206.473 113.328 204.871 115.223 202.865C117.118 200.859 118.565 198.493 119.472 195.915C120.38 193.338 120.728 190.605 120.494 187.89Z" fill="white" fill-opacity="0.6"/>
<path d="M46.4419 446.892H65.6325H87.8438H103.214V425.287H46.4419V446.892Z" fill="white" fill-opacity="0.6"/>
</svg>
