<svg width="1920" height="1080" viewBox="0 0 1920 1080" fill="none" xmlns="http://www.w3.org/2000/svg">
<rect width="1920" height="1080" fill="black"/>
<path d="M1618.76 834.383C1625.11 834.599 1631.29 836.488 1636.7 839.863V752.674H1609.69V836.246C1612.56 835.029 1615.65 834.396 1618.76 834.383Z" fill="white" fill-opacity="0.7"/>
<path d="M1609.69 901.022V1010.24H1636.7V920.367C1627.61 916.122 1619.26 910.382 1612.01 903.379C1612.01 903.379 1610.82 902.283 1609.69 901.022Z" fill="white" fill-opacity="0.7"/>
<path d="M1623.68 902.776C1635.19 912.363 1649.44 917.935 1664.31 918.668C1673.18 918.626 1681.87 916.124 1689.43 911.434C1689.92 898.298 1693.34 885.445 1699.43 873.84C1699.98 872.944 1700.85 872.3 1701.86 872.044C1702.86 871.789 1703.93 871.941 1704.83 872.47C1705.69 873.045 1706.31 873.927 1706.56 874.943C1706.81 875.958 1706.68 877.032 1706.18 877.951C1706.18 878.279 1686.84 911.215 1705.37 959.386H1838.01C1856.54 911.215 1837.41 878.279 1837.2 877.951C1836.7 877.032 1836.57 875.958 1836.82 874.943C1837.07 873.927 1837.69 873.045 1838.55 872.47C1839.45 871.941 1840.52 871.789 1841.52 872.044C1842.53 872.3 1843.4 872.944 1843.95 873.84C1851.25 887.862 1854.75 903.594 1854.11 919.435L1881.93 906.283C1880.26 872.69 1873.13 848.96 1864 832.136C1862.75 834.822 1861.4 837.616 1859.84 840.302C1859.13 841.566 1858.11 842.618 1856.88 843.35C1855.65 844.082 1854.24 844.468 1852.81 844.467C1852.24 844.551 1851.66 844.551 1851.08 844.467C1849.71 844.18 1848.44 843.517 1847.41 842.549C1841.2 866.168 1823.15 895.597 1774.85 916.421C1773.84 916.855 1772.76 917.079 1771.66 917.079C1770.57 917.079 1769.48 916.855 1768.47 916.421C1720.28 895.597 1702.24 866.168 1696.13 842.549C1695.12 843.46 1693.89 844.083 1692.57 844.357C1691.99 844.441 1691.41 844.441 1690.84 844.357C1689.41 844.358 1688 843.973 1686.77 843.241C1685.53 842.509 1684.51 841.456 1683.81 840.192C1681.4 835.978 1679.27 831.602 1677.44 827.094C1669.47 838.843 1663.04 851.59 1658.31 865.017L1647.51 857.893L1624.65 901.734C1624.36 902.109 1624.03 902.458 1623.68 902.776Z" fill="white" fill-opacity="0.7"/>
<path d="M1846.65 959.331C1862.48 958.4 1873.67 953.851 1879.56 945.083C1882.21 940.548 1883.93 935.52 1884.64 930.297C1885.35 925.073 1885.01 919.759 1883.66 914.668L1853.78 928.752C1852.67 939.205 1850.27 949.477 1846.65 959.331Z" fill="white" fill-opacity="0.7"/>
<path d="M1750.43 1019.07H1755.83H1756.16C1757.14 1019.09 1758.11 1019.2 1759.07 1019.39C1761.45 1005.09 1764.48 984.212 1767.23 967.881H1707.8L1713.47 1002.02C1726.41 1005.42 1738.7 1010.98 1749.84 1018.46C1749.89 1018.6 1749.97 1018.72 1750.07 1018.83C1750.17 1018.93 1750.3 1019.01 1750.43 1019.07Z" fill="white" fill-opacity="0.7"/>
<path d="M1702.78 805.503C1702.78 805.503 1683.98 870.991 1771.77 908.859C1859.57 870.991 1840.76 805.503 1840.76 805.503C1850.81 811.805 1852.81 836.356 1852.81 836.356C1878.58 790.487 1860 755.853 1848.27 740.618C1846.26 759.776 1837.34 777.503 1823.21 790.385C1809.09 803.268 1790.77 810.395 1771.77 810.395C1752.78 810.395 1734.45 803.268 1720.33 790.385C1706.2 777.503 1697.28 759.776 1695.27 740.618C1683.54 755.853 1664.96 790.487 1690.73 836.356C1690.73 836.356 1692.73 811.805 1702.78 805.503Z" fill="white" fill-opacity="0.7"/>
<path d="M1755.99 1027.18H1750.59C1748.83 1027.19 1747.1 1026.68 1745.62 1025.7C1738.92 1021.2 1718.61 1008.71 1701.26 1008.71C1697.3 1008.48 1693.34 1009.25 1689.74 1010.96C1686.14 1012.66 1683.01 1015.24 1680.63 1018.46C1669.33 1033.86 1681.54 1042.25 1686.73 1044.93C1687.98 1045.54 1689.35 1045.85 1690.73 1045.86H1755.99C1757.26 1045.96 1758.54 1045.79 1759.74 1045.37C1760.94 1044.94 1762.05 1044.27 1762.98 1043.39C1763.91 1042.52 1764.66 1041.45 1765.17 1040.27C1765.68 1039.09 1765.94 1037.81 1765.94 1036.52C1765.94 1035.23 1765.68 1033.95 1765.17 1032.77C1764.66 1031.59 1763.91 1030.52 1762.98 1029.64C1762.05 1028.77 1760.94 1028.1 1759.74 1027.67C1758.54 1027.25 1757.26 1027.08 1755.99 1027.18Z" fill="white" fill-opacity="0.7"/>
<path d="M1824.18 777.335C1833.3 766.516 1838.95 753.134 1840.39 738.974L1839.36 738.426C1816.78 720.012 1794.03 710.696 1771.82 710.696C1749.62 710.696 1726.87 720.012 1704.29 738.426L1703.26 738.974C1704.7 753.134 1710.35 766.516 1719.47 777.335C1720.77 775.965 1737.73 758.428 1771.88 758.428C1806.02 758.428 1822.88 776.074 1824.18 777.335Z" fill="white" fill-opacity="0.7"/>
<path d="M1725.2 783.089C1737.9 795.1 1754.62 801.779 1771.99 801.779C1789.35 801.779 1806.07 795.1 1818.77 783.089C1818.77 783.089 1803.21 766.648 1772.2 766.648C1741.19 766.648 1725.36 782.815 1725.2 783.089Z" fill="white" fill-opacity="0.7"/>
<path d="M1771.77 702.585C1795.98 702.585 1820.18 712.431 1844.38 732.123C1844.38 732.123 1850.6 610.573 1771.77 552.647C1692.94 610.573 1699.16 732.123 1699.16 732.123C1723.36 712.394 1747.57 702.548 1771.77 702.585Z" fill="white" fill-opacity="0.7"/>
<path d="M1787.55 1018.96H1787.98H1793.38C1793.56 1019 1793.75 1019 1793.92 1018.96C1805.06 1011.47 1817.35 1005.91 1830.28 1002.52L1836.17 968.045H1776.74C1779.23 984.486 1782.47 1005.26 1784.85 1019.56C1785.73 1019.28 1786.63 1019.08 1787.55 1018.96Z" fill="white" fill-opacity="0.7"/>
<path d="M1793.38 1027.29H1787.98C1786.71 1027.19 1785.43 1027.35 1784.23 1027.78C1783.03 1028.2 1781.93 1028.88 1780.99 1029.75C1780.06 1030.63 1779.32 1031.69 1778.81 1032.88C1778.3 1034.06 1778.03 1035.34 1778.03 1036.63C1778.03 1037.92 1778.3 1039.2 1778.81 1040.38C1779.32 1041.56 1780.06 1042.63 1780.99 1043.5C1781.93 1044.38 1783.03 1045.05 1784.23 1045.48C1785.43 1045.9 1786.71 1046.07 1787.98 1045.97H1852.81C1854.21 1045.97 1855.6 1045.65 1856.86 1045.04C1862.27 1042.36 1874.26 1034.08 1862.97 1018.57C1860.6 1015.4 1857.5 1012.86 1853.94 1011.18C1850.38 1009.5 1846.47 1008.72 1842.55 1008.93C1825.15 1008.93 1804.73 1021.42 1798.19 1025.92C1796.75 1026.83 1795.08 1027.3 1793.38 1027.29Z" fill="white" fill-opacity="0.7"/>
<path d="M1640.75 853.071C1640.75 853.071 1629.68 842.604 1618.76 842.604C1615.97 842.617 1613.23 843.392 1610.84 844.848C1608.44 846.304 1606.48 848.387 1605.15 850.879C1592.13 871.758 1617.52 897.46 1617.52 897.46L1640.75 853.071Z" fill="white" fill-opacity="0.7"/>
<path d="M1676.41 717.381C1673.76 684.007 1663.18 630.904 1623.25 624.218C1583.32 630.849 1572.73 683.952 1570.09 717.381C1569.8 720.815 1570.22 724.272 1571.32 727.533C1572.42 730.795 1574.17 733.791 1576.46 736.333C1578.75 738.876 1581.54 740.91 1584.65 742.307C1587.75 743.704 1591.11 744.435 1594.51 744.453H1651.88C1655.29 744.45 1658.66 743.731 1661.78 742.34C1664.9 740.949 1667.7 738.918 1670 736.373C1672.31 733.829 1674.07 730.828 1675.17 727.559C1676.27 724.29 1676.7 720.825 1676.41 717.381Z" fill="white" fill-opacity="0.7"/>
<path d="M1586.35 1045.86H1609.69H1636.7H1655.4V1018.46H1586.35V1045.86Z" fill="white" fill-opacity="0.7"/>
<mask id="path-17-inside-1_182_60" fill="white">
<path fill-rule="evenodd" clip-rule="evenodd" d="M1789.54 625.036L1795.13 619.475L1803.67 627.984L1798.06 633.545C1800.42 637.012 1802.08 640.971 1802.92 645.214H1810.84V657.245H1802.92C1802.09 661.484 1800.42 665.451 1798.06 668.914L1803.67 674.479L1795.13 682.993L1789.54 677.432C1786.06 679.76 1782.09 681.441 1777.83 682.245V690.138L1765.75 690.129V682.235C1761.46 681.432 1757.51 679.756 1754.03 677.423L1748.45 682.984L1739.9 674.47L1745.48 668.904C1743.14 665.442 1741.46 661.479 1740.63 657.236H1732.73V645.213H1740.63C1741.46 640.97 1743.15 637.011 1745.48 633.544L1739.9 627.983L1748.45 619.474L1754.03 625.035C1757.51 622.707 1761.46 621.026 1765.75 620.222V612.329H1777.83V620.222C1782.09 621.021 1786.06 622.703 1789.54 625.036ZM1805.6 610.001V614.194C1805.6 615.149 1804.79 615.953 1803.83 615.953H1786.71V619.682C1785.57 619.135 1784.4 618.676 1783.2 618.258V614.194C1783.2 613.211 1783.98 612.435 1784.97 612.435H1802.06V610.002C1799.88 609.253 1798.29 607.209 1798.29 604.776C1798.29 601.722 1800.79 599.265 1803.83 599.265C1806.86 599.265 1809.36 601.727 1809.36 604.776C1809.36 607.209 1807.78 609.248 1805.6 610.001ZM1737.98 610.001V614.194C1737.98 615.149 1738.76 615.953 1739.74 615.953H1756.83V619.682C1757.98 619.135 1759.17 618.676 1760.37 618.258V614.194C1760.37 613.211 1759.56 612.435 1758.6 612.435L1741.48 612.431V609.997C1743.69 609.248 1745.27 607.205 1745.27 604.771C1745.27 601.717 1742.78 599.26 1739.74 599.26C1736.68 599.26 1734.21 601.722 1734.21 604.771C1734.21 607.209 1735.77 609.248 1737.98 610.001ZM1741.48 692.458V690.029H1758.6C1759.56 690.029 1760.37 689.226 1760.37 688.27V684.211C1759.17 683.793 1757.98 683.334 1756.83 682.787V686.512H1739.74C1738.76 686.512 1737.98 687.315 1737.98 688.27V692.459C1735.8 693.212 1734.21 695.278 1734.21 697.684C1734.21 700.738 1736.68 703.195 1739.74 703.195C1742.78 703.195 1745.28 700.738 1745.28 697.684C1745.28 695.283 1743.69 693.211 1741.48 692.458ZM1741.04 668.708H1727.48C1726.5 668.708 1725.72 669.484 1725.72 670.444V675.073C1723.51 675.798 1721.92 677.869 1721.92 680.299C1721.92 683.325 1724.42 685.809 1727.48 685.809C1730.52 685.809 1733.02 683.329 1733.02 680.299C1733.02 677.869 1731.43 675.798 1729.22 675.073V672.203H1737.51L1741.04 668.708ZM1729.43 648.658C1728.49 646.922 1726.65 645.706 1724.52 645.706C1721.48 645.706 1718.99 648.19 1718.99 651.216C1718.99 654.27 1721.48 656.727 1724.52 656.727C1726.65 656.727 1728.49 655.533 1729.43 653.801V648.658ZM1737.51 630.258H1729.22V627.388C1731.43 626.667 1733.02 624.591 1733.02 622.162C1733.02 619.136 1730.52 616.651 1727.48 616.651C1724.42 616.651 1721.92 619.131 1721.92 622.162C1721.92 624.591 1723.51 626.662 1725.72 627.388V632.017C1725.72 632.972 1726.5 633.753 1727.48 633.753H1741.04L1737.51 630.258ZM1737.71 604.771C1737.71 603.66 1738.62 602.755 1739.74 602.755C1740.86 602.755 1741.74 603.66 1741.74 604.771C1741.74 605.86 1740.84 606.764 1739.74 606.764C1738.63 606.769 1737.71 605.86 1737.71 604.771ZM1725.45 622.162C1725.45 621.05 1726.34 620.173 1727.48 620.173C1728.6 620.173 1729.48 621.05 1729.48 622.162C1729.48 623.273 1728.58 624.182 1727.48 624.182C1726.36 624.178 1725.45 623.273 1725.45 622.162ZM1722.52 651.216C1722.52 650.105 1723.4 649.228 1724.52 649.228C1725.63 649.228 1726.55 650.105 1726.55 651.216C1726.55 652.328 1725.64 653.237 1724.52 653.237C1723.43 653.232 1722.52 652.332 1722.52 651.216ZM1725.45 680.298C1725.45 679.187 1726.34 678.277 1727.48 678.277C1728.6 678.277 1729.48 679.182 1729.48 680.298C1729.48 681.386 1728.58 682.291 1727.48 682.291C1726.36 682.291 1725.45 681.386 1725.45 680.298ZM1737.71 697.689C1737.71 696.577 1738.62 695.696 1739.74 695.696C1740.86 695.696 1741.74 696.573 1741.74 697.689C1741.74 698.8 1740.84 699.709 1739.74 699.709C1738.63 699.705 1737.71 698.8 1737.71 697.689ZM1802.06 692.458V690.029H1784.97C1783.98 690.029 1783.2 689.225 1783.2 688.27V684.211C1784.4 683.793 1785.57 683.334 1786.71 682.787V686.511H1803.83C1804.79 686.511 1805.6 687.315 1805.6 688.27V692.458C1807.78 693.211 1809.36 695.278 1809.36 697.684C1809.36 700.738 1806.9 703.195 1803.83 703.195C1800.77 703.195 1798.3 700.738 1798.3 697.684C1798.3 695.282 1799.88 693.211 1802.06 692.458ZM1802.53 668.708H1816.09C1817.05 668.708 1817.86 669.484 1817.86 670.444V675.072C1820.04 675.798 1821.62 677.869 1821.62 680.298C1821.62 683.325 1819.16 685.809 1816.09 685.809C1813.02 685.809 1810.56 683.329 1810.56 680.298C1810.56 677.869 1812.14 675.798 1814.33 675.072V672.202H1806.04L1802.53 668.708ZM1814.14 648.658C1815.05 646.922 1816.92 645.705 1819.02 645.705C1822.09 645.705 1824.56 648.19 1824.56 651.216C1824.56 654.27 1822.09 656.726 1819.02 656.726C1816.89 656.726 1815.05 655.533 1814.14 653.801V648.658ZM1806.04 630.258H1814.33V627.388C1812.14 626.667 1810.56 624.591 1810.56 622.162C1810.56 619.136 1813.05 616.651 1816.09 616.651C1819.16 616.651 1821.62 619.131 1821.62 622.162C1821.62 624.591 1820.04 626.662 1817.86 627.388V632.017C1817.86 632.972 1817.05 633.752 1816.09 633.752L1802.53 633.757L1806.04 630.258ZM1805.86 604.771C1805.86 603.66 1804.95 602.755 1803.83 602.755C1802.71 602.755 1801.8 603.66 1801.8 604.771C1801.8 605.859 1802.71 606.764 1803.83 606.764C1804.95 606.764 1805.86 605.859 1805.86 604.771ZM1818.12 622.161C1818.12 621.05 1817.21 620.173 1816.09 620.173C1814.98 620.173 1814.06 621.05 1814.06 622.161C1814.06 623.273 1814.97 624.182 1816.09 624.182C1817.21 624.177 1818.12 623.273 1818.12 622.161ZM1821.05 651.216C1821.05 650.105 1820.14 649.228 1819.02 649.228C1817.91 649.228 1817.02 650.105 1817.02 651.216C1817.02 652.327 1817.9 653.237 1819.02 653.237C1820.14 653.232 1821.05 652.332 1821.05 651.216ZM1818.12 680.298C1818.12 679.187 1817.21 678.277 1816.09 678.277C1814.98 678.277 1814.06 679.182 1814.06 680.298C1814.06 681.386 1814.97 682.291 1816.09 682.291C1817.21 682.291 1818.12 681.386 1818.12 680.298ZM1805.86 697.688C1805.86 696.577 1804.95 695.695 1803.83 695.695C1802.71 695.695 1801.8 696.572 1801.8 697.688C1801.8 698.8 1802.71 699.709 1803.83 699.709C1804.95 699.704 1805.86 698.8 1805.86 697.688ZM1791.93 650.104C1791.93 656.29 1789.12 661.8 1784.71 665.502V669.874C1784.71 671.141 1783.67 672.151 1782.42 672.151H1780.14V667.986H1776.61V672.151H1773.54V667.986H1770.03V672.151H1766.94V667.986H1763.43V672.151H1761.15C1759.87 672.151 1758.84 671.141 1758.84 669.874V665.502C1754.42 661.805 1751.62 656.29 1751.62 650.104C1751.62 623.685 1791.93 623.685 1791.93 650.104ZM1775.2 652.249C1775.8 654.604 1778.68 655.922 1781.64 655.201C1784.63 654.476 1786.55 651.964 1785.98 649.585C1785.7 648.474 1784.89 647.592 1783.8 647.05L1775.2 652.249ZM1768.34 652.249C1767.77 654.604 1764.88 655.922 1761.9 655.201C1758.94 654.476 1757.02 651.964 1757.59 649.585C1757.88 648.474 1758.68 647.592 1759.75 647.05L1768.34 652.249ZM1769.59 663.169C1768.92 663.839 1767.8 663.839 1767.1 663.169C1766.42 662.471 1766.42 661.359 1767.1 660.689L1768.89 658.903C1769.7 658.127 1770.74 657.713 1771.77 657.713C1772.82 657.713 1773.88 658.127 1774.65 658.903H1774.68L1776.44 660.689C1777.14 661.359 1777.14 662.475 1776.44 663.169C1775.77 663.839 1774.65 663.839 1773.95 663.169L1772.18 661.382C1772.08 661.277 1771.92 661.226 1771.77 661.226C1771.64 661.226 1771.48 661.281 1771.38 661.382L1769.59 663.169Z"/>
</mask>
<path fill-rule="evenodd" clip-rule="evenodd" d="M1789.54 625.036L1795.13 619.475L1803.67 627.984L1798.06 633.545C1800.42 637.012 1802.08 640.971 1802.92 645.214H1810.84V657.245H1802.92C1802.09 661.484 1800.42 665.451 1798.06 668.914L1803.67 674.479L1795.13 682.993L1789.54 677.432C1786.06 679.76 1782.09 681.441 1777.83 682.245V690.138L1765.75 690.129V682.235C1761.46 681.432 1757.51 679.756 1754.03 677.423L1748.45 682.984L1739.9 674.47L1745.48 668.904C1743.14 665.442 1741.46 661.479 1740.63 657.236H1732.73V645.213H1740.63C1741.46 640.97 1743.15 637.011 1745.48 633.544L1739.9 627.983L1748.45 619.474L1754.03 625.035C1757.51 622.707 1761.46 621.026 1765.75 620.222V612.329H1777.83V620.222C1782.09 621.021 1786.06 622.703 1789.54 625.036ZM1805.6 610.001V614.194C1805.6 615.149 1804.79 615.953 1803.83 615.953H1786.71V619.682C1785.57 619.135 1784.4 618.676 1783.2 618.258V614.194C1783.2 613.211 1783.98 612.435 1784.97 612.435H1802.06V610.002C1799.88 609.253 1798.29 607.209 1798.29 604.776C1798.29 601.722 1800.79 599.265 1803.83 599.265C1806.86 599.265 1809.36 601.727 1809.36 604.776C1809.36 607.209 1807.78 609.248 1805.6 610.001ZM1737.98 610.001V614.194C1737.98 615.149 1738.76 615.953 1739.74 615.953H1756.83V619.682C1757.98 619.135 1759.17 618.676 1760.37 618.258V614.194C1760.37 613.211 1759.56 612.435 1758.6 612.435L1741.48 612.431V609.997C1743.69 609.248 1745.27 607.205 1745.27 604.771C1745.27 601.717 1742.78 599.26 1739.74 599.26C1736.68 599.26 1734.21 601.722 1734.21 604.771C1734.21 607.209 1735.77 609.248 1737.98 610.001ZM1741.48 692.458V690.029H1758.6C1759.56 690.029 1760.37 689.226 1760.37 688.27V684.211C1759.17 683.793 1757.98 683.334 1756.83 682.787V686.512H1739.74C1738.76 686.512 1737.98 687.315 1737.98 688.27V692.459C1735.8 693.212 1734.21 695.278 1734.21 697.684C1734.21 700.738 1736.68 703.195 1739.74 703.195C1742.78 703.195 1745.28 700.738 1745.28 697.684C1745.28 695.283 1743.69 693.211 1741.48 692.458ZM1741.04 668.708H1727.48C1726.5 668.708 1725.72 669.484 1725.72 670.444V675.073C1723.51 675.798 1721.92 677.869 1721.92 680.299C1721.92 683.325 1724.42 685.809 1727.48 685.809C1730.52 685.809 1733.02 683.329 1733.02 680.299C1733.02 677.869 1731.43 675.798 1729.22 675.073V672.203H1737.51L1741.04 668.708ZM1729.43 648.658C1728.49 646.922 1726.65 645.706 1724.52 645.706C1721.48 645.706 1718.99 648.19 1718.99 651.216C1718.99 654.27 1721.48 656.727 1724.52 656.727C1726.65 656.727 1728.49 655.533 1729.43 653.801V648.658ZM1737.51 630.258H1729.22V627.388C1731.43 626.667 1733.02 624.591 1733.02 622.162C1733.02 619.136 1730.52 616.651 1727.48 616.651C1724.42 616.651 1721.92 619.131 1721.92 622.162C1721.92 624.591 1723.51 626.662 1725.72 627.388V632.017C1725.72 632.972 1726.5 633.753 1727.48 633.753H1741.04L1737.51 630.258ZM1737.71 604.771C1737.71 603.66 1738.62 602.755 1739.74 602.755C1740.86 602.755 1741.74 603.66 1741.74 604.771C1741.74 605.86 1740.84 606.764 1739.74 606.764C1738.63 606.769 1737.71 605.86 1737.71 604.771ZM1725.45 622.162C1725.45 621.05 1726.34 620.173 1727.48 620.173C1728.6 620.173 1729.48 621.05 1729.48 622.162C1729.48 623.273 1728.58 624.182 1727.48 624.182C1726.36 624.178 1725.45 623.273 1725.45 622.162ZM1722.52 651.216C1722.52 650.105 1723.4 649.228 1724.52 649.228C1725.63 649.228 1726.55 650.105 1726.55 651.216C1726.55 652.328 1725.64 653.237 1724.52 653.237C1723.43 653.232 1722.52 652.332 1722.52 651.216ZM1725.45 680.298C1725.45 679.187 1726.34 678.277 1727.48 678.277C1728.6 678.277 1729.48 679.182 1729.48 680.298C1729.48 681.386 1728.58 682.291 1727.48 682.291C1726.36 682.291 1725.45 681.386 1725.45 680.298ZM1737.71 697.689C1737.71 696.577 1738.62 695.696 1739.74 695.696C1740.86 695.696 1741.74 696.573 1741.74 697.689C1741.74 698.8 1740.84 699.709 1739.74 699.709C1738.63 699.705 1737.71 698.8 1737.71 697.689ZM1802.06 692.458V690.029H1784.97C1783.98 690.029 1783.2 689.225 1783.2 688.27V684.211C1784.4 683.793 1785.57 683.334 1786.71 682.787V686.511H1803.83C1804.79 686.511 1805.6 687.315 1805.6 688.27V692.458C1807.78 693.211 1809.36 695.278 1809.36 697.684C1809.36 700.738 1806.9 703.195 1803.83 703.195C1800.77 703.195 1798.3 700.738 1798.3 697.684C1798.3 695.282 1799.88 693.211 1802.06 692.458ZM1802.53 668.708H1816.09C1817.05 668.708 1817.86 669.484 1817.86 670.444V675.072C1820.04 675.798 1821.62 677.869 1821.62 680.298C1821.62 683.325 1819.16 685.809 1816.09 685.809C1813.02 685.809 1810.56 683.329 1810.56 680.298C1810.56 677.869 1812.14 675.798 1814.33 675.072V672.202H1806.04L1802.53 668.708ZM1814.14 648.658C1815.05 646.922 1816.92 645.705 1819.02 645.705C1822.09 645.705 1824.56 648.19 1824.56 651.216C1824.56 654.27 1822.09 656.726 1819.02 656.726C1816.89 656.726 1815.05 655.533 1814.14 653.801V648.658ZM1806.04 630.258H1814.33V627.388C1812.14 626.667 1810.56 624.591 1810.56 622.162C1810.56 619.136 1813.05 616.651 1816.09 616.651C1819.16 616.651 1821.62 619.131 1821.62 622.162C1821.62 624.591 1820.04 626.662 1817.86 627.388V632.017C1817.86 632.972 1817.05 633.752 1816.09 633.752L1802.53 633.757L1806.04 630.258ZM1805.86 604.771C1805.86 603.66 1804.95 602.755 1803.83 602.755C1802.71 602.755 1801.8 603.66 1801.8 604.771C1801.8 605.859 1802.71 606.764 1803.83 606.764C1804.95 606.764 1805.86 605.859 1805.86 604.771ZM1818.12 622.161C1818.12 621.05 1817.21 620.173 1816.09 620.173C1814.98 620.173 1814.06 621.05 1814.06 622.161C1814.06 623.273 1814.97 624.182 1816.09 624.182C1817.21 624.177 1818.12 623.273 1818.12 622.161ZM1821.05 651.216C1821.05 650.105 1820.14 649.228 1819.02 649.228C1817.91 649.228 1817.02 650.105 1817.02 651.216C1817.02 652.327 1817.9 653.237 1819.02 653.237C1820.14 653.232 1821.05 652.332 1821.05 651.216ZM1818.12 680.298C1818.12 679.187 1817.21 678.277 1816.09 678.277C1814.98 678.277 1814.06 679.182 1814.06 680.298C1814.06 681.386 1814.97 682.291 1816.09 682.291C1817.21 682.291 1818.12 681.386 1818.12 680.298ZM1805.86 697.688C1805.86 696.577 1804.95 695.695 1803.83 695.695C1802.71 695.695 1801.8 696.572 1801.8 697.688C1801.8 698.8 1802.71 699.709 1803.83 699.709C1804.95 699.704 1805.86 698.8 1805.86 697.688ZM1791.93 650.104C1791.93 656.29 1789.12 661.8 1784.71 665.502V669.874C1784.71 671.141 1783.67 672.151 1782.42 672.151H1780.14V667.986H1776.61V672.151H1773.54V667.986H1770.03V672.151H1766.94V667.986H1763.43V672.151H1761.15C1759.87 672.151 1758.84 671.141 1758.84 669.874V665.502C1754.42 661.805 1751.62 656.29 1751.62 650.104C1751.62 623.685 1791.93 623.685 1791.93 650.104ZM1775.2 652.249C1775.8 654.604 1778.68 655.922 1781.64 655.201C1784.63 654.476 1786.55 651.964 1785.98 649.585C1785.7 648.474 1784.89 647.592 1783.8 647.05L1775.2 652.249ZM1768.34 652.249C1767.77 654.604 1764.88 655.922 1761.9 655.201C1758.94 654.476 1757.02 651.964 1757.59 649.585C1757.88 648.474 1758.68 647.592 1759.75 647.05L1768.34 652.249ZM1769.59 663.169C1768.92 663.839 1767.8 663.839 1767.1 663.169C1766.42 662.471 1766.42 661.359 1767.1 660.689L1768.89 658.903C1769.7 658.127 1770.74 657.713 1771.77 657.713C1772.82 657.713 1773.88 658.127 1774.65 658.903H1774.68L1776.44 660.689C1777.14 661.359 1777.14 662.475 1776.44 663.169C1775.77 663.839 1774.65 663.839 1773.95 663.169L1772.18 661.382C1772.08 661.277 1771.92 661.226 1771.77 661.226C1771.64 661.226 1771.48 661.281 1771.38 661.382L1769.59 663.169Z" fill="black" stroke="black" stroke-width="2" mask="url(#path-17-inside-1_182_60)"/>
<path d="M1710.36 912.748C1710.59 912.782 1710.8 912.894 1710.94 913.055C1711.07 913.207 1711.15 913.43 1711.11 913.751L1710.19 920.125L1710.15 920.41L1710.38 920.589L1714.39 923.758L1714.97 924.209L1715.18 923.513L1715.51 922.463C1717.69 925.203 1720.63 927.276 1724.09 927.843V945.643C1722.09 945.158 1720.24 943.916 1718.7 942.093L1718.48 941.825L1718.15 941.946L1711.97 944.231L1711.48 944.411L1711.68 944.89L1713.89 950.266C1714.01 950.564 1713.98 950.8 1713.9 950.98C1713.8 951.171 1713.63 951.333 1713.4 951.427C1713.18 951.52 1712.95 951.532 1712.75 951.466C1712.57 951.403 1712.38 951.26 1712.26 950.962V950.961L1709.48 944.195C1709.31 943.722 1709.55 943.208 1710.01 943.039L1710.01 943.038L1716.84 940.51L1717.4 940.305L1717.11 939.793C1716.17 938.159 1715.47 936.31 1715.03 934.331L1714.94 933.94H1704.83C1704.51 933.94 1704.31 933.824 1704.18 933.674C1704.04 933.513 1703.96 933.283 1703.96 933.035C1703.96 932.787 1704.04 932.556 1704.18 932.395C1704.31 932.245 1704.51 932.129 1704.83 932.129L1714.09 932.131H1714.64L1714.59 931.582C1714.43 929.91 1714.44 928.196 1714.63 926.531L1714.66 926.254L1714.44 926.082L1708.66 921.521V921.52L1708.56 921.434C1708.36 921.219 1708.27 920.915 1708.33 920.625L1708.33 920.613L1708.33 920.601L1709.36 913.499V913.497C1709.41 913.173 1709.55 912.984 1709.71 912.876C1709.89 912.761 1710.12 912.713 1710.36 912.748ZM1741.58 912.746C1741.82 912.711 1742.05 912.758 1742.23 912.873C1742.39 912.981 1742.54 913.169 1742.58 913.491L1743.61 920.615L1743.61 920.624L1743.61 920.634C1743.67 920.959 1743.55 921.304 1743.28 921.517L1737.5 926.078L1737.28 926.25L1737.31 926.527C1737.5 928.191 1737.52 929.901 1737.35 931.578L1737.3 932.127H1747.11C1747.43 932.127 1747.63 932.243 1747.76 932.393C1747.9 932.554 1747.98 932.785 1747.98 933.033C1747.98 933.281 1747.9 933.511 1747.76 933.672C1747.63 933.822 1747.43 933.938 1747.11 933.938H1737L1736.91 934.329C1736.4 936.625 1735.95 937.502 1735.04 939.426C1734.96 939.574 1734.88 939.716 1734.8 939.853L1734.5 940.374L1735.06 940.577L1741.93 943.036V943.037C1742.39 943.206 1742.63 943.722 1742.46 944.196L1739.68 950.96C1739.56 951.258 1739.37 951.402 1739.19 951.465C1738.99 951.531 1738.76 951.519 1738.54 951.426C1738.31 951.332 1738.14 951.17 1738.04 950.979C1737.96 950.799 1737.93 950.563 1738.05 950.265L1740.26 944.888L1740.46 944.403L1739.97 944.227L1733.73 942.01L1733.41 941.893L1733.18 942.156C1731.66 943.945 1729.83 945.165 1727.86 945.644V927.844C1731.32 927.277 1734.26 925.204 1736.43 922.465L1736.76 923.513L1736.97 924.209L1737.55 923.759L1741.57 920.589L1741.79 920.411L1741.75 920.125L1740.83 913.754C1740.79 913.431 1740.87 913.208 1741 913.055C1741.14 912.894 1741.35 912.781 1741.58 912.746ZM1734.26 907.042C1734.51 906.847 1734.73 906.816 1734.92 906.853C1735.12 906.894 1735.32 907.024 1735.47 907.219C1735.62 907.413 1735.7 907.644 1735.68 907.857C1735.67 908.058 1735.58 908.276 1735.33 908.47C1733.59 909.832 1732.25 911.948 1731.34 914.092L1731.19 914.44L1731.49 914.677C1732.74 915.675 1733.8 916.959 1734.66 918.398C1732.32 922.305 1729.11 924.185 1725.97 924.184C1722.83 924.184 1719.61 922.305 1717.28 918.399C1718.14 916.96 1719.21 915.675 1720.45 914.677L1720.75 914.44L1720.6 914.092C1719.75 912.082 1718.52 910.095 1716.93 908.734L1716.61 908.47C1716.36 908.276 1716.27 908.058 1716.26 907.857C1716.24 907.644 1716.32 907.413 1716.47 907.219C1716.61 907.024 1716.81 906.894 1717.02 906.853C1717.21 906.816 1717.43 906.848 1717.68 907.043V907.042C1720.21 909.018 1722.03 912.323 1723.01 915.574L1723.28 916.479L1723.88 915.745C1724.29 915.24 1724.32 914.601 1724.27 914.044C1724.23 913.652 1724.14 913.233 1724.05 912.847C1725.32 912.532 1726.62 912.532 1727.89 912.847C1727.8 913.233 1727.71 913.652 1727.67 914.044C1727.62 914.6 1727.65 915.24 1728.06 915.744L1728.66 916.479L1728.93 915.574C1729.91 912.325 1731.73 909.018 1734.26 907.042Z" fill="black" stroke="black"/>
<path d="M81.3 333.11C87.5862 333.322 93.7092 335.166 99.0663 338.462V253.323H72.3098V334.93C75.1587 333.741 78.2131 333.123 81.3 333.11Z" fill="white" fill-opacity="0.6"/>
<path d="M72.3098 398.182V504.834H99.0663V417.072C90.0567 412.927 81.7937 407.322 74.6109 400.483C74.6109 400.483 73.4336 399.413 72.3098 398.182Z" fill="white" fill-opacity="0.6"/>
<path d="M86.1697 399.895C97.5684 409.256 111.679 414.697 126.411 415.413C135.195 415.372 143.8 412.929 151.295 408.35C151.78 395.522 155.165 382.972 161.195 371.64C161.738 370.765 162.6 370.136 163.599 369.886C164.598 369.636 165.655 369.785 166.546 370.302C167.401 370.863 168.013 371.725 168.261 372.716C168.509 373.708 168.374 374.756 167.884 375.653C167.884 375.974 148.726 408.136 167.081 455.174H298.456C316.811 408.136 297.867 375.974 297.653 375.653C297.163 374.756 297.028 373.708 297.276 372.716C297.524 371.725 298.136 370.863 298.991 370.302C299.882 369.785 300.939 369.636 301.938 369.886C302.937 370.136 303.799 370.765 304.342 371.64C311.569 385.332 315.04 400.694 314.403 416.163L341.962 403.319C340.303 370.516 333.239 347.345 324.196 330.916C322.965 333.538 321.627 336.268 320.075 338.89C319.381 340.124 318.371 341.152 317.148 341.867C315.926 342.582 314.535 342.958 313.118 342.957C312.551 343.039 311.974 343.039 311.406 342.957C310.045 342.677 308.786 342.029 307.767 341.084C301.613 364.148 283.74 392.884 235.899 413.219C234.9 413.643 233.827 413.862 232.742 413.862C231.657 413.862 230.583 413.643 229.585 413.219C181.851 392.884 163.978 364.148 157.931 341.084C156.93 341.973 155.711 342.583 154.399 342.85C153.831 342.932 153.254 342.932 152.686 342.85C151.27 342.851 149.879 342.475 148.656 341.76C147.434 341.045 146.424 340.017 145.73 338.783C143.336 334.668 141.227 330.395 139.415 325.993C131.525 337.465 125.157 349.913 120.472 363.024L109.769 356.067L87.1329 398.878C86.8419 399.244 86.5196 399.584 86.1697 399.895Z" fill="white" fill-opacity="0.6"/>
<path d="M307.018 455.12C322.697 454.21 333.775 449.768 339.607 441.206C342.233 436.778 343.945 431.868 344.643 426.768C345.342 421.667 345.012 416.478 343.674 411.507L314.082 425.259C312.973 435.467 310.6 445.497 307.018 455.12Z" fill="white" fill-opacity="0.6"/>
<path d="M211.711 513.449H217.063H217.384C218.354 513.474 219.321 513.581 220.273 513.771C222.628 499.804 225.625 479.415 228.354 463.468H169.49L175.108 496.807C187.92 500.126 200.09 505.551 211.123 512.861C211.176 512.993 211.256 513.114 211.357 513.215C211.458 513.316 211.579 513.396 211.711 513.449Z" fill="white" fill-opacity="0.6"/>
<path d="M164.513 304.909C164.513 304.909 145.89 368.857 232.849 405.835C319.808 368.857 301.185 304.909 301.185 304.909C311.139 311.063 313.118 335.037 313.118 335.037C338.644 290.246 320.236 256.426 308.623 241.55C306.632 260.257 297.79 277.567 283.801 290.147C269.811 302.726 251.663 309.686 232.849 309.686C214.035 309.686 195.887 302.726 181.897 290.147C167.908 277.567 159.066 260.257 157.075 241.55C145.462 256.426 127.054 290.246 152.579 335.037C152.579 335.037 154.559 311.063 164.513 304.909Z" fill="white" fill-opacity="0.6"/>
<path d="M217.223 521.369H211.872C210.124 521.385 208.411 520.882 206.949 519.924C200.313 515.536 180.192 503.335 163.015 503.335C159.086 503.115 155.164 503.869 151.598 505.531C148.031 507.193 144.931 509.711 142.573 512.86C131.388 527.898 143.482 536.085 148.62 538.707C149.857 539.297 151.209 539.607 152.58 539.617H217.223C218.48 539.713 219.743 539.549 220.934 539.134C222.124 538.719 223.216 538.063 224.141 537.206C225.066 536.349 225.804 535.311 226.308 534.156C226.813 533.001 227.073 531.754 227.073 530.493C227.073 529.232 226.813 527.985 226.308 526.83C225.804 525.675 225.066 524.636 224.141 523.78C223.216 522.923 222.124 522.267 220.934 521.852C219.743 521.437 218.48 521.273 217.223 521.369Z" fill="white" fill-opacity="0.6"/>
<path d="M284.757 277.404C293.79 266.839 299.39 253.772 300.81 239.945L299.794 239.409C277.425 221.429 254.896 212.332 232.902 212.332C210.909 212.332 188.38 221.429 166.011 239.409L164.994 239.945C166.414 253.772 172.014 266.839 181.048 277.404C182.333 276.066 199.136 258.942 232.956 258.942C266.776 258.942 283.472 276.173 284.757 277.404Z" fill="white" fill-opacity="0.6"/>
<path d="M186.721 283.022C199.302 294.751 215.863 301.273 233.063 301.273C250.263 301.273 266.824 294.751 279.405 283.022C279.405 283.022 263.993 266.969 233.277 266.969C202.561 266.969 186.881 282.755 186.721 283.022Z" fill="white" fill-opacity="0.6"/>
<path d="M232.849 204.412C256.823 204.412 280.797 214.026 304.771 233.255C304.771 233.255 310.925 114.563 232.849 58C154.774 114.563 160.928 233.255 160.928 233.255C184.901 213.99 208.875 204.376 232.849 204.412Z" fill="white" fill-opacity="0.6"/>
<path d="M248.475 513.342H248.903H254.254C254.43 513.39 254.614 513.39 254.79 513.342C265.822 506.033 277.993 500.608 290.804 497.289L296.637 463.629H237.772C240.234 479.683 243.445 499.964 245.799 513.931C246.674 513.664 247.569 513.467 248.475 513.342Z" fill="white" fill-opacity="0.6"/>
<path d="M254.254 521.476H248.903C247.646 521.38 246.383 521.544 245.192 521.959C244.002 522.374 242.91 523.03 241.985 523.887C241.06 524.744 240.323 525.782 239.818 526.937C239.313 528.093 239.053 529.34 239.053 530.6C239.053 531.861 239.313 533.108 239.818 534.263C240.323 535.418 241.06 536.457 241.985 537.313C242.91 538.17 244.002 538.826 245.192 539.241C246.383 539.656 247.646 539.821 248.903 539.724H313.119C314.507 539.722 315.878 539.412 317.132 538.814C322.483 536.192 334.363 528.112 323.179 512.968C320.83 509.869 317.759 507.391 314.233 505.749C310.708 504.108 306.835 503.353 302.951 503.549C285.72 503.549 265.492 515.75 259.017 520.138C257.589 521.029 255.937 521.493 254.254 521.476Z" fill="white" fill-opacity="0.6"/>
<path d="M103.08 351.359C103.08 351.359 92.1097 341.138 81.3001 341.138C78.5341 341.15 75.8224 341.907 73.4497 343.329C71.077 344.751 69.1306 346.785 67.8148 349.218C54.9182 369.607 80.0693 394.704 80.0693 394.704L103.08 351.359Z" fill="white" fill-opacity="0.6"/>
<path d="M138.399 218.86C135.776 186.271 125.288 134.417 85.7417 127.888C46.1956 134.363 35.707 186.217 33.0849 218.86C32.8044 222.213 33.2206 225.589 34.3071 228.773C35.3937 231.958 37.1273 234.884 39.3988 237.366C41.6704 239.849 44.4309 241.835 47.5069 243.2C50.5828 244.564 53.9078 245.278 57.2728 245.296H114.104C117.478 245.292 120.814 244.59 123.903 243.232C126.992 241.874 129.765 239.89 132.048 237.406C134.331 234.921 136.075 231.991 137.168 228.799C138.261 225.606 138.68 222.222 138.399 218.86Z" fill="white" fill-opacity="0.6"/>
<path d="M49.1924 539.617H72.31H99.0665H117.582V512.86H49.1924V539.617Z" fill="white" fill-opacity="0.6"/>
</svg>
