<svg width="1920" height="1080" viewBox="0 0 1920 1080" fill="none" xmlns="http://www.w3.org/2000/svg">
<rect width="1920" height="1080" fill="black"/>
<path d="M1703.13 827.62C1707.44 827.767 1711.64 829.045 1715.31 831.328V772.336H1696.96V828.881C1698.92 828.058 1701.01 827.629 1703.13 827.62Z" fill="white" fill-opacity="0.1"/>
<path d="M1696.96 872.708V946.605H1715.31V885.797C1709.13 882.924 1703.47 879.041 1698.54 874.302C1698.54 874.302 1697.73 873.561 1696.96 872.708Z" fill="white" fill-opacity="0.1"/>
<path d="M1706.47 873.895C1714.29 880.381 1723.97 884.151 1734.07 884.647C1740.1 884.619 1746 882.926 1751.14 879.753C1751.47 870.865 1753.79 862.169 1757.93 854.317C1758.3 853.711 1758.89 853.275 1759.58 853.102C1760.26 852.929 1760.99 853.032 1761.6 853.39C1762.19 853.779 1762.61 854.376 1762.78 855.063C1762.95 855.75 1762.85 856.477 1762.52 857.098C1762.52 857.321 1749.38 879.605 1761.97 912.197H1852.08C1864.67 879.605 1851.67 857.321 1851.53 857.098C1851.19 856.477 1851.1 855.75 1851.27 855.063C1851.44 854.376 1851.86 853.779 1852.44 853.39C1853.05 853.032 1853.78 852.929 1854.46 853.102C1855.15 853.275 1855.74 853.711 1856.11 854.317C1861.07 863.804 1863.45 874.448 1863.01 885.166L1881.92 876.268C1880.78 853.539 1875.93 837.484 1869.73 826.1C1868.89 827.917 1867.97 829.808 1866.9 831.625C1866.43 832.481 1865.74 833.193 1864.9 833.688C1864.06 834.183 1863.1 834.444 1862.13 834.443C1861.74 834.5 1861.35 834.5 1860.96 834.443C1860.02 834.249 1859.16 833.8 1858.46 833.145C1854.24 849.126 1841.98 869.037 1809.17 883.127C1808.48 883.421 1807.75 883.572 1807 883.572C1806.26 883.572 1805.52 883.421 1804.84 883.127C1772.1 869.037 1759.84 849.126 1755.69 833.145C1755 833.762 1754.17 834.184 1753.27 834.369C1752.88 834.426 1752.48 834.426 1752.09 834.369C1751.12 834.37 1750.17 834.109 1749.33 833.614C1748.49 833.118 1747.8 832.406 1747.32 831.551C1745.68 828.7 1744.23 825.739 1742.99 822.689C1737.58 830.638 1733.21 839.263 1730 848.348L1722.66 843.527L1707.13 873.19C1706.93 873.444 1706.71 873.68 1706.47 873.895Z" fill="white" fill-opacity="0.1"/>
<path d="M1857.95 912.16C1868.7 911.53 1876.3 908.452 1880.3 902.52C1882.1 899.451 1883.28 896.049 1883.76 892.515C1884.23 888.981 1884.01 885.386 1883.09 881.941L1862.79 891.47C1862.03 898.543 1860.41 905.493 1857.95 912.16Z" fill="white" fill-opacity="0.1"/>
<path d="M1792.58 952.576H1796.25H1796.47C1797.13 952.593 1797.8 952.667 1798.45 952.798C1800.07 943.121 1802.12 928.994 1803.99 917.944H1763.62L1767.47 941.044C1776.26 943.344 1784.61 947.103 1792.17 952.168C1792.21 952.26 1792.27 952.343 1792.33 952.413C1792.4 952.483 1792.49 952.538 1792.58 952.576Z" fill="white" fill-opacity="0.1"/>
<path d="M1760.2 808.081C1760.2 808.081 1747.43 852.389 1807.08 878.011C1866.72 852.389 1853.95 808.081 1853.95 808.081C1860.77 812.345 1862.13 828.956 1862.13 828.956C1879.64 797.921 1867.01 774.488 1859.05 764.18C1857.68 777.142 1851.62 789.136 1842.02 797.852C1832.43 806.568 1819.98 811.391 1807.08 811.391C1794.17 811.391 1781.72 806.568 1772.13 797.852C1762.53 789.136 1756.47 777.142 1755.1 764.18C1747.14 774.488 1734.51 797.921 1752.02 828.956C1752.02 828.956 1753.38 812.345 1760.2 808.081Z" fill="white" fill-opacity="0.1"/>
<path d="M1796.36 958.063H1792.69C1791.49 958.074 1790.31 957.726 1789.31 957.062C1784.76 954.021 1770.96 945.567 1759.18 945.567C1756.48 945.415 1753.79 945.937 1751.35 947.089C1748.9 948.24 1746.77 949.985 1745.16 952.167C1737.48 962.586 1745.78 968.26 1749.3 970.076C1750.15 970.485 1751.08 970.7 1752.02 970.707H1796.36C1797.22 970.773 1798.09 970.66 1798.9 970.372C1799.72 970.085 1800.47 969.63 1801.1 969.036C1801.74 968.443 1802.24 967.723 1802.59 966.923C1802.94 966.122 1803.11 965.258 1803.11 964.385C1803.11 963.511 1802.94 962.647 1802.59 961.847C1802.24 961.046 1801.74 960.327 1801.1 959.733C1800.47 959.14 1799.72 958.685 1798.9 958.398C1798.09 958.11 1797.22 957.996 1796.36 958.063Z" fill="white" fill-opacity="0.1"/>
<path d="M1842.68 789.022C1848.88 781.702 1852.72 772.648 1853.69 763.067L1852.99 762.697C1837.65 750.238 1822.2 743.935 1807.11 743.935C1792.03 743.935 1776.57 750.238 1761.23 762.697L1760.53 763.067C1761.51 772.648 1765.35 781.702 1771.55 789.022C1772.43 788.095 1783.95 776.23 1807.15 776.23C1830.35 776.23 1841.8 788.169 1842.68 789.022Z" fill="white" fill-opacity="0.1"/>
<path d="M1775.44 792.915C1784.07 801.042 1795.43 805.561 1807.22 805.561C1819.02 805.561 1830.38 801.042 1839.01 792.915C1839.01 792.915 1828.44 781.792 1807.37 781.792C1786.3 781.792 1775.55 792.73 1775.44 792.915Z" fill="white" fill-opacity="0.1"/>
<path d="M1807.08 738.447C1823.52 738.447 1839.96 745.109 1856.41 758.432C1856.41 758.432 1860.63 676.192 1807.08 637C1753.52 676.192 1757.75 758.432 1757.75 758.432C1774.19 745.084 1790.63 738.422 1807.08 738.447Z" fill="white" fill-opacity="0.1"/>
<path d="M1817.79 952.502H1818.09H1821.76C1821.88 952.535 1822 952.535 1822.12 952.502C1829.69 947.437 1838.04 943.678 1846.83 941.378L1850.83 918.056H1810.45C1812.14 929.179 1814.34 943.232 1815.96 952.909C1816.56 952.724 1817.17 952.588 1817.79 952.502Z" fill="white" fill-opacity="0.1"/>
<path d="M1821.76 958.137H1818.09C1817.23 958.07 1816.36 958.184 1815.54 958.471C1814.73 958.759 1813.98 959.214 1813.34 959.807C1812.71 960.401 1812.2 961.12 1811.86 961.921C1811.51 962.721 1811.33 963.585 1811.33 964.459C1811.33 965.332 1811.51 966.196 1811.86 966.997C1812.2 967.797 1812.71 968.517 1813.34 969.11C1813.98 969.704 1814.73 970.159 1815.54 970.446C1816.36 970.733 1817.23 970.847 1818.09 970.781H1862.13C1863.09 970.779 1864.03 970.564 1864.89 970.15C1868.56 968.333 1876.7 962.735 1869.03 952.241C1867.42 950.094 1865.32 948.377 1862.9 947.24C1860.48 946.102 1857.82 945.579 1855.16 945.716C1843.34 945.716 1829.47 954.169 1825.02 957.21C1824.05 957.827 1822.91 958.149 1821.76 958.137Z" fill="white" fill-opacity="0.1"/>
<path d="M1718.07 840.265C1718.07 840.265 1710.54 833.183 1703.13 833.183C1701.23 833.191 1699.37 833.716 1697.74 834.701C1696.12 835.686 1694.78 837.096 1693.88 838.781C1685.03 852.908 1702.28 870.298 1702.28 870.298L1718.07 840.265Z" fill="white" fill-opacity="0.1"/>
<path d="M1742.29 748.458C1740.49 725.877 1733.3 689.948 1706.18 685.425C1679.05 689.911 1671.86 725.84 1670.06 748.458C1669.87 750.782 1670.15 753.12 1670.9 755.327C1671.64 757.534 1672.83 759.561 1674.39 761.281C1675.95 763.001 1677.84 764.377 1679.95 765.323C1682.06 766.268 1684.34 766.762 1686.65 766.775H1725.63C1727.94 766.773 1730.23 766.286 1732.35 765.345C1734.47 764.404 1736.37 763.029 1737.94 761.308C1739.5 759.587 1740.7 757.556 1741.45 755.344C1742.2 753.133 1742.49 750.788 1742.29 748.458Z" fill="white" fill-opacity="0.1"/>
<path d="M1681.11 970.707H1696.96H1715.31H1728.01V952.167H1681.11V970.707Z" fill="white" fill-opacity="0.1"/>
<path fill-rule="evenodd" clip-rule="evenodd" d="M1819.15 685.978L1822.94 682.215L1828.75 687.972L1824.93 691.735C1826.54 694.081 1827.67 696.759 1828.24 699.63H1833.62V707.77H1828.24C1827.67 710.638 1826.54 713.322 1824.93 715.665L1828.75 719.431L1822.94 725.191L1819.15 721.428C1816.78 723.004 1814.08 724.141 1811.19 724.685V730.026L1802.98 730.019V724.678C1800.07 724.135 1797.39 723.001 1795.02 721.422L1791.23 725.185L1785.42 719.424L1789.22 715.659C1787.63 713.316 1786.48 710.635 1785.92 707.764H1780.55V699.629H1785.92C1786.48 696.758 1787.63 694.08 1789.22 691.734L1785.42 687.972L1791.23 682.214L1795.02 685.977C1797.39 684.402 1800.07 683.265 1802.98 682.721V677.38H1811.19V682.721C1814.08 683.261 1816.78 684.399 1819.15 685.978ZM1830.06 675.805V678.642C1830.06 679.288 1829.51 679.832 1828.86 679.832H1817.23V682.355C1816.45 681.985 1815.66 681.674 1814.84 681.392V678.642C1814.84 677.977 1815.37 677.452 1816.04 677.452H1827.65V675.805C1826.17 675.299 1825.09 673.916 1825.09 672.27C1825.09 670.203 1826.79 668.541 1828.85 668.541C1830.92 668.541 1832.61 670.207 1832.61 672.27C1832.61 673.916 1831.54 675.296 1830.06 675.805ZM1784.12 675.805V678.642C1784.12 679.288 1784.65 679.832 1785.32 679.832H1796.93V682.355C1797.71 681.985 1798.52 681.674 1799.33 681.392V678.642C1799.33 677.977 1798.78 677.452 1798.13 677.452L1786.5 677.449V675.802C1788 675.296 1789.08 673.913 1789.08 672.267C1789.08 670.2 1787.38 668.538 1785.32 668.538C1783.23 668.538 1781.56 670.203 1781.56 672.267C1781.56 673.916 1782.62 675.296 1784.12 675.805ZM1786.5 731.595V729.952H1798.13C1798.78 729.952 1799.33 729.408 1799.33 728.762V726.015C1798.52 725.732 1797.71 725.422 1796.93 725.052V727.572H1785.32C1784.65 727.572 1784.12 728.115 1784.12 728.762V731.595C1782.64 732.105 1781.56 733.503 1781.56 735.131C1781.56 737.197 1783.23 738.859 1785.32 738.859C1787.38 738.859 1789.08 737.197 1789.08 735.131C1789.08 733.506 1788 732.105 1786.5 731.595ZM1786.2 715.526H1776.99C1776.32 715.526 1775.79 716.051 1775.79 716.7V719.832C1774.29 720.323 1773.21 721.724 1773.21 723.368C1773.21 725.415 1774.91 727.096 1776.99 727.096C1779.05 727.096 1780.75 725.418 1780.75 723.368C1780.75 721.724 1779.67 720.323 1778.17 719.832V717.89H1783.8L1786.2 715.526ZM1778.31 701.96C1777.67 700.786 1776.42 699.962 1774.97 699.962C1772.91 699.962 1771.22 701.643 1771.22 703.691C1771.22 705.757 1772.91 707.419 1774.97 707.419C1776.42 707.419 1777.67 706.612 1778.31 705.44V701.96ZM1783.8 689.511H1778.17V687.569C1779.67 687.081 1780.75 685.677 1780.75 684.033C1780.75 681.986 1779.05 680.305 1776.99 680.305C1774.91 680.305 1773.21 681.983 1773.21 684.033C1773.21 685.677 1774.29 687.078 1775.79 687.569V690.701C1775.79 691.347 1776.32 691.875 1776.99 691.875H1786.2L1783.8 689.511ZM1783.94 672.267C1783.94 671.515 1784.56 670.903 1785.32 670.903C1786.08 670.903 1786.68 671.515 1786.68 672.267C1786.68 673.003 1786.06 673.615 1785.32 673.615C1784.56 673.618 1783.94 673.003 1783.94 672.267ZM1775.61 684.033C1775.61 683.281 1776.21 682.688 1776.99 682.688C1777.75 682.688 1778.35 683.281 1778.35 684.033C1778.35 684.785 1777.73 685.4 1776.99 685.4C1776.23 685.397 1775.61 684.785 1775.61 684.033ZM1773.61 703.691C1773.61 702.939 1774.21 702.346 1774.97 702.346C1775.73 702.346 1776.35 702.939 1776.35 703.691C1776.35 704.443 1775.74 705.058 1774.97 705.058C1774.23 705.055 1773.61 704.446 1773.61 703.691ZM1775.61 723.368C1775.61 722.616 1776.21 722 1776.99 722C1777.75 722 1778.35 722.613 1778.35 723.368C1778.35 724.104 1777.73 724.716 1776.99 724.716C1776.23 724.716 1775.61 724.104 1775.61 723.368ZM1783.94 735.134C1783.94 734.382 1784.56 733.785 1785.32 733.785C1786.08 733.785 1786.68 734.379 1786.68 735.134C1786.68 735.886 1786.06 736.501 1785.32 736.501C1784.56 736.498 1783.94 735.886 1783.94 735.134ZM1827.65 731.595V729.951H1816.04C1815.37 729.951 1814.84 729.408 1814.84 728.761V726.015C1815.66 725.732 1816.45 725.421 1817.23 725.052V727.571H1828.86C1829.51 727.571 1830.06 728.115 1830.06 728.761V731.595C1831.54 732.105 1832.62 733.503 1832.62 735.131C1832.62 737.197 1830.94 738.859 1828.86 738.859C1826.77 738.859 1825.1 737.197 1825.1 735.131C1825.1 733.506 1826.17 732.105 1827.65 731.595ZM1827.97 715.526H1837.19C1837.84 715.526 1838.39 716.051 1838.39 716.7V719.832C1839.87 720.323 1840.94 721.724 1840.94 723.368C1840.94 725.415 1839.27 727.096 1837.19 727.096C1835.1 727.096 1833.43 725.418 1833.43 723.368C1833.43 721.724 1834.5 720.323 1835.99 719.832V717.89H1830.36L1827.97 715.526ZM1835.86 701.96C1836.48 700.786 1837.75 699.962 1839.18 699.962C1841.26 699.962 1842.94 701.643 1842.94 703.691C1842.94 705.757 1841.26 707.419 1839.18 707.419C1837.73 707.419 1836.48 706.611 1835.86 705.44V701.96ZM1830.36 689.511H1835.99V687.569C1834.5 687.081 1833.43 685.677 1833.43 684.033C1833.43 681.985 1835.12 680.305 1837.19 680.305C1839.27 680.305 1840.94 681.982 1840.94 684.033C1840.94 685.677 1839.87 687.078 1838.39 687.569V690.701C1838.39 691.347 1837.84 691.875 1837.19 691.875L1827.97 691.878L1830.36 689.511ZM1830.23 672.266C1830.23 671.515 1829.62 670.902 1828.85 670.902C1828.1 670.902 1827.48 671.515 1827.48 672.266C1827.48 673.003 1828.09 673.615 1828.85 673.615C1829.62 673.615 1830.23 673.003 1830.23 672.266ZM1838.56 684.033C1838.56 683.281 1837.95 682.687 1837.19 682.687C1836.43 682.687 1835.81 683.281 1835.81 684.033C1835.81 684.785 1836.42 685.4 1837.19 685.4C1837.94 685.397 1838.56 684.785 1838.56 684.033ZM1840.56 703.691C1840.56 702.939 1839.94 702.346 1839.18 702.346C1838.42 702.346 1837.82 702.939 1837.82 703.691C1837.82 704.443 1838.42 705.058 1839.18 705.058C1839.94 705.055 1840.56 704.446 1840.56 703.691ZM1838.56 723.367C1838.56 722.616 1837.95 722 1837.19 722C1836.43 722 1835.81 722.612 1835.81 723.367C1835.81 724.104 1836.42 724.716 1837.19 724.716C1837.94 724.716 1838.56 724.104 1838.56 723.367ZM1830.23 735.134C1830.23 734.382 1829.62 733.785 1828.85 733.785C1828.1 733.785 1827.48 734.379 1827.48 735.134C1827.48 735.886 1828.09 736.501 1828.85 736.501C1829.62 736.498 1830.23 735.886 1830.23 735.134ZM1820.77 702.938C1820.77 707.124 1818.86 710.852 1815.87 713.357V716.314C1815.87 717.172 1815.16 717.856 1814.31 717.856H1812.76V715.037H1810.36V717.856H1808.28V715.037H1805.89V717.856H1803.8V715.037H1801.41V717.856H1799.86C1798.99 717.856 1798.29 717.172 1798.29 716.314V713.357C1795.29 710.855 1793.38 707.124 1793.38 702.938C1793.38 685.064 1820.77 685.064 1820.77 702.938ZM1809.41 704.389C1809.82 705.983 1811.77 706.875 1813.78 706.387C1815.81 705.896 1817.12 704.197 1816.73 702.587C1816.54 701.835 1815.99 701.239 1815.25 700.872L1809.41 704.389ZM1804.75 704.389C1804.36 705.983 1802.4 706.875 1800.37 706.387C1798.36 705.896 1797.05 704.197 1797.44 702.587C1797.64 701.835 1798.19 701.239 1798.91 700.872L1804.75 704.389ZM1805.6 711.778C1805.14 712.232 1804.38 712.232 1803.9 711.778C1803.44 711.306 1803.44 710.554 1803.9 710.1L1805.12 708.892C1805.67 708.366 1806.37 708.087 1807.08 708.087C1807.79 708.087 1808.51 708.366 1809.04 708.892H1809.05L1810.25 710.1C1810.73 710.554 1810.73 711.309 1810.25 711.778C1809.79 712.232 1809.03 712.232 1808.56 711.778L1807.36 710.569C1807.28 710.498 1807.18 710.464 1807.07 710.464C1806.99 710.464 1806.88 710.501 1806.81 710.569L1805.6 711.778Z" fill="black"/>
<path fill-rule="evenodd" clip-rule="evenodd" d="M1782.43 898.84C1783.05 897.532 1783.37 896.911 1783.73 895.317H1790.32C1791.57 895.317 1791.57 893.415 1790.32 893.415H1784.03C1784.15 892.257 1784.14 891.076 1784 889.926L1787.93 886.84C1788.22 886.615 1788.34 886.254 1788.28 885.916L1787.58 881.096C1787.4 879.859 1785.54 880.134 1785.72 881.37L1786.35 885.681L1783.61 887.825L1783.2 886.484C1781.67 888.627 1779.49 890.24 1776.9 890.563V903.315C1778.49 903.052 1779.94 902.134 1781.12 900.758L1785.35 902.259L1783.85 905.897C1783.38 907.046 1785.11 907.774 1785.59 906.624L1787.48 902.036C1787.66 901.544 1787.41 900.998 1786.92 900.818L1782.25 899.152C1782.31 899.05 1782.37 898.946 1782.43 898.84L1782.43 898.84ZM1772 881.682C1771.4 880.261 1770.51 878.886 1769.39 878.014C1768.42 877.256 1769.56 875.755 1770.54 876.514C1772.33 877.91 1773.6 880.218 1774.28 882.456C1774.66 881.983 1774.41 881.177 1774.25 880.469C1775.38 880.124 1776.55 880.124 1777.67 880.469C1777.51 881.177 1777.26 881.984 1777.65 882.456C1778.32 880.219 1779.59 877.91 1781.38 876.514C1782.36 875.755 1783.5 877.256 1782.53 878.014C1781.41 878.887 1780.53 880.261 1779.92 881.682C1780.86 882.428 1781.64 883.392 1782.26 884.464C1778.98 890.136 1772.94 890.135 1769.66 884.464C1770.28 883.392 1771.06 882.428 1772 881.682ZM1770.76 900.714C1771.95 902.114 1773.42 903.049 1775.02 903.315V890.562C1772.44 890.24 1770.26 888.627 1768.72 886.484L1768.31 887.825L1765.58 885.681L1766.2 881.368C1766.38 880.134 1764.52 879.861 1764.34 881.101L1763.64 885.907C1763.58 886.248 1763.7 886.615 1763.99 886.843L1767.92 889.928C1767.79 891.079 1767.78 892.262 1767.89 893.418L1761.6 893.416C1760.36 893.416 1760.36 895.318 1761.6 895.318H1768.19C1768.5 896.688 1768.99 897.971 1769.64 899.108L1765 900.819C1764.51 900.999 1764.26 901.545 1764.44 902.037L1766.33 906.625C1766.81 907.775 1768.54 907.045 1768.07 905.898L1766.57 902.26L1770.76 900.714Z" fill="black"/>
<path d="M73.9742 435.119C78.2658 435.257 82.4458 436.464 86.1031 438.622V382.88H67.8367V436.31C69.7816 435.532 71.8668 435.127 73.9742 435.119Z" fill="white" fill-opacity="0.1"/>
<path d="M67.8367 477.722V547.548H86.1031V490.09C79.9524 487.376 74.3113 483.706 69.4076 479.229C69.4076 479.229 68.6039 478.528 67.8367 477.722Z" fill="white" fill-opacity="0.1"/>
<path d="M77.2983 478.843C85.0801 484.972 94.7132 488.535 104.771 489.004C110.768 488.977 116.642 487.377 121.759 484.379C122.09 475.981 124.401 467.764 128.518 460.344C128.888 459.772 129.477 459.36 130.159 459.196C130.841 459.033 131.563 459.13 132.171 459.469C132.754 459.836 133.172 460.4 133.341 461.049C133.511 461.698 133.419 462.385 133.084 462.972C133.084 463.182 120.005 484.239 132.536 515.035H222.224C234.755 484.239 221.823 463.182 221.676 462.972C221.342 462.385 221.25 461.698 221.419 461.049C221.588 460.4 222.006 459.836 222.59 459.469C223.198 459.13 223.92 459.033 224.602 459.196C225.284 459.36 225.872 459.772 226.243 460.344C231.177 469.309 233.546 479.366 233.111 489.494L251.926 481.086C250.793 459.609 245.971 444.438 239.797 433.682C238.957 435.399 238.043 437.186 236.984 438.903C236.51 439.711 235.82 440.384 234.986 440.852C234.151 441.32 233.201 441.566 232.234 441.565C231.847 441.619 231.453 441.619 231.065 441.565C230.136 441.382 229.277 440.958 228.581 440.339C224.38 455.439 212.178 474.254 179.517 487.567C178.836 487.845 178.103 487.988 177.362 487.988C176.621 487.988 175.888 487.845 175.207 487.567C142.619 474.254 130.417 455.439 126.289 440.339C125.606 440.921 124.774 441.32 123.878 441.495C123.49 441.549 123.096 441.549 122.709 441.495C121.742 441.496 120.792 441.25 119.958 440.782C119.123 440.314 118.433 439.641 117.959 438.833C116.326 436.139 114.885 433.341 113.649 430.459C108.262 437.97 103.915 446.12 100.716 454.704L93.4094 450.149L77.9559 478.178C77.7572 478.417 77.5372 478.64 77.2983 478.843Z" fill="white" fill-opacity="0.1"/>
<path d="M228.07 515C238.774 514.404 246.337 511.496 250.319 505.89C252.111 502.991 253.28 499.777 253.756 496.437C254.233 493.098 254.008 489.7 253.095 486.446L232.892 495.45C232.136 502.133 230.516 508.7 228.07 515Z" fill="white" fill-opacity="0.1"/>
<path d="M163.005 553.189H166.658H166.877C167.54 553.205 168.2 553.276 168.85 553.399C170.457 544.255 172.503 530.906 174.366 520.466H134.18L138.016 542.293C146.762 544.466 155.071 548.018 162.603 552.804C162.64 552.891 162.694 552.969 162.763 553.036C162.832 553.102 162.914 553.154 163.005 553.189Z" fill="white" fill-opacity="0.1"/>
<path d="M130.783 416.655C130.783 416.655 118.069 458.523 177.435 482.732C236.801 458.523 224.088 416.655 224.088 416.655C230.883 420.684 232.235 436.38 232.235 436.38C249.661 407.055 237.094 384.913 229.166 375.173C227.806 387.421 221.77 398.754 212.22 406.99C202.669 415.226 190.279 419.783 177.435 419.783C164.591 419.783 152.202 415.226 142.651 406.99C133.1 398.754 127.064 387.421 125.705 375.173C117.777 384.913 105.21 407.055 122.636 436.38C122.636 436.38 123.988 420.684 130.783 416.655Z" fill="white" fill-opacity="0.1"/>
<path d="M166.768 558.375H163.115C161.921 558.385 160.752 558.056 159.754 557.429C155.224 554.556 141.487 546.567 129.76 546.567C127.078 546.423 124.401 546.917 121.966 548.005C119.531 549.093 117.414 550.742 115.805 552.804C108.169 562.649 116.426 568.009 119.933 569.726C120.778 570.112 121.7 570.315 122.636 570.322H166.768C167.626 570.385 168.488 570.277 169.301 570.006C170.114 569.734 170.859 569.304 171.491 568.743C172.122 568.183 172.626 567.503 172.97 566.746C173.315 565.99 173.492 565.173 173.492 564.348C173.492 563.523 173.315 562.706 172.97 561.95C172.626 561.194 172.122 560.514 171.491 559.953C170.859 559.392 170.114 558.962 169.301 558.691C168.488 558.419 167.626 558.311 166.768 558.375Z" fill="white" fill-opacity="0.1"/>
<path d="M212.872 398.647C219.04 391.73 222.863 383.175 223.832 374.122L223.138 373.772C207.867 362 192.487 356.043 177.472 356.043C162.457 356.043 147.076 362 131.806 373.772L131.112 374.122C132.081 383.175 135.904 391.73 142.071 398.647C142.948 397.771 154.42 386.56 177.508 386.56C200.597 386.56 211.995 397.841 212.872 398.647Z" fill="white" fill-opacity="0.1"/>
<path d="M145.944 402.325C154.533 410.004 165.839 414.274 177.582 414.274C189.324 414.274 200.63 410.004 209.219 402.325C209.219 402.325 198.698 391.815 177.728 391.815C156.758 391.815 146.054 402.15 145.944 402.325Z" fill="white" fill-opacity="0.1"/>
<path d="M177.435 350.858C193.802 350.858 210.169 357.153 226.536 369.742C226.536 369.742 230.737 292.033 177.435 255C124.134 292.033 128.335 369.742 128.335 369.742C144.702 357.129 161.069 350.834 177.435 350.858Z" fill="white" fill-opacity="0.1"/>
<path d="M188.103 553.119H188.395H192.049C192.168 553.151 192.294 553.151 192.414 553.119C199.946 548.334 208.254 544.782 217.001 542.609L220.983 520.571H180.796C182.477 531.082 184.669 544.361 186.276 553.505C186.873 553.33 187.484 553.201 188.103 553.119Z" fill="white" fill-opacity="0.1"/>
<path d="M192.049 558.445H188.395C187.537 558.382 186.675 558.489 185.862 558.761C185.05 559.033 184.304 559.462 183.673 560.023C183.041 560.584 182.538 561.264 182.193 562.02C181.849 562.777 181.671 563.593 181.671 564.418C181.671 565.244 181.849 566.06 182.193 566.816C182.538 567.573 183.041 568.253 183.673 568.814C184.304 569.374 185.05 569.804 185.862 570.076C186.675 570.347 187.537 570.455 188.395 570.392H232.235C233.183 570.391 234.119 570.187 234.975 569.796C238.628 568.08 246.738 562.789 239.103 552.874C237.499 550.845 235.403 549.223 232.996 548.148C230.589 547.073 227.945 546.579 225.294 546.708C213.53 546.708 199.721 554.696 195.3 557.569C194.325 558.152 193.197 558.456 192.049 558.445Z" fill="white" fill-opacity="0.1"/>
<path d="M88.843 447.066C88.843 447.066 81.3537 440.374 73.9741 440.374C72.0857 440.383 70.2345 440.878 68.6147 441.809C66.9948 442.74 65.6661 444.072 64.7678 445.665C55.9634 459.013 73.1338 475.445 73.1338 475.445L88.843 447.066Z" fill="white" fill-opacity="0.1"/>
<path d="M112.955 360.317C111.165 338.981 104.004 305.031 77.0064 300.757C50.0085 304.996 42.8481 338.946 41.058 360.317C40.8665 362.513 41.1506 364.723 41.8924 366.808C42.6342 368.893 43.8176 370.808 45.3684 372.434C46.9192 374.059 48.8038 375.359 50.9037 376.253C53.0037 377.146 55.2736 377.613 57.5709 377.625H96.3688C98.6722 377.623 100.95 377.163 103.059 376.274C105.167 375.385 107.061 374.086 108.62 372.459C110.178 370.833 111.368 368.914 112.114 366.824C112.861 364.734 113.147 362.519 112.955 360.317Z" fill="white" fill-opacity="0.1"/>
<path d="M52.0547 570.321H67.8369H86.1034H98.7438V552.803H52.0547V570.321Z" fill="white" fill-opacity="0.1"/>
</svg>
