<svg width="132" height="146" viewBox="0 0 132 146" fill="none" xmlns="http://www.w3.org/2000/svg">
<path fill-rule="evenodd" clip-rule="evenodd" d="M31.2029 21.8L33.5087 14.9063C36.4862 6.00437 44.8454 0 54.2609 0H76.9891C86.4048 0 94.7639 6.00437 97.7411 14.9063L100.048 21.8H123.958C127.986 21.8 131.25 25.0534 131.25 29.0667C131.25 33.0799 127.986 36.3333 123.958 36.3333H7.29167C3.26462 36.3333 0 33.0799 0 29.0667C0 25.0534 3.26462 21.8 7.29167 21.8H31.2029ZM83.9067 19.5021L84.6752 21.8H46.575L47.3436 19.5021C48.3362 16.5348 51.1226 14.5333 54.2609 14.5333H76.9891C80.1274 14.5333 82.9143 16.5348 83.9067 19.5021Z" fill="#2B2D42"/>
<path fill-rule="evenodd" clip-rule="evenodd" d="M14.5834 50.8666C14.5834 46.8534 17.848 43.6 21.875 43.6H109.375C113.402 43.6 116.667 46.8534 116.667 50.8666V123.533C116.667 135.573 106.873 145.333 94.7917 145.333H36.4584C24.3772 145.333 14.5834 135.573 14.5834 123.533V50.8666ZM56.1976 74.795C53.3503 71.9574 48.7333 71.9574 45.8857 74.795C43.0382 77.6327 43.0382 82.2339 45.8857 85.0716L55.3132 94.4666L45.8857 103.862C43.0382 106.699 43.0382 111.301 45.8857 114.138C48.7333 116.976 53.3503 116.976 56.1976 114.138L65.625 104.743L75.0524 114.138C77.8998 116.976 82.5169 116.976 85.3643 114.138C88.2117 111.301 88.2117 106.699 85.3643 103.862L75.9369 94.4666L85.3643 85.0716C88.2117 82.2339 88.2117 77.6327 85.3643 74.795C82.5169 71.9574 77.8998 71.9574 75.0524 74.795L65.625 84.1901L56.1976 74.795Z" fill="#2B2D42"/>
</svg>
