<svg width="133" height="146" viewBox="0 0 133 146" fill="none" xmlns="http://www.w3.org/2000/svg">
<path fill-rule="evenodd" clip-rule="evenodd" d="M32.0779 22.3333L34.3837 15.4396C37.3612 6.5377 45.7204 0.533325 55.1359 0.533325H77.8641C87.2798 0.533325 95.6389 6.5377 98.6161 15.4396L100.923 22.3333H124.833C128.861 22.3333 132.125 25.5868 132.125 29.6C132.125 33.6132 128.861 36.8667 124.833 36.8667H8.16667C4.13962 36.8667 0.875 33.6132 0.875 29.6C0.875 25.5868 4.13962 22.3333 8.16667 22.3333H32.0779ZM84.7817 20.0354L85.5502 22.3333H47.45L48.2186 20.0354C49.2112 17.0681 51.9976 15.0667 55.1359 15.0667H77.8641C81.0024 15.0667 83.7893 17.0681 84.7817 20.0354Z" fill="black"/>
<path fill-rule="evenodd" clip-rule="evenodd" d="M15.4584 51.4C15.4584 47.3867 18.723 44.1333 22.75 44.1333H110.25C114.277 44.1333 117.542 47.3867 117.542 51.4V124.067C117.542 136.107 107.748 145.867 95.6667 145.867H37.3334C25.2522 145.867 15.4584 136.107 15.4584 124.067V51.4ZM57.0726 75.3284C54.2253 72.4907 49.6083 72.4907 46.7607 75.3284C43.9132 78.166 43.9132 82.7673 46.7607 85.6049L56.1882 95L46.7607 104.395C43.9132 107.233 43.9132 111.834 46.7607 114.672C49.6083 117.509 54.2253 117.509 57.0726 114.672L66.5 105.276L75.9274 114.672C78.7748 117.509 83.3919 117.509 86.2393 114.672C89.0867 111.834 89.0867 107.233 86.2393 104.395L76.8119 95L86.2393 85.6049C89.0867 82.7673 89.0867 78.166 86.2393 75.3284C83.3919 72.4907 78.7748 72.4907 75.9274 75.3284L66.5 84.7234L57.0726 75.3284Z" fill="black"/>
</svg>
