<svg width="110" height="153" viewBox="0 0 110 153" fill="none" xmlns="http://www.w3.org/2000/svg">
<path d="M35.867 90.355C34.824 88.1558 33.2772 87.0191 32.0897 86.4409C32.2108 88.0737 32.0506 90.0229 31.5936 92.2573C31.3319 93.5425 30.5858 94.4995 29.4452 95.0893V97.3471C30.5233 97.5815 32.4061 97.7612 35.039 97.2065C35.2773 94.5307 35.6053 92.0816 35.867 90.355Z" fill="#008BF8"/>
<path d="M45.164 98.352C41.7968 97.4184 38.9999 94.5512 36.9492 91.2504C36.6016 93.6449 36.1797 97.0824 36.0156 100.586H47.2426C46.4809 99.9066 45.7851 99.1606 45.164 98.352Z" fill="#008BF8"/>
<path d="M35 102.715V107.219C35 107.551 35.2227 107.824 35.5273 107.906H35.5391C35.5937 107.922 35.6523 107.93 35.7109 107.93L48.1759 107.926V102L35.7109 102.004C35.3125 102.004 35 102.32 35 102.715ZM44.6211 104.449C45.1719 104.449 45.6211 104.895 45.6211 105.449C45.6211 106 45.1719 106.449 44.6211 106.449C44.0703 106.449 43.6211 106 43.6211 105.449C43.6211 104.895 44.0703 104.449 44.6211 104.449ZM40.2891 104.449C40.8438 104.449 41.2891 104.895 41.2891 105.449C41.2891 106 40.8438 106.449 40.2891 106.449C39.7383 106.449 39.2891 106 39.2891 105.449C39.2891 104.895 39.7383 104.449 40.2891 104.449Z" fill="#F5B700"/>
<path d="M51.746 102.262C51.2382 101.739 50.7968 101.235 50.4179 100.75C50.1132 101.047 49.8281 101.278 49.6132 101.438V109.094C49.6132 109.621 50.0429 110.051 50.5703 110.051H59.9414C60.4648 110.051 60.8984 109.621 60.8984 109.094V101.364C60.8984 101.332 60.8906 101.305 60.8906 101.27C60.7187 101.406 60.5546 101.543 60.3828 101.668C60.2734 101.742 60.1562 101.781 60.0312 101.781C59.9179 101.781 59.8124 101.754 59.7109 101.696C59.6835 101.676 59.1445 101.332 58.539 100.746C58.2734 101.082 57.9843 101.43 57.6562 101.782H57.7148C58.496 101.782 59.1289 102.418 59.1289 103.196V107.254C59.1289 108.035 58.4922 108.668 57.7148 108.668L52.7968 108.676C52.0116 108.676 51.3827 108.039 51.3827 107.262V103.203C51.3827 102.844 51.5194 102.516 51.746 102.262Z" fill="#F5B700"/>
<path d="M57.715 107.477C57.8322 107.477 57.9299 107.379 57.9299 107.262V103.204C57.9299 103.083 57.8283 102.989 57.715 102.989H56.465C55.9806 103.442 55.4494 103.899 54.8595 104.368C54.8087 104.407 54.7501 104.434 54.6915 104.461C54.6798 104.465 54.6681 104.469 54.6525 104.473C54.5978 104.489 54.5392 104.5 54.4806 104.5C54.4259 104.5 54.3634 104.489 54.3087 104.473C54.297 104.469 54.2853 104.465 54.2697 104.461C54.215 104.438 54.1564 104.411 54.1056 104.368C53.5626 103.938 53.0665 103.516 52.6134 103.102C52.5978 103.133 52.5861 103.168 52.5861 103.208V107.266C52.5861 107.383 52.6837 107.481 52.8009 107.481L57.715 107.477Z" fill="#F5B700"/>
<path d="M41.023 119.965C41.8628 120.16 42.7066 120.602 43.5386 121.277H54.6206V119.004C48.7768 118.887 43.8866 118.348 40.2926 117.785L41.023 119.965Z" fill="#04E762"/>
<path d="M46.051 124.215C46.219 124.5 46.1213 124.867 45.8361 125.035C45.7385 125.09 45.6369 125.113 45.5354 125.113C45.3283 125.113 45.1291 125.004 45.0158 124.817C45.008 124.801 44.1916 123.418 42.9299 122.328C42.094 121.617 41.2697 121.192 40.4807 121.082C39.6135 120.953 38.7854 121.18 37.9455 121.774C34.7228 124.059 36.0002 127.082 36.4885 128H53.3435V122.473H44.7654C45.5584 123.375 46.0275 124.164 46.051 124.215Z" fill="black"/>
<path d="M76.672 121.77C75.8361 121.18 75.004 120.954 74.1368 121.079C73.3361 121.204 72.5079 121.622 71.6876 122.329C70.4259 123.414 69.6095 124.801 69.6017 124.817C69.4885 125.004 69.2892 125.114 69.0822 125.114C68.9806 125.114 68.8791 125.09 68.7814 125.036C68.4963 124.868 68.3986 124.5 68.5666 124.215C68.5939 124.168 69.0588 123.375 69.8518 122.477H61.2737L61.2698 128H78.1248C78.617 127.09 79.8907 124.063 76.672 121.77Z" fill="black"/>
<path d="M73.59 119.969L74.3595 117.68C69.2345 118.473 64.4103 118.86 59.9965 118.981V121.282H71.0785C71.9027 120.602 72.7463 120.164 73.59 119.969Z" fill="#04E762"/>
<path d="M77.516 108.914H62.098V109.098C62.098 110.285 61.1293 111.254 59.9418 111.254H50.5707C49.3793 111.254 48.4145 110.285 48.4145 109.098V108.914H36.1645L34.4262 115.406C37.8676 116.273 56.5472 120.414 80.3642 115.363L79.9189 111.144C78.8681 110.508 78.0433 109.727 77.516 108.914Z" fill="#008BF8"/>
<path d="M80.215 102.133L80.0978 101.789H62.0978V107.715H76.9768C76.8401 107.192 76.8557 106.692 77.0197 106.242C77.6018 104.617 79.2658 102.973 80.215 102.133ZM65.496 106.235C64.9452 106.235 64.496 105.785 64.496 105.235C64.496 104.68 64.9452 104.235 65.496 104.235C66.0467 104.235 66.496 104.68 66.496 105.235C66.496 105.785 66.0467 106.235 65.496 106.235ZM69.8241 106.235C69.2733 106.235 68.8241 105.785 68.8241 105.235C68.8241 104.68 69.2733 104.235 69.8241 104.235C70.3748 104.235 70.8241 104.68 70.8241 105.235C70.8241 105.785 70.3788 106.235 69.8241 106.235ZM74.5077 106.235C73.9569 106.235 73.5077 105.785 73.5077 105.235C73.5077 104.68 73.9569 104.235 74.5077 104.235C75.0584 104.235 75.5077 104.68 75.5077 105.235C75.5077 105.785 75.0584 106.235 74.5077 106.235Z" fill="#F5B700"/>
<path d="M79.691 100.586L79.1089 98.8713C78.8199 98.0197 79.1832 97.0822 79.9722 96.6486C80.0464 96.6056 80.1246 96.5665 80.2027 96.5236C79.4644 92.1056 77.5347 88.2658 76.1754 85.9926C76.1676 86.0238 76.1559 86.059 76.1441 86.0941C74.3238 91.055 69.3863 97.0001 63.7691 98.3871C63.2027 99.1215 62.5699 99.8051 61.8785 100.438C61.902 100.489 61.9293 100.536 61.9489 100.586L79.691 100.586Z" fill="#008BF8"/>
<path d="M84.086 108.746C84.0626 108.418 84.3048 108.125 84.6368 108.102C84.9649 108.074 85.254 108.316 85.2813 108.648C85.2891 108.719 85.3985 110.137 85.0431 111.395C85.3399 111.402 85.6446 111.402 85.9493 111.383C86.8165 111.332 87.4805 111.004 87.9884 110.375C89.4103 108.613 89.172 105.043 88.965 103.367C88.1798 103.418 87.3322 103.438 86.4923 103.438C83.7775 103.438 81.129 103.234 80.965 103.223C80.9181 103.219 80.8673 103.207 80.8243 103.191C79.9923 103.949 78.6055 105.363 78.1407 106.648C78.004 107.012 78.09 107.5 78.3712 108.027C78.6134 108.473 78.9845 108.914 79.4493 109.332C79.711 108.184 80.0978 107.16 80.1212 107.109C80.2384 106.797 80.586 106.641 80.8946 106.762C81.2071 106.883 81.3595 107.226 81.2423 107.539C81.2345 107.551 80.7384 108.867 80.5196 110.105C80.586 110.144 80.6524 110.184 80.7228 110.226C80.7423 110.238 80.7618 110.246 80.7814 110.258C81.6446 110.738 82.6758 111.105 83.8125 111.285C84.129 110.398 84.1251 109.191 84.086 108.746Z" fill="#F9DEDC"/>
<path d="M81.453 102.055C82.8124 102.149 87.3553 102.407 90.0546 102.063C90.414 101.59 91.371 100.215 91.6796 98.6487C91.707 98.5002 91.6327 98.3401 91.4882 98.2658C91.2304 98.1252 90.9179 97.9651 90.5585 97.801C90.5155 97.7854 90.4804 97.7698 90.4374 97.7463C88.2108 96.7502 84.2851 95.6252 80.5546 97.6995C80.3398 97.8205 80.2148 98.0432 80.2148 98.2776C80.2148 98.344 80.2226 98.4182 80.246 98.4846L81.453 102.055Z" fill="#008BF8"/>
<path d="M96.355 93.051C95.9487 90.0198 95.1597 86.6682 94.6519 84.6877H89.2027C90.898 88.0471 91.8746 92.09 91.3785 96.8637C91.6324 96.9887 91.8628 97.1059 92.0582 97.2114C92.6675 97.5434 92.9839 98.2114 92.8589 98.8794C92.4175 101.129 90.898 102.942 90.8355 103.016C90.7379 103.129 90.609 103.2 90.4644 103.219C90.3668 103.235 90.2652 103.247 90.1637 103.258C90.4137 105.293 90.6012 109.055 88.9254 111.125C88.2066 112.016 87.234 112.508 86.0309 112.582C85.7965 112.598 85.5582 112.602 85.3316 112.602C83.8043 112.602 82.4019 112.29 81.1949 111.782L81.5465 115.094C84.1559 115.477 89.6246 115.782 93.0265 112.446C97.882 107.672 96.8003 96.395 96.355 93.051Z" fill="black"/>
<path d="M88.551 83.488H94.8869C95.926 83.488 96.7736 82.6403 96.7736 81.5974C96.7736 81.0974 96.5744 80.6208 96.2189 80.2615C95.8635 79.906 95.3869 79.7107 94.8869 79.7107H85.84C86.8244 80.8435 87.7424 82.1052 88.551 83.488Z" fill="black"/>
<path d="M87.695 84.418C86.6598 82.5742 85.4098 80.9571 84.0817 79.5586C84.0543 79.5352 84.0309 79.5118 84.0114 79.4844C82.8864 78.3125 81.7223 77.2969 80.5973 76.4336C80.5816 76.4219 80.566 76.4141 80.5543 76.3985C79.027 75.2305 77.5934 74.3438 76.4723 73.7188C77.2848 77.6446 77.4606 81.1836 76.6442 84.4458C77.9958 86.5396 80.4059 90.8325 81.3395 96.0118C84.695 94.7345 88.0075 95.4844 90.2223 96.3555C90.6324 91.6328 89.5191 87.6719 87.6989 84.4215L87.695 84.418Z" fill="#008BF8"/>
<path d="M80.051 69.809C79.1135 70.7778 77.8166 71.5785 76.0862 72.0238C76.0979 72.0707 76.1096 72.1254 76.1213 72.1723C77.2854 72.766 79.0354 73.7661 80.9533 75.1996C81.5393 74.7933 82.383 74.3402 83.4103 74.1332C83.3791 73.1098 83.0236 72.2035 82.3478 71.4301C81.6369 70.6136 80.7073 70.0981 80.051 69.809Z" fill="#F5B700"/>
<path d="M85.383 75.2849C83.9611 75.0232 82.7619 75.4881 81.9533 75.9764C82.8752 76.7224 83.8205 77.5623 84.7345 78.5076H88.6759C88.4337 77.1014 87.6837 76.1248 86.4415 75.6014C86.0938 75.4568 85.7502 75.3553 85.383 75.2849Z" fill="#F5B700"/>
<path d="M89.891 78.508H92.6449C92.6684 77.7541 92.6019 77.0705 92.434 76.4807C92.141 75.4573 91.5473 74.7307 90.6684 74.3205C88.9496 73.5197 87.6332 73.883 86.7543 74.4416C86.8051 74.4611 86.8597 74.4767 86.9105 74.4963C88.9691 75.3635 89.6839 77.0627 89.891 78.508Z" fill="#F5B700"/>
<path d="M83.547 71.012C84.2033 71.8909 84.5548 72.8987 84.6017 74.0159C84.8244 74.0159 85.0548 74.0315 85.2853 74.0588C86.2072 73.2112 88.2658 71.883 91.1681 73.2346C92.0118 73.6252 92.6603 74.2268 93.1056 75.0198C93.5822 73.9417 93.7697 72.4182 93.3204 71.1018C92.84 69.6956 91.7227 68.7737 90.0743 68.4416C88.9259 68.2112 87.8438 68.2502 86.8516 68.5588C85.2344 69.0627 84.1486 70.1956 83.547 71.012Z" fill="#F5B700"/>
<path d="M81.93 66.219C81.762 67.094 81.4065 68.0042 80.8362 68.8518C81.4417 69.1409 82.1174 69.551 82.7268 70.1096C83.3674 69.2932 84.3909 68.2737 85.8401 67.6604C84.9924 66.3792 83.1019 66.1956 81.93 66.219Z" fill="#F5B700"/>
<path d="M78.699 61.148C76.367 60.0425 74.3904 61.1949 73.2849 62.1363C73.5076 63.2261 73.8162 64.4175 74.2419 65.7066C74.2458 65.7144 74.2458 65.7183 74.2498 65.7261C74.6326 65.0543 75.1599 64.437 75.8787 64.1089C76.6677 63.7496 77.5506 63.7769 78.4998 64.1871C78.8044 64.3199 78.9451 64.6753 78.8123 64.98C78.6794 65.2847 78.3279 65.4253 78.0232 65.2925C77.3826 65.0152 76.8435 64.9839 76.3748 65.1988C75.7381 65.4917 75.1834 66.2808 74.7928 67.4293C75.16 68.6051 75.492 69.7457 75.7889 70.8551C79.1014 70.0074 80.5545 67.652 80.8084 65.652C80.8123 65.6246 80.8123 65.5934 80.8162 65.5621V65.5543C81.0232 63.6168 80.1795 61.8472 78.699 61.148Z" fill="#F5B700"/>
<path d="M34.859 70.191C35.2652 68.6988 35.7418 67.1558 36.2692 65.5504C36.2692 65.5465 36.2731 65.5426 36.2731 65.5387C35.652 64.9879 34.5583 65.3121 34.5426 65.316C34.2301 65.4176 33.8903 65.2418 33.7965 64.9254C33.6949 64.609 33.8668 64.273 34.1832 64.1754C34.2535 64.1558 35.566 63.7574 36.648 64.3394C37.0855 62.8238 37.359 61.4527 37.523 60.2535C35.9722 60.3278 33.0816 60.8121 32.3042 63.2613C31.3355 66.3043 33.2223 68.8511 34.859 70.191Z" fill="#F5B700"/>
<path d="M54.7972 72.6136C56.2213 74.4538 59.0416 77.1198 63.8753 78.1224L64.3685 78.2181H64.3704C65.216 78.3671 65.9988 78.4369 66.7181 78.4369C69.9503 78.4369 71.9138 77.0569 73.0589 75.6449C74.1465 74.3037 74.4814 72.9545 74.5179 72.7904L74.5189 72.7914C74.5193 72.7896 74.5185 72.7873 74.5189 72.7855C75.1219 75.341 75.472 77.6997 75.472 79.8978C75.472 80.7362 75.4173 81.5501 75.3109 82.3431C75.0805 82.3222 74.8436 82.3728 74.636 82.4984L74.5433 82.5609L74.5374 82.5658C74.0599 82.9364 73.9663 83.6227 74.3372 84.1078V84.1068C74.352 84.127 74.3698 84.1524 74.3802 84.1664C74.4081 84.2039 74.4488 84.259 74.5003 84.3304C74.5772 84.4369 74.6761 84.5824 74.7972 84.7601C74.7695 84.85 74.7437 84.9396 74.7151 85.0277L74.5501 85.5062V85.5072C73.7852 87.5919 72.4067 89.8598 70.6634 91.8285C69.2819 93.3885 67.6862 94.7407 66.0091 95.6683C66.5774 94.4605 66.8575 93.4734 66.9818 92.9398L67.0677 92.516L67.0687 92.514C67.1616 91.9135 66.7521 91.3533 66.1507 91.2601C65.5557 91.168 64.9904 91.5697 64.8939 92.1713C64.8937 92.1721 64.892 92.1811 64.889 92.1976C64.8859 92.2146 64.8813 92.2406 64.8743 92.2748C64.8603 92.3437 64.8373 92.4463 64.804 92.5785C64.7375 92.8433 64.6278 93.2263 64.4564 93.6918C64.1132 94.6233 63.5245 95.8833 62.5413 97.1967L62.514 97.2328L62.5062 97.2474C61.7961 98.1902 60.9626 99.0472 60.0228 99.8041C59.981 99.7684 59.9377 99.7312 59.8939 99.6918C61.2401 97.5562 61.4203 96.0449 61.4349 95.7963L61.4359 95.7972C61.4361 95.7941 61.4357 95.7906 61.4359 95.7875C61.436 95.7847 61.4367 95.782 61.4368 95.7797L61.4359 95.7787C61.4684 95.1879 61.0292 94.6713 60.4261 94.6263H60.4271C59.817 94.5764 59.2934 95.0305 59.2435 95.6302L59.2415 95.6508V95.6713C59.2412 95.5523 59.048 98.0219 55.7855 101.278L55.6019 101.456L55.4573 101.593C55.1513 101.881 54.8261 102.176 54.4769 102.473C50.5558 99.1535 49.8426 96.3589 49.7288 95.7533L49.7093 95.6332C49.6673 95.0655 49.2016 94.6358 48.6468 94.6195L48.5345 94.6224C47.9618 94.6631 47.5301 95.1326 47.514 95.6859L47.5169 95.7972V95.7982C47.5295 95.969 47.6792 97.4979 49.0579 99.6908C49.0145 99.7297 48.9725 99.7677 48.931 99.8031C47.9751 99.0252 47.1229 98.1457 46.3929 97.1703H46.3939C44.4716 94.5797 44.0621 92.1805 44.0599 92.1674H44.0579C43.9675 91.6034 43.4662 91.2141 42.9134 91.2435L42.8021 91.2552H42.8011C42.2005 91.3494 41.7989 91.916 41.8841 92.5052L41.886 92.5179L41.888 92.5316C41.8882 92.5326 41.8894 92.5343 41.89 92.5375C41.891 92.5432 41.892 92.5529 41.8939 92.5629C41.8977 92.5834 41.9028 92.6109 41.9095 92.6449C41.923 92.7133 41.9431 92.8073 41.97 92.9232C42.0239 93.155 42.1069 93.4761 42.2318 93.8656C42.3613 94.2698 42.5366 94.7481 42.7689 95.2787C40.7882 93.8321 39.0829 91.6125 37.764 89.2552C37.8851 88.5139 37.9619 88.1043 37.9612 88.1049L37.9651 88.0892L37.9681 88.0726C38.0737 87.4874 37.6955 86.9046 37.0892 86.7933H37.0901C36.9034 86.7576 36.7208 86.7714 36.555 86.8246C36.4113 86.4966 36.2768 86.1712 36.1526 85.851L35.9661 85.3539L35.9651 85.351L35.7943 84.8578C34.6357 81.298 34.888 77.2954 35.9886 72.6332C36.0149 72.7515 36.3426 74.1224 37.4485 75.4867C38.5935 76.899 40.5563 78.2805 43.7884 78.2806C44.3309 78.2806 44.9052 78.2419 45.515 78.1595L46.137 78.0619H46.138C51.1737 77.1649 53.5617 74.5171 54.636 72.6195C54.6904 72.6179 54.7441 72.6166 54.7972 72.6136ZM71.0735 57.1176C71.0546 59.0817 71.3039 61.9296 72.386 65.4828L72.6263 66.2416L73.1126 67.7465C73.5601 69.1716 73.9579 70.5411 74.2933 71.8588C74.2634 71.8226 74.2319 71.7876 74.1976 71.7552L74.0735 71.6537L74.0677 71.6498L73.9261 71.5668C73.6322 71.4243 73.2871 71.42 72.9886 71.556L72.8431 71.6351L72.8392 71.6381C72.7998 71.6594 72.4214 71.8614 71.8519 71.7279H71.8528C71.1058 71.5521 70.2511 70.8542 69.4056 69.5424L69.2366 69.2719L69.2357 69.2699L69.0355 68.9613C68.9129 68.7828 68.7827 68.6132 68.6478 68.4496C70.8487 65.6216 70.848 62.0018 70.848 61.8353V56.9984C70.9239 57.0383 70.9991 57.078 71.0735 57.1176ZM39.6683 61.6674C39.6656 61.7825 39.6674 62.798 39.97 64.1381C40.2497 65.3764 40.7936 66.9203 41.8519 68.2865C41.7196 68.4527 41.5918 68.6265 41.47 68.808L41.2718 69.1185L41.2708 69.1195C40.4262 70.5151 39.566 71.2907 38.8069 71.5336L38.6566 71.5746C38.0149 71.7216 37.6243 71.4457 37.6985 71.5013L37.6878 71.4945L37.6771 71.4867L37.5345 71.4056C37.2399 71.2653 36.8938 71.2587 36.5931 71.3998L36.4476 71.4828L36.4417 71.4867C36.3569 71.5454 36.2828 71.615 36.2191 71.6918C36.6709 69.9195 37.2365 68.0536 37.8851 66.0824C39.1724 62.1861 39.4533 59.0724 39.4359 56.9896C39.512 56.9349 39.5892 56.8797 39.6683 56.8246V61.6674Z" fill="white" stroke="#F9DEDC"/>
<path d="M58.797 66.602C58.797 64.2192 56.8595 62.2856 54.4767 62.2856C52.0939 62.2856 50.1603 64.2192 50.1603 66.602C50.1603 68.9848 52.0939 70.9223 54.4767 70.9223C56.8595 70.9263 58.797 68.9848 58.797 66.602Z" fill="#F9DEDC"/>
<path d="M48.4741 66.9923C48.627 69.3731 50.1667 71.3721 52.2935 72.2032C51.3298 73.5306 49.5172 75.1282 46.1313 75.8185L45.7515 75.8907C43.3121 76.3252 41.6658 75.937 40.5571 75.3097C39.7853 74.873 39.2497 74.3045 38.8804 73.7687L39.0991 73.7316L39.103 73.7306C40.5543 73.4125 41.8308 72.32 42.938 70.6124L43.1577 70.2628C44.4535 68.1239 46.6925 67.2975 48.4741 66.9923Z" fill="white" stroke="#F9DEDC"/>
<path d="M60.4833 66.9717C61.4797 67.0964 62.7104 67.3342 63.8906 67.7881C65.211 68.2959 66.4253 69.057 67.2001 70.1875L67.3495 70.4189L67.3505 70.4199C68.4385 72.2082 69.6924 73.392 71.1171 73.8125L71.4042 73.8867L71.4091 73.8877C71.4832 73.9032 71.557 73.9136 71.6288 73.9248C71.2605 74.4613 70.7264 75.0321 69.9531 75.4697C68.9137 76.0578 67.4009 76.4362 65.204 76.123L64.7558 76.0508C60.9416 75.3693 58.5393 73.5167 57.1445 71.9941C59.0233 71.0603 60.3502 69.1785 60.4833 66.9717Z" fill="white" stroke="#F9DEDC"/>
<path d="M53.8401 52.5435C53.9351 52.5435 54.0114 52.544 54.0931 52.5474H54.1097C59.7671 52.5961 64.8165 54.1966 68.6439 55.9243L68.637 61.8354V61.8364C68.637 61.846 68.6356 62.6569 68.3939 63.7485C68.1755 64.7341 67.7663 65.918 67.013 66.9487C65.509 65.8905 63.7184 65.3102 62.1058 64.9946C62.1882 65.002 62.2715 65.0083 62.3558 65.0083C63.7965 65.0083 64.9808 63.9161 65.1194 62.5142L65.1331 62.229C65.1321 60.696 63.8891 59.4536 62.3558 59.4536C60.8231 59.4537 59.5745 60.696 59.5745 62.231C59.5745 63.515 60.4494 64.5901 61.6321 64.9087C61.1181 64.822 60.6279 64.7615 60.178 64.7192C59.3904 62.321 57.1319 60.5825 54.4691 60.5825C53.1626 60.5825 51.953 61.0026 50.9681 61.7114L50.7747 61.8569C50.7381 61.8856 50.7013 61.9144 50.6653 61.9438C50.5217 60.5448 49.3396 59.4536 47.9026 59.4536C46.3689 59.4538 45.1253 60.6971 45.1253 62.231C45.1253 63.5976 46.1133 64.7299 47.4134 64.9614C46.1484 65.25 44.7197 65.7789 43.4417 66.7378C42.7153 65.7177 42.3194 64.5513 42.1058 63.5796C41.8667 62.4919 41.8636 61.6854 41.8636 61.6802V55.4702C44.7463 53.9144 48.7266 52.5435 53.8401 52.5435Z" fill="#F9DEDC" stroke="#F9DEDC"/>
<path d="M83.109 36.1094C83.109 41.2305 75.4215 41.2305 75.4215 36.1094C75.4215 30.9844 83.109 30.9844 83.109 36.1094Z" fill="#DC0073"/>
<path d="M74.312 47.496C73.519 42.703 68.6636 39.0858 68.6089 39.0468C68.3394 38.8515 68.2847 38.4765 68.48 38.2108C68.6714 37.9413 69.0464 37.8827 69.3159 38.078C69.4565 38.1835 71.3667 39.5975 73.0464 41.8632C73.6285 40.5976 74.3667 39.5507 75.0073 38.789C74.5151 38.0078 74.2222 37.0898 74.2222 36.1054C74.2222 34.9218 74.6323 33.8359 75.3199 32.9726C71.984 29.957 65.3707 25.9062 56.0229 29.2656C46.0189 32.8633 41.1129 42.0586 39.1829 46.8126C42.2571 44.6485 46.2024 43.0938 54.4209 42.379C63.0225 41.629 70.437 45.1522 74.312 47.496Z" fill="#DC0073"/>
<path d="M53.836 50.844C53.9336 50.844 54.0274 50.844 54.129 50.8479C64.317 50.9416 72.586 55.7971 75.668 57.8791C75.7422 57.9299 75.8164 57.9142 75.8633 57.8908C75.8984 57.8713 75.9687 57.8205 75.9687 57.715V50.9338C75.9687 50.3518 75.6797 49.8049 75.1953 49.4768C75.043 49.3753 74.8789 49.2659 74.7031 49.1526C74.6953 49.1487 74.6875 49.1409 74.6797 49.137C71.3203 46.9495 63.5977 42.7815 54.5277 43.5706C49.7894 43.9846 46.5511 44.6565 44.0787 45.5784C41.606 46.4963 39.9029 47.6604 38.2389 49.0511C37.5904 49.594 36.9498 50.1722 36.2662 50.7816C35.8795 51.1292 35.6646 51.6253 35.6841 52.141L35.8443 57.7543C38.0787 55.5316 43.9573 50.844 53.836 50.844Z" fill="#DC0073"/>
<path d="M30.465 59.039V57.6445C29.4181 57.6289 27.258 57.6055 26.4103 57.6523C25.5275 57.7031 24.2033 58.2851 23.3556 58.7148V59.039C23.3556 59.4297 23.6368 59.7617 24.0236 59.8398C24.0704 59.8476 24.1212 59.8515 24.172 59.8515H29.6486C30.0978 59.8476 30.465 59.4843 30.465 59.039Z" fill="#F5B700"/>
<path d="M28.246 39.281C28.246 38.2537 27.4062 37.4138 26.3788 37.4138C25.3476 37.4138 24.5116 38.2537 24.5116 39.281V45.2341H28.246V39.281Z" fill="black"/>
<path d="M30.465 49.691V47.2535C30.465 46.8043 30.0978 46.4371 29.6486 46.4371L24.172 46.4332C24.1212 46.4332 24.0704 46.4371 24.0236 46.4489C23.6368 46.5192 23.3556 46.8551 23.3556 47.2496V48.6168C24.2111 49.0504 25.5314 49.6285 26.4103 49.6754C27.2619 49.7301 29.4181 49.7028 30.465 49.691Z" fill="#F5B700"/>
<path d="M26.344 56.4531C27.2346 56.4023 29.3987 56.4257 30.4651 56.4413V50.8866C29.3987 50.9023 27.2346 50.9257 26.344 50.8749C24.6799 50.7773 22.2502 49.3866 22.1448 49.328C19.137 47.7225 17.5471 44.0272 16.8948 42.0858C14.887 45.1913 9.74641 55.0038 16.8831 65.2698C17.5315 63.344 19.1214 59.6136 22.1643 57.9886C22.2502 57.9378 24.6799 56.5508 26.344 56.4531Z" fill="#F5B700"/>
<path d="M26.695 80.777C27.2497 80.7496 27.7653 80.7926 28.2458 80.8942V61.0502H24.5114V81.1162C25.6325 80.8037 26.5309 80.777 26.695 80.777Z" fill="black"/>
<path d="M30.418 92.023C30.4297 91.9566 30.4414 91.8941 30.4531 91.8277C29.4648 91.1363 27.6484 91.2339 26.9883 91.3394C26.6602 91.3902 26.3516 91.1714 26.3008 90.8433C26.2461 90.5152 26.4688 90.2066 26.7969 90.1558C26.9063 90.1402 29.0742 89.8042 30.6758 90.5738C30.875 89.2652 30.961 88.0777 30.9219 87.0386C30.4258 87.1558 29.7969 87.2534 29.0586 87.2534C28.7227 87.2534 28.3672 87.2339 27.9922 87.187C27.6602 87.144 27.4297 86.8433 27.4727 86.5151C27.5117 86.187 27.8164 85.9565 28.1446 85.9956C29.2852 86.144 30.211 85.9917 30.8204 85.8276C30.6524 84.644 30.2969 83.7104 29.7501 83.0698C29.0626 82.2651 28.0821 81.9057 26.7423 81.976H26.6915C26.5118 81.976 25.4298 81.9956 24.2149 82.4526C24.1602 82.4838 24.0977 82.5112 24.0313 82.5229C22.4454 83.1713 20.7071 84.5854 20.5157 87.6752C20.3751 89.9018 20.8516 91.6283 21.9337 92.8041C22.5665 93.4916 23.3243 93.9057 24.0392 94.1635C24.0782 94.1713 24.1173 94.1869 24.1603 94.2026C24.9806 94.476 25.7267 94.5346 26.1486 94.5424C26.9454 94.558 27.8283 94.4799 28.5939 94.1674C28.6056 94.1635 28.6212 94.1557 28.6368 94.1518C29.4923 93.7963 30.1876 93.1519 30.418 92.023Z" fill="#F9DEDC"/>
<path d="M26.121 95.746C25.7577 95.7382 25.1796 95.6991 24.5155 95.5468L24.5116 128H28.246V95.5308C27.6679 95.6753 27.0312 95.7495 26.3319 95.7495C26.2655 95.7495 26.1913 95.7499 26.121 95.746Z" fill="black"/>
<path fill-rule="evenodd" clip-rule="evenodd" d="M53.3851 14.5288L55.2343 12.7067L58.0638 15.4948L56.2055 17.3169C56.9888 18.4529 57.5386 19.7499 57.8149 21.1401H60.4398V25.0821H57.8149C57.5401 26.4709 56.9888 27.7709 56.2055 28.9054L58.0638 30.729L55.2343 33.5186L53.3851 31.6965C52.2322 32.4594 50.916 33.0101 49.505 33.2734V35.8598L45.5045 35.8568V33.2704C44.0844 33.007 42.7772 32.4578 41.6244 31.6935L39.7752 33.5156L36.9441 30.726L38.7933 28.9024C38.0191 27.7679 37.4603 26.4694 37.1854 25.0791H34.5697V21.1398H37.1854C37.4603 19.7496 38.0207 18.4526 38.7933 17.3166L36.9441 15.4944L39.7752 12.7064L41.6244 14.5285C42.7772 13.7656 44.0844 13.2149 45.5045 12.9516V10.3652H49.505V12.9516C50.916 13.2134 52.2322 13.7644 53.3851 14.5288ZM58.7023 9.60266V10.9764C58.7023 11.2893 58.435 11.5527 58.1174 11.5527H52.4477V12.7744C52.069 12.5954 51.6827 12.4449 51.2856 12.308V10.9764C51.2856 10.6544 51.5437 10.4001 51.8705 10.4001H57.5308V9.6027C56.8085 9.35744 56.2833 8.68788 56.2833 7.89043C56.2833 6.88984 57.1094 6.08488 58.1157 6.08488C59.1219 6.08488 59.948 6.89138 59.948 7.89043C59.9496 8.68788 59.4245 9.35591 58.7023 9.60266ZM36.3075 9.60266V10.9764C36.3075 11.2893 36.5655 11.5527 36.8923 11.5527H42.5527V12.7744C42.9314 12.5954 43.3269 12.4449 43.7223 12.308V10.9764C43.7223 10.6544 43.4551 10.4001 43.1375 10.4001L37.4678 10.3986V9.60119C38.1992 9.35594 38.7245 8.68638 38.7245 7.88893C38.7245 6.88833 37.8984 6.08337 36.8921 6.08337C35.8766 6.08337 35.0597 6.88987 35.0597 7.88893C35.0597 8.68788 35.576 9.35591 36.3075 9.60266ZM37.468 36.6199V35.824H43.1377C43.4554 35.824 43.7226 35.5607 43.7226 35.2477V33.9176C43.3271 33.7807 42.9316 33.6302 42.5529 33.4512V34.6715H36.8925C36.5658 34.6715 36.3077 34.9348 36.3077 35.2477V36.62C35.5854 36.8667 35.0602 37.5438 35.0602 38.3322C35.0602 39.3328 35.8771 40.1378 36.8925 40.1378C37.8988 40.1378 38.7249 39.3328 38.7249 38.3322C38.7249 37.5453 38.201 36.8667 37.468 36.6199ZM37.3229 28.838H32.8322C32.5054 28.838 32.2473 29.0923 32.2473 29.4068V30.9235C31.5159 31.1612 30.9906 31.8398 30.9906 32.6357C30.9906 33.6273 31.8167 34.4413 32.8322 34.4413C33.8385 34.4413 34.6646 33.6288 34.6646 32.6357C34.6646 31.8398 34.1393 31.1612 33.4079 30.9235V29.9831H36.1519L37.3229 28.838ZM33.4765 22.2687C33.1665 21.6999 32.5557 21.3012 31.8502 21.3012C30.8439 21.3012 30.0178 22.1152 30.0178 23.1068C30.0178 24.1074 30.8439 24.9123 31.8502 24.9123C32.5557 24.9123 33.1665 24.5212 33.4765 23.9539V22.2687ZM36.1533 16.2398H33.4078V15.2994C34.1392 15.0632 34.6645 14.3831 34.6645 13.5871C34.6645 12.5956 33.8384 11.7816 32.8321 11.7816C31.8166 11.7816 30.9906 12.5941 30.9906 13.5871C30.9906 14.3831 31.5159 15.0617 32.2473 15.2994V16.8161C32.2473 17.129 32.5053 17.3848 32.8321 17.3848H37.3229L36.1533 16.2398ZM36.2205 7.88897C36.2205 7.52485 36.5213 7.22845 36.8924 7.22845C37.2619 7.22845 37.5551 7.52487 37.5551 7.88897C37.5551 8.24557 37.2543 8.54197 36.8924 8.54197C36.5229 8.54348 36.2205 8.24556 36.2205 7.88897ZM32.1601 13.587C32.1601 13.2229 32.4533 12.9355 32.832 12.9355C33.2015 12.9355 33.4947 13.2229 33.4947 13.587C33.4947 13.9511 33.1939 14.2491 32.832 14.2491C32.4609 14.2476 32.1601 13.9512 32.1601 13.587ZM31.1874 23.1069C31.1874 22.7427 31.4791 22.4554 31.8501 22.4554C32.2197 22.4554 32.522 22.7427 32.522 23.1069C32.522 23.471 32.2212 23.7689 31.8501 23.7689C31.4898 23.7674 31.1874 23.4725 31.1874 23.1069ZM32.1601 32.6356C32.1601 32.2715 32.4533 31.9735 32.832 31.9735C33.2015 31.9735 33.4947 32.2699 33.4947 32.6356C33.4947 32.9922 33.1939 33.2886 32.832 33.2886C32.4609 33.2886 32.1601 32.9922 32.1601 32.6356ZM36.2205 38.3336C36.2205 37.9695 36.5213 37.6806 36.8924 37.6806C37.2619 37.6806 37.5551 37.968 37.5551 38.3336C37.5551 38.6977 37.2543 38.9957 36.8924 38.9957C36.5229 38.9942 36.2205 38.6978 36.2205 38.3336ZM57.5313 36.6199V35.8239H51.8709C51.5441 35.8239 51.2861 35.5606 51.2861 35.2476V33.9175C51.6831 33.7806 52.0694 33.6302 52.4481 33.4511V34.6714H58.1179C58.4355 34.6714 58.7027 34.9347 58.7027 35.2477V36.6199C59.4265 36.8667 59.9503 37.5437 59.9503 38.3322C59.9503 39.3328 59.1333 40.1377 58.1179 40.1377C57.1024 40.1377 56.2855 39.3328 56.2855 38.3322C56.2855 37.5452 56.809 36.8666 57.5313 36.6199ZM57.687 28.838H62.1778C62.4954 28.838 62.7626 29.0922 62.7626 29.4067V30.9234C63.4864 31.1611 64.0102 31.8397 64.0102 32.6357C64.0102 33.6272 63.1933 34.4412 62.1778 34.4412C61.1623 34.4412 60.3454 33.6287 60.3454 32.6357C60.3454 31.8397 60.8707 31.1611 61.593 30.9234V29.983H58.849L57.687 28.838ZM61.532 22.2686C61.8328 21.6999 62.4528 21.3012 63.1491 21.3012C64.1645 21.3012 64.9814 22.1152 64.9814 23.1067C64.9814 24.1073 64.1645 24.9123 63.1491 24.9123C62.4436 24.9123 61.8328 24.5211 61.532 23.9538V22.2686ZM58.8491 16.2397H61.593V15.2993C60.8708 15.0631 60.3455 14.383 60.3455 13.5871C60.3455 12.5955 61.1716 11.7815 62.1779 11.7815C63.1933 11.7815 64.0103 12.594 64.0103 13.5871C64.0103 14.383 63.485 15.0616 62.7627 15.2993V16.816C62.7627 17.1289 62.4955 17.3847 62.1779 17.3847L57.6871 17.3863L58.8491 16.2397ZM58.788 7.88889C58.788 7.52477 58.4872 7.22838 58.1161 7.22838C57.7465 7.22838 57.4442 7.52479 57.4442 7.88889C57.4442 8.24549 57.745 8.5419 58.1161 8.5419C58.4872 8.5419 58.788 8.24549 58.788 7.88889ZM62.8499 13.5869C62.8499 13.2228 62.5491 12.9354 62.178 12.9354C61.8085 12.9354 61.5061 13.2228 61.5061 13.5869C61.5061 13.9511 61.8069 14.249 62.178 14.249C62.5475 14.2475 62.8499 13.9511 62.8499 13.5869ZM63.8211 23.1068C63.8211 22.7427 63.5203 22.4553 63.1492 22.4553C62.7797 22.4553 62.4865 22.7427 62.4865 23.1068C62.4865 23.4709 62.7781 23.7688 63.1492 23.7688C63.5203 23.7673 63.8211 23.4724 63.8211 23.1068ZM62.8499 32.6355C62.8499 32.2714 62.5491 31.9734 62.178 31.9734C61.8085 31.9734 61.5061 32.2699 61.5061 32.6355C61.5061 32.9921 61.8069 33.2885 62.178 33.2885C62.5475 33.2885 62.8499 32.9921 62.8499 32.6355ZM58.788 38.3335C58.788 37.9694 58.4872 37.6805 58.1161 37.6805C57.7465 37.6805 57.4442 37.9679 57.4442 38.3335C57.4442 38.6977 57.745 38.9956 58.1161 38.9956C58.4871 38.9941 58.788 38.6977 58.788 38.3335ZM54.1764 22.7424C54.1764 24.7691 53.2465 26.5747 51.7852 27.7876V29.22C51.7852 29.6353 51.4416 29.9663 51.0278 29.9663H50.2704V28.6016H49.1007V29.9663H48.0852V28.6016H46.9232V29.9663H45.9001V28.6016H44.738V29.9663H43.9807C43.5592 29.9663 43.2156 29.6353 43.2156 29.22V27.7876C41.7528 26.5763 40.8244 24.7693 40.8244 22.7424C40.8244 14.0861 54.1764 14.0861 54.1764 22.7424ZM48.6365 23.4451C48.835 24.2169 49.7893 24.6488 50.7696 24.4125C51.7591 24.1748 52.3959 23.3518 52.2066 22.5724C52.1119 22.2083 51.8447 21.9194 51.4843 21.7418L48.6365 23.4451ZM46.3643 23.4451C46.175 24.2169 45.2191 24.6488 44.2311 24.4125C43.2508 24.1748 42.614 23.3518 42.8034 22.5724C42.8981 22.2083 43.1653 21.9194 43.518 21.7418L46.3643 23.4451ZM46.7781 27.0231C46.5552 27.2428 46.1841 27.2428 45.952 27.0231C45.7291 26.7944 45.7291 26.4302 45.952 26.2106L46.546 25.6253C46.8132 25.371 47.1568 25.2356 47.5004 25.2356C47.8455 25.2356 48.1966 25.371 48.4547 25.6253H48.4624L49.0472 26.2106C49.2793 26.4302 49.2793 26.7959 49.0472 27.0231C48.8243 27.2428 48.4532 27.2428 48.2211 27.0231L47.6363 26.4378C47.6011 26.4032 47.5492 26.3866 47.4988 26.3866C47.4561 26.3866 47.4042 26.4047 47.3706 26.4378L46.7781 27.0231Z" fill="black"/>
</svg>
