<svg width="110" height="135" viewBox="0 0 110 135" fill="none" xmlns="http://www.w3.org/2000/svg">
<path d="M35.867 72.355C34.824 70.1558 33.2772 69.0191 32.0897 68.4409C32.2108 70.0737 32.0506 72.0229 31.5936 74.2573C31.3319 75.5425 30.5858 76.4995 29.4452 77.0893V79.3471C30.5233 79.5815 32.4061 79.7612 35.039 79.2065C35.2773 76.5307 35.6053 74.0816 35.867 72.355Z" fill="#008BF8"/>
<path d="M45.164 80.352C41.7968 79.4184 38.9999 76.5512 36.9492 73.2504C36.6016 75.6449 36.1797 79.0824 36.0156 82.5863H47.2426C46.4809 81.9066 45.7851 81.1606 45.164 80.352Z" fill="#008BF8"/>
<path d="M35.238 84.5V89.0039C35.238 89.336 35.4606 89.6094 35.7653 89.6914H35.777C35.8317 89.707 35.8903 89.7149 35.9489 89.7149L48.4139 89.711V83.7852L35.9489 83.7891C35.5505 83.7891 35.238 84.1055 35.238 84.5ZM44.8591 86.2344C45.4099 86.2344 45.8591 86.6797 45.8591 87.2344C45.8591 87.7852 45.4099 88.2344 44.8591 88.2344C44.3083 88.2344 43.8591 87.7852 43.8591 87.2344C43.8591 86.6797 44.3083 86.2344 44.8591 86.2344ZM40.5271 86.2344C41.0818 86.2344 41.5271 86.6797 41.5271 87.2344C41.5271 87.7852 41.0818 88.2344 40.5271 88.2344C39.9763 88.2344 39.5271 87.7852 39.5271 87.2344C39.5271 86.6797 39.9763 86.2344 40.5271 86.2344Z" fill="#F5B700"/>
<path d="M51.746 84.262C51.2382 83.7386 50.7968 83.2347 50.4179 82.7503C50.1132 83.0472 49.8281 83.2777 49.6132 83.4378V91.094C49.6132 91.6214 50.0429 92.0511 50.5703 92.0511H59.9414C60.4648 92.0511 60.8984 91.6214 60.8984 91.094V83.3635C60.8984 83.3323 60.8906 83.3049 60.8906 83.2698C60.7187 83.4065 60.5546 83.5432 60.3828 83.6682C60.2734 83.7424 60.1562 83.7815 60.0312 83.7815C59.9179 83.7815 59.8124 83.7542 59.7109 83.6956C59.6835 83.676 59.1445 83.3323 58.539 82.7463C58.2734 83.0823 57.9843 83.4299 57.6562 83.7815H57.7148C58.496 83.7815 59.1289 84.4183 59.1289 85.1956V89.2542C59.1289 90.0355 58.4922 90.6683 57.7148 90.6683L52.7968 90.6761C52.0116 90.6761 51.3827 90.0394 51.3827 89.262V85.2034C51.3827 84.8441 51.5194 84.5159 51.746 84.262Z" fill="#F5B700"/>
<path d="M57.715 89.477C57.8322 89.477 57.9299 89.3794 57.9299 89.2622V85.2036C57.9299 85.0825 57.8283 84.9888 57.715 84.9888H56.465C55.9806 85.4419 55.4494 85.8989 54.8595 86.3677C54.8087 86.4067 54.7501 86.4341 54.6915 86.4614C54.6798 86.4653 54.6681 86.4692 54.6525 86.4731C54.5978 86.4888 54.5392 86.5005 54.4806 86.5005C54.4259 86.5005 54.3634 86.4888 54.3087 86.4731C54.297 86.4692 54.2853 86.4653 54.2697 86.4614C54.215 86.438 54.1564 86.4106 54.1056 86.3677C53.5626 85.938 53.0665 85.5161 52.6134 85.1021C52.5978 85.1333 52.5861 85.1685 52.5861 85.2075V89.2661C52.5861 89.3833 52.6837 89.481 52.8009 89.481L57.715 89.477Z" fill="#F5B700"/>
<path d="M41.023 101.965C41.8628 102.16 42.7066 102.602 43.5386 103.277H54.6206V101.004C48.7768 100.887 43.8866 100.348 40.2926 99.7853L41.023 101.965Z" fill="#04E762"/>
<path d="M46.051 106.215C46.219 106.5 46.1213 106.867 45.8361 107.035C45.7385 107.09 45.6369 107.113 45.5354 107.113C45.3283 107.113 45.1291 107.004 45.0158 106.817C45.008 106.801 44.1916 105.418 42.9299 104.328C42.094 103.617 41.2697 103.192 40.4807 103.082C39.6135 102.953 38.7854 103.18 37.9455 103.774C34.7228 106.059 36.0002 109.082 36.4885 110H53.3435V104.473H44.7654C45.5584 105.375 46.0275 106.164 46.051 106.215Z" fill="black"/>
<path d="M76.672 103.77C75.8361 103.18 75.004 102.954 74.1368 103.079C73.3361 103.204 72.5079 103.622 71.6876 104.329C70.4259 105.414 69.6095 106.801 69.6017 106.817C69.4885 107.004 69.2892 107.114 69.0822 107.114C68.9806 107.114 68.8791 107.09 68.7814 107.036C68.4963 106.868 68.3986 106.5 68.5666 106.215C68.5939 106.168 69.0588 105.375 69.8518 104.477H61.2737L61.2698 110H78.1248C78.617 109.09 79.8907 106.063 76.672 103.77Z" fill="black"/>
<path d="M73.59 101.969L74.3595 99.6799C69.2345 100.473 64.4103 100.86 59.9965 100.981V103.282H71.0785C71.9027 102.602 72.7463 102.164 73.59 101.969Z" fill="#04E762"/>
<path d="M77.516 90.914H62.098V91.0976C62.098 92.2851 61.1293 93.2538 59.9418 93.2538H50.5707C49.3793 93.2538 48.4145 92.285 48.4145 91.0976V90.914H36.1645L34.4262 97.4062C37.8676 98.2734 56.5472 102.414 80.3642 97.3632L79.9189 93.1444C78.8681 92.5077 78.0433 91.7265 77.516 90.914Z" fill="#008BF8"/>
<path d="M80.215 84.1331L80.0978 83.7893H62.0978V89.7151H76.9768C76.8401 89.1917 76.8557 88.6917 77.0197 88.2424C77.6018 86.6174 79.2658 84.973 80.215 84.1331ZM65.496 88.2346C64.9452 88.2346 64.496 87.7854 64.496 87.2346C64.496 86.68 64.9452 86.2346 65.496 86.2346C66.0467 86.2346 66.496 86.68 66.496 87.2346C66.496 87.7854 66.0467 88.2346 65.496 88.2346ZM69.8241 88.2346C69.2733 88.2346 68.8241 87.7854 68.8241 87.2346C68.8241 86.68 69.2733 86.2346 69.8241 86.2346C70.3748 86.2346 70.8241 86.68 70.8241 87.2346C70.8241 87.7854 70.3788 88.2346 69.8241 88.2346ZM74.5077 88.2346C73.9569 88.2346 73.5077 87.7854 73.5077 87.2346C73.5077 86.68 73.9569 86.2346 74.5077 86.2346C75.0584 86.2346 75.5077 86.68 75.5077 87.2346C75.5077 87.7854 75.0584 88.2346 74.5077 88.2346Z" fill="#F5B700"/>
<path d="M79.691 82.5861L79.1089 80.8713C78.8199 80.0197 79.1832 79.0822 79.9722 78.6486C80.0464 78.6056 80.1246 78.5665 80.2027 78.5236C79.4644 74.1056 77.5347 70.2658 76.1754 67.9926C76.1676 68.0238 76.1559 68.059 76.1441 68.0941C74.3238 73.055 69.3863 79.0001 63.7691 80.3871C63.2027 81.1215 62.5699 81.8051 61.8785 82.4379C61.902 82.4887 61.9293 82.5356 61.9489 82.5864L79.691 82.5861Z" fill="#008BF8"/>
<path d="M84.086 90.7461C84.0626 90.4179 84.3048 90.125 84.6368 90.1015C84.9649 90.0742 85.254 90.3164 85.2813 90.6484C85.2891 90.7187 85.3985 92.1367 85.0431 93.3945C85.3399 93.4023 85.6446 93.4023 85.9493 93.3828C86.8165 93.332 87.4805 93.0039 87.9884 92.375C89.4103 90.6133 89.172 87.043 88.965 85.3672C88.1798 85.418 87.3322 85.4375 86.4923 85.4375C83.7775 85.4375 81.129 85.2344 80.965 85.2227C80.9181 85.2188 80.8673 85.207 80.8243 85.1914C79.9923 85.9492 78.6055 87.3633 78.1407 88.6484C78.004 89.0117 78.09 89.5 78.3712 90.0273C78.6134 90.4726 78.9845 90.914 79.4493 91.332C79.711 90.1836 80.0978 89.1601 80.1212 89.1093C80.2384 88.7968 80.586 88.6406 80.8946 88.7617C81.2071 88.8827 81.3595 89.2265 81.2423 89.539C81.2345 89.5507 80.7384 90.8671 80.5196 92.1054C80.586 92.1444 80.6524 92.1835 80.7228 92.2265C80.7423 92.2382 80.7618 92.246 80.7814 92.2577C81.6446 92.7382 82.6758 93.1054 83.8125 93.285C84.129 92.3983 84.1251 91.1914 84.086 90.7461Z" fill="#F9DEDC"/>
<path d="M81.453 84.0549C82.8124 84.1487 87.3553 84.4065 90.0546 84.0628C90.414 83.5901 91.371 82.2151 91.6796 80.6487C91.707 80.5002 91.6327 80.3401 91.4882 80.2658C91.2304 80.1252 90.9179 79.9651 90.5585 79.801C90.5155 79.7854 90.4804 79.7698 90.4374 79.7463C88.2108 78.7502 84.2851 77.6252 80.5546 79.6995C80.3398 79.8205 80.2148 80.0432 80.2148 80.2776C80.2148 80.344 80.2226 80.4182 80.246 80.4846L81.453 84.0549Z" fill="#008BF8"/>
<path d="M96.355 75.051C95.9487 72.0198 95.1597 68.6682 94.6519 66.6877H89.2027C90.898 70.0471 91.8746 74.09 91.3785 78.8637C91.6324 78.9887 91.8628 79.1059 92.0582 79.2114C92.6675 79.5434 92.9839 80.2114 92.8589 80.8794C92.4175 83.1294 90.898 84.9419 90.8355 85.0161C90.7379 85.1294 90.609 85.1997 90.4644 85.2192C90.3668 85.2348 90.2652 85.2466 90.1637 85.2583C90.4137 87.2935 90.6012 91.0552 88.9254 93.1255C88.2066 94.0161 87.234 94.5083 86.0309 94.5825C85.7965 94.5981 85.5582 94.602 85.3316 94.602C83.8043 94.602 82.4019 94.2895 81.1949 93.7817L81.5465 97.0942C84.1559 97.477 89.6246 97.7817 93.0265 94.4458C97.882 89.6724 96.8003 78.395 96.355 75.051Z" fill="black"/>
<path d="M88.551 65.488H94.8869C95.926 65.488 96.7736 64.6403 96.7736 63.5974C96.7736 63.0974 96.5744 62.6208 96.2189 62.2615C95.8635 61.906 95.3869 61.7107 94.8869 61.7107H85.84C86.8244 62.8435 87.7424 64.1052 88.551 65.488Z" fill="black"/>
<path d="M87.695 66.418C86.6598 64.5742 85.4098 62.9571 84.0817 61.5586C84.0543 61.5352 84.0309 61.5118 84.0114 61.4844C82.8864 60.3125 81.7223 59.2969 80.5973 58.4336C80.5816 58.4219 80.566 58.4141 80.5543 58.3985C79.027 57.2305 77.5934 56.3438 76.4723 55.7188C77.2848 59.6446 77.4606 63.1836 76.6442 66.4458C77.9958 68.5396 80.4059 72.8325 81.3395 78.0118C84.695 76.7345 88.0075 77.4844 90.2223 78.3555C90.6324 73.6328 89.5191 69.6719 87.6989 66.4215L87.695 66.418Z" fill="#008BF8"/>
<path d="M80.051 51.809C79.1135 52.7778 77.8166 53.5785 76.0862 54.0238C76.0979 54.0707 76.1096 54.1254 76.1213 54.1723C77.2854 54.766 79.0354 55.7661 80.9533 57.1996C81.5393 56.7933 82.383 56.3402 83.4103 56.1332C83.3791 55.1098 83.0236 54.2035 82.3478 53.4301C81.6369 52.6136 80.7073 52.0981 80.051 51.809Z" fill="#F5B700"/>
<path d="M85.383 57.2849C83.9611 57.0232 82.7619 57.4881 81.9533 57.9764C82.8752 58.7224 83.8205 59.5623 84.7345 60.5076H88.6759C88.4337 59.1014 87.6837 58.1248 86.4415 57.6014C86.0938 57.4568 85.7502 57.3553 85.383 57.2849Z" fill="#F5B700"/>
<path d="M89.891 60.508H92.6449C92.6684 59.7541 92.6019 59.0705 92.434 58.4807C92.141 57.4573 91.5473 56.7307 90.6684 56.3205C88.9496 55.5197 87.6332 55.883 86.7543 56.4416C86.8051 56.4611 86.8597 56.4767 86.9105 56.4963C88.9691 57.3635 89.6839 59.0627 89.891 60.508Z" fill="#F5B700"/>
<path d="M83.547 53.012C84.2033 53.8909 84.5548 54.8987 84.6017 56.0159C84.8244 56.0159 85.0548 56.0315 85.2853 56.0588C86.2072 55.2112 88.2658 53.883 91.1681 55.2346C92.0118 55.6252 92.6603 56.2268 93.1056 57.0198C93.5822 55.9417 93.7697 54.4182 93.3204 53.1018C92.84 51.6956 91.7227 50.7737 90.0743 50.4416C88.9259 50.2112 87.8438 50.2502 86.8516 50.5588C85.2344 51.0627 84.1486 52.1956 83.547 53.012Z" fill="#F5B700"/>
<path d="M81.93 48.219C81.762 49.094 81.4065 50.0042 80.8362 50.8518C81.4417 51.1409 82.1174 51.551 82.7268 52.1096C83.3674 51.2932 84.3909 50.2737 85.8401 49.6604C84.9924 48.3792 83.1019 48.1956 81.93 48.219Z" fill="#F5B700"/>
<path d="M78.699 43.148C76.367 42.0425 74.3904 43.1949 73.2849 44.1363C73.5076 45.2261 73.8162 46.4175 74.2419 47.7066C74.2458 47.7144 74.2458 47.7183 74.2498 47.7261C74.6326 47.0543 75.1599 46.437 75.8787 46.1089C76.6677 45.7496 77.5506 45.7769 78.4998 46.1871C78.8044 46.3199 78.9451 46.6753 78.8123 46.98C78.6794 47.2847 78.3279 47.4253 78.0232 47.2925C77.3826 47.0152 76.8435 46.9839 76.3748 47.1988C75.7381 47.4917 75.1834 48.2808 74.7928 49.4293C75.16 50.6051 75.492 51.7457 75.7889 52.8551C79.1014 52.0074 80.5545 49.652 80.8084 47.652C80.8123 47.6246 80.8123 47.5934 80.8162 47.5621V47.5543C81.0232 45.6168 80.1795 43.8472 78.699 43.148Z" fill="#F5B700"/>
<path d="M34.859 52.191C35.2652 50.6988 35.7418 49.1558 36.2692 47.5504C36.2692 47.5465 36.2731 47.5426 36.2731 47.5387C35.652 46.9879 34.5583 47.3121 34.5426 47.316C34.2301 47.4176 33.8903 47.2418 33.7965 46.9254C33.6949 46.609 33.8668 46.273 34.1832 46.1754C34.2535 46.1558 35.566 45.7574 36.648 46.3394C37.0855 44.8238 37.359 43.4527 37.523 42.2535C35.9722 42.3278 33.0816 42.8121 32.3042 45.2613C31.3355 48.3043 33.2223 50.8511 34.859 52.191Z" fill="#F5B700"/>
<path d="M54.7972 54.6136C56.2213 56.4538 59.0416 59.1198 63.8753 60.1224L64.3685 60.2181H64.3704C65.216 60.3671 65.9988 60.4369 66.7181 60.4369C69.9503 60.4369 71.9138 59.0569 73.0589 57.6449C74.1465 56.3037 74.4814 54.9545 74.5179 54.7904L74.5189 54.7914C74.5193 54.7896 74.5185 54.7873 74.5189 54.7855C75.1219 57.341 75.472 59.6997 75.472 61.8978C75.472 62.7362 75.4173 63.5501 75.3109 64.3431C75.0805 64.3222 74.8436 64.3728 74.636 64.4984L74.5433 64.5609L74.5374 64.5658C74.0599 64.9364 73.9663 65.6227 74.3372 66.1078V66.1068C74.352 66.127 74.3698 66.1524 74.3802 66.1664C74.4081 66.2039 74.4488 66.259 74.5003 66.3304C74.5772 66.4369 74.6761 66.5824 74.7972 66.7601C74.7695 66.85 74.7437 66.9396 74.7151 67.0277L74.5501 67.5062V67.5072C73.7852 69.5919 72.4067 71.8598 70.6634 73.8285C69.2819 75.3885 67.6862 76.7407 66.0091 77.6683C66.5774 76.4605 66.8575 75.4734 66.9818 74.9398L67.0677 74.516L67.0687 74.514C67.1616 73.9135 66.7521 73.3533 66.1507 73.2601C65.5557 73.168 64.9904 73.5697 64.8939 74.1713C64.8937 74.1721 64.892 74.1811 64.889 74.1976C64.8859 74.2146 64.8813 74.2406 64.8743 74.2748C64.8603 74.3437 64.8373 74.4463 64.804 74.5785C64.7375 74.8433 64.6278 75.2263 64.4564 75.6918C64.1132 76.6233 63.5245 77.8833 62.5413 79.1967L62.514 79.2328L62.5062 79.2474C61.7961 80.1902 60.9626 81.0472 60.0228 81.8041C59.981 81.7684 59.9377 81.7312 59.8939 81.6918C61.2401 79.5562 61.4203 78.0449 61.4349 77.7963L61.4359 77.7972C61.4361 77.7941 61.4357 77.7906 61.4359 77.7875C61.436 77.7847 61.4367 77.782 61.4368 77.7797L61.4359 77.7787C61.4684 77.1879 61.0292 76.6713 60.4261 76.6263H60.4271C59.817 76.5764 59.2934 77.0305 59.2435 77.6302L59.2415 77.6508V77.6713C59.2412 77.5523 59.048 80.0219 55.7855 83.2777L55.6019 83.4564L55.4573 83.5931C55.1513 83.8814 54.8261 84.1764 54.4769 84.473C50.5558 81.1535 49.8426 78.3589 49.7288 77.7533L49.7093 77.6332C49.6673 77.0655 49.2016 76.6358 48.6468 76.6195L48.5345 76.6224C47.9618 76.6631 47.5301 77.1326 47.514 77.6859L47.5169 77.7972V77.7982C47.5295 77.969 47.6792 79.4979 49.0579 81.6908C49.0145 81.7297 48.9725 81.7677 48.931 81.8031C47.9751 81.0252 47.1229 80.1457 46.3929 79.1703H46.3939C44.4716 76.5797 44.0621 74.1805 44.0599 74.1674H44.0579C43.9675 73.6034 43.4662 73.2141 42.9134 73.2435L42.8021 73.2552H42.8011C42.2005 73.3494 41.7989 73.916 41.8841 74.5052L41.886 74.5179L41.888 74.5316C41.8882 74.5326 41.8894 74.5343 41.89 74.5375C41.891 74.5432 41.892 74.5529 41.8939 74.5629C41.8977 74.5834 41.9028 74.6109 41.9095 74.6449C41.923 74.7133 41.9431 74.8073 41.97 74.9232C42.0239 75.155 42.1069 75.4761 42.2318 75.8656C42.3613 76.2698 42.5366 76.7481 42.7689 77.2787C40.7882 75.8321 39.0829 73.6125 37.764 71.2552C37.8851 70.5139 37.9619 70.1043 37.9612 70.1049L37.9651 70.0892L37.9681 70.0726C38.0737 69.4874 37.6955 68.9046 37.0892 68.7933H37.0901C36.9034 68.7576 36.7208 68.7714 36.555 68.8246C36.4113 68.4966 36.2768 68.1712 36.1526 67.851L35.9661 67.3539L35.9651 67.351L35.7943 66.8578C34.6357 63.298 34.888 59.2954 35.9886 54.6332C36.0149 54.7515 36.3426 56.1224 37.4485 57.4867C38.5935 58.899 40.5563 60.2805 43.7884 60.2806C44.3309 60.2806 44.9052 60.2419 45.515 60.1595L46.137 60.0619H46.138C51.1737 59.1649 53.5617 56.5171 54.636 54.6195C54.6904 54.6179 54.7441 54.6166 54.7972 54.6136ZM71.0735 39.1176C71.0546 41.0817 71.3039 43.9296 72.386 47.4828L72.6263 48.2416L73.1126 49.7465C73.5601 51.1716 73.9579 52.5411 74.2933 53.8588C74.2634 53.8226 74.2319 53.7876 74.1976 53.7552L74.0735 53.6537L74.0677 53.6498L73.9261 53.5668C73.6322 53.4243 73.2871 53.42 72.9886 53.556L72.8431 53.6351L72.8392 53.6381C72.7998 53.6594 72.4214 53.8614 71.8519 53.7279H71.8528C71.1058 53.5521 70.2511 52.8542 69.4056 51.5424L69.2366 51.2719L69.2357 51.2699L69.0355 50.9613C68.9129 50.7828 68.7827 50.6132 68.6478 50.4496C70.8487 47.6216 70.848 44.0018 70.848 43.8353V38.9984C70.9239 39.0383 70.9991 39.078 71.0735 39.1176ZM39.6683 43.6674C39.6656 43.7825 39.6674 44.798 39.97 46.1381C40.2497 47.3764 40.7936 48.9203 41.8519 50.2865C41.7196 50.4527 41.5918 50.6265 41.47 50.808L41.2718 51.1185L41.2708 51.1195C40.4262 52.5151 39.566 53.2907 38.8069 53.5336L38.6566 53.5746C38.0149 53.7216 37.6243 53.4457 37.6985 53.5013L37.6878 53.4945L37.6771 53.4867L37.5345 53.4056C37.2399 53.2653 36.8938 53.2587 36.5931 53.3998L36.4476 53.4828L36.4417 53.4867C36.3569 53.5454 36.2828 53.615 36.2191 53.6918C36.6709 51.9195 37.2365 50.0536 37.8851 48.0824C39.1724 44.1861 39.4533 41.0724 39.4359 38.9896C39.512 38.9349 39.5892 38.8797 39.6683 38.8246V43.6674Z" fill="white" stroke="#F9DEDC"/>
<path d="M58.797 48.602C58.797 46.2192 56.8595 44.2856 54.4767 44.2856C52.0939 44.2856 50.1603 46.2192 50.1603 48.602C50.1603 50.9848 52.0939 52.9223 54.4767 52.9223C56.8595 52.9263 58.797 50.9848 58.797 48.602Z" fill="#F9DEDC"/>
<path d="M48.4741 48.9923C48.627 51.3731 50.1667 53.3721 52.2935 54.2032C51.3298 55.5306 49.5172 57.1282 46.1313 57.8185L45.7515 57.8907C43.3121 58.3252 41.6658 57.937 40.5571 57.3097C39.7853 56.873 39.2497 56.3045 38.8804 55.7687L39.0991 55.7316L39.103 55.7306C40.5543 55.4125 41.8308 54.32 42.938 52.6124L43.1577 52.2628C44.4535 50.1239 46.6925 49.2975 48.4741 48.9923Z" fill="white" stroke="#F9DEDC"/>
<path d="M60.4833 48.9717C61.4797 49.0964 62.7104 49.3342 63.8906 49.7881C65.211 50.2959 66.4253 51.057 67.2001 52.1875L67.3495 52.4189L67.3505 52.4199C68.4385 54.2082 69.6924 55.392 71.1171 55.8125L71.4042 55.8867L71.4091 55.8877C71.4832 55.9032 71.557 55.9136 71.6288 55.9248C71.2605 56.4613 70.7264 57.0321 69.9531 57.4697C68.9137 58.0578 67.4009 58.4362 65.204 58.123L64.7558 58.0508C60.9416 57.3693 58.5393 55.5167 57.1445 53.9941C59.0233 53.0603 60.3502 51.1785 60.4833 48.9717Z" fill="white" stroke="#F9DEDC"/>
<path d="M53.8401 34.5435C53.9351 34.5435 54.0114 34.544 54.0931 34.5474H54.1097C59.7671 34.5961 64.8165 36.1966 68.6439 37.9243L68.637 43.8354V43.8364C68.637 43.846 68.6356 44.6569 68.3939 45.7485C68.1755 46.7341 67.7663 47.918 67.013 48.9487C65.509 47.8905 63.7184 47.3102 62.1058 46.9946C62.1882 47.002 62.2715 47.0083 62.3558 47.0083C63.7965 47.0083 64.9808 45.9161 65.1194 44.5142L65.1331 44.229C65.1321 42.696 63.8891 41.4536 62.3558 41.4536C60.8231 41.4537 59.5745 42.696 59.5745 44.231C59.5745 45.515 60.4494 46.5901 61.6321 46.9087C61.1181 46.822 60.6279 46.7615 60.178 46.7192C59.3904 44.321 57.1319 42.5825 54.4691 42.5825C53.1626 42.5825 51.953 43.0026 50.9681 43.7114L50.7747 43.8569C50.7381 43.8856 50.7013 43.9144 50.6653 43.9438C50.5217 42.5448 49.3396 41.4536 47.9026 41.4536C46.3689 41.4538 45.1253 42.6971 45.1253 44.231C45.1253 45.5976 46.1133 46.7299 47.4134 46.9614C46.1484 47.25 44.7197 47.7789 43.4417 48.7378C42.7153 47.7177 42.3194 46.5513 42.1058 45.5796C41.8667 44.4919 41.8636 43.6854 41.8636 43.6802V37.4702C44.7463 35.9144 48.7266 34.5435 53.8401 34.5435Z" fill="#F9DEDC" stroke="#F9DEDC"/>
<path d="M83.109 18.1094C83.109 23.2305 75.4215 23.2305 75.4215 18.1094C75.4215 12.9844 83.109 12.9844 83.109 18.1094Z" fill="#DC0073"/>
<path d="M74.312 29.496C73.519 24.703 68.6636 21.0858 68.6089 21.0468C68.3394 20.8515 68.2847 20.4765 68.48 20.2108C68.6714 19.9413 69.0464 19.8827 69.3159 20.078C69.4565 20.1835 71.3667 21.5975 73.0464 23.8632C73.6285 22.5976 74.3667 21.5507 75.0073 20.789C74.5151 20.0078 74.2222 19.0898 74.2222 18.1054C74.2222 16.9218 74.6323 15.8359 75.3199 14.9726C71.984 11.957 65.3707 7.90622 56.0229 11.2656C46.0189 14.8633 41.1129 24.0586 39.1829 28.8126C42.2571 26.6485 46.2024 25.0938 54.4209 24.379C63.0225 23.629 70.437 27.1522 74.312 29.496Z" fill="#DC0073"/>
<path d="M53.836 32.844C53.9336 32.844 54.0274 32.844 54.129 32.8479C64.317 32.9416 72.586 37.7971 75.668 39.8791C75.7422 39.9299 75.8164 39.9142 75.8633 39.8908C75.8984 39.8713 75.9687 39.8205 75.9687 39.715V32.9338C75.9687 32.3518 75.6797 31.8049 75.1953 31.4768C75.043 31.3753 74.8789 31.2659 74.7031 31.1526C74.6953 31.1487 74.6875 31.1409 74.6797 31.137C71.3203 28.9495 63.5977 24.7815 54.5277 25.5706C49.7894 25.9846 46.5511 26.6565 44.0787 27.5784C41.606 28.4963 39.9029 29.6604 38.2389 31.0511C37.5904 31.594 36.9498 32.1722 36.2662 32.7816C35.8795 33.1292 35.6646 33.6253 35.6841 34.141L35.8443 39.7543C38.0787 37.5316 43.9573 32.844 53.836 32.844Z" fill="#DC0073"/>
<path d="M30.465 41.039V39.6445C29.4181 39.6289 27.258 39.6055 26.4103 39.6523C25.5275 39.7031 24.2033 40.2851 23.3556 40.7148V41.039C23.3556 41.4297 23.6368 41.7617 24.0236 41.8398C24.0704 41.8476 24.1212 41.8515 24.172 41.8515H29.6486C30.0978 41.8476 30.465 41.4843 30.465 41.039Z" fill="#F5B700"/>
<path d="M28.246 21.281C28.246 20.2537 27.4062 19.4138 26.3788 19.4138C25.3476 19.4138 24.5116 20.2537 24.5116 21.281V27.2341H28.246V21.281Z" fill="black"/>
<path d="M30.465 31.691V29.2535C30.465 28.8043 30.0978 28.4371 29.6486 28.4371L24.172 28.4332C24.1212 28.4332 24.0704 28.4371 24.0236 28.4489C23.6368 28.5192 23.3556 28.8551 23.3556 29.2496V30.6168C24.2111 31.0504 25.5314 31.6285 26.4103 31.6754C27.2619 31.7301 29.4181 31.7028 30.465 31.691Z" fill="#F5B700"/>
<path d="M26.344 38.4531C27.2346 38.4023 29.3987 38.4257 30.4651 38.4413V32.8866C29.3987 32.9023 27.2346 32.9257 26.344 32.8749C24.6799 32.7773 22.2502 31.3866 22.1448 31.328C19.137 29.7225 17.5471 26.0272 16.8948 24.0858C14.887 27.1913 9.74641 37.0038 16.8831 47.2698C17.5315 45.344 19.1214 41.6136 22.1643 39.9886C22.2502 39.9378 24.6799 38.5508 26.344 38.4531Z" fill="#F5B700"/>
<path d="M26.695 62.777C27.2497 62.7496 27.7653 62.7926 28.2458 62.8942V43.0502H24.5114V63.1162C25.6325 62.8037 26.5309 62.777 26.695 62.777Z" fill="black"/>
<path d="M30.418 74.023C30.4297 73.9566 30.4414 73.8941 30.4531 73.8277C29.4648 73.1363 27.6484 73.2339 26.9883 73.3394C26.6602 73.3902 26.3516 73.1714 26.3008 72.8433C26.2461 72.5152 26.4688 72.2066 26.7969 72.1558C26.9063 72.1402 29.0742 71.8042 30.6758 72.5738C30.875 71.2652 30.961 70.0777 30.9219 69.0386C30.4258 69.1558 29.7969 69.2534 29.0586 69.2534C28.7227 69.2534 28.3672 69.2339 27.9922 69.187C27.6602 69.144 27.4297 68.8433 27.4727 68.5151C27.5117 68.187 27.8164 67.9565 28.1446 67.9956C29.2852 68.144 30.211 67.9917 30.8204 67.8276C30.6524 66.644 30.2969 65.7104 29.7501 65.0698C29.0626 64.2651 28.0821 63.9057 26.7423 63.976H26.6915C26.5118 63.976 25.4298 63.9956 24.2149 64.4526C24.1602 64.4838 24.0977 64.5112 24.0313 64.5229C22.4454 65.1713 20.7071 66.5854 20.5157 69.6752C20.3751 71.9018 20.8516 73.6283 21.9337 74.8041C22.5665 75.4916 23.3243 75.9057 24.0392 76.1635C24.0782 76.1713 24.1173 76.1869 24.1603 76.2026C24.9806 76.476 25.7267 76.5346 26.1486 76.5424C26.9454 76.558 27.8283 76.4799 28.5939 76.1674C28.6056 76.1635 28.6212 76.1557 28.6368 76.1518C29.4923 75.7963 30.1876 75.1519 30.418 74.023Z" fill="#F9DEDC"/>
<path d="M26.121 77.746C25.7577 77.7382 25.1796 77.6991 24.5155 77.5468L24.5116 110H28.246V77.5308C27.6679 77.6753 27.0312 77.7495 26.3319 77.7495C26.2655 77.7495 26.1913 77.7499 26.121 77.746Z" fill="black"/>
</svg>
