<svg width="86" height="90" viewBox="0 0 86 90" fill="none" xmlns="http://www.w3.org/2000/svg">
<path fill-rule="evenodd" clip-rule="evenodd" d="M43.711 13.2691C43.962 13.2351 44.21 13.2831 44.425 13.3951C54.283 15.0201 62.844 11.1591 70.106 1.81106C70.512 1.28906 71.264 1.19506 71.786 1.60006C71.986 1.75506 72.122 1.96106 72.193 2.18506L75.413 12.3921L75.422 12.4211L78.607 22.5191L78.615 22.5441L81.803 32.6491L81.805 32.6561L85.236 43.5341L85.238 43.5421L85.242 43.5541L85.248 43.5731L85.25 43.5801C85.302 43.7691 85.305 43.9601 85.267 44.1411V44.1471L85.265 44.1501L85.263 44.1571C85.237 44.2741 85.192 44.3891 85.129 44.4971L85.118 44.5161L85.113 44.5241L85.106 44.5351L85.094 44.5531C85.072 44.5871 85.049 44.6191 85.024 44.6491C75.644 56.7101 64.224 60.3011 50.766 55.4221C45.982 53.9491 41.582 53.4061 37.565 53.7921C36.879 53.8581 36.204 53.9511 35.539 54.0721C35.483 54.0871 35.427 54.0971 35.371 54.1031C32.539 54.6381 29.903 55.6711 27.465 57.2031L36.786 86.7511C36.985 87.3811 36.635 88.0541 36.005 88.2531L30.647 89.9431C30.017 90.1421 29.344 89.7921 29.145 89.1621L4.992 12.5961C4.722 12.4981 4.459 12.3831 4.205 12.2501C2.731 11.4831 1.55 10.1541 1.011 8.44506V8.44306C0.472002 6.73406 0.677002 4.96906 1.443 3.49706C2.21 2.02306 3.539 0.842055 5.248 0.303055C6.957 -0.235945 8.723 -0.0309446 10.196 0.735055C11.67 1.50206 12.851 2.83106 13.39 4.54006C13.929 6.24906 13.725 8.01506 12.958 9.48806C12.85 9.69506 12.732 9.89606 12.603 10.0901L13.681 13.5061C16.912 11.5831 20.451 10.4371 24.297 10.0681C28.637 9.65106 33.355 10.2281 38.449 11.7991C38.468 11.8051 38.487 11.8111 38.505 11.8181C40.279 12.4621 42.014 12.9461 43.712 13.2691H43.711ZM27.076 31.0211L24.602 23.1771C22.128 23.7511 19.809 24.7181 17.645 26.0771L20.099 33.8561C22.284 32.5561 24.61 31.6111 27.076 31.0211ZM33.7 52.0211L30.991 43.4331C28.517 44.0071 26.198 44.9741 24.034 46.3331L26.723 54.8561C28.908 53.5561 31.234 52.6111 33.7 52.0211ZM34.103 20.3851L31.672 12.6771C29.167 12.3051 26.783 12.2271 24.521 12.4451C24.264 12.4701 24.008 12.4981 23.754 12.5311L26.25 20.4421C26.67 20.3821 27.094 20.3311 27.521 20.2901C29.626 20.0881 31.82 20.1191 34.103 20.3851ZM40.493 40.6411L38.091 33.0271C35.586 32.6551 33.202 32.5771 30.94 32.7951C30.683 32.8201 30.427 32.8481 30.173 32.8811L32.639 40.6991C33.059 40.6391 33.483 40.5881 33.91 40.5471C36.015 40.3451 38.209 40.3761 40.492 40.6421L40.493 40.6411ZM48.552 33.2781L46.19 25.7901C44.478 25.4411 42.73 24.9441 40.946 24.2971C39.796 23.9431 38.669 23.6431 37.563 23.3961L39.935 30.9161C41.538 31.2181 43.182 31.6291 44.867 32.1491C44.886 32.1551 44.905 32.1611 44.923 32.1681C46.151 32.6141 47.362 32.9841 48.552 33.2781ZM55.175 54.2741L52.578 46.0421C50.864 45.6951 49.115 45.1981 47.333 44.5521C46.184 44.1981 45.057 43.8991 43.953 43.6521L46.56 51.9161C48.163 52.2181 49.807 52.6291 51.492 53.1491C51.511 53.1551 51.53 53.1611 51.548 53.1681C52.775 53.6141 53.984 53.9821 55.175 54.2741ZM55.896 23.6471L53.412 15.7741C50.904 16.2311 48.303 16.3041 45.609 15.9921L48.034 23.6791C50.754 24.0891 53.374 24.0781 55.896 23.6471ZM62.293 43.9271L59.825 36.1021C57.313 36.5631 54.714 36.6401 52.026 36.3331L54.426 43.9421C57.153 44.3581 59.776 44.3541 62.293 43.9271ZM68.301 30.0611L65.859 22.3191C63.652 23.7271 61.357 24.7701 58.975 25.4501L61.442 33.2711C61.661 33.2091 61.878 33.1441 62.095 33.0761C64.237 32.4001 66.306 31.3951 68.301 30.0611ZM74.92 51.0451L72.243 42.5601C70.24 43.8321 68.162 44.8081 66.01 45.4871C65.793 45.5551 65.575 45.6211 65.357 45.6831L68.058 54.2451C70.439 53.5721 72.726 52.5061 74.92 51.0451ZM71.107 31.0001L73.533 38.6911C75.546 37.0741 77.479 35.1041 79.333 32.7811L76.996 25.3731C75.115 27.5751 73.152 29.4501 71.107 31.0001ZM64.691 10.6611L67.14 18.4241C69.158 16.8091 71.092 14.8431 72.943 12.5251L70.577 5.02406C68.694 7.23006 66.732 9.10906 64.691 10.6611Z" fill="#DC0073"/>
</svg>
