<svg width="1920" height="1080" viewBox="0 0 1920 1080" fill="none" xmlns="http://www.w3.org/2000/svg">
<rect width="1920" height="1080" fill="black"/>
<path d="M1709.13 877.62C1713.44 877.767 1717.64 879.045 1721.31 881.328V822.336H1702.96V878.881C1704.92 878.058 1707.01 877.629 1709.13 877.62Z" fill="white" fill-opacity="0.2"/>
<path d="M1702.96 922.708V996.605H1721.31V935.797C1715.13 932.924 1709.47 929.041 1704.54 924.302C1704.54 924.302 1703.73 923.561 1702.96 922.708Z" fill="white" fill-opacity="0.2"/>
<path d="M1712.47 923.895C1720.29 930.381 1729.97 934.151 1740.07 934.647C1746.1 934.619 1752 932.926 1757.14 929.753C1757.47 920.865 1759.79 912.169 1763.93 904.317C1764.3 903.711 1764.89 903.275 1765.58 903.102C1766.26 902.929 1766.99 903.032 1767.6 903.39C1768.19 903.779 1768.61 904.376 1768.78 905.063C1768.95 905.75 1768.85 906.477 1768.52 907.098C1768.52 907.321 1755.38 929.605 1767.97 962.197H1858.08C1870.67 929.605 1857.67 907.321 1857.53 907.098C1857.19 906.477 1857.1 905.75 1857.27 905.063C1857.44 904.376 1857.86 903.779 1858.44 903.39C1859.05 903.032 1859.78 902.929 1860.46 903.102C1861.15 903.275 1861.74 903.711 1862.11 904.317C1867.07 913.804 1869.45 924.448 1869.01 935.166L1887.92 926.268C1886.78 903.539 1881.93 887.484 1875.73 876.1C1874.89 877.917 1873.97 879.808 1872.9 881.625C1872.43 882.481 1871.74 883.193 1870.9 883.688C1870.06 884.183 1869.1 884.444 1868.13 884.443C1867.74 884.5 1867.35 884.5 1866.96 884.443C1866.02 884.249 1865.16 883.8 1864.46 883.145C1860.24 899.126 1847.98 919.037 1815.17 933.127C1814.48 933.421 1813.75 933.572 1813 933.572C1812.26 933.572 1811.52 933.421 1810.84 933.127C1778.1 919.037 1765.84 899.126 1761.69 883.145C1761 883.762 1760.17 884.184 1759.27 884.369C1758.88 884.426 1758.48 884.426 1758.09 884.369C1757.12 884.37 1756.17 884.109 1755.33 883.614C1754.49 883.118 1753.8 882.406 1753.32 881.551C1751.68 878.7 1750.23 875.739 1748.99 872.689C1743.58 880.638 1739.21 889.263 1736 898.348L1728.66 893.527L1713.13 923.19C1712.93 923.444 1712.71 923.68 1712.47 923.895Z" fill="white" fill-opacity="0.2"/>
<path d="M1863.95 962.16C1874.7 961.53 1882.3 958.452 1886.3 952.52C1888.1 949.451 1889.28 946.049 1889.76 942.515C1890.23 938.981 1890.01 935.386 1889.09 931.941L1868.79 941.47C1868.03 948.543 1866.41 955.493 1863.95 962.16Z" fill="white" fill-opacity="0.2"/>
<path d="M1798.58 1002.58H1802.25H1802.47C1803.13 1002.59 1803.8 1002.67 1804.45 1002.8C1806.07 993.121 1808.12 978.994 1809.99 967.944H1769.62L1773.47 991.044C1782.26 993.344 1790.61 997.103 1798.17 1002.17C1798.21 1002.26 1798.27 1002.34 1798.33 1002.41C1798.4 1002.48 1798.49 1002.54 1798.58 1002.58Z" fill="white" fill-opacity="0.2"/>
<path d="M1766.2 858.081C1766.2 858.081 1753.43 902.389 1813.08 928.011C1872.72 902.389 1859.95 858.081 1859.95 858.081C1866.77 862.345 1868.13 878.956 1868.13 878.956C1885.64 847.921 1873.01 824.488 1865.05 814.18C1863.68 827.142 1857.62 839.136 1848.02 847.852C1838.43 856.568 1825.98 861.391 1813.08 861.391C1800.17 861.391 1787.72 856.568 1778.13 847.852C1768.53 839.136 1762.47 827.142 1761.1 814.18C1753.14 824.488 1740.51 847.921 1758.02 878.956C1758.02 878.956 1759.38 862.345 1766.2 858.081Z" fill="white" fill-opacity="0.2"/>
<path d="M1802.36 1008.06H1798.69C1797.49 1008.07 1796.31 1007.73 1795.31 1007.06C1790.76 1004.02 1776.96 995.567 1765.18 995.567C1762.48 995.415 1759.79 995.937 1757.35 997.089C1754.9 998.24 1752.77 999.985 1751.16 1002.17C1743.48 1012.59 1751.78 1018.26 1755.3 1020.08C1756.15 1020.48 1757.08 1020.7 1758.02 1020.71H1802.36C1803.22 1020.77 1804.09 1020.66 1804.9 1020.37C1805.72 1020.08 1806.47 1019.63 1807.1 1019.04C1807.74 1018.44 1808.24 1017.72 1808.59 1016.92C1808.94 1016.12 1809.11 1015.26 1809.11 1014.38C1809.11 1013.51 1808.94 1012.65 1808.59 1011.85C1808.24 1011.05 1807.74 1010.33 1807.1 1009.73C1806.47 1009.14 1805.72 1008.68 1804.9 1008.4C1804.09 1008.11 1803.22 1008 1802.36 1008.06Z" fill="white" fill-opacity="0.2"/>
<path d="M1848.68 839.022C1854.88 831.702 1858.72 822.648 1859.69 813.067L1858.99 812.697C1843.65 800.238 1828.2 793.935 1813.11 793.935C1798.03 793.935 1782.57 800.238 1767.23 812.697L1766.53 813.067C1767.51 822.648 1771.35 831.702 1777.55 839.022C1778.43 838.095 1789.95 826.23 1813.15 826.23C1836.35 826.23 1847.8 838.169 1848.68 839.022Z" fill="white" fill-opacity="0.2"/>
<path d="M1781.44 842.915C1790.07 851.042 1801.43 855.561 1813.22 855.561C1825.02 855.561 1836.38 851.042 1845.01 842.915C1845.01 842.915 1834.44 831.792 1813.37 831.792C1792.3 831.792 1781.55 842.73 1781.44 842.915Z" fill="white" fill-opacity="0.2"/>
<path d="M1813.08 788.447C1829.52 788.447 1845.96 795.109 1862.41 808.432C1862.41 808.432 1866.63 726.192 1813.08 687C1759.52 726.192 1763.75 808.432 1763.75 808.432C1780.19 795.084 1796.63 788.422 1813.08 788.447Z" fill="white" fill-opacity="0.2"/>
<path d="M1823.79 1002.5H1824.09H1827.76C1827.88 1002.53 1828 1002.53 1828.12 1002.5C1835.69 997.437 1844.04 993.678 1852.83 991.378L1856.83 968.056H1816.45C1818.14 979.179 1820.34 993.232 1821.96 1002.91C1822.56 1002.72 1823.17 1002.59 1823.79 1002.5Z" fill="white" fill-opacity="0.2"/>
<path d="M1827.76 1008.14H1824.09C1823.23 1008.07 1822.36 1008.18 1821.54 1008.47C1820.73 1008.76 1819.98 1009.21 1819.34 1009.81C1818.71 1010.4 1818.2 1011.12 1817.86 1011.92C1817.51 1012.72 1817.33 1013.59 1817.33 1014.46C1817.33 1015.33 1817.51 1016.2 1817.86 1017C1818.2 1017.8 1818.71 1018.52 1819.34 1019.11C1819.98 1019.7 1820.73 1020.16 1821.54 1020.45C1822.36 1020.73 1823.23 1020.85 1824.09 1020.78H1868.13C1869.09 1020.78 1870.03 1020.56 1870.89 1020.15C1874.56 1018.33 1882.7 1012.73 1875.03 1002.24C1873.42 1000.09 1871.32 998.377 1868.9 997.24C1866.48 996.102 1863.82 995.579 1861.16 995.716C1849.34 995.716 1835.47 1004.17 1831.02 1007.21C1830.05 1007.83 1828.91 1008.15 1827.76 1008.14Z" fill="white" fill-opacity="0.2"/>
<path d="M1724.07 890.265C1724.07 890.265 1716.54 883.183 1709.13 883.183C1707.23 883.191 1705.37 883.716 1703.74 884.701C1702.12 885.686 1700.78 887.096 1699.88 888.781C1691.03 902.908 1708.28 920.298 1708.28 920.298L1724.07 890.265Z" fill="white" fill-opacity="0.2"/>
<path d="M1748.29 798.458C1746.49 775.877 1739.3 739.948 1712.18 735.425C1685.05 739.911 1677.86 775.84 1676.06 798.458C1675.87 800.782 1676.15 803.12 1676.9 805.327C1677.64 807.534 1678.83 809.561 1680.39 811.281C1681.95 813.001 1683.84 814.377 1685.95 815.323C1688.06 816.268 1690.34 816.762 1692.65 816.775H1731.63C1733.94 816.773 1736.23 816.286 1738.35 815.345C1740.47 814.404 1742.37 813.029 1743.94 811.308C1745.5 809.587 1746.7 807.556 1747.45 805.344C1748.2 803.133 1748.49 800.788 1748.29 798.458Z" fill="white" fill-opacity="0.2"/>
<path d="M1687.11 1020.71H1702.96H1721.31H1734.01V1002.17H1687.11V1020.71Z" fill="white" fill-opacity="0.2"/>
<path fill-rule="evenodd" clip-rule="evenodd" d="M1825.15 735.978L1828.94 732.215L1834.75 737.972L1830.93 741.735C1832.54 744.081 1833.67 746.759 1834.24 749.63H1839.62V757.77H1834.24C1833.67 760.638 1832.54 763.322 1830.93 765.665L1834.75 769.431L1828.94 775.191L1825.15 771.428C1822.78 773.004 1820.08 774.141 1817.19 774.685V780.026L1808.98 780.019V774.678C1806.07 774.135 1803.39 773.001 1801.02 771.422L1797.23 775.185L1791.42 769.424L1795.22 765.659C1793.63 763.316 1792.48 760.635 1791.92 757.764H1786.55V749.629H1791.92C1792.48 746.758 1793.63 744.08 1795.22 741.734L1791.42 737.972L1797.23 732.214L1801.02 735.977C1803.39 734.402 1806.07 733.265 1808.98 732.721V727.38H1817.19V732.721C1820.08 733.261 1822.78 734.399 1825.15 735.978ZM1836.06 725.805V728.642C1836.06 729.288 1835.51 729.832 1834.86 729.832H1823.23V732.355C1822.45 731.985 1821.66 731.674 1820.84 731.392V728.642C1820.84 727.977 1821.37 727.452 1822.04 727.452H1833.65V725.805C1832.17 725.299 1831.09 723.916 1831.09 722.27C1831.09 720.203 1832.79 718.541 1834.85 718.541C1836.92 718.541 1838.61 720.207 1838.61 722.27C1838.61 723.916 1837.54 725.296 1836.06 725.805ZM1790.12 725.805V728.642C1790.12 729.288 1790.65 729.832 1791.32 729.832H1802.93V732.355C1803.71 731.985 1804.52 731.674 1805.33 731.392V728.642C1805.33 727.977 1804.78 727.452 1804.13 727.452L1792.5 727.449V725.802C1794 725.296 1795.08 723.913 1795.08 722.267C1795.08 720.2 1793.38 718.538 1791.32 718.538C1789.23 718.538 1787.56 720.203 1787.56 722.267C1787.56 723.916 1788.62 725.296 1790.12 725.805ZM1792.5 781.595V779.952H1804.13C1804.78 779.952 1805.33 779.408 1805.33 778.762V776.015C1804.52 775.732 1803.71 775.422 1802.93 775.052V777.572H1791.32C1790.65 777.572 1790.12 778.115 1790.12 778.762V781.595C1788.64 782.105 1787.56 783.503 1787.56 785.131C1787.56 787.197 1789.23 788.859 1791.32 788.859C1793.38 788.859 1795.08 787.197 1795.08 785.131C1795.08 783.506 1794 782.105 1792.5 781.595ZM1792.2 765.526H1782.99C1782.32 765.526 1781.79 766.051 1781.79 766.7V769.832C1780.29 770.323 1779.21 771.724 1779.21 773.368C1779.21 775.415 1780.91 777.096 1782.99 777.096C1785.05 777.096 1786.75 775.418 1786.75 773.368C1786.75 771.724 1785.67 770.323 1784.17 769.832V767.89H1789.8L1792.2 765.526ZM1784.31 751.96C1783.67 750.786 1782.42 749.962 1780.97 749.962C1778.91 749.962 1777.22 751.643 1777.22 753.691C1777.22 755.757 1778.91 757.419 1780.97 757.419C1782.42 757.419 1783.67 756.612 1784.31 755.44V751.96ZM1789.8 739.511H1784.17V737.569C1785.67 737.081 1786.75 735.677 1786.75 734.033C1786.75 731.986 1785.05 730.305 1782.99 730.305C1780.91 730.305 1779.21 731.983 1779.21 734.033C1779.21 735.677 1780.29 737.078 1781.79 737.569V740.701C1781.79 741.347 1782.32 741.875 1782.99 741.875H1792.2L1789.8 739.511ZM1789.94 722.267C1789.94 721.515 1790.56 720.903 1791.32 720.903C1792.08 720.903 1792.68 721.515 1792.68 722.267C1792.68 723.003 1792.06 723.615 1791.32 723.615C1790.56 723.618 1789.94 723.003 1789.94 722.267ZM1781.61 734.033C1781.61 733.281 1782.21 732.688 1782.99 732.688C1783.75 732.688 1784.35 733.281 1784.35 734.033C1784.35 734.785 1783.73 735.4 1782.99 735.4C1782.23 735.397 1781.61 734.785 1781.61 734.033ZM1779.61 753.691C1779.61 752.939 1780.21 752.346 1780.97 752.346C1781.73 752.346 1782.35 752.939 1782.35 753.691C1782.35 754.443 1781.74 755.058 1780.97 755.058C1780.23 755.055 1779.61 754.446 1779.61 753.691ZM1781.61 773.368C1781.61 772.616 1782.21 772 1782.99 772C1783.75 772 1784.35 772.613 1784.35 773.368C1784.35 774.104 1783.73 774.716 1782.99 774.716C1782.23 774.716 1781.61 774.104 1781.61 773.368ZM1789.94 785.134C1789.94 784.382 1790.56 783.785 1791.32 783.785C1792.08 783.785 1792.68 784.379 1792.68 785.134C1792.68 785.886 1792.06 786.501 1791.32 786.501C1790.56 786.498 1789.94 785.886 1789.94 785.134ZM1833.65 781.595V779.951H1822.04C1821.37 779.951 1820.84 779.408 1820.84 778.761V776.015C1821.66 775.732 1822.45 775.421 1823.23 775.052V777.571H1834.86C1835.51 777.571 1836.06 778.115 1836.06 778.761V781.595C1837.54 782.105 1838.62 783.503 1838.62 785.131C1838.62 787.197 1836.94 788.859 1834.86 788.859C1832.77 788.859 1831.1 787.197 1831.1 785.131C1831.1 783.506 1832.17 782.105 1833.65 781.595ZM1833.97 765.526H1843.19C1843.84 765.526 1844.39 766.051 1844.39 766.7V769.832C1845.87 770.323 1846.94 771.724 1846.94 773.368C1846.94 775.415 1845.27 777.096 1843.19 777.096C1841.1 777.096 1839.43 775.418 1839.43 773.368C1839.43 771.724 1840.5 770.323 1841.99 769.832V767.89H1836.36L1833.97 765.526ZM1841.86 751.96C1842.48 750.786 1843.75 749.962 1845.18 749.962C1847.26 749.962 1848.94 751.643 1848.94 753.691C1848.94 755.757 1847.26 757.419 1845.18 757.419C1843.73 757.419 1842.48 756.611 1841.86 755.44V751.96ZM1836.36 739.511H1841.99V737.569C1840.5 737.081 1839.43 735.677 1839.43 734.033C1839.43 731.985 1841.12 730.305 1843.19 730.305C1845.27 730.305 1846.94 731.982 1846.94 734.033C1846.94 735.677 1845.87 737.078 1844.39 737.569V740.701C1844.39 741.347 1843.84 741.875 1843.19 741.875L1833.97 741.878L1836.36 739.511ZM1836.23 722.266C1836.23 721.515 1835.62 720.902 1834.85 720.902C1834.1 720.902 1833.48 721.515 1833.48 722.266C1833.48 723.003 1834.09 723.615 1834.85 723.615C1835.62 723.615 1836.23 723.003 1836.23 722.266ZM1844.56 734.033C1844.56 733.281 1843.95 732.687 1843.19 732.687C1842.43 732.687 1841.81 733.281 1841.81 734.033C1841.81 734.785 1842.42 735.4 1843.19 735.4C1843.94 735.397 1844.56 734.785 1844.56 734.033ZM1846.56 753.691C1846.56 752.939 1845.94 752.346 1845.18 752.346C1844.42 752.346 1843.82 752.939 1843.82 753.691C1843.82 754.443 1844.42 755.058 1845.18 755.058C1845.94 755.055 1846.56 754.446 1846.56 753.691ZM1844.56 773.367C1844.56 772.616 1843.95 772 1843.19 772C1842.43 772 1841.81 772.612 1841.81 773.367C1841.81 774.104 1842.42 774.716 1843.19 774.716C1843.94 774.716 1844.56 774.104 1844.56 773.367ZM1836.23 785.134C1836.23 784.382 1835.62 783.785 1834.85 783.785C1834.1 783.785 1833.48 784.379 1833.48 785.134C1833.48 785.886 1834.09 786.501 1834.85 786.501C1835.62 786.498 1836.23 785.886 1836.23 785.134ZM1826.77 752.938C1826.77 757.124 1824.86 760.852 1821.87 763.357V766.314C1821.87 767.172 1821.16 767.856 1820.31 767.856H1818.76V765.037H1816.36V767.856H1814.28V765.037H1811.89V767.856H1809.8V765.037H1807.41V767.856H1805.86C1804.99 767.856 1804.29 767.172 1804.29 766.314V763.357C1801.29 760.855 1799.38 757.124 1799.38 752.938C1799.38 735.064 1826.77 735.064 1826.77 752.938ZM1815.41 754.389C1815.82 755.983 1817.77 756.875 1819.78 756.387C1821.81 755.896 1823.12 754.197 1822.73 752.587C1822.54 751.835 1821.99 751.239 1821.25 750.872L1815.41 754.389ZM1810.75 754.389C1810.36 755.983 1808.4 756.875 1806.37 756.387C1804.36 755.896 1803.05 754.197 1803.44 752.587C1803.64 751.835 1804.19 751.239 1804.91 750.872L1810.75 754.389ZM1811.6 761.778C1811.14 762.232 1810.38 762.232 1809.9 761.778C1809.44 761.306 1809.44 760.554 1809.9 760.1L1811.12 758.892C1811.67 758.366 1812.37 758.087 1813.08 758.087C1813.79 758.087 1814.51 758.366 1815.04 758.892H1815.05L1816.25 760.1C1816.73 760.554 1816.73 761.309 1816.25 761.778C1815.79 762.232 1815.03 762.232 1814.56 761.778L1813.36 760.569C1813.28 760.498 1813.18 760.464 1813.07 760.464C1812.99 760.464 1812.88 760.501 1812.81 760.569L1811.6 761.778Z" fill="black"/>
<path fill-rule="evenodd" clip-rule="evenodd" d="M1790.19 950.796C1790.88 949.357 1791.23 948.673 1791.63 946.919H1798.97C1800.34 946.919 1800.34 944.826 1798.97 944.826H1791.97C1792.1 943.552 1792.09 942.253 1791.94 940.987L1796.31 937.592C1796.63 937.344 1796.76 936.946 1796.69 936.575L1795.92 931.271C1795.72 929.91 1793.65 930.212 1793.85 931.573L1794.54 936.316L1791.51 938.676L1791.04 937.2C1789.34 939.558 1786.92 941.333 1784.05 941.688V955.72C1785.81 955.431 1787.42 954.421 1788.73 952.907L1793.44 954.558L1791.77 958.561C1791.25 959.825 1793.17 960.627 1793.7 959.361L1795.81 954.313C1796 953.771 1795.73 953.171 1795.18 952.972L1789.99 951.139C1790.06 951.027 1790.12 950.912 1790.19 950.796ZM1778.6 931.916C1777.93 930.353 1776.94 928.839 1775.7 927.88C1774.61 927.046 1775.89 925.394 1776.97 926.23C1778.97 927.765 1780.37 930.305 1781.13 932.768C1781.55 932.247 1781.28 931.36 1781.1 930.581C1782.35 930.201 1783.65 930.201 1784.9 930.581C1784.72 931.36 1784.45 932.248 1784.87 932.768C1785.63 930.306 1787.03 927.765 1789.02 926.23C1790.11 925.394 1791.38 927.046 1790.3 927.88C1789.05 928.84 1788.07 930.353 1787.4 931.916C1788.44 932.736 1789.31 933.798 1790 934.977C1786.36 941.218 1779.64 941.217 1776 934.977C1776.69 933.798 1777.56 932.736 1778.6 931.916ZM1777.22 952.858C1778.54 954.399 1780.17 955.428 1781.95 955.72V941.688C1779.08 941.333 1776.66 939.558 1774.95 937.2L1774.49 938.676L1771.46 936.316L1772.15 931.57C1772.35 930.212 1770.28 929.912 1770.08 931.277L1769.31 936.565C1769.23 936.941 1769.37 937.344 1769.69 937.595L1774.06 940.99C1773.91 942.256 1773.9 943.558 1774.03 944.829L1767.03 944.828C1765.66 944.828 1765.66 946.921 1767.03 946.921H1774.37C1774.71 948.428 1775.25 949.839 1775.98 951.091L1770.81 952.973C1770.27 953.172 1769.99 953.772 1770.19 954.314L1772.3 959.362C1772.82 960.628 1774.75 959.825 1774.23 958.562L1772.56 954.559L1777.22 952.858Z" fill="black"/>
<path d="M61.9742 371.119C66.2658 371.257 70.4458 372.464 74.1031 374.622V318.88H55.8367V372.31C57.7816 371.532 59.8668 371.127 61.9742 371.119Z" fill="white" fill-opacity="0.2"/>
<path d="M55.8367 413.722V483.548H74.1031V426.09C67.9524 423.376 62.3113 419.706 57.4076 415.229C57.4076 415.229 56.6039 414.528 55.8367 413.722Z" fill="white" fill-opacity="0.2"/>
<path d="M65.2983 414.843C73.0801 420.972 82.7132 424.535 92.7711 425.004C98.7675 424.977 104.642 423.377 109.759 420.379C110.09 411.981 112.401 403.764 116.518 396.344C116.888 395.772 117.477 395.36 118.159 395.196C118.841 395.033 119.563 395.13 120.171 395.469C120.754 395.836 121.172 396.4 121.341 397.049C121.511 397.698 121.419 398.385 121.084 398.972C121.084 399.182 108.005 420.239 120.536 451.035H210.224C222.755 420.239 209.823 399.182 209.676 398.972C209.342 398.385 209.25 397.698 209.419 397.049C209.588 396.4 210.006 395.836 210.59 395.469C211.198 395.13 211.92 395.033 212.602 395.196C213.284 395.36 213.872 395.772 214.243 396.344C219.177 405.309 221.546 415.366 221.111 425.494L239.926 417.086C238.793 395.609 233.971 380.438 227.797 369.682C226.957 371.399 226.043 373.186 224.984 374.903C224.51 375.711 223.82 376.384 222.986 376.852C222.151 377.32 221.201 377.566 220.234 377.565C219.847 377.619 219.453 377.619 219.065 377.565C218.136 377.382 217.277 376.958 216.581 376.339C212.38 391.439 200.178 410.254 167.517 423.567C166.836 423.845 166.103 423.988 165.362 423.988C164.621 423.988 163.888 423.845 163.207 423.567C130.619 410.254 118.417 391.439 114.289 376.339C113.606 376.921 112.774 377.32 111.878 377.495C111.49 377.549 111.096 377.549 110.709 377.495C109.742 377.496 108.792 377.25 107.958 376.782C107.123 376.314 106.433 375.641 105.959 374.833C104.326 372.139 102.885 369.341 101.649 366.459C96.2621 373.97 91.9149 382.12 88.7159 390.704L81.4094 386.149L65.9559 414.178C65.7572 414.417 65.5372 414.64 65.2983 414.843Z" fill="white" fill-opacity="0.2"/>
<path d="M216.07 451C226.774 450.404 234.337 447.496 238.319 441.89C240.111 438.991 241.28 435.777 241.756 432.437C242.233 429.098 242.008 425.7 241.095 422.446L220.892 431.45C220.136 438.133 218.516 444.7 216.07 451Z" fill="white" fill-opacity="0.2"/>
<path d="M151.005 489.189H154.658H154.877C155.54 489.205 156.2 489.276 156.85 489.399C158.457 480.255 160.503 466.906 162.366 456.466H122.18L126.016 478.293C134.762 480.466 143.071 484.018 150.603 488.804C150.64 488.891 150.694 488.969 150.763 489.036C150.832 489.102 150.914 489.154 151.005 489.189Z" fill="white" fill-opacity="0.2"/>
<path d="M118.783 352.655C118.783 352.655 106.069 394.523 165.435 418.732C224.801 394.523 212.088 352.655 212.088 352.655C218.883 356.684 220.235 372.38 220.235 372.38C237.661 343.055 225.094 320.913 217.166 311.173C215.806 323.421 209.77 334.754 200.22 342.99C190.669 351.226 178.279 355.783 165.435 355.783C152.591 355.783 140.202 351.226 130.651 342.99C121.1 334.754 115.064 323.421 113.705 311.173C105.777 320.913 93.2098 343.055 110.636 372.38C110.636 372.38 111.988 356.684 118.783 352.655Z" fill="white" fill-opacity="0.2"/>
<path d="M154.768 494.375H151.115C149.921 494.385 148.752 494.056 147.754 493.429C143.224 490.556 129.487 482.567 117.76 482.567C115.078 482.423 112.401 482.917 109.966 484.005C107.531 485.093 105.414 486.742 103.805 488.804C96.1691 498.649 104.426 504.009 107.933 505.726C108.778 506.112 109.7 506.315 110.636 506.322H154.768C155.626 506.385 156.488 506.277 157.301 506.006C158.114 505.734 158.859 505.304 159.491 504.743C160.122 504.183 160.626 503.503 160.97 502.746C161.315 501.99 161.492 501.173 161.492 500.348C161.492 499.523 161.315 498.706 160.97 497.95C160.626 497.194 160.122 496.514 159.491 495.953C158.859 495.392 158.114 494.962 157.301 494.691C156.488 494.419 155.626 494.311 154.768 494.375Z" fill="white" fill-opacity="0.2"/>
<path d="M200.872 334.647C207.04 327.73 210.863 319.175 211.832 310.122L211.138 309.772C195.867 298 180.487 292.043 165.472 292.043C150.457 292.043 135.076 298 119.806 309.772L119.112 310.122C120.081 319.175 123.904 327.73 130.071 334.647C130.948 333.771 142.42 322.56 165.508 322.56C188.597 322.56 199.995 333.841 200.872 334.647Z" fill="white" fill-opacity="0.2"/>
<path d="M133.944 338.325C142.533 346.004 153.839 350.274 165.582 350.274C177.324 350.274 188.63 346.004 197.219 338.325C197.219 338.325 186.698 327.815 165.728 327.815C144.758 327.815 134.054 338.15 133.944 338.325Z" fill="white" fill-opacity="0.2"/>
<path d="M165.435 286.858C181.802 286.858 198.169 293.153 214.536 305.742C214.536 305.742 218.737 228.033 165.435 191C112.134 228.033 116.335 305.742 116.335 305.742C132.702 293.129 149.069 286.834 165.435 286.858Z" fill="white" fill-opacity="0.2"/>
<path d="M176.103 489.119H176.395H180.049C180.168 489.151 180.294 489.151 180.414 489.119C187.946 484.334 196.254 480.782 205.001 478.609L208.983 456.571H168.796C170.477 467.082 172.669 480.361 174.276 489.505C174.873 489.33 175.484 489.201 176.103 489.119Z" fill="white" fill-opacity="0.2"/>
<path d="M180.049 494.445H176.395C175.537 494.382 174.675 494.489 173.862 494.761C173.05 495.033 172.304 495.462 171.673 496.023C171.041 496.584 170.538 497.264 170.193 498.02C169.849 498.777 169.671 499.593 169.671 500.418C169.671 501.244 169.849 502.06 170.193 502.816C170.538 503.573 171.041 504.253 171.673 504.814C172.304 505.374 173.05 505.804 173.862 506.076C174.675 506.347 175.537 506.455 176.395 506.392H220.235C221.183 506.391 222.119 506.187 222.975 505.796C226.628 504.08 234.738 498.789 227.103 488.874C225.499 486.845 223.403 485.223 220.996 484.148C218.589 483.073 215.945 482.579 213.294 482.708C201.53 482.708 187.721 490.696 183.3 493.569C182.325 494.152 181.197 494.456 180.049 494.445Z" fill="white" fill-opacity="0.2"/>
<path d="M76.843 383.066C76.843 383.066 69.3537 376.374 61.9741 376.374C60.0857 376.383 58.2345 376.878 56.6147 377.809C54.9948 378.74 53.6661 380.072 52.7678 381.665C43.9634 395.013 61.1338 411.445 61.1338 411.445L76.843 383.066Z" fill="white" fill-opacity="0.2"/>
<path d="M100.955 296.317C99.1646 274.981 92.0042 241.031 65.0064 236.757C38.0085 240.996 30.8481 274.946 29.058 296.317C28.8665 298.513 29.1506 300.723 29.8924 302.808C30.6342 304.893 31.8176 306.808 33.3684 308.434C34.9192 310.059 36.8038 311.359 38.9037 312.253C41.0037 313.146 43.2736 313.613 45.5709 313.625H84.3688C86.6722 313.623 88.9502 313.163 91.0588 312.274C93.1674 311.385 95.0609 310.086 96.6195 308.459C98.1782 306.833 99.3682 304.914 100.114 302.824C100.861 300.734 101.147 298.519 100.955 296.317Z" fill="white" fill-opacity="0.2"/>
<path d="M40.0547 506.321H55.8369H74.1034H86.7438V488.803H40.0547V506.321Z" fill="white" fill-opacity="0.2"/>
</svg>
