<svg width="1920" height="1080" viewBox="0 0 1920 1080" fill="none" xmlns="http://www.w3.org/2000/svg">
<rect width="1920" height="1080" fill="black"/>
<path d="M1719.13 827.62C1723.44 827.767 1727.64 829.045 1731.31 831.328V772.336H1712.96V828.881C1714.92 828.058 1717.01 827.629 1719.13 827.62Z" fill="white" fill-opacity="0.2"/>
<path d="M1712.96 872.708V946.605H1731.31V885.797C1725.13 882.924 1719.47 879.041 1714.54 874.302C1714.54 874.302 1713.73 873.561 1712.96 872.708Z" fill="white" fill-opacity="0.2"/>
<path d="M1722.47 873.895C1730.29 880.381 1739.97 884.151 1750.07 884.647C1756.1 884.619 1762 882.926 1767.14 879.753C1767.47 870.865 1769.79 862.169 1773.93 854.317C1774.3 853.711 1774.89 853.275 1775.58 853.102C1776.26 852.929 1776.99 853.032 1777.6 853.39C1778.19 853.779 1778.61 854.376 1778.78 855.063C1778.95 855.75 1778.85 856.477 1778.52 857.098C1778.52 857.321 1765.38 879.605 1777.97 912.197H1868.08C1880.67 879.605 1867.67 857.321 1867.53 857.098C1867.19 856.477 1867.1 855.75 1867.27 855.063C1867.44 854.376 1867.86 853.779 1868.44 853.39C1869.05 853.032 1869.78 852.929 1870.46 853.102C1871.15 853.275 1871.74 853.711 1872.11 854.317C1877.07 863.804 1879.45 874.448 1879.01 885.166L1897.92 876.268C1896.78 853.539 1891.93 837.484 1885.73 826.1C1884.89 827.917 1883.97 829.808 1882.9 831.625C1882.43 832.481 1881.74 833.193 1880.9 833.688C1880.06 834.183 1879.1 834.444 1878.13 834.443C1877.74 834.5 1877.35 834.5 1876.96 834.443C1876.02 834.249 1875.16 833.8 1874.46 833.145C1870.24 849.126 1857.98 869.037 1825.17 883.127C1824.48 883.421 1823.75 883.572 1823 883.572C1822.26 883.572 1821.52 883.421 1820.84 883.127C1788.1 869.037 1775.84 849.126 1771.69 833.145C1771 833.762 1770.17 834.184 1769.27 834.369C1768.88 834.426 1768.48 834.426 1768.09 834.369C1767.12 834.37 1766.17 834.109 1765.33 833.614C1764.49 833.118 1763.8 832.406 1763.32 831.551C1761.68 828.7 1760.23 825.739 1758.99 822.689C1753.58 830.638 1749.21 839.263 1746 848.348L1738.66 843.527L1723.13 873.19C1722.93 873.444 1722.71 873.68 1722.47 873.895Z" fill="white" fill-opacity="0.2"/>
<path d="M1873.95 912.16C1884.7 911.53 1892.3 908.452 1896.3 902.52C1898.1 899.451 1899.28 896.049 1899.76 892.515C1900.23 888.981 1900.01 885.386 1899.09 881.941L1878.79 891.47C1878.03 898.543 1876.41 905.493 1873.95 912.16Z" fill="white" fill-opacity="0.2"/>
<path d="M1808.58 952.576H1812.25H1812.47C1813.13 952.593 1813.8 952.667 1814.45 952.798C1816.07 943.121 1818.12 928.994 1819.99 917.944H1779.62L1783.47 941.044C1792.26 943.344 1800.61 947.103 1808.17 952.168C1808.21 952.26 1808.27 952.343 1808.33 952.413C1808.4 952.483 1808.49 952.538 1808.58 952.576Z" fill="white" fill-opacity="0.2"/>
<path d="M1776.2 808.081C1776.2 808.081 1763.43 852.389 1823.08 878.011C1882.72 852.389 1869.95 808.081 1869.95 808.081C1876.77 812.345 1878.13 828.956 1878.13 828.956C1895.64 797.921 1883.01 774.488 1875.05 764.18C1873.68 777.142 1867.62 789.136 1858.02 797.852C1848.43 806.568 1835.98 811.391 1823.08 811.391C1810.17 811.391 1797.72 806.568 1788.13 797.852C1778.53 789.136 1772.47 777.142 1771.1 764.18C1763.14 774.488 1750.51 797.921 1768.02 828.956C1768.02 828.956 1769.38 812.345 1776.2 808.081Z" fill="white" fill-opacity="0.2"/>
<path d="M1812.36 958.063H1808.69C1807.49 958.074 1806.31 957.726 1805.31 957.062C1800.76 954.021 1786.96 945.567 1775.18 945.567C1772.48 945.415 1769.79 945.937 1767.35 947.089C1764.9 948.24 1762.77 949.985 1761.16 952.167C1753.48 962.586 1761.78 968.26 1765.3 970.076C1766.15 970.485 1767.08 970.7 1768.02 970.707H1812.36C1813.22 970.773 1814.09 970.66 1814.9 970.372C1815.72 970.085 1816.47 969.63 1817.1 969.036C1817.74 968.443 1818.24 967.723 1818.59 966.923C1818.94 966.122 1819.11 965.258 1819.11 964.385C1819.11 963.511 1818.94 962.647 1818.59 961.847C1818.24 961.046 1817.74 960.327 1817.1 959.733C1816.47 959.14 1815.72 958.685 1814.9 958.398C1814.09 958.11 1813.22 957.996 1812.36 958.063Z" fill="white" fill-opacity="0.2"/>
<path d="M1858.68 789.022C1864.88 781.702 1868.72 772.648 1869.69 763.067L1868.99 762.697C1853.65 750.238 1838.2 743.935 1823.11 743.935C1808.03 743.935 1792.57 750.238 1777.23 762.697L1776.53 763.067C1777.51 772.648 1781.35 781.702 1787.55 789.022C1788.43 788.095 1799.95 776.23 1823.15 776.23C1846.35 776.23 1857.8 788.169 1858.68 789.022Z" fill="white" fill-opacity="0.2"/>
<path d="M1791.44 792.915C1800.07 801.042 1811.43 805.561 1823.22 805.561C1835.02 805.561 1846.38 801.042 1855.01 792.915C1855.01 792.915 1844.44 781.792 1823.37 781.792C1802.3 781.792 1791.55 792.73 1791.44 792.915Z" fill="white" fill-opacity="0.2"/>
<path d="M1823.08 738.447C1839.52 738.447 1855.96 745.109 1872.41 758.432C1872.41 758.432 1876.63 676.192 1823.08 637C1769.52 676.192 1773.75 758.432 1773.75 758.432C1790.19 745.084 1806.63 738.422 1823.08 738.447Z" fill="white" fill-opacity="0.2"/>
<path d="M1833.79 952.502H1834.09H1837.76C1837.88 952.535 1838 952.535 1838.12 952.502C1845.69 947.437 1854.04 943.678 1862.83 941.378L1866.83 918.056H1826.45C1828.14 929.179 1830.34 943.232 1831.96 952.909C1832.56 952.724 1833.17 952.588 1833.79 952.502Z" fill="white" fill-opacity="0.2"/>
<path d="M1837.76 958.137H1834.09C1833.23 958.07 1832.36 958.184 1831.54 958.471C1830.73 958.759 1829.98 959.214 1829.34 959.807C1828.71 960.401 1828.2 961.12 1827.86 961.921C1827.51 962.721 1827.33 963.585 1827.33 964.459C1827.33 965.332 1827.51 966.196 1827.86 966.997C1828.2 967.797 1828.71 968.517 1829.34 969.11C1829.98 969.704 1830.73 970.159 1831.54 970.446C1832.36 970.733 1833.23 970.847 1834.09 970.781H1878.13C1879.09 970.779 1880.03 970.564 1880.89 970.15C1884.56 968.333 1892.7 962.735 1885.03 952.241C1883.42 950.094 1881.32 948.377 1878.9 947.24C1876.48 946.102 1873.82 945.579 1871.16 945.716C1859.34 945.716 1845.47 954.169 1841.02 957.21C1840.05 957.827 1838.91 958.149 1837.76 958.137Z" fill="white" fill-opacity="0.2"/>
<path d="M1734.07 840.265C1734.07 840.265 1726.54 833.183 1719.13 833.183C1717.23 833.191 1715.37 833.716 1713.74 834.701C1712.12 835.686 1710.78 837.096 1709.88 838.781C1701.03 852.908 1718.28 870.298 1718.28 870.298L1734.07 840.265Z" fill="white" fill-opacity="0.2"/>
<path d="M1758.29 748.458C1756.49 725.877 1749.3 689.948 1722.18 685.425C1695.05 689.911 1687.86 725.84 1686.06 748.458C1685.87 750.782 1686.15 753.12 1686.9 755.327C1687.64 757.534 1688.83 759.561 1690.39 761.281C1691.95 763.001 1693.84 764.377 1695.95 765.323C1698.06 766.268 1700.34 766.762 1702.65 766.775H1741.63C1743.94 766.773 1746.23 766.286 1748.35 765.345C1750.47 764.404 1752.37 763.029 1753.94 761.308C1755.5 759.587 1756.7 757.556 1757.45 755.344C1758.2 753.133 1758.49 750.788 1758.29 748.458Z" fill="white" fill-opacity="0.2"/>
<path d="M1697.11 970.707H1712.96H1731.31H1744.01V952.167H1697.11V970.707Z" fill="white" fill-opacity="0.2"/>
<path fill-rule="evenodd" clip-rule="evenodd" d="M1835.15 685.978L1838.94 682.215L1844.75 687.972L1840.93 691.735C1842.54 694.081 1843.67 696.759 1844.24 699.63H1849.62V707.77H1844.24C1843.67 710.638 1842.54 713.322 1840.93 715.665L1844.75 719.431L1838.94 725.191L1835.15 721.428C1832.78 723.004 1830.08 724.141 1827.19 724.685V730.026L1818.98 730.019V724.678C1816.07 724.135 1813.39 723.001 1811.02 721.422L1807.23 725.185L1801.42 719.424L1805.22 715.659C1803.63 713.316 1802.48 710.635 1801.92 707.764H1796.55V699.629H1801.92C1802.48 696.758 1803.63 694.08 1805.22 691.734L1801.42 687.972L1807.23 682.214L1811.02 685.977C1813.39 684.402 1816.07 683.265 1818.98 682.721V677.38H1827.19V682.721C1830.08 683.261 1832.78 684.399 1835.15 685.978ZM1846.06 675.805V678.642C1846.06 679.288 1845.51 679.832 1844.86 679.832H1833.23V682.355C1832.45 681.985 1831.66 681.674 1830.84 681.392V678.642C1830.84 677.977 1831.37 677.452 1832.04 677.452H1843.65V675.805C1842.17 675.299 1841.09 673.916 1841.09 672.27C1841.09 670.203 1842.79 668.541 1844.85 668.541C1846.92 668.541 1848.61 670.207 1848.61 672.27C1848.61 673.916 1847.54 675.296 1846.06 675.805ZM1800.12 675.805V678.642C1800.12 679.288 1800.65 679.832 1801.32 679.832H1812.93V682.355C1813.71 681.985 1814.52 681.674 1815.33 681.392V678.642C1815.33 677.977 1814.78 677.452 1814.13 677.452L1802.5 677.449V675.802C1804 675.296 1805.08 673.913 1805.08 672.267C1805.08 670.2 1803.38 668.538 1801.32 668.538C1799.23 668.538 1797.56 670.203 1797.56 672.267C1797.56 673.916 1798.62 675.296 1800.12 675.805ZM1802.5 731.595V729.952H1814.13C1814.78 729.952 1815.33 729.408 1815.33 728.762V726.015C1814.52 725.732 1813.71 725.422 1812.93 725.052V727.572H1801.32C1800.65 727.572 1800.12 728.115 1800.12 728.762V731.595C1798.64 732.105 1797.56 733.503 1797.56 735.131C1797.56 737.197 1799.23 738.859 1801.32 738.859C1803.38 738.859 1805.08 737.197 1805.08 735.131C1805.08 733.506 1804 732.105 1802.5 731.595ZM1802.2 715.526H1792.99C1792.32 715.526 1791.79 716.051 1791.79 716.7V719.832C1790.29 720.323 1789.21 721.724 1789.21 723.368C1789.21 725.415 1790.91 727.096 1792.99 727.096C1795.05 727.096 1796.75 725.418 1796.75 723.368C1796.75 721.724 1795.67 720.323 1794.17 719.832V717.89H1799.8L1802.2 715.526ZM1794.31 701.96C1793.67 700.786 1792.42 699.962 1790.97 699.962C1788.91 699.962 1787.22 701.643 1787.22 703.691C1787.22 705.757 1788.91 707.419 1790.97 707.419C1792.42 707.419 1793.67 706.612 1794.31 705.44V701.96ZM1799.8 689.511H1794.17V687.569C1795.67 687.081 1796.75 685.677 1796.75 684.033C1796.75 681.986 1795.05 680.305 1792.99 680.305C1790.91 680.305 1789.21 681.983 1789.21 684.033C1789.21 685.677 1790.29 687.078 1791.79 687.569V690.701C1791.79 691.347 1792.32 691.875 1792.99 691.875H1802.2L1799.8 689.511ZM1799.94 672.267C1799.94 671.515 1800.56 670.903 1801.32 670.903C1802.08 670.903 1802.68 671.515 1802.68 672.267C1802.68 673.003 1802.06 673.615 1801.32 673.615C1800.56 673.618 1799.94 673.003 1799.94 672.267ZM1791.61 684.033C1791.61 683.281 1792.21 682.688 1792.99 682.688C1793.75 682.688 1794.35 683.281 1794.35 684.033C1794.35 684.785 1793.73 685.4 1792.99 685.4C1792.23 685.397 1791.61 684.785 1791.61 684.033ZM1789.61 703.691C1789.61 702.939 1790.21 702.346 1790.97 702.346C1791.73 702.346 1792.35 702.939 1792.35 703.691C1792.35 704.443 1791.74 705.058 1790.97 705.058C1790.23 705.055 1789.61 704.446 1789.61 703.691ZM1791.61 723.368C1791.61 722.616 1792.21 722 1792.99 722C1793.75 722 1794.35 722.613 1794.35 723.368C1794.35 724.104 1793.73 724.716 1792.99 724.716C1792.23 724.716 1791.61 724.104 1791.61 723.368ZM1799.94 735.134C1799.94 734.382 1800.56 733.785 1801.32 733.785C1802.08 733.785 1802.68 734.379 1802.68 735.134C1802.68 735.886 1802.06 736.501 1801.32 736.501C1800.56 736.498 1799.94 735.886 1799.94 735.134ZM1843.65 731.595V729.951H1832.04C1831.37 729.951 1830.84 729.408 1830.84 728.761V726.015C1831.66 725.732 1832.45 725.421 1833.23 725.052V727.571H1844.86C1845.51 727.571 1846.06 728.115 1846.06 728.761V731.595C1847.54 732.105 1848.62 733.503 1848.62 735.131C1848.62 737.197 1846.94 738.859 1844.86 738.859C1842.77 738.859 1841.1 737.197 1841.1 735.131C1841.1 733.506 1842.17 732.105 1843.65 731.595ZM1843.97 715.526H1853.19C1853.84 715.526 1854.39 716.051 1854.39 716.7V719.832C1855.87 720.323 1856.94 721.724 1856.94 723.368C1856.94 725.415 1855.27 727.096 1853.19 727.096C1851.1 727.096 1849.43 725.418 1849.43 723.368C1849.43 721.724 1850.5 720.323 1851.99 719.832V717.89H1846.36L1843.97 715.526ZM1851.86 701.96C1852.48 700.786 1853.75 699.962 1855.18 699.962C1857.26 699.962 1858.94 701.643 1858.94 703.691C1858.94 705.757 1857.26 707.419 1855.18 707.419C1853.73 707.419 1852.48 706.611 1851.86 705.44V701.96ZM1846.36 689.511H1851.99V687.569C1850.5 687.081 1849.43 685.677 1849.43 684.033C1849.43 681.985 1851.12 680.305 1853.19 680.305C1855.27 680.305 1856.94 681.982 1856.94 684.033C1856.94 685.677 1855.87 687.078 1854.39 687.569V690.701C1854.39 691.347 1853.84 691.875 1853.19 691.875L1843.97 691.878L1846.36 689.511ZM1846.23 672.266C1846.23 671.515 1845.62 670.902 1844.85 670.902C1844.1 670.902 1843.48 671.515 1843.48 672.266C1843.48 673.003 1844.09 673.615 1844.85 673.615C1845.62 673.615 1846.23 673.003 1846.23 672.266ZM1854.56 684.033C1854.56 683.281 1853.95 682.687 1853.19 682.687C1852.43 682.687 1851.81 683.281 1851.81 684.033C1851.81 684.785 1852.42 685.4 1853.19 685.4C1853.94 685.397 1854.56 684.785 1854.56 684.033ZM1856.56 703.691C1856.56 702.939 1855.94 702.346 1855.18 702.346C1854.42 702.346 1853.82 702.939 1853.82 703.691C1853.82 704.443 1854.42 705.058 1855.18 705.058C1855.94 705.055 1856.56 704.446 1856.56 703.691ZM1854.56 723.367C1854.56 722.616 1853.95 722 1853.19 722C1852.43 722 1851.81 722.612 1851.81 723.367C1851.81 724.104 1852.42 724.716 1853.19 724.716C1853.94 724.716 1854.56 724.104 1854.56 723.367ZM1846.23 735.134C1846.23 734.382 1845.62 733.785 1844.85 733.785C1844.1 733.785 1843.48 734.379 1843.48 735.134C1843.48 735.886 1844.09 736.501 1844.85 736.501C1845.62 736.498 1846.23 735.886 1846.23 735.134ZM1836.77 702.938C1836.77 707.124 1834.86 710.852 1831.87 713.357V716.314C1831.87 717.172 1831.16 717.856 1830.31 717.856H1828.76V715.037H1826.36V717.856H1824.28V715.037H1821.89V717.856H1819.8V715.037H1817.41V717.856H1815.86C1814.99 717.856 1814.29 717.172 1814.29 716.314V713.357C1811.29 710.855 1809.38 707.124 1809.38 702.938C1809.38 685.064 1836.77 685.064 1836.77 702.938ZM1825.41 704.389C1825.82 705.983 1827.77 706.875 1829.78 706.387C1831.81 705.896 1833.12 704.197 1832.73 702.587C1832.54 701.835 1831.99 701.239 1831.25 700.872L1825.41 704.389ZM1820.75 704.389C1820.36 705.983 1818.4 706.875 1816.37 706.387C1814.36 705.896 1813.05 704.197 1813.44 702.587C1813.64 701.835 1814.19 701.239 1814.91 700.872L1820.75 704.389ZM1821.6 711.778C1821.14 712.232 1820.38 712.232 1819.9 711.778C1819.44 711.306 1819.44 710.554 1819.9 710.1L1821.12 708.892C1821.67 708.366 1822.37 708.087 1823.08 708.087C1823.79 708.087 1824.51 708.366 1825.04 708.892H1825.05L1826.25 710.1C1826.73 710.554 1826.73 711.309 1826.25 711.778C1825.79 712.232 1825.03 712.232 1824.56 711.778L1823.36 710.569C1823.28 710.498 1823.18 710.464 1823.07 710.464C1822.99 710.464 1822.88 710.501 1822.81 710.569L1821.6 711.778Z" fill="black"/>
<path fill-rule="evenodd" clip-rule="evenodd" d="M1800.19 900.796C1800.88 899.357 1801.23 898.673 1801.63 896.919H1808.97C1810.34 896.919 1810.34 894.826 1808.97 894.826H1801.97C1802.1 893.552 1802.09 892.253 1801.94 890.987L1806.31 887.592C1806.63 887.344 1806.76 886.946 1806.69 886.575L1805.92 881.271C1805.72 879.91 1803.65 880.212 1803.85 881.573L1804.54 886.316L1801.51 888.676L1801.04 887.2C1799.34 889.558 1796.92 891.333 1794.05 891.688V905.72C1795.81 905.431 1797.42 904.421 1798.73 902.907L1803.44 904.558L1801.77 908.561C1801.25 909.825 1803.17 910.627 1803.7 909.361L1805.81 904.313C1806 903.771 1805.73 903.171 1805.18 902.972L1799.99 901.139C1800.06 901.027 1800.12 900.912 1800.19 900.796ZM1788.6 881.916C1787.93 880.353 1786.94 878.839 1785.7 877.88C1784.61 877.046 1785.89 875.394 1786.97 876.23C1788.97 877.765 1790.37 880.305 1791.13 882.768C1791.55 882.247 1791.28 881.36 1791.1 880.581C1792.35 880.201 1793.65 880.201 1794.9 880.581C1794.72 881.36 1794.45 882.248 1794.87 882.768C1795.63 880.306 1797.03 877.765 1799.02 876.23C1800.11 875.394 1801.38 877.046 1800.3 877.88C1799.05 878.84 1798.07 880.353 1797.4 881.916C1798.44 882.736 1799.31 883.798 1800 884.977C1796.36 891.218 1789.64 891.217 1786 884.977C1786.69 883.798 1787.56 882.736 1788.6 881.916ZM1787.22 902.858C1788.54 904.399 1790.17 905.428 1791.95 905.72V891.688C1789.08 891.333 1786.66 889.558 1784.95 887.2L1784.49 888.676L1781.46 886.316L1782.15 881.57C1782.35 880.212 1780.28 879.912 1780.08 881.277L1779.31 886.565C1779.23 886.941 1779.37 887.344 1779.69 887.595L1784.06 890.99C1783.91 892.256 1783.9 893.558 1784.03 894.829L1777.03 894.828C1775.66 894.828 1775.66 896.921 1777.03 896.921H1784.37C1784.71 898.428 1785.25 899.839 1785.98 901.091L1780.81 902.973C1780.27 903.172 1779.99 903.772 1780.19 904.314L1782.3 909.362C1782.82 910.628 1784.75 909.825 1784.23 908.562L1782.56 904.559L1787.22 902.858Z" fill="black"/>
<path d="M61.9742 391.119C66.2658 391.257 70.4458 392.464 74.1031 394.622V338.88H55.8367V392.31C57.7816 391.532 59.8668 391.127 61.9742 391.119Z" fill="white" fill-opacity="0.2"/>
<path d="M55.8367 433.722V503.548H74.1031V446.09C67.9524 443.376 62.3113 439.706 57.4076 435.229C57.4076 435.229 56.6039 434.528 55.8367 433.722Z" fill="white" fill-opacity="0.2"/>
<path d="M65.2983 434.843C73.0801 440.972 82.7132 444.535 92.7711 445.004C98.7675 444.977 104.642 443.377 109.759 440.379C110.09 431.981 112.401 423.764 116.518 416.344C116.888 415.772 117.477 415.36 118.159 415.196C118.841 415.033 119.563 415.13 120.171 415.469C120.754 415.836 121.172 416.4 121.341 417.049C121.511 417.698 121.419 418.385 121.084 418.972C121.084 419.182 108.005 440.239 120.536 471.035H210.224C222.755 440.239 209.823 419.182 209.676 418.972C209.342 418.385 209.25 417.698 209.419 417.049C209.588 416.4 210.006 415.836 210.59 415.469C211.198 415.13 211.92 415.033 212.602 415.196C213.284 415.36 213.872 415.772 214.243 416.344C219.177 425.309 221.546 435.366 221.111 445.494L239.926 437.086C238.793 415.609 233.971 400.438 227.797 389.682C226.957 391.399 226.043 393.186 224.984 394.903C224.51 395.711 223.82 396.384 222.986 396.852C222.151 397.32 221.201 397.566 220.234 397.565C219.847 397.619 219.453 397.619 219.065 397.565C218.136 397.382 217.277 396.958 216.581 396.339C212.38 411.439 200.178 430.254 167.517 443.567C166.836 443.845 166.103 443.988 165.362 443.988C164.621 443.988 163.888 443.845 163.207 443.567C130.619 430.254 118.417 411.439 114.289 396.339C113.606 396.921 112.774 397.32 111.878 397.495C111.49 397.549 111.096 397.549 110.709 397.495C109.742 397.496 108.792 397.25 107.958 396.782C107.123 396.314 106.433 395.641 105.959 394.833C104.326 392.139 102.885 389.341 101.649 386.459C96.2621 393.97 91.9149 402.12 88.7159 410.704L81.4094 406.149L65.9559 434.178C65.7572 434.417 65.5372 434.64 65.2983 434.843Z" fill="white" fill-opacity="0.2"/>
<path d="M216.07 471C226.774 470.404 234.337 467.496 238.319 461.89C240.111 458.991 241.28 455.777 241.756 452.437C242.233 449.098 242.008 445.7 241.095 442.446L220.892 451.45C220.136 458.133 218.516 464.7 216.07 471Z" fill="white" fill-opacity="0.2"/>
<path d="M151.005 509.189H154.658H154.877C155.54 509.205 156.2 509.276 156.85 509.399C158.457 500.255 160.503 486.906 162.366 476.466H122.18L126.016 498.293C134.762 500.466 143.071 504.018 150.603 508.804C150.64 508.891 150.694 508.969 150.763 509.036C150.832 509.102 150.914 509.154 151.005 509.189Z" fill="white" fill-opacity="0.2"/>
<path d="M118.783 372.655C118.783 372.655 106.069 414.523 165.435 438.732C224.801 414.523 212.088 372.655 212.088 372.655C218.883 376.684 220.235 392.38 220.235 392.38C237.661 363.055 225.094 340.913 217.166 331.173C215.806 343.421 209.77 354.754 200.22 362.99C190.669 371.226 178.279 375.783 165.435 375.783C152.591 375.783 140.202 371.226 130.651 362.99C121.1 354.754 115.064 343.421 113.705 331.173C105.777 340.913 93.2098 363.055 110.636 392.38C110.636 392.38 111.988 376.684 118.783 372.655Z" fill="white" fill-opacity="0.2"/>
<path d="M154.768 514.375H151.115C149.921 514.385 148.752 514.056 147.754 513.429C143.224 510.556 129.487 502.567 117.76 502.567C115.078 502.423 112.401 502.917 109.966 504.005C107.531 505.093 105.414 506.742 103.805 508.804C96.1691 518.649 104.426 524.009 107.933 525.726C108.778 526.112 109.7 526.315 110.636 526.322H154.768C155.626 526.385 156.488 526.277 157.301 526.006C158.114 525.734 158.859 525.304 159.491 524.743C160.122 524.183 160.626 523.503 160.97 522.746C161.315 521.99 161.492 521.173 161.492 520.348C161.492 519.523 161.315 518.706 160.97 517.95C160.626 517.194 160.122 516.514 159.491 515.953C158.859 515.392 158.114 514.962 157.301 514.691C156.488 514.419 155.626 514.311 154.768 514.375Z" fill="white" fill-opacity="0.2"/>
<path d="M200.872 354.647C207.04 347.73 210.863 339.175 211.832 330.122L211.138 329.772C195.867 318 180.487 312.043 165.472 312.043C150.457 312.043 135.076 318 119.806 329.772L119.112 330.122C120.081 339.175 123.904 347.73 130.071 354.647C130.948 353.771 142.42 342.56 165.508 342.56C188.597 342.56 199.995 353.841 200.872 354.647Z" fill="white" fill-opacity="0.2"/>
<path d="M133.944 358.325C142.533 366.004 153.839 370.274 165.582 370.274C177.324 370.274 188.63 366.004 197.219 358.325C197.219 358.325 186.698 347.815 165.728 347.815C144.758 347.815 134.054 358.15 133.944 358.325Z" fill="white" fill-opacity="0.2"/>
<path d="M165.435 306.858C181.802 306.858 198.169 313.153 214.536 325.742C214.536 325.742 218.737 248.033 165.435 211C112.134 248.033 116.335 325.742 116.335 325.742C132.702 313.129 149.069 306.834 165.435 306.858Z" fill="white" fill-opacity="0.2"/>
<path d="M176.103 509.119H176.395H180.049C180.168 509.151 180.294 509.151 180.414 509.119C187.946 504.334 196.254 500.782 205.001 498.609L208.983 476.571H168.796C170.477 487.082 172.669 500.361 174.276 509.505C174.873 509.33 175.484 509.201 176.103 509.119Z" fill="white" fill-opacity="0.2"/>
<path d="M180.049 514.445H176.395C175.537 514.382 174.675 514.489 173.862 514.761C173.05 515.033 172.304 515.462 171.673 516.023C171.041 516.584 170.538 517.264 170.193 518.02C169.849 518.777 169.671 519.593 169.671 520.418C169.671 521.244 169.849 522.06 170.193 522.816C170.538 523.573 171.041 524.253 171.673 524.814C172.304 525.374 173.05 525.804 173.862 526.076C174.675 526.347 175.537 526.455 176.395 526.392H220.235C221.183 526.391 222.119 526.187 222.975 525.796C226.628 524.08 234.738 518.789 227.103 508.874C225.499 506.845 223.403 505.223 220.996 504.148C218.589 503.073 215.945 502.579 213.294 502.708C201.53 502.708 187.721 510.696 183.3 513.569C182.325 514.152 181.197 514.456 180.049 514.445Z" fill="white" fill-opacity="0.2"/>
<path d="M76.843 403.066C76.843 403.066 69.3537 396.374 61.9741 396.374C60.0857 396.383 58.2345 396.878 56.6147 397.809C54.9948 398.74 53.6661 400.072 52.7678 401.665C43.9634 415.013 61.1338 431.445 61.1338 431.445L76.843 403.066Z" fill="white" fill-opacity="0.2"/>
<path d="M100.955 316.317C99.1646 294.981 92.0042 261.031 65.0064 256.757C38.0085 260.996 30.8481 294.946 29.058 316.317C28.8665 318.513 29.1506 320.723 29.8924 322.808C30.6342 324.893 31.8176 326.808 33.3684 328.434C34.9192 330.059 36.8038 331.359 38.9037 332.253C41.0037 333.146 43.2736 333.613 45.5709 333.625H84.3688C86.6722 333.623 88.9502 333.163 91.0588 332.274C93.1674 331.385 95.0609 330.086 96.6195 328.459C98.1782 326.833 99.3682 324.914 100.114 322.824C100.861 320.734 101.147 318.519 100.955 316.317Z" fill="white" fill-opacity="0.2"/>
<path d="M40.0547 526.321H55.8369H74.1034H86.7438V508.803H40.0547V526.321Z" fill="white" fill-opacity="0.2"/>
</svg>
