<svg width="1920" height="1080" viewBox="0 0 1920 1080" fill="none" xmlns="http://www.w3.org/2000/svg">
<rect width="1920" height="1080" fill="black"/>
<path d="M1625.13 742.821C1629.44 742.968 1633.64 744.245 1637.31 746.529V687.537H1618.96V744.082C1620.92 743.258 1623.01 742.83 1625.13 742.821Z" fill="white" fill-opacity="0.5"/>
<path d="M1618.96 787.909V861.806H1637.31V800.997C1631.13 798.125 1625.47 794.241 1620.54 789.503C1620.54 789.503 1619.73 788.761 1618.96 787.909Z" fill="white" fill-opacity="0.5"/>
<path d="M1628.47 789.095C1636.29 795.582 1645.97 799.352 1656.07 799.848C1662.1 799.819 1668 798.127 1673.14 794.954C1673.47 786.066 1675.79 777.37 1679.93 769.518C1680.3 768.912 1680.89 768.476 1681.58 768.303C1682.26 768.13 1682.99 768.233 1683.6 768.591C1684.19 768.979 1684.61 769.577 1684.78 770.264C1684.95 770.951 1684.85 771.677 1684.52 772.299C1684.52 772.521 1671.38 794.805 1683.97 827.397H1774.08C1786.67 794.805 1773.67 772.521 1773.53 772.299C1773.19 771.677 1773.1 770.951 1773.27 770.264C1773.44 769.577 1773.86 768.979 1774.44 768.591C1775.05 768.233 1775.78 768.13 1776.46 768.303C1777.15 768.476 1777.74 768.912 1778.11 769.518C1783.07 779.005 1785.45 789.649 1785.01 800.367L1803.92 791.468C1802.78 768.739 1797.93 752.684 1791.73 741.301C1790.89 743.118 1789.97 745.009 1788.9 746.826C1788.43 747.681 1787.74 748.393 1786.9 748.889C1786.06 749.384 1785.1 749.644 1784.13 749.644C1783.74 749.701 1783.35 749.701 1782.96 749.644C1782.02 749.45 1781.16 749.001 1780.46 748.346C1776.24 764.327 1763.98 784.238 1731.17 798.328C1730.48 798.622 1729.75 798.773 1729 798.773C1728.26 798.773 1727.52 798.622 1726.84 798.328C1694.1 784.238 1681.84 764.327 1677.69 748.346C1677 748.962 1676.17 749.385 1675.27 749.57C1674.88 749.626 1674.48 749.626 1674.09 749.57C1673.12 749.57 1672.17 749.31 1671.33 748.814C1670.49 748.319 1669.8 747.607 1669.32 746.752C1667.68 743.901 1666.23 740.94 1664.99 737.89C1659.58 745.839 1655.21 754.464 1652 763.548L1644.66 758.728L1629.13 788.391C1628.93 788.645 1628.71 788.88 1628.47 789.095Z" fill="white" fill-opacity="0.5"/>
<path d="M1779.95 827.361C1790.7 826.73 1798.3 823.653 1802.3 817.72C1804.1 814.652 1805.28 811.25 1805.76 807.716C1806.23 804.182 1806.01 800.586 1805.09 797.142L1784.79 806.671C1784.03 813.743 1782.41 820.693 1779.95 827.361Z" fill="white" fill-opacity="0.5"/>
<path d="M1714.58 867.776H1718.25H1718.47C1719.13 867.793 1719.8 867.868 1720.45 867.999C1722.07 858.321 1724.12 844.194 1725.99 833.145H1685.62L1689.47 856.245C1698.26 858.545 1706.61 862.304 1714.17 867.369C1714.21 867.46 1714.27 867.544 1714.33 867.614C1714.4 867.684 1714.49 867.739 1714.58 867.776Z" fill="white" fill-opacity="0.5"/>
<path d="M1682.2 723.281C1682.2 723.281 1669.43 767.59 1729.08 793.211C1788.72 767.59 1775.95 723.281 1775.95 723.281C1782.77 727.545 1784.13 744.157 1784.13 744.157C1801.64 713.122 1789.01 689.688 1781.05 679.38C1779.68 692.343 1773.62 704.337 1764.02 713.053C1754.43 721.769 1741.98 726.591 1729.08 726.591C1716.17 726.591 1703.72 721.769 1694.13 713.053C1684.53 704.337 1678.47 692.343 1677.1 679.38C1669.14 689.688 1656.51 713.122 1674.02 744.157C1674.02 744.157 1675.38 727.545 1682.2 723.281Z" fill="white" fill-opacity="0.5"/>
<path d="M1718.36 873.264H1714.69C1713.49 873.275 1712.31 872.926 1711.31 872.262C1706.76 869.222 1692.96 860.768 1681.18 860.768C1678.48 860.615 1675.79 861.138 1673.35 862.29C1670.9 863.441 1668.77 865.186 1667.16 867.368C1659.48 877.787 1667.78 883.46 1671.3 885.277C1672.15 885.685 1673.08 885.901 1674.02 885.907H1718.36C1719.22 885.974 1720.09 885.86 1720.9 885.573C1721.72 885.285 1722.47 884.831 1723.1 884.237C1723.74 883.643 1724.24 882.924 1724.59 882.123C1724.94 881.323 1725.11 880.459 1725.11 879.585C1725.11 878.712 1724.94 877.848 1724.59 877.048C1724.24 876.247 1723.74 875.528 1723.1 874.934C1722.47 874.34 1721.72 873.886 1720.9 873.598C1720.09 873.311 1719.22 873.197 1718.36 873.264Z" fill="white" fill-opacity="0.5"/>
<path d="M1764.68 704.223C1770.88 696.903 1774.72 687.849 1775.69 678.268L1774.99 677.897C1759.65 665.439 1744.2 659.135 1729.11 659.135C1714.03 659.135 1698.57 665.439 1683.23 677.897L1682.53 678.268C1683.51 687.849 1687.35 696.903 1693.55 704.223C1694.43 703.296 1705.95 691.431 1729.15 691.431C1752.35 691.431 1763.8 703.37 1764.68 704.223Z" fill="white" fill-opacity="0.5"/>
<path d="M1697.44 708.116C1706.07 716.243 1717.43 720.762 1729.22 720.762C1741.02 720.762 1752.38 716.243 1761.01 708.116C1761.01 708.116 1750.44 696.992 1729.37 696.992C1708.3 696.992 1697.55 707.931 1697.44 708.116Z" fill="white" fill-opacity="0.5"/>
<path d="M1729.08 653.647C1745.52 653.647 1761.96 660.309 1778.41 673.633C1778.41 673.633 1782.63 591.393 1729.08 552.201C1675.52 591.393 1679.75 673.633 1679.75 673.633C1696.19 660.285 1712.63 653.623 1729.08 653.647Z" fill="white" fill-opacity="0.5"/>
<path d="M1739.79 867.702H1740.09H1743.76C1743.88 867.735 1744 867.735 1744.12 867.702C1751.69 862.638 1760.04 858.878 1768.83 856.579L1772.83 833.256H1732.45C1734.14 844.38 1736.34 858.433 1737.96 868.11C1738.56 867.925 1739.17 867.788 1739.79 867.702Z" fill="white" fill-opacity="0.5"/>
<path d="M1743.76 873.338H1740.09C1739.23 873.271 1738.36 873.385 1737.54 873.672C1736.73 873.96 1735.98 874.414 1735.34 875.008C1734.71 875.601 1734.2 876.321 1733.86 877.121C1733.51 877.922 1733.33 878.786 1733.33 879.659C1733.33 880.533 1733.51 881.397 1733.86 882.197C1734.2 882.998 1734.71 883.717 1735.34 884.311C1735.98 884.904 1736.73 885.359 1737.54 885.647C1738.36 885.934 1739.23 886.048 1740.09 885.981H1784.13C1785.09 885.98 1786.03 885.765 1786.89 885.351C1790.56 883.534 1798.7 877.935 1791.03 867.442C1789.42 865.295 1787.32 863.578 1784.9 862.44C1782.48 861.303 1779.82 860.78 1777.16 860.916C1765.34 860.916 1751.47 869.37 1747.02 872.411C1746.05 873.028 1744.91 873.349 1743.76 873.338Z" fill="white" fill-opacity="0.5"/>
<path d="M1640.07 755.465C1640.07 755.465 1632.54 748.383 1625.13 748.383C1623.23 748.392 1621.37 748.917 1619.74 749.902C1618.12 750.887 1616.78 752.296 1615.88 753.982C1607.03 768.109 1624.28 785.499 1624.28 785.499L1640.07 755.465Z" fill="white" fill-opacity="0.5"/>
<path d="M1664.29 663.659C1662.49 641.078 1655.3 605.149 1628.18 600.625C1601.05 605.112 1593.86 641.041 1592.06 663.659C1591.87 665.982 1592.15 668.321 1592.9 670.527C1593.64 672.734 1594.83 674.761 1596.39 676.482C1597.95 678.202 1599.84 679.578 1601.95 680.523C1604.06 681.469 1606.34 681.963 1608.65 681.976H1647.63C1649.94 681.973 1652.23 681.486 1654.35 680.546C1656.47 679.605 1658.37 678.23 1659.94 676.509C1661.5 674.787 1662.7 672.757 1663.45 670.545C1664.2 668.333 1664.49 665.988 1664.29 663.659Z" fill="white" fill-opacity="0.5"/>
<path d="M1603.11 885.907H1618.96H1637.31H1650.01V867.368H1603.11V885.907Z" fill="white" fill-opacity="0.5"/>
<mask id="path-17-inside-1_182_60" fill="white">
<path fill-rule="evenodd" clip-rule="evenodd" d="M1741.15 601.178L1744.94 597.416L1750.75 603.173L1746.93 606.936C1748.54 609.281 1749.67 611.96 1750.24 614.831H1755.62V622.971H1750.24C1749.67 625.838 1748.54 628.523 1746.93 630.866L1750.75 634.631L1744.94 640.392L1741.15 636.629C1738.78 638.204 1736.08 639.342 1733.19 639.885V645.226L1724.98 645.22V639.879C1722.07 639.335 1719.39 638.201 1717.02 636.623L1713.23 640.385L1707.42 634.625L1711.22 630.859C1709.63 628.517 1708.48 625.835 1707.92 622.964H1702.55V614.83H1707.92C1708.48 611.959 1709.63 609.281 1711.22 606.935L1707.42 603.172L1713.23 597.415L1717.02 601.178C1719.39 599.602 1722.07 598.465 1724.98 597.921V592.581H1733.19V597.921C1736.08 598.462 1738.78 599.6 1741.15 601.178ZM1752.06 591.006V593.843C1752.06 594.489 1751.51 595.033 1750.86 595.033H1739.23V597.556C1738.45 597.186 1737.66 596.875 1736.84 596.592V593.843C1736.84 593.178 1737.37 592.653 1738.04 592.653H1749.65V591.006C1748.17 590.5 1747.09 589.117 1747.09 587.47C1747.09 585.404 1748.79 583.742 1750.85 583.742C1752.92 583.742 1754.61 585.407 1754.61 587.47C1754.61 589.117 1753.54 590.496 1752.06 591.006ZM1706.12 591.006V593.843C1706.12 594.489 1706.65 595.033 1707.32 595.033H1718.93V597.556C1719.71 597.186 1720.52 596.875 1721.33 596.592V593.843C1721.33 593.178 1720.78 592.653 1720.13 592.653L1708.5 592.65V591.003C1710 590.497 1711.08 589.114 1711.08 587.467C1711.08 585.401 1709.38 583.739 1707.32 583.739C1705.23 583.739 1703.56 585.404 1703.56 587.467C1703.56 589.117 1704.62 590.496 1706.12 591.006ZM1708.5 646.796V645.152H1720.13C1720.78 645.152 1721.33 644.608 1721.33 643.962V641.216C1720.52 640.933 1719.71 640.622 1718.93 640.252V642.772H1707.32C1706.65 642.772 1706.12 643.316 1706.12 643.962V646.796C1704.64 647.305 1703.56 648.704 1703.56 650.332C1703.56 652.398 1705.23 654.06 1707.32 654.06C1709.38 654.06 1711.08 652.398 1711.08 650.332C1711.08 648.707 1710 647.305 1708.5 646.796ZM1708.2 630.726H1698.99C1698.32 630.726 1697.79 631.252 1697.79 631.901V635.033C1696.29 635.524 1695.21 636.925 1695.21 638.569C1695.21 640.616 1696.91 642.297 1698.99 642.297C1701.05 642.297 1702.75 640.619 1702.75 638.569C1702.75 636.925 1701.67 635.524 1700.17 635.033V633.091H1705.8L1708.2 630.726ZM1700.31 617.161C1699.67 615.986 1698.42 615.163 1696.97 615.163C1694.91 615.163 1693.22 616.844 1693.22 618.892C1693.22 620.958 1694.91 622.62 1696.97 622.62C1698.42 622.62 1699.67 621.812 1700.31 620.641V617.161ZM1705.8 604.711H1700.17V602.77C1701.67 602.282 1702.75 600.877 1702.75 599.234C1702.75 597.186 1701.05 595.505 1698.99 595.505C1696.91 595.505 1695.21 597.183 1695.21 599.234C1695.21 600.877 1696.29 602.279 1697.79 602.77V605.901C1697.79 606.548 1698.32 607.076 1698.99 607.076H1708.2L1705.8 604.711ZM1705.94 587.467C1705.94 586.715 1706.56 586.103 1707.32 586.103C1708.08 586.103 1708.68 586.715 1708.68 587.467C1708.68 588.204 1708.06 588.816 1707.32 588.816C1706.56 588.819 1705.94 588.204 1705.94 587.467ZM1697.61 599.234C1697.61 598.482 1698.21 597.888 1698.99 597.888C1699.75 597.888 1700.35 598.482 1700.35 599.234C1700.35 599.985 1699.73 600.601 1698.99 600.601C1698.23 600.598 1697.61 599.985 1697.61 599.234ZM1695.61 618.892C1695.61 618.14 1696.21 617.546 1696.97 617.546C1697.73 617.546 1698.35 618.14 1698.35 618.892C1698.35 619.644 1697.74 620.259 1696.97 620.259C1696.23 620.256 1695.61 619.647 1695.61 618.892ZM1697.61 638.568C1697.61 637.816 1698.21 637.201 1698.99 637.201C1699.75 637.201 1700.35 637.813 1700.35 638.568C1700.35 639.305 1699.73 639.917 1698.99 639.917C1698.23 639.917 1697.61 639.305 1697.61 638.568ZM1705.94 650.335C1705.94 649.583 1706.56 648.986 1707.32 648.986C1708.08 648.986 1708.68 649.58 1708.68 650.335C1708.68 651.086 1708.06 651.702 1707.32 651.702C1706.56 651.699 1705.94 651.086 1705.94 650.335ZM1749.65 646.796V645.152H1738.04C1737.37 645.152 1736.84 644.608 1736.84 643.962V641.215C1737.66 640.933 1738.45 640.622 1739.23 640.252V642.772H1750.86C1751.51 642.772 1752.06 643.316 1752.06 643.962V646.796C1753.54 647.305 1754.62 648.703 1754.62 650.332C1754.62 652.398 1752.94 654.06 1750.86 654.06C1748.77 654.06 1747.1 652.398 1747.1 650.332C1747.1 648.707 1748.17 647.305 1749.65 646.796ZM1749.97 630.726H1759.19C1759.84 630.726 1760.39 631.251 1760.39 631.901V635.033C1761.87 635.524 1762.94 636.925 1762.94 638.568C1762.94 640.616 1761.27 642.297 1759.19 642.297C1757.1 642.297 1755.43 640.619 1755.43 638.568C1755.43 636.925 1756.5 635.524 1757.99 635.033V633.091H1752.36L1749.97 630.726ZM1757.86 617.161C1758.48 615.986 1759.75 615.163 1761.18 615.163C1763.26 615.163 1764.94 616.844 1764.94 618.891C1764.94 620.958 1763.26 622.62 1761.18 622.62C1759.73 622.62 1758.48 621.812 1757.86 620.641V617.161ZM1752.36 604.711H1757.99V602.769C1756.5 602.282 1755.43 600.877 1755.43 599.234C1755.43 597.186 1757.12 595.505 1759.19 595.505C1761.27 595.505 1762.94 597.183 1762.94 599.234C1762.94 600.877 1761.87 602.278 1760.39 602.769V605.901C1760.39 606.548 1759.84 607.076 1759.19 607.076L1749.97 607.079L1752.36 604.711ZM1752.23 587.467C1752.23 586.715 1751.62 586.103 1750.85 586.103C1750.1 586.103 1749.48 586.715 1749.48 587.467C1749.48 588.203 1750.09 588.816 1750.85 588.816C1751.62 588.816 1752.23 588.203 1752.23 587.467ZM1760.56 599.233C1760.56 598.482 1759.95 597.888 1759.19 597.888C1758.43 597.888 1757.81 598.482 1757.81 599.233C1757.81 599.985 1758.42 600.601 1759.19 600.601C1759.94 600.597 1760.56 599.985 1760.56 599.233ZM1762.56 618.892C1762.56 618.14 1761.94 617.546 1761.18 617.546C1760.42 617.546 1759.82 618.14 1759.82 618.892C1759.82 619.643 1760.42 620.259 1761.18 620.259C1761.94 620.256 1762.56 619.647 1762.56 618.892ZM1760.56 638.568C1760.56 637.816 1759.95 637.201 1759.19 637.201C1758.43 637.201 1757.81 637.813 1757.81 638.568C1757.81 639.304 1758.42 639.917 1759.19 639.917C1759.94 639.917 1760.56 639.304 1760.56 638.568ZM1752.23 650.334C1752.23 649.582 1751.62 648.986 1750.85 648.986C1750.1 648.986 1749.48 649.579 1749.48 650.334C1749.48 651.086 1750.09 651.702 1750.85 651.702C1751.62 651.698 1752.23 651.086 1752.23 650.334ZM1742.77 618.139C1742.77 622.324 1740.86 626.053 1737.87 628.557V631.515C1737.87 632.373 1737.16 633.056 1736.31 633.056H1734.76V630.238H1732.36V633.056H1730.28V630.238H1727.89V633.056H1725.8V630.238H1723.41V633.056H1721.86C1720.99 633.056 1720.29 632.373 1720.29 631.515V628.557C1717.29 626.056 1715.38 622.325 1715.38 618.139C1715.38 600.264 1742.77 600.264 1742.77 618.139ZM1731.41 619.59C1731.82 621.184 1733.77 622.076 1735.78 621.588C1737.81 621.097 1739.12 619.397 1738.73 617.788C1738.54 617.036 1737.99 616.44 1737.25 616.073L1731.41 619.59ZM1726.75 619.59C1726.36 621.184 1724.4 622.076 1722.37 621.588C1720.36 621.097 1719.05 619.397 1719.44 617.788C1719.64 617.036 1720.19 616.44 1720.91 616.073L1726.75 619.59ZM1727.6 626.979C1727.14 627.432 1726.38 627.432 1725.9 626.979C1725.44 626.506 1725.44 625.754 1725.9 625.301L1727.12 624.092C1727.67 623.567 1728.37 623.288 1729.08 623.288C1729.79 623.288 1730.51 623.567 1731.04 624.092H1731.05L1732.25 625.301C1732.73 625.754 1732.73 626.509 1732.25 626.979C1731.79 627.432 1731.03 627.432 1730.56 626.979L1729.36 625.77C1729.28 625.699 1729.18 625.664 1729.07 625.664C1728.99 625.664 1728.88 625.702 1728.81 625.77L1727.6 626.979Z"/>
</mask>
<path fill-rule="evenodd" clip-rule="evenodd" d="M1741.15 601.178L1744.94 597.416L1750.75 603.173L1746.93 606.936C1748.54 609.281 1749.67 611.96 1750.24 614.831H1755.62V622.971H1750.24C1749.67 625.838 1748.54 628.523 1746.93 630.866L1750.75 634.631L1744.94 640.392L1741.15 636.629C1738.78 638.204 1736.08 639.342 1733.19 639.885V645.226L1724.98 645.22V639.879C1722.07 639.335 1719.39 638.201 1717.02 636.623L1713.23 640.385L1707.42 634.625L1711.22 630.859C1709.63 628.517 1708.48 625.835 1707.92 622.964H1702.55V614.83H1707.92C1708.48 611.959 1709.63 609.281 1711.22 606.935L1707.42 603.172L1713.23 597.415L1717.02 601.178C1719.39 599.602 1722.07 598.465 1724.98 597.921V592.581H1733.19V597.921C1736.08 598.462 1738.78 599.6 1741.15 601.178ZM1752.06 591.006V593.843C1752.06 594.489 1751.51 595.033 1750.86 595.033H1739.23V597.556C1738.45 597.186 1737.66 596.875 1736.84 596.592V593.843C1736.84 593.178 1737.37 592.653 1738.04 592.653H1749.65V591.006C1748.17 590.5 1747.09 589.117 1747.09 587.47C1747.09 585.404 1748.79 583.742 1750.85 583.742C1752.92 583.742 1754.61 585.407 1754.61 587.47C1754.61 589.117 1753.54 590.496 1752.06 591.006ZM1706.12 591.006V593.843C1706.12 594.489 1706.65 595.033 1707.32 595.033H1718.93V597.556C1719.71 597.186 1720.52 596.875 1721.33 596.592V593.843C1721.33 593.178 1720.78 592.653 1720.13 592.653L1708.5 592.65V591.003C1710 590.497 1711.08 589.114 1711.08 587.467C1711.08 585.401 1709.38 583.739 1707.32 583.739C1705.23 583.739 1703.56 585.404 1703.56 587.467C1703.56 589.117 1704.62 590.496 1706.12 591.006ZM1708.5 646.796V645.152H1720.13C1720.78 645.152 1721.33 644.608 1721.33 643.962V641.216C1720.52 640.933 1719.71 640.622 1718.93 640.252V642.772H1707.32C1706.65 642.772 1706.12 643.316 1706.12 643.962V646.796C1704.64 647.305 1703.56 648.704 1703.56 650.332C1703.56 652.398 1705.23 654.06 1707.32 654.06C1709.38 654.06 1711.08 652.398 1711.08 650.332C1711.08 648.707 1710 647.305 1708.5 646.796ZM1708.2 630.726H1698.99C1698.32 630.726 1697.79 631.252 1697.79 631.901V635.033C1696.29 635.524 1695.21 636.925 1695.21 638.569C1695.21 640.616 1696.91 642.297 1698.99 642.297C1701.05 642.297 1702.75 640.619 1702.75 638.569C1702.75 636.925 1701.67 635.524 1700.17 635.033V633.091H1705.8L1708.2 630.726ZM1700.31 617.161C1699.67 615.986 1698.42 615.163 1696.97 615.163C1694.91 615.163 1693.22 616.844 1693.22 618.892C1693.22 620.958 1694.91 622.62 1696.97 622.62C1698.42 622.62 1699.67 621.812 1700.31 620.641V617.161ZM1705.8 604.711H1700.17V602.77C1701.67 602.282 1702.75 600.877 1702.75 599.234C1702.75 597.186 1701.05 595.505 1698.99 595.505C1696.91 595.505 1695.21 597.183 1695.21 599.234C1695.21 600.877 1696.29 602.279 1697.79 602.77V605.901C1697.79 606.548 1698.32 607.076 1698.99 607.076H1708.2L1705.8 604.711ZM1705.94 587.467C1705.94 586.715 1706.56 586.103 1707.32 586.103C1708.08 586.103 1708.68 586.715 1708.68 587.467C1708.68 588.204 1708.06 588.816 1707.32 588.816C1706.56 588.819 1705.94 588.204 1705.94 587.467ZM1697.61 599.234C1697.61 598.482 1698.21 597.888 1698.99 597.888C1699.75 597.888 1700.35 598.482 1700.35 599.234C1700.35 599.985 1699.73 600.601 1698.99 600.601C1698.23 600.598 1697.61 599.985 1697.61 599.234ZM1695.61 618.892C1695.61 618.14 1696.21 617.546 1696.97 617.546C1697.73 617.546 1698.35 618.14 1698.35 618.892C1698.35 619.644 1697.74 620.259 1696.97 620.259C1696.23 620.256 1695.61 619.647 1695.61 618.892ZM1697.61 638.568C1697.61 637.816 1698.21 637.201 1698.99 637.201C1699.75 637.201 1700.35 637.813 1700.35 638.568C1700.35 639.305 1699.73 639.917 1698.99 639.917C1698.23 639.917 1697.61 639.305 1697.61 638.568ZM1705.94 650.335C1705.94 649.583 1706.56 648.986 1707.32 648.986C1708.08 648.986 1708.68 649.58 1708.68 650.335C1708.68 651.086 1708.06 651.702 1707.32 651.702C1706.56 651.699 1705.94 651.086 1705.94 650.335ZM1749.65 646.796V645.152H1738.04C1737.37 645.152 1736.84 644.608 1736.84 643.962V641.215C1737.66 640.933 1738.45 640.622 1739.23 640.252V642.772H1750.86C1751.51 642.772 1752.06 643.316 1752.06 643.962V646.796C1753.54 647.305 1754.62 648.703 1754.62 650.332C1754.62 652.398 1752.94 654.06 1750.86 654.06C1748.77 654.06 1747.1 652.398 1747.1 650.332C1747.1 648.707 1748.17 647.305 1749.65 646.796ZM1749.97 630.726H1759.19C1759.84 630.726 1760.39 631.251 1760.39 631.901V635.033C1761.87 635.524 1762.94 636.925 1762.94 638.568C1762.94 640.616 1761.27 642.297 1759.19 642.297C1757.1 642.297 1755.43 640.619 1755.43 638.568C1755.43 636.925 1756.5 635.524 1757.99 635.033V633.091H1752.36L1749.97 630.726ZM1757.86 617.161C1758.48 615.986 1759.75 615.163 1761.18 615.163C1763.26 615.163 1764.94 616.844 1764.94 618.891C1764.94 620.958 1763.26 622.62 1761.18 622.62C1759.73 622.62 1758.48 621.812 1757.86 620.641V617.161ZM1752.36 604.711H1757.99V602.769C1756.5 602.282 1755.43 600.877 1755.43 599.234C1755.43 597.186 1757.12 595.505 1759.19 595.505C1761.27 595.505 1762.94 597.183 1762.94 599.234C1762.94 600.877 1761.87 602.278 1760.39 602.769V605.901C1760.39 606.548 1759.84 607.076 1759.19 607.076L1749.97 607.079L1752.36 604.711ZM1752.23 587.467C1752.23 586.715 1751.62 586.103 1750.85 586.103C1750.1 586.103 1749.48 586.715 1749.48 587.467C1749.48 588.203 1750.09 588.816 1750.85 588.816C1751.62 588.816 1752.23 588.203 1752.23 587.467ZM1760.56 599.233C1760.56 598.482 1759.95 597.888 1759.19 597.888C1758.43 597.888 1757.81 598.482 1757.81 599.233C1757.81 599.985 1758.42 600.601 1759.19 600.601C1759.94 600.597 1760.56 599.985 1760.56 599.233ZM1762.56 618.892C1762.56 618.14 1761.94 617.546 1761.18 617.546C1760.42 617.546 1759.82 618.14 1759.82 618.892C1759.82 619.643 1760.42 620.259 1761.18 620.259C1761.94 620.256 1762.56 619.647 1762.56 618.892ZM1760.56 638.568C1760.56 637.816 1759.95 637.201 1759.19 637.201C1758.43 637.201 1757.81 637.813 1757.81 638.568C1757.81 639.304 1758.42 639.917 1759.19 639.917C1759.94 639.917 1760.56 639.304 1760.56 638.568ZM1752.23 650.334C1752.23 649.582 1751.62 648.986 1750.85 648.986C1750.1 648.986 1749.48 649.579 1749.48 650.334C1749.48 651.086 1750.09 651.702 1750.85 651.702C1751.62 651.698 1752.23 651.086 1752.23 650.334ZM1742.77 618.139C1742.77 622.324 1740.86 626.053 1737.87 628.557V631.515C1737.87 632.373 1737.16 633.056 1736.31 633.056H1734.76V630.238H1732.36V633.056H1730.28V630.238H1727.89V633.056H1725.8V630.238H1723.41V633.056H1721.86C1720.99 633.056 1720.29 632.373 1720.29 631.515V628.557C1717.29 626.056 1715.38 622.325 1715.38 618.139C1715.38 600.264 1742.77 600.264 1742.77 618.139ZM1731.41 619.59C1731.82 621.184 1733.77 622.076 1735.78 621.588C1737.81 621.097 1739.12 619.397 1738.73 617.788C1738.54 617.036 1737.99 616.44 1737.25 616.073L1731.41 619.59ZM1726.75 619.59C1726.36 621.184 1724.4 622.076 1722.37 621.588C1720.36 621.097 1719.05 619.397 1719.44 617.788C1719.64 617.036 1720.19 616.44 1720.91 616.073L1726.75 619.59ZM1727.6 626.979C1727.14 627.432 1726.38 627.432 1725.9 626.979C1725.44 626.506 1725.44 625.754 1725.9 625.301L1727.12 624.092C1727.67 623.567 1728.37 623.288 1729.08 623.288C1729.79 623.288 1730.51 623.567 1731.04 624.092H1731.05L1732.25 625.301C1732.73 625.754 1732.73 626.509 1732.25 626.979C1731.79 627.432 1731.03 627.432 1730.56 626.979L1729.36 625.77C1729.28 625.699 1729.18 625.664 1729.07 625.664C1728.99 625.664 1728.88 625.702 1728.81 625.77L1727.6 626.979Z" fill="black" stroke="black" stroke-width="2" mask="url(#path-17-inside-1_182_60)"/>
<path d="M1687.33 796.002C1687.46 796.021 1687.56 796.079 1687.63 796.155C1687.68 796.221 1687.73 796.324 1687.71 796.497L1687.08 800.81L1687.04 801.096L1690 803.419L1690.57 803.868L1690.78 803.174L1690.92 802.748C1692.37 804.476 1694.28 805.787 1696.52 806.191V817.89C1695.28 817.54 1694.12 816.744 1693.15 815.592L1692.92 815.325L1692.59 815.446L1688.39 816.992L1687.91 817.171L1688.1 817.652L1689.61 821.29C1689.67 821.449 1689.65 821.56 1689.61 821.638C1689.57 821.728 1689.48 821.812 1689.36 821.863C1689.24 821.913 1689.12 821.916 1689.03 821.885C1688.95 821.858 1688.86 821.796 1688.79 821.635L1686.91 817.065C1686.83 816.858 1686.92 816.636 1687.09 816.528L1687.17 816.489L1691.82 814.778L1692.37 814.573L1692.08 814.059C1691.45 812.969 1690.98 811.734 1690.68 810.41L1690.59 810.019H1683.6C1683.43 810.019 1683.34 809.959 1683.28 809.894C1683.21 809.819 1683.17 809.702 1683.17 809.568C1683.17 809.434 1683.21 809.318 1683.28 809.243C1683.34 809.177 1683.43 809.117 1683.6 809.117L1689.89 809.119H1690.44L1690.39 808.569C1690.28 807.449 1690.29 806.301 1690.42 805.186L1690.45 804.909L1690.23 804.736L1686.3 801.65C1686.16 801.543 1686.1 801.37 1686.13 801.203L1686.14 801.191L1686.14 801.179L1686.83 796.374V796.372C1686.86 796.196 1686.93 796.111 1687 796.064C1687.09 796.011 1687.2 795.984 1687.33 796.002ZM1708.59 796C1708.72 795.982 1708.84 796.009 1708.92 796.062C1708.99 796.108 1709.06 796.194 1709.09 796.368L1709.79 801.188L1709.79 801.198L1709.79 801.208C1709.82 801.371 1709.76 801.542 1709.62 801.648L1705.7 804.733L1705.48 804.906L1705.51 805.184C1705.64 806.298 1705.64 807.444 1705.53 808.567L1705.48 809.116H1712.33C1712.5 809.116 1712.59 809.176 1712.65 809.241C1712.71 809.316 1712.75 809.433 1712.75 809.567C1712.75 809.701 1712.71 809.817 1712.65 809.892C1712.59 809.957 1712.5 810.017 1712.33 810.017H1705.33L1705.24 810.408C1704.9 811.941 1704.6 812.521 1703.98 813.819C1703.92 813.917 1703.87 814.01 1703.82 814.099L1703.51 814.62L1704.08 814.824L1708.75 816.487V816.488C1708.97 816.571 1709.1 816.827 1709.01 817.064L1707.13 821.634C1707.06 821.795 1706.97 821.857 1706.89 821.884C1706.8 821.915 1706.68 821.912 1706.56 821.862C1706.44 821.812 1706.35 821.728 1706.31 821.638C1706.27 821.56 1706.25 821.448 1706.31 821.289L1707.82 817.651L1708.02 817.165L1707.52 816.989L1703.29 815.488L1702.96 815.373L1702.74 815.633C1701.77 816.763 1700.63 817.545 1699.4 817.891V806.191C1701.64 805.787 1703.56 804.477 1705 802.75L1705.14 803.174L1705.35 803.868L1705.92 803.419L1708.88 801.096L1708.84 800.81L1708.22 796.5C1708.19 796.325 1708.24 796.221 1708.29 796.155C1708.36 796.079 1708.46 796.019 1708.59 796ZM1704.01 792.013C1704.11 792.032 1704.21 792.095 1704.29 792.2C1704.37 792.305 1704.41 792.423 1704.4 792.524C1704.39 792.611 1704.36 792.716 1704.22 792.82C1703.01 793.764 1702.08 795.224 1701.46 796.688L1701.31 797.038L1701.61 797.274C1702.42 797.916 1703.11 798.738 1703.67 799.663C1702.11 802.213 1700 803.419 1697.96 803.418C1695.92 803.418 1693.8 802.213 1692.25 799.664C1692.81 798.739 1693.51 797.916 1694.31 797.274L1694.61 797.038L1694.46 796.688C1693.84 795.223 1692.91 793.763 1691.7 792.82C1691.56 792.716 1691.53 792.61 1691.52 792.523C1691.52 792.423 1691.55 792.304 1691.63 792.2C1691.71 792.095 1691.81 792.032 1691.91 792.013C1691.99 791.997 1692.1 792.005 1692.23 792.109V792.11C1693.92 793.419 1695.14 795.621 1695.8 797.801L1696.07 798.703L1696.66 797.972C1696.98 797.58 1697 797.093 1696.96 796.703C1696.94 796.483 1696.9 796.251 1696.85 796.032C1697.59 795.872 1698.34 795.873 1699.07 796.033C1699.02 796.251 1698.98 796.484 1698.96 796.704C1698.92 797.093 1698.94 797.581 1699.26 797.972L1699.85 798.704L1700.12 797.801C1700.78 795.622 1702.01 793.419 1703.69 792.11C1703.82 792.005 1703.93 791.997 1704.01 792.013Z" fill="black" stroke="black"/>
<path d="M131.974 417.119C136.266 417.257 140.446 418.464 144.103 420.622V364.88H125.837V418.31C127.782 417.532 129.867 417.127 131.974 417.119Z" fill="white" fill-opacity="0.5"/>
<path d="M125.837 459.722V529.548H144.103V472.09C137.952 469.376 132.311 465.706 127.408 461.229C127.408 461.229 126.604 460.528 125.837 459.722Z" fill="white" fill-opacity="0.5"/>
<path d="M135.298 460.843C143.08 466.972 152.713 470.535 162.771 471.004C168.768 470.977 174.642 469.377 179.759 466.379C180.09 457.981 182.401 449.764 186.518 442.344C186.888 441.772 187.477 441.36 188.159 441.196C188.841 441.033 189.563 441.13 190.171 441.469C190.754 441.836 191.172 442.4 191.341 443.049C191.511 443.698 191.419 444.385 191.084 444.972C191.084 445.182 178.005 466.239 190.536 497.035H280.224C292.755 466.239 279.823 445.182 279.676 444.972C279.342 444.385 279.25 443.698 279.419 443.049C279.588 442.4 280.006 441.836 280.59 441.469C281.198 441.13 281.92 441.033 282.602 441.196C283.284 441.36 283.872 441.772 284.243 442.344C289.177 451.309 291.546 461.366 291.111 471.494L309.926 463.086C308.793 441.609 303.971 426.438 297.797 415.682C296.957 417.399 296.043 419.186 294.984 420.903C294.51 421.711 293.82 422.384 292.986 422.852C292.151 423.32 291.201 423.566 290.234 423.565C289.847 423.619 289.453 423.619 289.065 423.565C288.136 423.382 287.277 422.958 286.581 422.339C282.38 437.439 270.178 456.254 237.517 469.567C236.836 469.845 236.103 469.988 235.362 469.988C234.621 469.988 233.888 469.845 233.207 469.567C200.619 456.254 188.417 437.439 184.289 422.339C183.606 422.921 182.774 423.32 181.878 423.495C181.49 423.549 181.096 423.549 180.709 423.495C179.742 423.496 178.792 423.25 177.958 422.782C177.123 422.314 176.433 421.641 175.959 420.833C174.326 418.139 172.885 415.341 171.649 412.459C166.262 419.97 161.915 428.12 158.716 436.704L151.409 432.149L135.956 460.178C135.757 460.417 135.537 460.64 135.298 460.843Z" fill="white" fill-opacity="0.5"/>
<path d="M286.07 497C296.774 496.404 304.337 493.496 308.319 487.89C310.111 484.991 311.28 481.777 311.756 478.437C312.233 475.098 312.008 471.7 311.095 468.446L290.892 477.45C290.136 484.133 288.516 490.7 286.07 497Z" fill="white" fill-opacity="0.5"/>
<path d="M221.005 535.189H224.658H224.877C225.54 535.205 226.2 535.276 226.85 535.399C228.457 526.255 230.503 512.906 232.366 502.466H192.18L196.016 524.293C204.762 526.466 213.071 530.018 220.603 534.804C220.64 534.891 220.694 534.969 220.763 535.036C220.832 535.102 220.914 535.154 221.005 535.189Z" fill="white" fill-opacity="0.5"/>
<path d="M188.783 398.655C188.783 398.655 176.069 440.523 235.435 464.732C294.801 440.523 282.088 398.655 282.088 398.655C288.883 402.684 290.235 418.38 290.235 418.38C307.661 389.055 295.094 366.913 287.166 357.173C285.806 369.421 279.77 380.754 270.22 388.99C260.669 397.226 248.279 401.783 235.435 401.783C222.591 401.783 210.202 397.226 200.651 388.99C191.1 380.754 185.064 369.421 183.705 357.173C175.777 366.913 163.21 389.055 180.636 418.38C180.636 418.38 181.988 402.684 188.783 398.655Z" fill="white" fill-opacity="0.5"/>
<path d="M224.768 540.375H221.115C219.921 540.385 218.752 540.056 217.754 539.429C213.224 536.556 199.487 528.567 187.76 528.567C185.078 528.423 182.401 528.917 179.966 530.005C177.531 531.093 175.414 532.742 173.805 534.804C166.169 544.649 174.426 550.009 177.933 551.726C178.778 552.112 179.7 552.315 180.636 552.322H224.768C225.626 552.385 226.488 552.277 227.301 552.006C228.114 551.734 228.859 551.304 229.491 550.743C230.122 550.183 230.626 549.503 230.97 548.746C231.315 547.99 231.492 547.173 231.492 546.348C231.492 545.523 231.315 544.706 230.97 543.95C230.626 543.194 230.122 542.514 229.491 541.953C228.859 541.392 228.114 540.962 227.301 540.691C226.488 540.419 225.626 540.311 224.768 540.375Z" fill="white" fill-opacity="0.5"/>
<path d="M270.872 380.647C277.04 373.73 280.863 365.175 281.832 356.122L281.138 355.772C265.867 344 250.487 338.043 235.472 338.043C220.457 338.043 205.076 344 189.806 355.772L189.112 356.122C190.081 365.175 193.904 373.73 200.071 380.647C200.948 379.771 212.42 368.56 235.508 368.56C258.597 368.56 269.995 379.841 270.872 380.647Z" fill="white" fill-opacity="0.5"/>
<path d="M203.944 384.325C212.533 392.004 223.839 396.274 235.582 396.274C247.324 396.274 258.63 392.004 267.219 384.325C267.219 384.325 256.698 373.815 235.728 373.815C214.758 373.815 204.054 384.15 203.944 384.325Z" fill="white" fill-opacity="0.5"/>
<path d="M235.435 332.858C251.802 332.858 268.169 339.153 284.536 351.742C284.536 351.742 288.737 274.033 235.435 237C182.134 274.033 186.335 351.742 186.335 351.742C202.702 339.129 219.069 332.834 235.435 332.858Z" fill="white" fill-opacity="0.5"/>
<path d="M246.103 535.119H246.395H250.049C250.168 535.151 250.294 535.151 250.414 535.119C257.946 530.334 266.254 526.782 275.001 524.609L278.983 502.571H238.796C240.477 513.082 242.669 526.361 244.276 535.505C244.873 535.33 245.484 535.201 246.103 535.119Z" fill="white" fill-opacity="0.5"/>
<path d="M250.049 540.445H246.395C245.537 540.382 244.675 540.489 243.862 540.761C243.05 541.033 242.304 541.462 241.673 542.023C241.041 542.584 240.538 543.264 240.193 544.02C239.849 544.777 239.671 545.593 239.671 546.418C239.671 547.244 239.849 548.06 240.193 548.816C240.538 549.573 241.041 550.253 241.673 550.814C242.304 551.374 243.05 551.804 243.862 552.076C244.675 552.347 245.537 552.455 246.395 552.392H290.235C291.183 552.391 292.119 552.187 292.975 551.796C296.628 550.08 304.738 544.789 297.103 534.874C295.499 532.845 293.403 531.223 290.996 530.148C288.589 529.073 285.945 528.579 283.294 528.708C271.53 528.708 257.721 536.696 253.3 539.569C252.325 540.152 251.197 540.456 250.049 540.445Z" fill="white" fill-opacity="0.5"/>
<path d="M146.843 429.066C146.843 429.066 139.354 422.374 131.974 422.374C130.086 422.383 128.235 422.878 126.615 423.809C124.995 424.74 123.666 426.072 122.768 427.665C113.963 441.013 131.134 457.445 131.134 457.445L146.843 429.066Z" fill="white" fill-opacity="0.5"/>
<path d="M170.955 342.317C169.165 320.981 162.004 287.031 135.006 282.757C108.009 286.996 100.848 320.946 99.058 342.317C98.8665 344.513 99.1506 346.723 99.8924 348.808C100.634 350.893 101.818 352.808 103.368 354.434C104.919 356.059 106.804 357.359 108.904 358.253C111.004 359.146 113.274 359.613 115.571 359.625H154.369C156.672 359.623 158.95 359.163 161.059 358.274C163.167 357.385 165.061 356.086 166.62 354.459C168.178 352.833 169.368 350.914 170.114 348.824C170.861 346.734 171.147 344.519 170.955 342.317Z" fill="white" fill-opacity="0.5"/>
<path d="M110.055 552.321H125.837H144.103H156.744V534.803H110.055V552.321Z" fill="white" fill-opacity="0.5"/>
</svg>
