<svg width="203" height="314" viewBox="0 0 203 314" fill="none" xmlns="http://www.w3.org/2000/svg">
<path d="M31.4464 179.307C35.5344 179.444 39.5162 180.644 43 182.787V127.42H25.6V180.49C27.4526 179.717 29.4389 179.315 31.4464 179.307Z" fill="white"/>
<path d="M25.6 221.624V290.98H43V233.908C37.141 231.212 31.7674 227.567 27.0964 223.12C27.0964 223.12 26.3308 222.424 25.6 221.624Z" fill="white"/>
<path d="M34.6132 222.737C42.0258 228.825 51.202 232.364 60.7828 232.829C66.4947 232.802 72.0906 231.214 76.9648 228.236C77.2802 219.894 79.4812 211.732 83.4028 204.363C83.7558 203.794 84.3167 203.385 84.9664 203.222C85.6161 203.06 86.3034 203.157 86.8828 203.493C87.4385 203.857 87.8367 204.418 87.9979 205.063C88.1591 205.708 88.0716 206.39 87.7528 206.973C87.7528 207.182 75.2944 228.096 87.2308 258.686H172.665C184.601 228.096 172.282 207.182 172.143 206.973C171.824 206.39 171.736 205.708 171.898 205.063C172.059 204.418 172.457 203.857 173.013 203.493C173.592 203.157 174.279 203.06 174.929 203.222C175.579 203.385 176.14 203.794 176.493 204.363C181.192 213.267 183.45 223.257 183.035 233.316L200.957 224.964C199.878 203.632 195.285 188.564 189.404 177.88C188.603 179.585 187.733 181.36 186.724 183.065C186.273 183.868 185.616 184.536 184.821 185.001C184.026 185.466 183.121 185.711 182.2 185.71C181.831 185.763 181.456 185.763 181.086 185.71C180.201 185.528 179.383 185.107 178.72 184.492C174.718 199.491 163.095 218.178 131.984 231.402C131.334 231.678 130.636 231.82 129.93 231.82C129.225 231.82 128.527 231.678 127.877 231.402C96.8356 218.178 85.2124 199.491 81.28 184.492C80.6289 185.071 79.8366 185.467 78.9832 185.64C78.6139 185.694 78.2388 185.694 77.8696 185.64C76.9485 185.641 76.044 185.396 75.2489 184.932C74.4537 184.467 73.7968 183.799 73.3456 182.996C71.7891 180.32 70.4172 177.541 69.2392 174.678C64.1082 182.139 59.9672 190.234 56.92 198.76L49.96 194.236L35.2396 222.076C35.0503 222.314 34.8407 222.535 34.6132 222.737Z" fill="white"/>
<path d="M178.233 258.651C188.429 258.059 195.633 255.171 199.426 249.603C201.133 246.723 202.247 243.53 202.701 240.213C203.155 236.896 202.941 233.522 202.071 230.289L182.826 239.232C182.105 245.871 180.562 252.393 178.233 258.651Z" fill="white"/>
<path d="M116.254 296.583H119.734H119.943C120.574 296.599 121.203 296.669 121.822 296.792C123.353 287.709 125.302 274.45 127.077 264.08H88.7968L92.4508 285.76C100.782 287.918 108.697 291.447 115.871 296.2C115.906 296.286 115.958 296.364 116.024 296.43C116.09 296.496 116.168 296.548 116.254 296.583Z" fill="white"/>
<path d="M85.5604 160.967C85.5604 160.967 73.45 202.553 130 226.6C186.55 202.553 174.44 160.967 174.44 160.967C180.912 164.969 182.2 180.56 182.2 180.56C198.8 151.432 186.828 129.438 179.277 119.764C177.982 131.93 172.232 143.187 163.134 151.367C154.037 159.548 142.235 164.074 130 164.074C117.765 164.074 105.963 159.548 96.8656 151.367C87.768 143.187 82.0182 131.93 80.7232 119.764C73.1716 129.438 61.2004 151.432 77.8 180.56C77.8 180.56 79.0876 164.969 85.5604 160.967Z" fill="white"/>
<path d="M119.838 301.733H116.358C115.222 301.744 114.107 301.417 113.157 300.794C108.842 297.94 95.7568 290.006 84.586 290.006C82.0312 289.862 79.4807 290.353 77.1614 291.434C74.842 292.514 72.8259 294.152 71.2924 296.2C64.0192 305.979 71.884 311.303 75.2248 313.008C76.0295 313.392 76.9086 313.594 77.8 313.6H119.838C120.656 313.663 121.477 313.556 122.251 313.286C123.026 313.016 123.736 312.589 124.337 312.032C124.938 311.475 125.418 310.8 125.746 310.049C126.075 309.297 126.244 308.486 126.244 307.667C126.244 306.847 126.075 306.036 125.746 305.285C125.418 304.533 124.938 303.858 124.337 303.301C123.736 302.744 123.026 302.317 122.251 302.047C121.477 301.777 120.656 301.67 119.838 301.733Z" fill="white"/>
<path d="M163.756 143.08C169.631 136.21 173.272 127.712 174.196 118.72L173.535 118.372C158.988 106.679 144.338 100.763 130.035 100.763C115.732 100.763 101.081 106.679 86.5347 118.372L85.8735 118.72C86.797 127.712 90.4388 136.21 96.3135 143.08C97.1487 142.21 108.076 131.074 130.07 131.074C152.063 131.074 162.921 142.28 163.756 143.08Z" fill="white"/>
<path d="M100.002 146.734C108.184 154.361 118.954 158.603 130.139 158.603C141.325 158.603 152.094 154.361 160.276 146.734C160.276 146.734 150.254 136.294 130.278 136.294C110.303 136.294 100.107 146.56 100.002 146.734Z" fill="white"/>
<path d="M130 95.6128C145.59 95.6128 161.181 101.865 176.771 114.37C176.771 114.37 180.773 37.1836 130 0.400024C79.2267 37.1836 83.2288 114.37 83.2288 114.37C98.8192 101.842 114.41 95.5896 130 95.6128Z" fill="white"/>
<path d="M140.162 296.513H140.44H143.92C144.034 296.544 144.154 296.544 144.268 296.513C151.443 291.76 159.357 288.232 167.688 286.073L171.482 264.184H133.202C134.802 274.624 136.89 287.813 138.422 296.896C138.99 296.722 139.572 296.594 140.162 296.513Z" fill="white"/>
<path d="M143.92 301.803H140.44C139.623 301.74 138.801 301.847 138.027 302.117C137.253 302.387 136.543 302.813 135.941 303.371C135.34 303.928 134.86 304.603 134.532 305.354C134.204 306.105 134.034 306.916 134.034 307.736C134.034 308.556 134.204 309.367 134.532 310.118C134.86 310.869 135.34 311.545 135.941 312.102C136.543 312.659 137.253 313.086 138.027 313.356C138.801 313.625 139.623 313.732 140.44 313.67H182.2C183.103 313.668 183.995 313.466 184.81 313.078C188.29 311.373 196.016 306.118 188.742 296.27C187.215 294.254 185.218 292.643 182.925 291.575C180.632 290.508 178.114 290.017 175.588 290.145C164.382 290.145 151.228 298.079 147.017 300.933C146.089 301.512 145.014 301.814 143.92 301.803Z" fill="white"/>
<path d="M45.6101 191.174C45.6101 191.174 38.4761 184.527 31.4465 184.527C29.6477 184.535 27.8843 185.027 26.3413 185.952C24.7982 186.877 23.5325 188.199 22.6768 189.782C14.29 203.04 30.6461 219.362 30.6461 219.362L45.6101 191.174Z" fill="white"/>
<path d="M68.578 105.009C66.8728 83.8156 60.052 50.0944 34.3348 45.8488C8.61759 50.0596 1.79679 83.7808 0.0915929 105.009C-0.0907979 107.189 0.179815 109.384 0.886426 111.455C1.59304 113.527 2.72037 115.429 4.19759 117.044C5.67481 118.658 7.46999 119.95 9.47033 120.837C11.4707 121.724 13.6329 122.188 15.8212 122.2H52.7788C54.973 122.198 57.1429 121.741 59.1515 120.858C61.16 119.975 62.9637 118.685 64.4484 117.069C65.9331 115.454 67.0667 113.548 67.7775 111.472C68.4883 109.396 68.7608 107.195 68.578 105.009Z" fill="white"/>
<path d="M10.5664 313.6H25.6H43H55.0408V296.2H10.5664V313.6Z" fill="white"/>
<mask id="path-16-inside-1_178_46" fill="white">
<path fill-rule="evenodd" clip-rule="evenodd" d="M141.447 46.3679L145.043 42.8364L150.546 48.24L146.932 51.7714C148.455 53.973 149.524 56.4867 150.062 59.1812H155.167V66.821H150.062C149.527 69.5126 148.455 72.0321 146.932 74.2308L150.546 77.7651L145.043 83.1715L141.447 79.6401C139.204 81.1186 136.644 82.1859 133.9 82.6962V87.709L126.12 87.7031V82.6904C123.358 82.1801 120.816 81.1157 118.573 79.6343L114.977 83.1657L109.471 77.7593L113.067 74.225C111.562 72.0262 110.475 69.5097 109.94 66.8152H104.853V59.1806H109.94C110.475 56.4861 111.565 53.9724 113.067 51.7708L109.471 48.2394L114.977 42.8358L118.573 46.3672C120.816 44.8888 123.358 43.8215 126.12 43.3112V38.2984H133.9V43.3112C136.644 43.8186 139.204 44.8865 141.447 46.3679ZM151.788 36.8206V39.483C151.788 40.0896 151.268 40.5999 150.65 40.5999H139.623V42.9678C138.887 42.6208 138.135 42.3291 137.363 42.0638V39.4831C137.363 38.859 137.865 38.3662 138.501 38.3662H149.509V36.8207C148.105 36.3454 147.083 35.0477 147.083 33.5022C147.083 31.563 148.69 30.0029 150.647 30.0029C152.604 30.0029 154.211 31.566 154.211 33.5022C154.214 35.0477 153.192 36.3424 151.788 36.8206ZM108.233 36.8206V39.483C108.233 40.0896 108.734 40.5999 109.37 40.5999H120.379V42.9678C121.115 42.6208 121.884 42.3291 122.654 42.0638V39.4831C122.654 38.859 122.134 38.3662 121.516 38.3662L110.489 38.3633V36.8178C111.912 36.3425 112.933 35.0448 112.933 33.4993C112.933 31.5601 111.327 30 109.37 30C107.395 30 105.806 31.5631 105.806 33.4993C105.806 35.0477 106.81 36.3424 108.233 36.8206ZM110.49 89.1821V87.6395H121.517C122.134 87.6395 122.654 87.1292 122.654 86.5227V83.9449C121.885 83.6795 121.116 83.3879 120.379 83.0409V85.4059H109.37C108.735 85.4059 108.233 85.9162 108.233 86.5227V89.1822C106.828 89.6604 105.807 90.9727 105.807 92.5007C105.807 94.4399 107.396 96 109.37 96C111.328 96 112.934 94.4399 112.934 92.5007C112.934 90.9756 111.915 89.6603 110.49 89.1821ZM110.208 74.1002H101.474C100.838 74.1002 100.336 74.5931 100.336 75.2025V78.142C98.9136 78.6027 97.892 79.9178 97.892 81.4604C97.892 83.3821 99.4987 84.9597 101.474 84.9597C103.431 84.9597 105.037 83.385 105.037 81.4604C105.037 79.9178 104.016 78.6027 102.593 78.142V76.3194H107.93L110.208 74.1002ZM102.727 61.3684C102.124 60.2661 100.936 59.4933 99.5638 59.4933C97.6067 59.4933 96 61.071 96 62.9926C96 64.9319 97.6067 66.4919 99.5638 66.4919C100.936 66.4919 102.124 65.7338 102.727 64.6344V61.3684ZM107.933 49.6839H102.593V47.8613C104.016 47.4035 105.037 46.0854 105.037 44.5428C105.037 42.6212 103.431 41.0435 101.473 41.0435C99.4985 41.0435 97.8919 42.6182 97.8919 44.5428C97.8919 46.0854 98.9135 47.4006 100.336 47.8613V50.8007C100.336 51.4073 100.838 51.9031 101.473 51.9031H110.207L107.933 49.6839ZM108.063 33.4994C108.063 32.7937 108.648 32.2193 109.37 32.2193C110.089 32.2193 110.659 32.7937 110.659 33.4994C110.659 34.1905 110.074 34.765 109.37 34.765C108.651 34.7679 108.063 34.1905 108.063 33.4994ZM100.166 44.5426C100.166 43.8369 100.737 43.28 101.473 43.28C102.192 43.28 102.762 43.8369 102.762 44.5426C102.762 45.2483 102.177 45.8257 101.473 45.8257C100.752 45.8228 100.166 45.2483 100.166 44.5426ZM98.2747 62.9928C98.2747 62.2871 98.8419 61.7301 99.5636 61.7301C100.282 61.7301 100.87 62.2871 100.87 62.9928C100.87 63.6985 100.285 64.2759 99.5636 64.2759C98.8627 64.273 98.2747 63.7014 98.2747 62.9928ZM100.166 81.4601C100.166 80.7545 100.737 80.177 101.473 80.177C102.192 80.177 102.762 80.7515 102.762 81.4601C102.762 82.1513 102.177 82.7257 101.473 82.7257C100.752 82.7257 100.166 82.1513 100.166 81.4601ZM108.063 92.5034C108.063 91.7977 108.648 91.2378 109.37 91.2378C110.089 91.2378 110.659 91.7948 110.659 92.5034C110.659 93.2091 110.074 93.7865 109.37 93.7865C108.651 93.7836 108.063 93.2091 108.063 92.5034ZM149.51 89.182V87.6394H138.502C137.866 87.6394 137.364 87.1291 137.364 86.5225V83.9447C138.136 83.6793 138.888 83.3877 139.624 83.0407V85.4057H150.651C151.269 85.4057 151.789 85.916 151.789 86.5226V89.1821C153.196 89.6603 154.215 90.9725 154.215 92.5005C154.215 94.4398 152.626 95.9998 150.651 95.9998C148.676 95.9998 147.087 94.4398 147.087 92.5005C147.087 90.9754 148.106 89.6602 149.51 89.182ZM149.813 74.1001H158.547C159.165 74.1001 159.685 74.5929 159.685 75.2024V78.1418C161.092 78.6025 162.111 79.9177 162.111 81.4603C162.111 83.382 160.522 84.9596 158.547 84.9596C156.572 84.9596 154.983 83.3849 154.983 81.4603C154.983 79.9177 156.005 78.6026 157.41 78.1418V76.3193H152.073L149.813 74.1001ZM157.291 61.3682C157.876 60.2659 159.082 59.4932 160.436 59.4932C162.411 59.4932 164 61.0708 164 62.9925C164 64.9317 162.411 66.4918 160.436 66.4918C159.064 66.4918 157.876 65.7336 157.291 64.6342V61.3682ZM152.073 49.6837H157.41V47.8612C156.005 47.4034 154.984 46.0853 154.984 44.5427C154.984 42.621 156.59 41.0434 158.547 41.0434C160.522 41.0434 162.111 42.6181 162.111 44.5427C162.111 46.0853 161.09 47.4004 159.685 47.8612V50.8006C159.685 51.4071 159.165 51.9029 158.547 51.9029L149.813 51.9058L152.073 49.6837ZM151.954 33.4992C151.954 32.7935 151.369 32.2191 150.648 32.2191C149.929 32.2191 149.341 32.7936 149.341 33.4992C149.341 34.1903 149.926 34.7648 150.648 34.7648C151.369 34.7648 151.954 34.1903 151.954 33.4992ZM159.854 44.5425C159.854 43.8368 159.269 43.2798 158.548 43.2798C157.829 43.2798 157.241 43.8368 157.241 44.5425C157.241 45.2482 157.826 45.8256 158.548 45.8256C159.266 45.8227 159.854 45.2482 159.854 44.5425ZM161.743 62.9926C161.743 62.287 161.158 61.73 160.436 61.73C159.718 61.73 159.148 62.287 159.148 62.9926C159.148 63.6983 159.715 64.2758 160.436 64.2758C161.158 64.2728 161.743 63.7013 161.743 62.9926ZM159.854 81.46C159.854 80.7543 159.269 80.1769 158.548 80.1769C157.829 80.1769 157.241 80.7514 157.241 81.46C157.241 82.1511 157.826 82.7256 158.548 82.7256C159.266 82.7256 159.854 82.1511 159.854 81.46ZM151.954 92.5032C151.954 91.7975 151.369 91.2377 150.648 91.2377C149.929 91.2377 149.341 91.7946 149.341 92.5032C149.341 93.2089 149.926 93.7863 150.648 93.7863C151.369 93.7834 151.954 93.209 151.954 92.5032ZM142.986 62.2864C142.986 66.2144 141.177 69.7137 138.335 72.0643V74.8405C138.335 75.6453 137.667 76.2869 136.862 76.2869H135.389V73.6419H133.114V76.2869H131.139V73.6419H128.879V76.2869H126.889V73.6419H124.629V76.2869H123.156C122.336 76.2869 121.668 75.6453 121.668 74.8405V72.0643C118.823 69.7169 117.017 66.2147 117.017 62.2864C117.017 45.51 142.986 45.51 142.986 62.2864ZM132.211 63.6482C132.597 65.1442 134.453 65.9811 136.36 65.5233C138.284 65.0625 139.523 63.4674 139.154 61.9569C138.97 61.2512 138.451 60.6914 137.75 60.3473L132.211 63.6482ZM127.792 63.6482C127.424 65.1442 125.565 65.9811 123.643 65.5233C121.737 65.0625 120.498 63.4674 120.866 61.9569C121.051 61.2512 121.57 60.6914 122.256 60.3473L127.792 63.6482ZM128.597 70.5827C128.163 71.0085 127.442 71.0085 126.99 70.5827C126.556 70.1395 126.556 69.4337 126.99 69.008L128.145 67.8737C128.665 67.3809 129.333 67.1184 130.001 67.1184C130.673 67.1184 131.356 67.3809 131.858 67.8737H131.872L133.01 69.008C133.461 69.4338 133.461 70.1423 133.01 70.5827C132.576 71.0085 131.855 71.0085 131.403 70.5827L130.266 69.4484C130.197 69.3813 130.096 69.3492 129.998 69.3492C129.915 69.3492 129.814 69.3842 129.749 69.4484L128.597 70.5827Z"/>
</mask>
<path fill-rule="evenodd" clip-rule="evenodd" d="M141.447 46.3679L145.043 42.8364L150.546 48.24L146.932 51.7714C148.455 53.973 149.524 56.4867 150.062 59.1812H155.167V66.821H150.062C149.527 69.5126 148.455 72.0321 146.932 74.2308L150.546 77.7651L145.043 83.1715L141.447 79.6401C139.204 81.1186 136.644 82.1859 133.9 82.6962V87.709L126.12 87.7031V82.6904C123.358 82.1801 120.816 81.1157 118.573 79.6343L114.977 83.1657L109.471 77.7593L113.067 74.225C111.562 72.0262 110.475 69.5097 109.94 66.8152H104.853V59.1806H109.94C110.475 56.4861 111.565 53.9724 113.067 51.7708L109.471 48.2394L114.977 42.8358L118.573 46.3672C120.816 44.8888 123.358 43.8215 126.12 43.3112V38.2984H133.9V43.3112C136.644 43.8186 139.204 44.8865 141.447 46.3679ZM151.788 36.8206V39.483C151.788 40.0896 151.268 40.5999 150.65 40.5999H139.623V42.9678C138.887 42.6208 138.135 42.3291 137.363 42.0638V39.4831C137.363 38.859 137.865 38.3662 138.501 38.3662H149.509V36.8207C148.105 36.3454 147.083 35.0477 147.083 33.5022C147.083 31.563 148.69 30.0029 150.647 30.0029C152.604 30.0029 154.211 31.566 154.211 33.5022C154.214 35.0477 153.192 36.3424 151.788 36.8206ZM108.233 36.8206V39.483C108.233 40.0896 108.734 40.5999 109.37 40.5999H120.379V42.9678C121.115 42.6208 121.884 42.3291 122.654 42.0638V39.4831C122.654 38.859 122.134 38.3662 121.516 38.3662L110.489 38.3633V36.8178C111.912 36.3425 112.933 35.0448 112.933 33.4993C112.933 31.5601 111.327 30 109.37 30C107.395 30 105.806 31.5631 105.806 33.4993C105.806 35.0477 106.81 36.3424 108.233 36.8206ZM110.49 89.1821V87.6395H121.517C122.134 87.6395 122.654 87.1292 122.654 86.5227V83.9449C121.885 83.6795 121.116 83.3879 120.379 83.0409V85.4059H109.37C108.735 85.4059 108.233 85.9162 108.233 86.5227V89.1822C106.828 89.6604 105.807 90.9727 105.807 92.5007C105.807 94.4399 107.396 96 109.37 96C111.328 96 112.934 94.4399 112.934 92.5007C112.934 90.9756 111.915 89.6603 110.49 89.1821ZM110.208 74.1002H101.474C100.838 74.1002 100.336 74.5931 100.336 75.2025V78.142C98.9136 78.6027 97.892 79.9178 97.892 81.4604C97.892 83.3821 99.4987 84.9597 101.474 84.9597C103.431 84.9597 105.037 83.385 105.037 81.4604C105.037 79.9178 104.016 78.6027 102.593 78.142V76.3194H107.93L110.208 74.1002ZM102.727 61.3684C102.124 60.2661 100.936 59.4933 99.5638 59.4933C97.6067 59.4933 96 61.071 96 62.9926C96 64.9319 97.6067 66.4919 99.5638 66.4919C100.936 66.4919 102.124 65.7338 102.727 64.6344V61.3684ZM107.933 49.6839H102.593V47.8613C104.016 47.4035 105.037 46.0854 105.037 44.5428C105.037 42.6212 103.431 41.0435 101.473 41.0435C99.4985 41.0435 97.8919 42.6182 97.8919 44.5428C97.8919 46.0854 98.9135 47.4006 100.336 47.8613V50.8007C100.336 51.4073 100.838 51.9031 101.473 51.9031H110.207L107.933 49.6839ZM108.063 33.4994C108.063 32.7937 108.648 32.2193 109.37 32.2193C110.089 32.2193 110.659 32.7937 110.659 33.4994C110.659 34.1905 110.074 34.765 109.37 34.765C108.651 34.7679 108.063 34.1905 108.063 33.4994ZM100.166 44.5426C100.166 43.8369 100.737 43.28 101.473 43.28C102.192 43.28 102.762 43.8369 102.762 44.5426C102.762 45.2483 102.177 45.8257 101.473 45.8257C100.752 45.8228 100.166 45.2483 100.166 44.5426ZM98.2747 62.9928C98.2747 62.2871 98.8419 61.7301 99.5636 61.7301C100.282 61.7301 100.87 62.2871 100.87 62.9928C100.87 63.6985 100.285 64.2759 99.5636 64.2759C98.8627 64.273 98.2747 63.7014 98.2747 62.9928ZM100.166 81.4601C100.166 80.7545 100.737 80.177 101.473 80.177C102.192 80.177 102.762 80.7515 102.762 81.4601C102.762 82.1513 102.177 82.7257 101.473 82.7257C100.752 82.7257 100.166 82.1513 100.166 81.4601ZM108.063 92.5034C108.063 91.7977 108.648 91.2378 109.37 91.2378C110.089 91.2378 110.659 91.7948 110.659 92.5034C110.659 93.2091 110.074 93.7865 109.37 93.7865C108.651 93.7836 108.063 93.2091 108.063 92.5034ZM149.51 89.182V87.6394H138.502C137.866 87.6394 137.364 87.1291 137.364 86.5225V83.9447C138.136 83.6793 138.888 83.3877 139.624 83.0407V85.4057H150.651C151.269 85.4057 151.789 85.916 151.789 86.5226V89.1821C153.196 89.6603 154.215 90.9725 154.215 92.5005C154.215 94.4398 152.626 95.9998 150.651 95.9998C148.676 95.9998 147.087 94.4398 147.087 92.5005C147.087 90.9754 148.106 89.6602 149.51 89.182ZM149.813 74.1001H158.547C159.165 74.1001 159.685 74.5929 159.685 75.2024V78.1418C161.092 78.6025 162.111 79.9177 162.111 81.4603C162.111 83.382 160.522 84.9596 158.547 84.9596C156.572 84.9596 154.983 83.3849 154.983 81.4603C154.983 79.9177 156.005 78.6026 157.41 78.1418V76.3193H152.073L149.813 74.1001ZM157.291 61.3682C157.876 60.2659 159.082 59.4932 160.436 59.4932C162.411 59.4932 164 61.0708 164 62.9925C164 64.9317 162.411 66.4918 160.436 66.4918C159.064 66.4918 157.876 65.7336 157.291 64.6342V61.3682ZM152.073 49.6837H157.41V47.8612C156.005 47.4034 154.984 46.0853 154.984 44.5427C154.984 42.621 156.59 41.0434 158.547 41.0434C160.522 41.0434 162.111 42.6181 162.111 44.5427C162.111 46.0853 161.09 47.4004 159.685 47.8612V50.8006C159.685 51.4071 159.165 51.9029 158.547 51.9029L149.813 51.9058L152.073 49.6837ZM151.954 33.4992C151.954 32.7935 151.369 32.2191 150.648 32.2191C149.929 32.2191 149.341 32.7936 149.341 33.4992C149.341 34.1903 149.926 34.7648 150.648 34.7648C151.369 34.7648 151.954 34.1903 151.954 33.4992ZM159.854 44.5425C159.854 43.8368 159.269 43.2798 158.548 43.2798C157.829 43.2798 157.241 43.8368 157.241 44.5425C157.241 45.2482 157.826 45.8256 158.548 45.8256C159.266 45.8227 159.854 45.2482 159.854 44.5425ZM161.743 62.9926C161.743 62.287 161.158 61.73 160.436 61.73C159.718 61.73 159.148 62.287 159.148 62.9926C159.148 63.6983 159.715 64.2758 160.436 64.2758C161.158 64.2728 161.743 63.7013 161.743 62.9926ZM159.854 81.46C159.854 80.7543 159.269 80.1769 158.548 80.1769C157.829 80.1769 157.241 80.7514 157.241 81.46C157.241 82.1511 157.826 82.7256 158.548 82.7256C159.266 82.7256 159.854 82.1511 159.854 81.46ZM151.954 92.5032C151.954 91.7975 151.369 91.2377 150.648 91.2377C149.929 91.2377 149.341 91.7946 149.341 92.5032C149.341 93.2089 149.926 93.7863 150.648 93.7863C151.369 93.7834 151.954 93.209 151.954 92.5032ZM142.986 62.2864C142.986 66.2144 141.177 69.7137 138.335 72.0643V74.8405C138.335 75.6453 137.667 76.2869 136.862 76.2869H135.389V73.6419H133.114V76.2869H131.139V73.6419H128.879V76.2869H126.889V73.6419H124.629V76.2869H123.156C122.336 76.2869 121.668 75.6453 121.668 74.8405V72.0643C118.823 69.7169 117.017 66.2147 117.017 62.2864C117.017 45.51 142.986 45.51 142.986 62.2864ZM132.211 63.6482C132.597 65.1442 134.453 65.9811 136.36 65.5233C138.284 65.0625 139.523 63.4674 139.154 61.9569C138.97 61.2512 138.451 60.6914 137.75 60.3473L132.211 63.6482ZM127.792 63.6482C127.424 65.1442 125.565 65.9811 123.643 65.5233C121.737 65.0625 120.498 63.4674 120.866 61.9569C121.051 61.2512 121.57 60.6914 122.256 60.3473L127.792 63.6482ZM128.597 70.5827C128.163 71.0085 127.442 71.0085 126.99 70.5827C126.556 70.1395 126.556 69.4337 126.99 69.008L128.145 67.8737C128.665 67.3809 129.333 67.1184 130.001 67.1184C130.673 67.1184 131.356 67.3809 131.858 67.8737H131.872L133.01 69.008C133.461 69.4338 133.461 70.1423 133.01 70.5827C132.576 71.0085 131.855 71.0085 131.403 70.5827L130.266 69.4484C130.197 69.3813 130.096 69.3492 129.998 69.3492C129.915 69.3492 129.814 69.3842 129.749 69.4484L128.597 70.5827Z" fill="black" stroke="black" stroke-width="2" mask="url(#path-16-inside-1_178_46)"/>
<path d="M90.418 229.25C90.5346 229.267 90.6291 229.32 90.6846 229.385C90.7315 229.44 90.7726 229.527 90.751 229.679L90.1582 233.727L90.1162 234.015L90.3467 234.194L92.9355 236.206L93.5039 236.648L93.7197 235.961L93.8301 235.607C95.2005 237.211 97.0014 238.426 99.1074 238.809V249.724C97.9481 249.392 96.8666 248.652 95.9531 247.584L95.7275 247.32L95.4014 247.438L91.4209 248.89L90.9297 249.069L91.1309 249.552L92.5547 252.966C92.6135 253.107 92.5952 253.2 92.5635 253.265C92.5259 253.341 92.4483 253.416 92.3389 253.462C92.2295 253.507 92.1209 253.51 92.04 253.482C91.9886 253.465 91.9306 253.431 91.8799 253.354L91.832 253.264L90.043 248.974C89.9719 248.772 90.0765 248.55 90.2783 248.477L90.2773 248.476L94.6807 246.87L95.2412 246.666L94.9424 246.15C94.3509 245.13 93.9057 243.974 93.624 242.733L93.5352 242.344H86.8818C86.7257 242.344 86.6438 242.29 86.5957 242.235C86.5393 242.171 86.5001 242.07 86.5 241.952C86.5 241.834 86.5392 241.732 86.5957 241.668C86.6438 241.613 86.7257 241.56 86.8818 241.56L92.8477 241.561H93.4004L93.3457 241.011C93.2415 239.962 93.2504 238.887 93.3711 237.843L93.4033 237.563L93.1816 237.391L89.4561 234.495L89.4551 234.494C89.3352 234.401 89.2834 234.251 89.3115 234.107L89.3154 234.084L89.9756 229.573V229.571C89.9979 229.417 90.0634 229.344 90.124 229.305C90.1955 229.258 90.3011 229.233 90.418 229.25ZM110.582 229.249C110.699 229.232 110.804 229.256 110.876 229.303C110.937 229.342 111.002 229.415 111.024 229.568L111.686 234.092L111.688 234.102L111.688 234.111C111.715 234.251 111.663 234.399 111.544 234.492L107.818 237.389L107.596 237.562L107.629 237.841C107.751 238.884 107.759 239.957 107.654 241.009L107.6 241.558H114.118C114.274 241.558 114.356 241.612 114.404 241.667C114.461 241.731 114.5 241.832 114.5 241.95C114.5 242.068 114.461 242.17 114.404 242.234C114.356 242.289 114.274 242.343 114.118 242.343H107.463L107.375 242.732C107.051 244.163 106.771 244.705 106.188 245.914C106.136 246.01 106.086 246.101 106.035 246.187L105.724 246.711L106.299 246.914L110.72 248.475V248.476C110.922 248.55 111.025 248.771 110.954 248.973L109.166 253.263C109.107 253.405 109.026 253.458 108.958 253.481C108.877 253.509 108.768 253.506 108.659 253.461C108.55 253.416 108.472 253.341 108.435 253.265C108.403 253.2 108.384 253.105 108.442 252.964L109.867 249.551L110.071 249.062L109.571 248.887L105.557 247.479L105.235 247.365L105.013 247.623C104.107 248.67 103.038 249.396 101.893 249.724V238.81C103.998 238.428 105.798 237.211 107.168 235.607L107.279 235.962L107.494 236.648L108.062 236.207L110.652 234.194L110.882 234.016L110.84 233.727L110.249 229.682C110.227 229.528 110.268 229.44 110.315 229.385C110.371 229.32 110.465 229.266 110.582 229.249ZM106.232 225.506C106.316 225.522 106.408 225.578 106.48 225.671C106.553 225.764 106.583 225.868 106.578 225.952C106.574 226.024 106.543 226.114 106.422 226.207C105.266 227.097 104.386 228.472 103.796 229.85L103.645 230.201L103.945 230.438C104.7 231.034 105.349 231.797 105.884 232.655C104.411 235.029 102.422 236.149 100.498 236.149C98.5736 236.149 96.5843 235.029 95.1113 232.655C95.6478 231.797 96.2984 231.034 97.0527 230.438L97.3525 230.201L97.2021 229.85C96.6128 228.472 95.7317 227.096 94.5762 226.207C94.455 226.114 94.4243 226.023 94.4199 225.952C94.4148 225.868 94.4445 225.764 94.5166 225.671C94.5887 225.578 94.682 225.522 94.7656 225.506C94.8188 225.495 94.886 225.496 94.9678 225.537L95.0547 225.592C96.6445 226.816 97.7988 228.877 98.4229 230.919L98.6953 231.811L99.2871 231.09C99.5971 230.712 99.6174 230.244 99.5811 229.874C99.5617 229.677 99.5202 229.469 99.4766 229.272C100.154 229.131 100.843 229.131 101.521 229.272C101.477 229.469 101.437 229.677 101.418 229.874C101.382 230.243 101.401 230.712 101.711 231.09L102.303 231.812L102.575 230.919C103.199 228.878 104.354 226.816 105.943 225.592C106.065 225.498 106.162 225.492 106.232 225.506Z" fill="black" stroke="black"/>
</svg>
