<svg width="203" height="314" viewBox="0 0 203 314" fill="none" xmlns="http://www.w3.org/2000/svg">
<path d="M31.41 178.907C35.498 179.044 39.4798 180.244 42.9636 182.387V127.02H25.5636V180.09C27.4163 179.317 29.4026 178.915 31.41 178.907Z" fill="white"/>
<path d="M25.5636 221.224V290.58H42.9636V233.508C37.1046 230.812 31.7311 227.167 27.06 222.72C27.06 222.72 26.2944 222.024 25.5636 221.224Z" fill="white"/>
<path d="M34.5768 222.337C41.9894 228.425 51.1656 231.964 60.7464 232.429C66.4583 232.402 72.0542 230.814 76.9284 227.836C77.2438 219.494 79.4449 211.332 83.3664 203.963C83.7195 203.394 84.2803 202.985 84.93 202.822C85.5797 202.66 86.2671 202.757 86.8464 203.093C87.4022 203.457 87.8003 204.018 87.9615 204.663C88.1227 205.308 88.0352 205.99 87.7164 206.573C87.7164 206.782 75.258 227.696 87.1944 258.286H172.628C184.565 227.696 172.246 206.782 172.106 206.573C171.788 205.99 171.7 205.308 171.861 204.663C172.022 204.018 172.421 203.457 172.976 203.093C173.556 202.757 174.243 202.66 174.893 202.822C175.542 202.985 176.103 203.394 176.456 203.963C181.156 212.867 183.413 222.857 182.999 232.916L200.921 224.564C199.842 203.232 195.248 188.164 189.367 177.48C188.567 179.185 187.697 180.96 186.688 182.665C186.236 183.468 185.579 184.136 184.784 184.601C183.989 185.066 183.085 185.311 182.164 185.31C181.794 185.363 181.419 185.363 181.05 185.31C180.165 185.128 179.346 184.707 178.684 184.092C174.682 199.091 163.058 217.778 131.947 231.002C131.298 231.278 130.599 231.42 129.894 231.42C129.188 231.42 128.49 231.278 127.841 231.002C96.7992 217.778 85.176 199.091 81.2436 184.092C80.5926 184.671 79.8002 185.067 78.9468 185.24C78.5775 185.294 78.2025 185.294 77.8332 185.24C76.9122 185.241 76.0076 184.996 75.2125 184.532C74.4174 184.067 73.7604 183.399 73.3092 182.596C71.7528 179.92 70.3808 177.141 69.2028 174.278C64.0718 181.739 59.9308 189.834 56.8836 198.36L49.9236 193.836L35.2032 221.676C35.0139 221.914 34.8043 222.135 34.5768 222.337Z" fill="white"/>
<path d="M178.196 258.251C188.393 257.659 195.596 254.771 199.39 249.203C201.097 246.323 202.21 243.13 202.664 239.813C203.119 236.496 202.904 233.122 202.034 229.889L182.79 238.832C182.069 245.47 180.526 251.993 178.196 258.251Z" fill="white"/>
<path d="M116.218 296.183H119.698H119.906C120.538 296.199 121.166 296.269 121.786 296.392C123.317 287.309 125.266 274.05 127.04 263.68H88.7604L92.4144 285.36C100.746 287.518 108.66 291.047 115.835 295.8C115.87 295.886 115.922 295.964 115.987 296.03C116.053 296.096 116.131 296.148 116.218 296.183Z" fill="white"/>
<path d="M85.524 160.567C85.524 160.567 73.4136 202.153 129.964 226.2C186.514 202.153 174.403 160.567 174.403 160.567C180.876 164.569 182.164 180.16 182.164 180.16C198.763 151.032 186.792 129.038 179.24 119.364C177.945 131.53 172.196 142.787 163.098 150.967C154 159.148 142.198 163.674 129.964 163.674C117.729 163.674 105.927 159.148 96.8292 150.967C87.7317 142.787 81.9819 131.53 80.6868 119.364C73.1352 129.038 61.164 151.032 77.7636 180.16C77.7636 180.16 79.0512 164.569 85.524 160.567Z" fill="white"/>
<path d="M119.802 301.333H116.322C115.185 301.344 114.071 301.017 113.12 300.394C108.805 297.54 95.7204 289.606 84.5496 289.606C81.9948 289.462 79.4443 289.953 77.125 291.034C74.8057 292.114 72.7895 293.752 71.256 295.8C63.9828 305.579 71.8476 310.903 75.1884 312.608C75.9931 312.992 76.8722 313.194 77.7636 313.2H119.802C120.619 313.263 121.441 313.156 122.215 312.886C122.989 312.616 123.699 312.189 124.301 311.632C124.902 311.075 125.382 310.4 125.71 309.649C126.038 308.897 126.208 308.086 126.208 307.267C126.208 306.447 126.038 305.636 125.71 304.885C125.382 304.133 124.902 303.458 124.301 302.901C123.699 302.344 122.989 301.917 122.215 301.647C121.441 301.377 120.619 301.27 119.802 301.333Z" fill="white"/>
<path d="M163.72 142.68C169.594 135.81 173.236 127.312 174.16 118.32L173.498 117.972C158.952 106.279 144.301 100.363 129.998 100.363C115.696 100.363 101.045 106.279 86.4984 117.972L85.8372 118.32C86.7607 127.312 90.4024 135.81 96.2772 142.68C97.1124 141.81 108.04 130.674 130.033 130.674C152.027 130.674 162.884 141.88 163.72 142.68Z" fill="white"/>
<path d="M99.9661 146.334C108.148 153.961 118.917 158.203 130.103 158.203C141.288 158.203 152.058 153.961 160.24 146.334C160.24 146.334 150.217 135.894 130.242 135.894C110.267 135.894 100.07 146.16 99.9661 146.334Z" fill="white"/>
<path d="M129.964 95.2128C145.554 95.2128 161.144 101.465 176.735 113.97C176.735 113.97 180.737 36.7836 129.964 0C79.1904 36.7836 83.1924 113.97 83.1924 113.97C98.7828 101.442 114.373 95.1896 129.964 95.2128Z" fill="white"/>
<path d="M140.125 296.113H140.404H143.884C143.998 296.144 144.118 296.144 144.232 296.113C151.406 291.36 159.321 287.832 167.652 285.673L171.445 263.784H133.165C134.766 274.224 136.854 287.413 138.385 296.496C138.954 296.322 139.536 296.194 140.125 296.113Z" fill="white"/>
<path d="M143.884 301.403H140.404C139.586 301.34 138.765 301.447 137.991 301.717C137.216 301.987 136.506 302.413 135.905 302.97C135.304 303.528 134.824 304.203 134.496 304.954C134.167 305.705 133.998 306.516 133.998 307.336C133.998 308.156 134.167 308.967 134.496 309.718C134.824 310.469 135.304 311.145 135.905 311.702C136.506 312.259 137.216 312.686 137.991 312.956C138.765 313.225 139.586 313.332 140.404 313.27H182.164C183.067 313.268 183.958 313.066 184.774 312.678C188.254 310.973 195.979 305.718 188.706 295.87C187.178 293.854 185.181 292.243 182.889 291.175C180.596 290.108 178.077 289.617 175.552 289.745C164.346 289.745 151.192 297.679 146.981 300.533C146.052 301.112 144.978 301.414 143.884 301.403Z" fill="white"/>
<path d="M45.5737 190.774C45.5737 190.774 38.4397 184.127 31.4101 184.127C29.6113 184.135 27.8479 184.627 26.3049 185.552C24.7619 186.477 23.4961 187.799 22.6405 189.382C14.2537 202.64 30.6097 218.962 30.6097 218.962L45.5737 190.774Z" fill="white"/>
<path d="M68.5416 104.609C66.8364 83.4155 60.0156 49.6943 34.2984 45.4487C8.58122 49.6595 1.76042 83.3807 0.0552159 104.609C-0.127175 106.789 0.143438 108.984 0.850049 111.055C1.55666 113.127 2.68399 115.029 4.16122 116.644C5.63844 118.258 7.43362 119.55 9.43395 120.437C11.4343 121.324 13.5965 121.788 15.7848 121.8H52.7424C54.9366 121.798 57.1065 121.341 59.1151 120.458C61.1237 119.575 62.9273 118.285 64.412 116.669C65.8967 115.054 67.0303 113.148 67.7411 111.072C68.4519 108.996 68.7245 106.795 68.5416 104.609Z" fill="white"/>
<path d="M10.53 313.2H25.5636H42.9636H55.0044V295.8H10.53V313.2Z" fill="white"/>
</svg>
