<svg width="58" height="72" viewBox="0 0 58 72" fill="none" xmlns="http://www.w3.org/2000/svg">
<path d="M3.24617 55.0011C5.00705 54.8572 6.77164 54.7374 8.53241 54.5829C9.64427 55.1808 10.3267 55.4506 11.4821 54.7605C12.1448 54.4725 13.2627 53.7191 13.0057 52.6842C12.5689 51.3315 11.7508 50.364 10.208 51.2625C10.2528 50.7306 10.4739 50.0683 9.93264 49.7303C9.14257 49.0321 8.35504 48.3307 7.5645 47.6337C7.0193 47.0062 6.66898 47.1101 5.94955 47.3427C4.98223 47.5723 4.01026 47.7853 3.0463 48.0286C2.99404 48.0234 2.94126 48.0295 2.89162 48.0466C2.84198 48.0636 2.79667 48.0912 2.75881 48.1273C2.72094 48.1635 2.69144 48.2074 2.67235 48.256C2.65325 48.3046 2.645 48.3567 2.64819 48.4088C2.71501 50.4733 2.78031 52.5378 2.84411 54.6024C2.85003 54.8041 3.0238 55.0195 3.24617 55.0011ZM10.672 52.1625C11.5105 50.513 13.2569 53.6005 11.161 53.9355C10.2483 53.993 10.502 52.7099 10.672 52.1625ZM9.18061 53.3784C8.94189 53.272 8.72044 53.1283 8.48461 53.0128C8.50143 52.2728 8.66395 51.533 8.64458 50.7912C8.89887 50.8245 9.15728 50.8071 9.40473 50.7401C9.32817 51.6194 9.25938 52.4994 9.18061 53.3784ZM8.96973 49.984C8.01145 50.1222 7.01466 49.2572 7.02893 48.2472C7.67505 48.8271 8.32198 49.406 8.96973 49.984ZM6.26066 48.0868C6.2349 48.4212 6.28982 48.7569 6.42086 49.066C5.99676 49.245 5.57267 49.4263 5.15727 49.6241C4.83444 49.7778 5.06203 50.325 5.40307 50.2031C5.85547 50.0418 6.30184 49.8605 6.74635 49.6785C6.99569 50.054 7.34811 50.3508 7.76193 50.5337C8.0466 51.188 7.77052 51.9487 7.75416 52.6278C7.28738 52.3744 6.82141 52.0902 6.32411 51.9053C6.08805 51.8175 5.87473 52.1746 6.07286 52.334C6.2897 52.5045 6.51892 52.6588 6.75865 52.7958C5.70966 52.7447 4.76194 53.2105 3.91503 53.7194C4.11397 52.8892 4.39167 52.1052 4.61532 51.2859C4.80301 51.6243 5.31387 51.4088 5.1437 51.044C4.70116 50.2296 4.19679 49.4513 3.751 48.6379C4.58899 48.4616 5.42477 48.2732 6.26066 48.0868ZM4.14621 50.7381C3.91155 51.2101 3.71801 51.7012 3.56772 52.206C3.54058 51.3869 3.51374 50.5679 3.48722 49.7489C3.68537 50.0923 3.90549 50.4227 4.14621 50.7381Z" fill="#F5B700"/>
<path d="M18.8557 52.0927C15.9209 49.8209 15.3971 49.6477 15.265 53.778C15.2651 53.8624 15.293 53.9444 15.3444 54.0115C15.3959 54.0786 15.4681 54.1272 15.5499 54.1497C16.1763 54.2483 16.8027 54.3462 17.4291 54.4433C17.6165 55.211 18.5682 55.2439 19.2123 55.2447C19.7366 55.2588 20.6297 55.3861 20.9852 54.8802C21.1696 54.6177 21.1348 54.2337 21.0288 53.8549C20.9382 52.4872 20.1067 52.1147 18.8869 52.6426C18.9815 52.477 19.024 52.23 18.8557 52.0927ZM17.5227 53.5709C17.24 53.4996 16.8764 53.4336 16.6214 53.2785C16.8391 53.0493 17.1141 52.8815 17.4184 52.7923C17.6717 52.6982 17.6638 52.2578 17.3488 52.2848C16.9586 52.312 16.5948 52.418 16.3121 52.6969C16.3153 52.2572 16.3979 51.8232 16.4281 51.3861C17.0601 51.6226 17.6351 51.988 18.1161 52.4588C17.9414 52.8412 17.7433 53.2126 17.5227 53.5709ZM19.8396 53.1363C20.1564 53.1424 20.1362 53.4987 20.1831 53.727C20.8047 55.0943 17.5731 54.3381 18.7972 53.398C19.1407 53.2618 19.4975 53.1287 19.8396 53.1363Z" fill="#F5B700"/>
<path d="M41.6737 51.1815C41.0506 51.2842 40.6557 51.685 40.3108 52.187C38.8832 54.2645 40.315 54.7329 40.7973 54.8193C41.4918 55.0077 43.8856 54.5032 44.0269 53.7172C43.9828 53.3175 43.5095 51.874 43.321 51.586C42.9808 51.0651 42.2182 51.0918 41.6737 51.1815ZM43.0773 53.6477C42.8629 53.4118 42.5998 53.2246 42.306 53.0987C42.3705 52.9722 42.4214 52.8394 42.4578 52.7023C42.5455 52.3659 42.0211 52.1137 41.8698 52.4561C41.5836 53.2434 41.1907 53.3934 40.434 53.5755C40.6337 52.6635 41.3613 51.6977 42.372 51.8973C42.9774 52.0251 42.9636 53.0944 43.2513 53.575C43.1932 53.5994 43.1351 53.6236 43.0768 53.6477H43.0773Z" fill="#F5B700"/>
<path d="M5.16327 45.5901C5.50721 45.9766 5.96994 46.0557 6.46166 46.0617C7.23991 46.1434 8.04529 46.2976 8.82806 46.3078C9.02618 46.3102 9.21897 46.244 9.37326 46.1206C9.6766 45.9236 10.1289 45.7419 10.4163 45.4791C10.9543 45.9994 11.5311 46.4784 12.1419 46.9121C11.5294 47.4046 11.6456 48.1521 12.1749 48.6595C12.5787 49.1516 12.8794 49.6558 13.554 49.73C14.0412 49.7836 14.534 49.7942 15.0232 49.8123C15.9204 49.8015 16.9352 50.1877 17.6912 49.5279C20.7509 50.4913 23.9745 51.0382 27.1702 51.3182C27.2166 51.4162 27.263 51.5129 27.3077 51.6117C26.9616 51.6929 26.6399 51.8543 26.3688 52.0828C26.0977 52.3112 25.885 52.6003 25.7481 52.9261C25.5149 53.4959 25.2928 54.6426 25.9691 54.9937C26.5458 55.4555 27.8281 55.4143 28.4016 55.2289C29.0617 55.1932 29.5526 54.5295 29.7047 53.8665C31.8159 54.484 34.06 54.6754 36.2457 54.7958C36.6323 54.8171 36.7191 54.3637 36.5109 54.1405C36.0778 53.0791 35.5479 52.0594 34.9276 51.094C37.8856 50.5957 40.7077 49.4946 43.2163 47.8601C42.9172 48.5211 42.3177 49.5586 42.7646 50.2601C43.506 50.8414 44.7044 51.5526 45.6087 50.9858C45.2638 52.0687 46.1969 53.159 47.2024 53.4486C47.6738 53.7048 48.3044 53.6269 48.8301 53.6444C49.4982 53.6664 50.1818 53.7119 50.8485 53.6549C51.9889 53.5574 52.69 52.9542 53.353 52.0767C53.3961 52.029 53.4277 51.9723 53.4455 51.9107C53.4633 51.8492 53.4668 51.7845 53.4558 51.7214C53.2637 50.8475 52.9121 48.7801 52.0448 48.406C51.3458 48.1496 50.4537 48.1535 49.7169 48.0472C48.7425 47.9111 47.41 47.3387 46.7925 48.4373C46.3799 47.7068 45.5597 47.1319 44.8801 46.6582C45.4881 46.1706 46.0572 45.6371 46.5822 45.0622C47.5486 46.7431 49.3818 47.0612 51.1656 47.0394C52.5169 47.0185 53.7561 46.9786 54.1806 45.4654C54.56 44.8549 55.4778 43.9511 55.3373 43.2208C54.7141 42.1314 53.6026 41.2294 52.6693 40.3984C53.6022 39.4652 52.7181 37.8179 52.1705 36.8876C51.7049 36.0962 50.6723 36.4874 49.8482 37.0028C50.1926 30.115 46.8728 21.9205 40.0857 19.2482C40.0882 19.0025 40.0226 18.7609 39.896 18.5498C39.8993 18.534 39.9009 18.5179 39.9007 18.5018C40.3264 17.9143 40.3571 16.9143 39.5924 16.6146C42.4536 14.1216 45.5664 11.4909 45.8641 7.55289C46.44 4.02777 45.161 1.99115 41.377 2.26441C38.6424 2.44262 36.4073 4.07616 34.228 5.56731C33.4528 6.07822 32.6936 6.61563 31.734 6.54052C31.4643 6.16162 31.3492 5.471 30.7684 5.51616C30.1005 5.64887 29.562 6.20943 29.0218 6.59512C28.7326 5.90231 27.8038 5.70624 27.1997 5.35499C26.3058 4.69524 25.3357 5.10766 24.4219 5.48528C23.9791 5.6453 23.5403 5.8166 23.105 5.9947C22.6752 5.52123 21.8255 5.42192 21.2308 5.26963C20.4753 5.07632 19.6823 4.78107 18.9027 4.73072C18.818 4.7308 18.7357 4.75842 18.6683 4.80938C18.6009 4.86033 18.5522 4.9318 18.5296 5.01285C18.4406 5.53805 18.3392 6.11716 18.285 6.69972C15.8513 6.01348 12.949 5.30246 10.8208 7.01468C9.30401 8.19663 8.79419 10.4544 10.0049 12.0615C11.8479 15.0779 15.1856 16.7386 18.3587 18.051C17.9335 18.6377 18.1364 19.6582 18.6396 20.2942C18.3612 21.1297 17.2768 21.3285 16.6668 21.8901C10.9388 26.1866 4.87896 32.2208 7.15987 39.986C5.74792 40.9698 4.47208 42.1334 3.36504 43.4469C2.81706 44.1054 4.75345 45.1572 5.16327 45.5901ZM52.0588 51.5042C52.2188 51.3429 52.3524 51.1577 52.4547 50.9553C52.5211 51.2168 52.5769 51.4806 52.6266 51.746C52.3233 52.1484 51.9741 52.5611 51.4898 52.745C51.3679 52.5137 51.2636 52.2736 51.1776 52.0269C51.51 51.927 51.8126 51.7475 52.0588 51.5042ZM50.6784 52.6234C50.7074 52.7097 50.7364 52.8031 50.7737 52.8927C49.759 52.9288 48.7431 52.8947 47.7332 52.7908C47.9009 52.5015 48.08 52.2231 48.2181 51.9196C48.9764 52.0744 49.7692 52.1961 50.5462 52.1453C50.5781 52.3078 50.6225 52.4676 50.6788 52.6234H50.6784ZM47.1172 49.4027C47.3343 49.1183 47.4724 48.677 47.8559 48.581C48.4359 48.5905 49.0613 48.7944 49.6481 48.8418C50.6332 49.4264 50.6359 50.9123 49.4424 51.1667C49.1571 51.2348 48.8299 51.1437 48.5589 51.2345C47.6236 51.1673 46.8059 50.33 47.1172 49.4027ZM49.0537 41.7024C49.4808 41.0657 50.0568 40.7054 50.707 40.3489C52.2008 40.7735 52.3741 42.2048 51.4893 43.3144C50.8196 44.1817 49.7287 44.3349 48.7735 43.9175C48.2908 43.23 48.6313 42.3318 49.0537 41.7024ZM48.6626 45.5585C48.7702 45.3731 48.8935 45.1869 48.9847 44.9901C50.0044 45.1922 51.0843 45.4279 52.0715 45.0528C52.1873 45.4364 52.3629 45.7997 52.5917 46.1295C51.1908 46.368 49.807 46.3104 48.4959 45.8381C48.553 45.7451 48.6083 45.6515 48.6626 45.5579V45.5585ZM47.7505 43.5404C47.8682 43.9531 48.0289 44.3395 48.3189 44.6302C48.1724 44.9005 48.0731 45.1936 47.932 45.4643C47.6134 45.1685 47.3243 44.8429 47.0687 44.4919C47.3131 44.187 47.5407 43.8692 47.7505 43.5399V43.5404ZM8.11408 45.4176C7.49801 45.337 6.91557 45.3636 6.31492 45.2429C6.45412 44.7638 6.56107 44.2803 6.69888 43.8015C7.29802 43.8578 7.88487 43.9772 8.48354 44.0347C8.77992 44.552 8.60453 45.1761 8.11408 45.4176ZM16.5674 47.2173C16.4533 47.3454 16.3486 47.4814 16.2541 47.6244C15.6277 47.562 14.9976 47.5421 14.3685 47.5651C14.2101 47.3762 14.0382 47.1988 13.8542 47.0344C13.6508 46.8408 13.2907 47.092 13.4529 47.3419C13.5581 47.5094 13.661 47.676 13.7748 47.8389C13.567 48.132 13.3521 48.4302 13.1716 48.7438C12.8689 48.4449 12.4181 47.874 12.5329 47.5705C12.5982 47.3977 12.9548 47.1673 13.0915 47.0377C13.2491 46.8886 13.4116 46.6921 13.6379 46.646C14.7057 46.718 15.7976 46.7043 16.8643 46.8101C16.7675 46.9475 16.6685 47.0833 16.5674 47.2173ZM17.7074 48.6663C17.4177 48.4181 17.1492 48.1463 16.9049 47.8539C17.0601 47.6052 17.1987 47.3661 17.337 47.1121C17.5506 47.3089 18.0264 47.6794 18.1429 47.9953C18.0464 48.2467 17.8981 48.4752 17.7074 48.6663ZM28.014 54.3436C27.9471 54.3996 27.8766 54.4512 27.803 54.4982C27.5632 54.4994 27.2851 54.5296 27.0533 54.4302C27.2203 54.1756 27.4338 53.9634 27.5999 53.7102C27.7428 53.4944 27.4512 53.1867 27.2316 53.3445C26.9603 53.5586 26.7248 53.814 26.5341 54.1013C26.0458 53.5322 26.6742 52.6712 27.2429 52.447C27.7608 52.9397 28.4135 53.6007 28.014 54.3436ZM28.7055 52.5801C28.0619 51.647 27.702 50.5269 27.1859 49.5181C28.093 50.5006 29.0543 51.4324 30.0652 52.3092C29.6177 52.4166 29.1423 52.4458 28.7056 52.5801H28.7055ZM31.6809 49.7588C31.6733 49.8568 31.6624 49.9475 31.6499 50.0353C30.6675 49.5737 29.6844 49.1137 28.6788 48.7035C28.4047 48.5915 28.2231 49.0376 28.4785 49.1758C29.2427 49.6523 30.1671 49.8882 30.8465 50.481C31.4977 51.0685 30.8705 51.7367 30.1399 51.4497C28.9848 50.3482 27.9229 49.174 26.8208 48.0205C28.447 48.1817 30.0938 48.2624 31.7132 48.4589C31.7013 48.8918 31.7144 49.3259 31.681 49.7588H31.6809ZM35.2835 53.2509C35.3724 53.4208 35.4599 53.5916 35.5459 53.7634C34.9486 53.63 34.3527 53.4855 33.7711 53.2979C32.4835 52.3147 32.3508 50.4832 32.4095 48.9695C33.2067 49.8954 33.922 50.888 34.5473 51.9361C34.132 51.6217 33.7155 51.3046 33.2758 51.0273C33.0322 50.874 32.7507 51.2303 32.966 51.4259C33.6842 52.0778 34.5796 52.5808 35.2836 53.2509H35.2835ZM45.1103 47.8457C45.7171 48.3548 45.2805 49.3318 44.8694 49.8387C44.2728 50.3361 43.4555 49.685 43.5771 48.9552C43.8062 48.3735 44.0995 47.8188 44.4518 47.3014C44.6864 47.464 44.9068 47.6461 45.1104 47.8457H45.1103ZM37.9581 9.77718C38.1554 9.66858 38.3542 9.56244 38.5545 9.45876L40.8165 10.4889C40.4946 10.6642 40.1013 10.7384 39.8728 11.0397C39.6895 11.7518 40.686 11.2432 40.9931 11.1335C40.98 11.2748 40.9689 11.4161 40.9598 11.5575C40.2914 11.8304 39.5912 12.0191 38.8755 12.1192C39.0289 11.7588 39.6437 11.3348 39.3163 10.9372C38.891 10.588 38.4358 10.0972 37.9434 9.78524C37.9482 9.78294 37.9532 9.77983 37.9581 9.77718ZM37.5446 10.3735C37.8755 10.6882 38.2262 10.9819 38.5945 11.2528C38.4032 11.5389 38.2097 11.8164 38.0125 12.1004C37.2368 12.0031 37.5092 10.9203 37.5446 10.3735ZM35.771 7.45947C35.1439 7.88571 34.4964 8.26126 33.9241 8.75742C33.6736 8.97239 33.9926 9.33342 34.2635 9.19415C35.1228 8.72321 35.9397 8.20585 36.7946 7.71959C36.6703 8.69211 36.5515 9.66532 36.4383 10.6392C35.5498 10.419 34.6185 9.99271 33.7293 9.83938C33.4106 9.76738 33.1666 10.2414 33.4948 10.3923C33.6413 10.4596 33.7937 10.5267 33.9484 10.5934C33.9528 10.6011 33.9567 10.6091 33.96 10.6173C33.4176 11.2484 32.4868 11.7018 31.6658 11.365C32.2168 10.7199 32.7712 10.0957 33.3064 9.45404C33.4412 9.23862 33.4045 9.17986 33.3401 8.92032C33.2378 8.50744 33.1516 8.08408 33.0362 7.67339C33.9478 7.60166 34.8594 7.53035 35.771 7.45947ZM32.4877 8.04814C32.5467 8.41213 32.6261 8.77261 32.7252 9.12791C32.4584 9.41902 32.1768 9.70944 31.8978 10.0047C31.4526 10.1853 31.211 10.3042 30.7129 10.4655C31.3478 9.69838 31.9218 8.86433 32.4877 8.04814ZM29.0993 8.0827C29.25 8.34474 29.4183 8.59637 29.6032 8.83588C29.8098 9.09796 30.1382 8.76284 30.0288 8.50974C29.8251 8.08315 29.591 7.6715 29.3284 7.27791C29.7292 6.95823 30.1572 6.60007 30.6346 6.42232C30.6686 6.45722 30.7094 6.48489 30.7545 6.50365C31.5522 7.88294 30.4655 10.0115 28.9994 10.3919C29.0539 9.62373 29.0872 8.85392 29.0993 8.0827ZM22.3554 7.17262C23.5359 6.62359 24.7594 6.17105 26.0139 5.81948C26.311 5.77916 26.5287 5.94366 26.778 6.0743C27.241 6.36599 27.9438 6.49363 28.2345 6.97885C27.9983 7.46557 27.6184 7.85437 27.2159 8.21598C26.8292 7.9395 26.4976 7.70323 26.1319 7.40071C26.2394 7.33061 26.343 7.25482 26.4423 7.17366C26.7462 6.92505 26.3577 6.54962 26.0568 6.6776C25.3717 6.96883 24.7176 7.27307 23.9749 7.39253C23.8339 7.37502 22.2321 7.77604 22.3554 7.17227V7.17262ZM25.209 10.0031C25.8202 9.88552 26.4039 9.65542 26.9299 9.32467C26.9136 9.78634 27.0295 10.2431 27.2639 10.6421C26.4521 10.6429 25.6419 10.7135 24.8423 10.8529C24.8022 10.6571 24.6508 10.5066 24.5316 10.3437C24.0084 9.73697 24.1682 8.85834 24.1239 8.11242C24.5819 8.04951 25.0301 7.92953 25.4579 7.7553C25.8085 8.10839 26.2003 8.34201 26.5493 8.6792C26.0432 8.9672 25.5017 9.16466 24.9519 9.39621C24.5789 9.55265 24.8652 10.0626 25.2091 10.0027L25.209 10.0031ZM22.018 8.05252C22.4854 8.20757 23.0666 8.19951 23.4999 8.17394C23.434 8.59625 23.4166 9.0246 23.4479 9.45081C22.5027 9.56521 21.9641 9.0877 21.9719 8.12417C21.9847 8.09878 22.0002 8.07477 22.018 8.05252ZM22.0203 10.2528C22.545 10.298 23.0729 10.2908 23.5961 10.2314C23.6825 10.5121 23.8162 10.7762 23.9916 11.0125C23.7126 11.0701 23.4342 11.1317 23.1564 11.1975C22.6935 10.9087 22.2509 10.589 21.8317 10.2406C21.8988 10.2448 21.9626 10.2485 22.0203 10.2528ZM19.2036 5.64034C20.0405 5.90093 20.9016 6.03997 21.7364 6.28834C21.7604 6.37044 21.7915 6.45034 21.8292 6.52715C21.6365 6.64915 21.3583 6.70502 21.227 6.87275C20.9412 7.32284 20.8027 7.8561 20.6535 8.39892C19.1269 8.10113 18.9409 6.98116 19.2036 5.64034ZM17.8573 10.226C17.9584 9.91219 18.0712 9.60288 18.1917 9.29621C18.9895 9.33065 19.7813 9.45015 20.5533 9.65264C20.6256 10.4549 21.4963 10.986 22.0932 11.4635C21.3617 11.6547 20.6325 11.8565 19.9008 12.045C19.7944 11.8526 19.5871 11.7139 19.4298 11.5612C19.7372 11.4752 20.0345 11.3568 20.3166 11.2081C20.6538 11.0265 20.4226 10.5027 20.0583 10.5995C19.2793 10.8376 18.4716 11.0334 17.6555 10.9095C17.7352 10.6877 17.7843 10.4526 17.8573 10.226ZM16.1153 10.6775C15.792 10.5072 15.4789 10.3305 15.1673 10.1475C15.7927 10.0602 16.421 10.1433 17.0443 10.1968C17.0078 10.3548 16.9376 10.5003 16.8955 10.6604C16.5524 11.2699 16.1726 12.0215 16.6537 12.6851C15.2143 12.7453 15.2248 11.776 14.8253 10.7048C15.1501 10.9297 15.5127 11.0953 15.8961 11.1938C16.2002 11.2687 16.409 10.8321 16.1153 10.6775ZM17.335 16.7551C15.2579 15.8128 13.1822 14.6716 11.6679 12.9386C16.102 14.766 21.1297 12.0381 25.7442 11.4879C28.5301 11.0872 31.1736 12.1193 33.8642 12.6443C37.6093 13.4417 41.9557 12.9602 44.5478 9.88316C43.726 12.1033 41.7391 13.6643 39.9658 15.3148C38.641 16.4869 37.263 17.6593 35.56 18.2384C32.4219 19.3739 33.9877 17.064 35.5054 16.0976C36.1406 15.6599 36.8365 15.3579 37.5378 15.0439C37.9023 14.8807 37.6358 14.3421 37.2753 14.4254C33.7594 15.1218 32.6311 19.4734 28.9156 19.2638C29.2756 18.8066 29.5281 18.2752 29.6546 17.7086C29.6716 17.6389 29.6632 17.5654 29.6307 17.5013C29.5982 17.4373 29.5438 17.3868 29.4772 17.3589C29.4106 17.331 29.3363 17.3276 29.2674 17.3492C29.1985 17.3708 29.1396 17.4161 29.1013 17.4769C28.7569 18.0875 28.5097 18.7918 27.9681 19.2635C27.2081 19.2571 26.4177 19.0638 25.8755 18.5075C25.2214 17.489 24.5268 16.5952 23.8258 15.6413C23.6293 15.3835 23.4045 14.9781 23.1097 14.8205C22.5098 14.4998 22.1149 15.1316 22.1121 15.6594C22.1088 16.0167 22.2032 16.3681 22.3853 16.6763C22.5673 16.9844 22.8303 17.2377 23.1459 17.4091C23.4602 17.5859 23.837 17.1448 23.5446 16.896C23.1916 16.6044 22.9687 16.1863 22.9244 15.7324C23.7777 16.8118 24.5752 17.9334 25.314 19.0931C22.4878 18.8281 19.8715 17.926 17.335 16.7551ZM22.7174 30.3166C21.9993 30.4444 20.5357 29.6397 21.2094 28.8453C21.7614 29.3174 22.4383 29.6222 23.1596 29.7234C23.3227 30.0518 23.054 30.2656 22.717 30.3166H22.7174ZM21.9977 32.9405C21.4598 32.4891 21.3868 31.573 21.5466 30.8845C21.904 31.0527 22.2964 31.1344 22.6917 31.1227C22.8006 31.4011 22.8716 31.6926 22.9028 31.9897C22.932 32.4467 22.68 33.5134 21.9972 32.9405H21.9977ZM21.6363 20.2474C20.9878 20.0109 20.3688 19.7015 19.7912 19.3251C19.7364 19.1321 19.7296 18.9287 19.7715 18.7326C20.3496 18.9407 20.939 19.1163 21.537 19.2585C21.5013 19.5914 21.5351 19.928 21.6363 20.2474ZM22.7403 23.4022C22.3956 23.1894 22.1229 22.879 21.9572 22.511C21.9941 22.0825 22.0332 21.6556 22.0746 21.2302C22.3615 21.3013 22.6425 21.3941 22.9151 21.508C22.7824 22.1176 22.7659 22.7844 22.7403 23.4022ZM22.783 28.8452C22.4669 28.7505 22.1664 28.6104 21.8911 28.4294C21.8346 27.8858 21.8009 27.3392 21.7867 26.7907C22.0211 27.0598 22.3593 27.3552 22.7162 27.4661C22.733 27.9261 22.746 28.3864 22.783 28.8452ZM22.7064 24.2087C22.6798 25.0144 22.6759 25.8205 22.6948 26.627C21.5187 26.0224 21.8083 24.654 21.8742 23.5728C22.0975 23.8468 22.3826 24.0646 22.7064 24.2087ZM23.0506 20.6703C22.9125 20.6371 22.7749 20.6011 22.6376 20.5642C22.3128 20.2713 22.2734 19.8248 22.2262 19.4149C23.1848 19.6161 24.1377 19.7803 25.1077 19.8959C25.1567 20.3448 25.3508 20.7658 25.6611 21.0959C24.7823 21.0123 23.9101 20.8701 23.0506 20.6703ZM24.1466 26.4593C23.8424 26.316 23.6286 26.0137 23.5016 25.72C23.5094 25.4027 23.5214 25.0852 23.5445 24.77C23.8207 25.058 23.9517 25.4274 24.1449 25.7811C24.1459 26.0102 24.1444 26.2289 24.1466 26.4593ZM23.4787 26.851C23.6737 27.0414 23.9085 27.1869 24.1664 27.2772C24.1857 27.8082 24.2401 28.3373 24.3294 28.8612C23.3076 28.8506 23.5132 27.5487 23.4784 26.8505L23.4787 26.851ZM24.3965 31.1495C24.0949 31.1862 23.7632 31.0524 23.6555 30.7571C23.863 30.5677 23.9998 30.3141 24.0436 30.0376C24.442 30.1025 24.9496 29.66 25.2207 30.1052C25.4736 30.6371 24.9142 31.1416 24.3965 31.1491V31.1495ZM24.7368 33.4204C24.3204 34.0091 23.7711 33.5932 23.5384 33.0994C23.6945 32.7301 23.7682 32.3316 23.7545 31.9313C24.0743 32.0415 24.4194 32.0575 24.7481 31.9774C24.8879 32.4612 25.0773 32.938 24.7368 33.4196V33.4204ZM24.9135 22.678C24.642 22.4328 24.4727 22.1182 24.6305 21.7825C25.7729 21.9597 26.9248 22.0698 28.0802 22.1123C28.0937 22.5103 28.3238 22.9582 28.546 23.2741C27.3159 23.2168 26.0967 23.0165 24.9135 22.6775V22.678ZM27.6878 21.2454C26.8456 21.3352 26.106 20.7501 25.8516 19.9757C26.9678 20.0794 28.0889 20.12 29.2097 20.0973C29.2752 20.5757 29.609 21.022 29.9336 21.2918C29.1825 21.3019 28.4316 21.2829 27.6878 21.245V21.2454ZM32.6813 21.8962C32.7441 22.2987 32.944 22.6676 33.2477 22.9413C32.0546 23.1772 30.8412 23.2968 29.6247 23.2984C29.2308 23.0164 28.9549 22.6006 28.8492 22.13C30.1306 22.1454 31.4114 22.0671 32.6813 21.8958V21.8962ZM31.7059 21.2039C30.9995 21.1518 30.1831 20.8061 29.9725 20.0755C31.1753 20.0316 32.3731 19.8986 33.556 19.6778C33.6956 20.1261 33.9972 20.5073 34.4028 20.748C33.518 20.9731 32.616 21.1254 31.7059 21.2034V21.2039ZM34.318 19.5165C35.3299 19.286 36.3153 18.9534 37.2591 18.5238C37.5112 18.8019 37.8504 18.9873 38.2219 19.0499C37.457 19.6302 36.4891 20.0535 35.6758 20.3533C35.0757 20.4574 34.5587 20.0173 34.318 19.5161V19.5165ZM36.6777 20.8147C36.8791 21.0887 37.1535 21.3015 37.47 21.4291C36.4556 21.9852 35.3756 22.4141 34.2548 22.706C33.8692 22.5059 33.5008 22.1905 33.4312 21.7804C34.549 21.591 35.6392 21.2665 36.6777 20.8143V20.8147ZM37.3402 20.4958C38.0258 20.1511 38.6682 19.7274 39.2542 19.2336C39.3839 19.8397 38.7816 20.5079 38.2836 20.8896C37.9309 20.8785 37.5949 20.7381 37.3404 20.4954L37.3402 20.4958ZM39.086 18.1856C39.0338 18.2592 38.977 18.3305 38.9178 18.4007C38.5389 18.4596 38.1486 18.4339 37.8756 18.2136C38.2607 18.0242 38.5948 17.7482 38.9572 17.5264C39.1476 17.4148 39.2233 17.2621 39.3269 17.4963C39.4239 17.7156 39.2061 18.0158 39.086 18.1852V18.1856ZM8.60117 31.8023C11.0611 27.2509 13.4203 25.4515 16.4353 23.0524C17.8041 21.9876 19.6926 20.5136 21.2249 22.1042C21.0104 24.0759 20.9683 26.0623 21.099 28.0412C19.9288 28.2415 20.0717 29.9096 20.8885 30.4681C20.049 31.923 21.291 34.0906 22.9541 34.2019C23.271 35.106 24.4956 35.4815 25.3521 34.9968C26.4914 34.3121 26.5081 32.7932 26.3255 31.602C27.1607 30.8878 26.7585 29.6805 26.2776 28.8792C25.4975 27.5378 25.8069 26.1159 26.1274 24.7015C26.977 24.6844 27.8242 24.9771 28.6597 25.1369C29.8005 25.3545 30.9603 25.4592 32.1219 25.4494C32.7901 27.3387 32.9832 29.3421 33.0223 31.3333C33.0359 31.729 33.5835 31.7098 33.6277 31.3333C33.8526 29.4159 33.5637 27.3104 32.902 25.4262C34.191 25.3558 35.469 25.1505 36.7146 24.8137C37.1236 25.1902 37.4265 25.6491 37.8001 26.055C37.9105 26.4538 38.4905 26.2739 38.4244 25.8746C38.3345 25.3759 38.1633 24.895 37.9175 24.451C39.0863 24.0584 40.373 23.5011 41.5608 24.1363C43.7792 25.4807 44.8346 28.0929 45.5164 30.4735C48.1938 39.2593 43.7022 48.3483 34.3706 50.2656C33.7285 49.5012 32.8424 47.8668 31.8341 47.7217C29.8531 47.4742 27.8547 47.3961 25.8733 47.1508C25.5446 47.1108 25.4365 47.5005 25.5369 47.7326C25.9343 48.6484 26.3442 49.5588 26.7665 50.4639C23.9647 50.2091 21.1936 49.6908 18.4904 48.9159C19.3765 48.3469 18.8219 47.4915 18.2352 46.9542C17.8047 46.5217 17.4812 46.1011 16.8417 46.0542C15.8334 45.9805 14.8117 45.9349 13.8016 45.9102C13.3465 45.8987 13.0455 46.0792 12.7529 46.3344C8.0504 43.3337 6.1248 36.8057 8.60105 31.8015L8.60117 31.8023ZM7.41797 41.9859C7.54541 42.385 7.70886 42.7718 7.90633 43.1416C7.5902 43.092 7.27113 43.063 6.95118 43.0549C7.09131 42.6922 7.25 42.337 7.41739 41.9852L7.41797 41.9859ZM7.04967 41.0655C6.73101 41.7077 6.40007 42.3741 6.13767 43.0585C5.65641 43.0666 5.1763 43.1079 4.70078 43.1819C5.42087 42.4106 6.20654 41.7022 7.04909 41.0648L7.04967 41.0655ZM5.8928 43.7768C5.7757 44.1702 5.69798 44.5741 5.6608 44.9826C5.29853 44.6797 4.80483 44.3072 4.41832 43.9564C4.90634 43.8712 5.3985 43.8112 5.8928 43.7768Z" fill="#F5B700"/>
</svg>
