<svg width="53" height="54" viewBox="0 0 53 54" fill="none" xmlns="http://www.w3.org/2000/svg">
<mask id="path-1-inside-1_137_95" fill="white">
<path d="M2.16327 43.5901C2.50721 43.9766 2.96994 44.0557 3.46166 44.0617C4.23991 44.1434 5.04529 44.2976 5.82806 44.3078C6.02618 44.3102 6.21897 44.244 6.37326 44.1206C6.6766 43.9236 7.12889 43.7419 7.41633 43.4792C7.95428 43.9994 8.53114 44.4784 9.14195 44.9121C8.52935 45.4046 8.64559 46.1521 9.17489 46.6595C9.57869 47.1516 9.87936 47.6558 10.554 47.73C11.0412 47.7836 11.534 47.7942 12.0232 47.8123C12.9204 47.8015 13.9352 48.1877 14.6912 47.5279C17.7509 48.4913 20.9745 49.0382 24.1702 49.3182C24.2166 49.4162 24.263 49.5129 24.3077 49.6117C23.9616 49.6929 23.6399 49.8543 23.3688 50.0828C23.0977 50.3112 22.885 50.6003 22.7481 50.9261C22.5149 51.4959 22.2928 52.6426 22.9691 52.9937C23.5458 53.4555 24.8281 53.4143 25.4016 53.2289C26.0617 53.1932 26.5526 52.5295 26.7047 51.8665C28.8159 52.484 31.06 52.6754 33.2457 52.7958C33.6323 52.8171 33.7191 52.3637 33.5109 52.1405C33.0778 51.0791 32.5479 50.0594 31.9276 49.094C34.8856 48.5957 37.7077 47.4946 40.2163 45.8601C39.9172 46.5211 39.3177 47.5586 39.7646 48.2601C40.506 48.8414 41.7044 49.5526 42.6086 48.9858C42.2638 50.0687 43.1969 51.159 44.2024 51.4486C44.6738 51.7048 45.3044 51.6269 45.8301 51.6444C46.4982 51.6664 47.1818 51.7119 47.8485 51.6549C48.9889 51.5574 49.69 50.9542 50.353 50.0767C50.3961 50.029 50.4277 49.9723 50.4455 49.9107C50.4633 49.8492 50.4668 49.7845 50.4558 49.7214C50.2637 48.8475 49.9121 46.7801 49.0448 46.406C48.3458 46.1496 47.4537 46.1535 46.7169 46.0472C45.7425 45.9111 44.41 45.3387 43.7925 46.4373C43.3799 45.7068 42.5597 45.1319 41.8801 44.6582C42.4881 44.1706 43.0572 43.6371 43.5822 43.0622C44.5486 44.7431 46.3818 45.0612 48.1656 45.0394C49.5169 45.0185 50.7561 44.9786 51.1806 43.4654C51.56 42.8549 52.4778 41.9511 52.3373 41.2208C51.7141 40.1314 50.6026 39.2294 49.6693 38.3984C50.6022 37.4652 49.7181 35.8179 49.1705 34.8876C48.7049 34.0962 47.6723 34.4874 46.8482 35.0028C47.1926 28.115 43.8728 19.9205 37.0857 17.2482C37.0882 17.0025 37.0226 16.7609 36.896 16.5498C36.8993 16.534 36.9009 16.5179 36.9008 16.5018C37.3264 15.9143 37.3571 14.9143 36.5924 14.6146C39.4536 12.1216 42.5664 9.49089 42.8641 5.55289C43.44 2.02777 42.161 -0.00884729 38.377 0.264407C35.6424 0.442622 33.4073 2.07616 31.228 3.56731C30.4528 4.07822 29.6936 4.61563 28.734 4.54052C28.4643 4.16162 28.3492 3.471 27.7684 3.51616C27.1005 3.64887 26.562 4.20943 26.0218 4.59512C25.7326 3.90231 24.8038 3.70624 24.1997 3.35499C23.3058 2.69524 22.3357 3.10766 21.4219 3.48528C20.9791 3.6453 20.5403 3.8166 20.105 3.9947C19.6752 3.52123 18.8255 3.42192 18.2308 3.26963C17.4753 3.07632 16.6823 2.78107 15.9027 2.73072C15.818 2.7308 15.7357 2.75843 15.6683 2.80938C15.6009 2.86033 15.5522 2.9318 15.5296 3.01285C15.4406 3.53805 15.3392 4.11716 15.285 4.69972C12.8513 4.01348 9.94896 3.30246 7.82082 5.01468C6.30401 6.19663 5.79419 8.45444 7.00488 10.0615C8.84789 13.0779 12.1856 14.7386 15.3587 16.051C14.9335 16.6377 15.1364 17.6582 15.6396 18.2942C15.3612 19.1297 14.2768 19.3285 13.6668 19.8901C7.9388 24.1866 1.87896 30.2208 4.15987 37.986C2.74792 38.9698 1.47208 40.1334 0.365041 41.4469C-0.182943 42.1054 1.75345 43.1572 2.16327 43.5901ZM49.0588 49.5042C49.2188 49.3429 49.3524 49.1577 49.4547 48.9553C49.5211 49.2168 49.5769 49.4806 49.6266 49.746C49.3233 50.1484 48.9741 50.5611 48.4898 50.745C48.3679 50.5137 48.2636 50.2736 48.1776 50.0269C48.51 49.927 48.8126 49.7475 49.0588 49.5042ZM47.6784 50.6234C47.7074 50.7097 47.7364 50.8031 47.7737 50.8927C46.759 50.9288 45.7431 50.8947 44.7332 50.7908C44.9009 50.5015 45.08 50.2231 45.2181 49.9196C45.9764 50.0744 46.7692 50.1961 47.5462 50.1453C47.5781 50.3078 47.6225 50.4676 47.6788 50.6234H47.6784ZM44.1172 47.4027C44.3343 47.1183 44.4724 46.677 44.8559 46.581C45.4359 46.5905 46.0613 46.7944 46.6481 46.8418C47.6332 47.4264 47.6359 48.9123 46.4424 49.1667C46.1571 49.2348 45.8299 49.1436 45.5589 49.2345C44.6236 49.1673 43.8059 48.33 44.1172 47.4027ZM46.0537 39.7024C46.4808 39.0657 47.0568 38.7054 47.707 38.3489C49.2008 38.7735 49.3741 40.2048 48.4893 41.3144C47.8196 42.1817 46.7287 42.3349 45.7735 41.9175C45.2908 41.23 45.6313 40.3318 46.0537 39.7024ZM45.6626 43.5585C45.7702 43.3731 45.8935 43.1869 45.9847 42.9901C47.0044 43.1922 48.0843 43.4279 49.0715 43.0528C49.1873 43.4364 49.3629 43.7997 49.5917 44.1295C48.1908 44.368 46.807 44.3104 45.4959 43.8381C45.553 43.7451 45.6083 43.6515 45.6626 43.5579V43.5585ZM44.7505 41.5404C44.8682 41.9531 45.0289 42.3395 45.3189 42.6302C45.1724 42.9005 45.0731 43.1936 44.932 43.4643C44.6134 43.1685 44.3243 42.8429 44.0687 42.4919C44.3131 42.187 44.5407 41.8692 44.7505 41.5399V41.5404ZM5.11408 43.4176C4.49801 43.337 3.91557 43.3636 3.31492 43.2429C3.45412 42.7638 3.56107 42.2803 3.69888 41.8015C4.29802 41.8578 4.88487 41.9772 5.48354 42.0347C5.77992 42.552 5.60453 43.1761 5.11408 43.4176ZM13.5674 45.2173C13.4533 45.3454 13.3486 45.4814 13.2541 45.6244C12.6277 45.562 11.9976 45.5421 11.3685 45.5651C11.2101 45.3762 11.0382 45.1988 10.8542 45.0344C10.6508 44.8408 10.2907 45.092 10.4529 45.3419C10.5581 45.5094 10.661 45.676 10.7748 45.8389C10.567 46.132 10.3521 46.4302 10.1716 46.7438C9.86892 46.4449 9.41815 45.874 9.53287 45.5705C9.59818 45.3977 9.95476 45.1673 10.0915 45.0377C10.2491 44.8886 10.4116 44.6921 10.6379 44.646C11.7057 44.718 12.7976 44.7043 13.8643 44.8101C13.7675 44.9475 13.6685 45.0833 13.5674 45.2173ZM14.7074 46.6663C14.4177 46.4181 14.1492 46.1463 13.9049 45.8539C14.0601 45.6052 14.1987 45.3661 14.337 45.1121C14.5506 45.3089 15.0264 45.6794 15.1429 45.9953C15.0464 46.2467 14.8981 46.4752 14.7074 46.6663ZM25.014 52.3436C24.9471 52.3996 24.8766 52.4512 24.803 52.4982C24.5632 52.4994 24.2851 52.5296 24.0533 52.4302C24.2203 52.1756 24.4338 51.9634 24.5999 51.7102C24.7428 51.4944 24.4512 51.1867 24.2316 51.3445C23.9603 51.5586 23.7248 51.814 23.5341 52.1013C23.0458 51.5322 23.6742 50.6712 24.2429 50.447C24.7608 50.9397 25.4135 51.6007 25.014 52.3436ZM25.7055 50.5801C25.0619 49.647 24.702 48.5269 24.1859 47.5181C25.093 48.5006 26.0543 49.4324 27.0652 50.3092C26.6177 50.4166 26.1423 50.4458 25.7056 50.5801H25.7055ZM28.6809 47.7588C28.6733 47.8567 28.6624 47.9475 28.6499 48.0353C27.6675 47.5737 26.6844 47.1137 25.6788 46.7035C25.4047 46.5915 25.2231 47.0376 25.4785 47.1758C26.2427 47.6523 27.1671 47.8882 27.8465 48.481C28.4977 49.0685 27.8705 49.7367 27.1399 49.4497C25.9848 48.3482 24.9229 47.174 23.8208 46.0205C25.447 46.1817 27.0938 46.2624 28.7132 46.4589C28.7013 46.8918 28.7144 47.3259 28.681 47.7588H28.6809ZM32.2835 51.2509C32.3724 51.4208 32.4599 51.5916 32.5459 51.7634C31.9486 51.63 31.3527 51.4856 30.7711 51.2979C29.4835 50.3147 29.3508 48.4832 29.4095 46.9695C30.2067 47.8954 30.922 48.888 31.5474 49.9361C31.132 49.6217 30.7155 49.3046 30.2758 49.0273C30.0322 48.874 29.7507 49.2303 29.966 49.4259C30.6842 50.0778 31.5796 50.5808 32.2836 51.2509H32.2835ZM42.1103 45.8457C42.7171 46.3548 42.2805 47.3318 41.8694 47.8387C41.2728 48.3361 40.4555 47.685 40.5771 46.9552C40.8062 46.3735 41.0995 45.8188 41.4518 45.3014C41.6864 45.464 41.9068 45.6461 42.1104 45.8457H42.1103ZM34.9581 7.77718C35.1554 7.66858 35.3542 7.56244 35.5545 7.45876L37.8165 8.48888C37.4946 8.66422 37.1013 8.7384 36.8728 9.03965C36.6895 9.75182 37.686 9.24321 37.9931 9.13354C37.98 9.27477 37.9689 9.41609 37.9598 9.55748C37.2914 9.83044 36.5912 10.0191 35.8755 10.1192C36.0289 9.75885 36.6437 9.33479 36.3163 8.93724C35.891 8.58795 35.4358 8.0972 34.9434 7.78524C34.9482 7.78294 34.9532 7.77983 34.9581 7.77718ZM34.5446 8.37345C34.8755 8.68825 35.2262 8.98194 35.5945 9.25277C35.4032 9.53893 35.2097 9.81645 35.0125 10.1004C34.2368 10.0031 34.5092 8.9203 34.5446 8.37345ZM32.771 5.45947C32.1439 5.88571 31.4964 6.26126 30.9241 6.75742C30.6736 6.97239 30.9926 7.33342 31.2635 7.19415C32.1228 6.72321 32.9397 6.20585 33.7946 5.71959C33.6703 6.69211 33.5515 7.66532 33.4383 8.63922C32.5498 8.41895 31.6185 7.99271 30.7293 7.83938C30.4106 7.76738 30.1666 8.24143 30.4948 8.39234C30.6413 8.45962 30.7937 8.52667 30.9484 8.59337C30.9528 8.60109 30.9567 8.6091 30.96 8.61733C30.4176 9.24839 29.4868 9.70182 28.6658 9.36498C29.2168 8.71986 29.7712 8.0957 30.3064 7.45404C30.4412 7.23861 30.4045 7.17986 30.3401 6.92032C30.2378 6.50744 30.1516 6.08408 30.0362 5.67339C30.9478 5.60166 31.8594 5.53035 32.771 5.45947ZM29.4877 6.04814C29.5467 6.41213 29.6261 6.77261 29.7252 7.12791C29.4584 7.41902 29.1768 7.70944 28.8978 8.0047C28.4526 8.18533 28.211 8.30422 27.7129 8.4655C28.3478 7.69838 28.9218 6.86433 29.4877 6.04814ZM26.0993 6.0827C26.25 6.34474 26.4183 6.59637 26.6032 6.83588C26.8098 7.09796 27.1382 6.76284 27.0288 6.50974C26.8251 6.08315 26.591 5.6715 26.3284 5.27791C26.7292 4.95823 27.1572 4.60007 27.6346 4.42232C27.6686 4.45722 27.7094 4.48489 27.7545 4.50365C28.5522 5.88294 27.4655 8.01149 25.9994 8.39188C26.0539 7.62373 26.0872 6.85392 26.0993 6.0827ZM19.3554 5.17262C20.5359 4.62359 21.7594 4.17105 23.0139 3.81948C23.311 3.77916 23.5287 3.94366 23.778 4.0743C24.241 4.36599 24.9438 4.49363 25.2345 4.97885C24.9983 5.46557 24.6184 5.85437 24.2159 6.21598C23.8292 5.9395 23.4976 5.70323 23.1319 5.40071C23.2394 5.33061 23.343 5.25482 23.4423 5.17365C23.7462 4.92505 23.3578 4.54962 23.0568 4.6776C22.3718 4.96883 21.7176 5.27307 20.9749 5.39253C20.8339 5.37502 19.2321 5.77604 19.3554 5.17227V5.17262ZM22.209 8.00308C22.8202 7.88552 23.4039 7.65542 23.9299 7.32467C23.9136 7.78634 24.0295 8.24312 24.2639 8.6421C23.4521 8.64294 22.6419 8.71347 21.8423 8.85291C21.8022 8.65707 21.6508 8.50662 21.5316 8.34373C21.0084 7.73697 21.1682 6.85834 21.1239 6.11242C21.5819 6.04951 22.0301 5.92953 22.4579 5.7553C22.8085 6.10839 23.2003 6.34201 23.5493 6.6792C23.0432 6.9672 22.5017 7.16466 21.9519 7.39621C21.5789 7.55265 21.8652 8.06264 22.2091 8.00274L22.209 8.00308ZM19.018 6.05252C19.4854 6.20757 20.0666 6.19951 20.4999 6.17394C20.434 6.59625 20.4166 7.0246 20.4479 7.45081C19.5027 7.56521 18.9641 7.0877 18.9719 6.12417C18.9847 6.09878 19.0002 6.07477 19.018 6.05252ZM19.0203 8.25284C19.545 8.29802 20.0729 8.29084 20.5961 8.23141C20.6825 8.51209 20.8162 8.77619 20.9916 9.01246C20.7126 9.07006 20.4342 9.13173 20.1564 9.19748C19.6935 8.90867 19.2509 8.58898 18.8317 8.24062C18.8988 8.24477 18.9626 8.24846 19.0203 8.25284ZM16.2036 3.64034C17.0405 3.90093 17.9016 4.03997 18.7364 4.28834C18.7604 4.37044 18.7915 4.45034 18.8292 4.52715C18.6365 4.64915 18.3583 4.70502 18.227 4.87275C17.9412 5.32284 17.8027 5.8561 17.6534 6.39892C16.1269 6.10113 15.9409 4.98116 16.2036 3.64034ZM14.8573 8.22599C14.9584 7.91219 15.0712 7.60288 15.1917 7.29621C15.9895 7.33065 16.7813 7.45015 17.5533 7.65264C17.6256 8.4549 18.4963 8.98597 19.0932 9.46347C18.3617 9.65471 17.6325 9.85654 16.9008 10.045C16.7944 9.85262 16.5871 9.71392 16.4298 9.56116C16.7372 9.47519 17.0345 9.35682 17.3166 9.20807C17.6538 9.02652 17.4226 8.50271 17.0583 8.59947C16.2793 8.83759 15.4716 9.03343 14.6555 8.90948C14.7352 8.68772 14.7843 8.45259 14.8573 8.22599ZM13.1153 8.67746C12.792 8.5072 12.4789 8.33048 12.1673 8.14754C12.7927 8.06022 13.421 8.14328 14.0443 8.19685C14.0078 8.35479 13.9376 8.50029 13.8955 8.66041C13.5524 9.26994 13.1726 10.0215 13.6537 10.6851C12.2143 10.7453 12.2248 9.77601 11.8253 8.70477C12.1501 8.92972 12.5127 9.09532 12.8961 9.19379C13.2002 9.26867 13.409 8.83206 13.1153 8.67746ZM14.335 14.7551C12.2579 13.8128 10.1822 12.6716 8.66786 10.9386C13.102 12.766 18.1297 10.0381 22.7442 9.4879C25.5301 9.08723 28.1736 10.1193 30.8642 10.6443C34.6093 11.4417 38.9557 10.9602 41.5478 7.88316C40.726 10.1033 38.7391 11.6643 36.9658 13.3148C35.641 14.4869 34.263 15.6593 32.56 16.2384C29.4219 17.3739 30.9877 15.064 32.5054 14.0976C33.1406 13.6599 33.8365 13.3579 34.5378 13.0439C34.9023 12.8807 34.6359 12.3421 34.2753 12.4254C30.7594 13.1218 29.6311 17.4734 25.9156 17.2638C26.2756 16.8066 26.5281 16.2752 26.6546 15.7086C26.6717 15.6389 26.6632 15.5654 26.6307 15.5013C26.5982 15.4373 26.5438 15.3868 26.4772 15.3589C26.4106 15.331 26.3363 15.3276 26.2674 15.3492C26.1985 15.3708 26.1396 15.4161 26.1013 15.4769C25.7569 16.0875 25.5097 16.7918 24.9681 17.2635C24.2081 17.2571 23.4177 17.0638 22.8755 16.5075C22.2214 15.489 21.5268 14.5952 20.8258 13.6413C20.6293 13.3835 20.4045 12.9781 20.1097 12.8205C19.5098 12.4998 19.1149 13.1316 19.1121 13.6594C19.1088 14.0167 19.2032 14.3681 19.3853 14.6763C19.5673 14.9844 19.8303 15.2377 20.1459 15.4091C20.4602 15.5859 20.837 15.1448 20.5446 14.896C20.1916 14.6044 19.9687 14.1863 19.9244 13.7324C20.7777 14.8118 21.5752 15.9334 22.314 17.0931C19.4878 16.8281 16.8715 15.926 14.335 14.7551ZM19.7174 28.3166C18.9993 28.4444 17.5357 27.6397 18.2094 26.8453C18.7614 27.3174 19.4383 27.6222 20.1596 27.7234C20.3227 28.0518 20.054 28.2656 19.717 28.3166H19.7174ZM18.9977 30.9406C18.4598 30.4891 18.3868 29.573 18.5466 28.8845C18.904 29.0527 19.2964 29.1344 19.6917 29.1227C19.8006 29.4011 19.8716 29.6927 19.9028 29.9897C19.932 30.4467 19.68 31.5134 18.9972 30.9406H18.9977ZM18.6363 18.2474C17.9878 18.0109 17.3688 17.7015 16.7912 17.3251C16.7364 17.1321 16.7296 16.9287 16.7715 16.7326C17.3496 16.9407 17.939 17.1163 18.537 17.2585C18.5013 17.5914 18.5351 17.928 18.6363 18.2474ZM19.7403 21.4022C19.3956 21.1894 19.1229 20.879 18.9572 20.511C18.9941 20.0825 19.0332 19.6556 19.0746 19.2302C19.3615 19.3013 19.6425 19.3942 19.9151 19.508C19.7824 20.1176 19.7659 20.7844 19.7403 21.4022ZM19.783 26.8452C19.4669 26.7505 19.1664 26.6104 18.8911 26.4294C18.8346 25.8858 18.8009 25.3392 18.7867 24.7907C19.0211 25.0598 19.3593 25.3552 19.7162 25.4661C19.733 25.9261 19.746 26.3864 19.783 26.8452ZM19.7064 22.2087C19.6798 23.0144 19.6759 23.8205 19.6948 24.627C18.5187 24.0224 18.8083 22.654 18.8742 21.5728C19.0975 21.8468 19.3826 22.0646 19.7064 22.2087ZM20.0506 18.6703C19.9126 18.6371 19.7749 18.6011 19.6376 18.5642C19.3128 18.2713 19.2734 17.8248 19.2262 17.4149C20.1848 17.6161 21.1377 17.7803 22.1077 17.8959C22.1567 18.3448 22.3508 18.7658 22.6611 19.0959C21.7823 19.0123 20.9101 18.8701 20.0506 18.6703ZM21.1466 24.4593C20.8424 24.316 20.6286 24.0137 20.5016 23.72C20.5094 23.4027 20.5214 23.0852 20.5445 22.77C20.8207 23.058 20.9517 23.4274 21.1449 23.7811C21.1459 24.0102 21.1444 24.2289 21.1466 24.4593ZM20.4787 24.851C20.6737 25.0414 20.9085 25.1869 21.1664 25.2772C21.1857 25.8082 21.2401 26.3373 21.3294 26.8612C20.3076 26.8506 20.5132 25.5487 20.4784 24.8505L20.4787 24.851ZM21.3965 29.1495C21.0949 29.1862 20.7632 29.0524 20.6555 28.7571C20.863 28.5677 20.9998 28.3141 21.0436 28.0376C21.442 28.1025 21.9496 27.66 22.2207 28.1053C22.4736 28.6371 21.9142 29.1416 21.3965 29.1491V29.1495ZM21.7368 31.4204C21.3204 32.0091 20.7711 31.5932 20.5384 31.0994C20.6945 30.7301 20.7682 30.3316 20.7545 29.9313C21.0743 30.0415 21.4194 30.0575 21.7481 29.9774C21.8879 30.4612 22.0773 30.938 21.7368 31.4196V31.4204ZM21.9136 20.678C21.642 20.4328 21.4727 20.1182 21.6305 19.7825C22.7729 19.9597 23.9248 20.0698 25.0802 20.1123C25.0937 20.5103 25.3238 20.9582 25.546 21.2741C24.3159 21.2168 23.0967 21.0165 21.9136 20.6775V20.678ZM24.6878 19.2454C23.8456 19.3352 23.106 18.7501 22.8516 17.9757C23.9678 18.0794 25.0889 18.12 26.2097 18.0973C26.2751 18.5757 26.609 19.022 26.9336 19.2918C26.1825 19.3019 25.4316 19.2829 24.6878 19.245V19.2454ZM29.6813 19.8962C29.7441 20.2987 29.944 20.6676 30.2477 20.9413C29.0546 21.1772 27.8412 21.2968 26.6247 21.2984C26.2308 21.0164 25.9549 20.6006 25.8492 20.13C27.1306 20.1454 28.4114 20.0671 29.6813 19.8958V19.8962ZM28.7059 19.2039C27.9995 19.1518 27.1831 18.8061 26.9725 18.0755C28.1753 18.0316 29.3731 17.8986 30.556 17.6778C30.6956 18.1261 30.9973 18.5073 31.4028 18.748C30.518 18.9731 29.616 19.1254 28.7059 19.2034V19.2039ZM31.318 17.5165C32.3299 17.286 33.3153 16.9534 34.2591 16.5238C34.5112 16.8019 34.8504 16.9873 35.2219 17.0499C34.457 17.6302 33.4891 18.0535 32.6758 18.3533C32.0757 18.4574 31.5587 18.0173 31.318 17.5161V17.5165ZM33.6777 18.8147C33.8791 19.0887 34.1535 19.3015 34.47 19.4291C33.4556 19.9852 32.3756 20.4141 31.2548 20.706C30.8692 20.5059 30.5008 20.1906 30.4312 19.7804C31.549 19.591 32.6392 19.2665 33.6777 18.8143V18.8147ZM34.3402 18.4958C35.0258 18.1511 35.6682 17.7274 36.2542 17.2336C36.3839 17.8397 35.7816 18.5079 35.2836 18.8896C34.9309 18.8785 34.5949 18.7381 34.3404 18.4954L34.3402 18.4958ZM36.086 16.1856C36.0338 16.2592 35.977 16.3305 35.9178 16.4007C35.5389 16.4596 35.1486 16.4339 34.8756 16.2136C35.2607 16.0242 35.5948 15.7482 35.9572 15.5264C36.1476 15.4148 36.2233 15.2621 36.3269 15.4963C36.4239 15.7156 36.2061 16.0158 36.086 16.1852V16.1856ZM5.60117 29.8023C8.06106 25.2509 10.4203 23.4515 13.4353 21.0524C14.8041 19.9876 16.6926 18.5136 18.2249 20.1042C18.0104 22.0759 17.9683 24.0623 18.099 26.0412C16.9288 26.2415 17.0717 27.9096 17.8885 28.4681C17.049 29.923 18.291 32.0906 19.9541 32.2019C20.271 33.106 21.4956 33.4815 22.3521 32.9968C23.4914 32.3121 23.5081 30.7932 23.3255 29.602C24.1607 28.8878 23.7585 27.6805 23.2776 26.8792C22.4975 25.5378 22.8069 24.1159 23.1274 22.7014C23.977 22.6844 24.8242 22.9771 25.6597 23.1369C26.8005 23.3545 27.9603 23.4592 29.1219 23.4494C29.7901 25.3387 29.9832 27.3421 30.0223 29.3333C30.0359 29.729 30.5835 29.7098 30.6277 29.3333C30.8526 27.4159 30.5637 25.3104 29.902 23.4262C31.191 23.3558 32.469 23.1505 33.7146 22.8137C34.1236 23.1902 34.4265 23.6491 34.8001 24.055C34.9105 24.4538 35.4905 24.2739 35.4244 23.8746C35.3345 23.3759 35.1633 22.895 34.9175 22.451C36.0863 22.0584 37.373 21.5011 38.5608 22.1363C40.7792 23.4807 41.8346 26.0929 42.5164 28.4735C45.1938 37.2593 40.7022 46.3483 31.3706 48.2656C30.7285 47.5012 29.8424 45.8668 28.8341 45.7217C26.8531 45.4742 24.8547 45.3961 22.8733 45.1508C22.5446 45.1108 22.4365 45.5004 22.5369 45.7326C22.9343 46.6484 23.3442 47.5588 23.7665 48.4639C20.9647 48.2091 18.1936 47.6908 15.4904 46.9159C16.3765 46.3469 15.8219 45.4915 15.2352 44.9542C14.8047 44.5217 14.4812 44.1011 13.8417 44.0542C12.8334 43.9805 11.8117 43.9349 10.8016 43.9102C10.3465 43.8987 10.0455 44.0792 9.75292 44.3344C5.0504 41.3337 3.1248 34.8057 5.60105 29.8015L5.60117 29.8023ZM4.41797 39.9859C4.54541 40.385 4.70886 40.7718 4.90633 41.1416C4.5902 41.092 4.27113 41.063 3.95118 41.0549C4.09131 40.6922 4.25 40.337 4.41739 39.9852L4.41797 39.9859ZM4.04967 39.0655C3.73101 39.7077 3.40007 40.374 3.13767 41.0585C2.65641 41.0666 2.1763 41.1079 1.70078 41.1819C2.42087 40.4106 3.20654 39.7022 4.04909 39.0648L4.04967 39.0655ZM2.8928 41.7768C2.7757 42.1702 2.69798 42.5741 2.6608 42.9826C2.29853 42.6797 1.80483 42.3072 1.41832 41.9564C1.90634 41.8712 2.3985 41.8112 2.8928 41.7768Z"/>
</mask>
<path d="M2.16327 43.5901C2.50721 43.9766 2.96994 44.0557 3.46166 44.0617C4.23991 44.1434 5.04529 44.2976 5.82806 44.3078C6.02618 44.3102 6.21897 44.244 6.37326 44.1206C6.6766 43.9236 7.12889 43.7419 7.41633 43.4792C7.95428 43.9994 8.53114 44.4784 9.14195 44.9121C8.52935 45.4046 8.64559 46.1521 9.17489 46.6595C9.57869 47.1516 9.87936 47.6558 10.554 47.73C11.0412 47.7836 11.534 47.7942 12.0232 47.8123C12.9204 47.8015 13.9352 48.1877 14.6912 47.5279C17.7509 48.4913 20.9745 49.0382 24.1702 49.3182C24.2166 49.4162 24.263 49.5129 24.3077 49.6117C23.9616 49.6929 23.6399 49.8543 23.3688 50.0828C23.0977 50.3112 22.885 50.6003 22.7481 50.9261C22.5149 51.4959 22.2928 52.6426 22.9691 52.9937C23.5458 53.4555 24.8281 53.4143 25.4016 53.2289C26.0617 53.1932 26.5526 52.5295 26.7047 51.8665C28.8159 52.484 31.06 52.6754 33.2457 52.7958C33.6323 52.8171 33.7191 52.3637 33.5109 52.1405C33.0778 51.0791 32.5479 50.0594 31.9276 49.094C34.8856 48.5957 37.7077 47.4946 40.2163 45.8601C39.9172 46.5211 39.3177 47.5586 39.7646 48.2601C40.506 48.8414 41.7044 49.5526 42.6086 48.9858C42.2638 50.0687 43.1969 51.159 44.2024 51.4486C44.6738 51.7048 45.3044 51.6269 45.8301 51.6444C46.4982 51.6664 47.1818 51.7119 47.8485 51.6549C48.9889 51.5574 49.69 50.9542 50.353 50.0767C50.3961 50.029 50.4277 49.9723 50.4455 49.9107C50.4633 49.8492 50.4668 49.7845 50.4558 49.7214C50.2637 48.8475 49.9121 46.7801 49.0448 46.406C48.3458 46.1496 47.4537 46.1535 46.7169 46.0472C45.7425 45.9111 44.41 45.3387 43.7925 46.4373C43.3799 45.7068 42.5597 45.1319 41.8801 44.6582C42.4881 44.1706 43.0572 43.6371 43.5822 43.0622C44.5486 44.7431 46.3818 45.0612 48.1656 45.0394C49.5169 45.0185 50.7561 44.9786 51.1806 43.4654C51.56 42.8549 52.4778 41.9511 52.3373 41.2208C51.7141 40.1314 50.6026 39.2294 49.6693 38.3984C50.6022 37.4652 49.7181 35.8179 49.1705 34.8876C48.7049 34.0962 47.6723 34.4874 46.8482 35.0028C47.1926 28.115 43.8728 19.9205 37.0857 17.2482C37.0882 17.0025 37.0226 16.7609 36.896 16.5498C36.8993 16.534 36.9009 16.5179 36.9008 16.5018C37.3264 15.9143 37.3571 14.9143 36.5924 14.6146C39.4536 12.1216 42.5664 9.49089 42.8641 5.55289C43.44 2.02777 42.161 -0.00884729 38.377 0.264407C35.6424 0.442622 33.4073 2.07616 31.228 3.56731C30.4528 4.07822 29.6936 4.61563 28.734 4.54052C28.4643 4.16162 28.3492 3.471 27.7684 3.51616C27.1005 3.64887 26.562 4.20943 26.0218 4.59512C25.7326 3.90231 24.8038 3.70624 24.1997 3.35499C23.3058 2.69524 22.3357 3.10766 21.4219 3.48528C20.9791 3.6453 20.5403 3.8166 20.105 3.9947C19.6752 3.52123 18.8255 3.42192 18.2308 3.26963C17.4753 3.07632 16.6823 2.78107 15.9027 2.73072C15.818 2.7308 15.7357 2.75843 15.6683 2.80938C15.6009 2.86033 15.5522 2.9318 15.5296 3.01285C15.4406 3.53805 15.3392 4.11716 15.285 4.69972C12.8513 4.01348 9.94896 3.30246 7.82082 5.01468C6.30401 6.19663 5.79419 8.45444 7.00488 10.0615C8.84789 13.0779 12.1856 14.7386 15.3587 16.051C14.9335 16.6377 15.1364 17.6582 15.6396 18.2942C15.3612 19.1297 14.2768 19.3285 13.6668 19.8901C7.9388 24.1866 1.87896 30.2208 4.15987 37.986C2.74792 38.9698 1.47208 40.1334 0.365041 41.4469C-0.182943 42.1054 1.75345 43.1572 2.16327 43.5901ZM49.0588 49.5042C49.2188 49.3429 49.3524 49.1577 49.4547 48.9553C49.5211 49.2168 49.5769 49.4806 49.6266 49.746C49.3233 50.1484 48.9741 50.5611 48.4898 50.745C48.3679 50.5137 48.2636 50.2736 48.1776 50.0269C48.51 49.927 48.8126 49.7475 49.0588 49.5042ZM47.6784 50.6234C47.7074 50.7097 47.7364 50.8031 47.7737 50.8927C46.759 50.9288 45.7431 50.8947 44.7332 50.7908C44.9009 50.5015 45.08 50.2231 45.2181 49.9196C45.9764 50.0744 46.7692 50.1961 47.5462 50.1453C47.5781 50.3078 47.6225 50.4676 47.6788 50.6234H47.6784ZM44.1172 47.4027C44.3343 47.1183 44.4724 46.677 44.8559 46.581C45.4359 46.5905 46.0613 46.7944 46.6481 46.8418C47.6332 47.4264 47.6359 48.9123 46.4424 49.1667C46.1571 49.2348 45.8299 49.1436 45.5589 49.2345C44.6236 49.1673 43.8059 48.33 44.1172 47.4027ZM46.0537 39.7024C46.4808 39.0657 47.0568 38.7054 47.707 38.3489C49.2008 38.7735 49.3741 40.2048 48.4893 41.3144C47.8196 42.1817 46.7287 42.3349 45.7735 41.9175C45.2908 41.23 45.6313 40.3318 46.0537 39.7024ZM45.6626 43.5585C45.7702 43.3731 45.8935 43.1869 45.9847 42.9901C47.0044 43.1922 48.0843 43.4279 49.0715 43.0528C49.1873 43.4364 49.3629 43.7997 49.5917 44.1295C48.1908 44.368 46.807 44.3104 45.4959 43.8381C45.553 43.7451 45.6083 43.6515 45.6626 43.5579V43.5585ZM44.7505 41.5404C44.8682 41.9531 45.0289 42.3395 45.3189 42.6302C45.1724 42.9005 45.0731 43.1936 44.932 43.4643C44.6134 43.1685 44.3243 42.8429 44.0687 42.4919C44.3131 42.187 44.5407 41.8692 44.7505 41.5399V41.5404ZM5.11408 43.4176C4.49801 43.337 3.91557 43.3636 3.31492 43.2429C3.45412 42.7638 3.56107 42.2803 3.69888 41.8015C4.29802 41.8578 4.88487 41.9772 5.48354 42.0347C5.77992 42.552 5.60453 43.1761 5.11408 43.4176ZM13.5674 45.2173C13.4533 45.3454 13.3486 45.4814 13.2541 45.6244C12.6277 45.562 11.9976 45.5421 11.3685 45.5651C11.2101 45.3762 11.0382 45.1988 10.8542 45.0344C10.6508 44.8408 10.2907 45.092 10.4529 45.3419C10.5581 45.5094 10.661 45.676 10.7748 45.8389C10.567 46.132 10.3521 46.4302 10.1716 46.7438C9.86892 46.4449 9.41815 45.874 9.53287 45.5705C9.59818 45.3977 9.95476 45.1673 10.0915 45.0377C10.2491 44.8886 10.4116 44.6921 10.6379 44.646C11.7057 44.718 12.7976 44.7043 13.8643 44.8101C13.7675 44.9475 13.6685 45.0833 13.5674 45.2173ZM14.7074 46.6663C14.4177 46.4181 14.1492 46.1463 13.9049 45.8539C14.0601 45.6052 14.1987 45.3661 14.337 45.1121C14.5506 45.3089 15.0264 45.6794 15.1429 45.9953C15.0464 46.2467 14.8981 46.4752 14.7074 46.6663ZM25.014 52.3436C24.9471 52.3996 24.8766 52.4512 24.803 52.4982C24.5632 52.4994 24.2851 52.5296 24.0533 52.4302C24.2203 52.1756 24.4338 51.9634 24.5999 51.7102C24.7428 51.4944 24.4512 51.1867 24.2316 51.3445C23.9603 51.5586 23.7248 51.814 23.5341 52.1013C23.0458 51.5322 23.6742 50.6712 24.2429 50.447C24.7608 50.9397 25.4135 51.6007 25.014 52.3436ZM25.7055 50.5801C25.0619 49.647 24.702 48.5269 24.1859 47.5181C25.093 48.5006 26.0543 49.4324 27.0652 50.3092C26.6177 50.4166 26.1423 50.4458 25.7056 50.5801H25.7055ZM28.6809 47.7588C28.6733 47.8567 28.6624 47.9475 28.6499 48.0353C27.6675 47.5737 26.6844 47.1137 25.6788 46.7035C25.4047 46.5915 25.2231 47.0376 25.4785 47.1758C26.2427 47.6523 27.1671 47.8882 27.8465 48.481C28.4977 49.0685 27.8705 49.7367 27.1399 49.4497C25.9848 48.3482 24.9229 47.174 23.8208 46.0205C25.447 46.1817 27.0938 46.2624 28.7132 46.4589C28.7013 46.8918 28.7144 47.3259 28.681 47.7588H28.6809ZM32.2835 51.2509C32.3724 51.4208 32.4599 51.5916 32.5459 51.7634C31.9486 51.63 31.3527 51.4856 30.7711 51.2979C29.4835 50.3147 29.3508 48.4832 29.4095 46.9695C30.2067 47.8954 30.922 48.888 31.5474 49.9361C31.132 49.6217 30.7155 49.3046 30.2758 49.0273C30.0322 48.874 29.7507 49.2303 29.966 49.4259C30.6842 50.0778 31.5796 50.5808 32.2836 51.2509H32.2835ZM42.1103 45.8457C42.7171 46.3548 42.2805 47.3318 41.8694 47.8387C41.2728 48.3361 40.4555 47.685 40.5771 46.9552C40.8062 46.3735 41.0995 45.8188 41.4518 45.3014C41.6864 45.464 41.9068 45.6461 42.1104 45.8457H42.1103ZM34.9581 7.77718C35.1554 7.66858 35.3542 7.56244 35.5545 7.45876L37.8165 8.48888C37.4946 8.66422 37.1013 8.7384 36.8728 9.03965C36.6895 9.75182 37.686 9.24321 37.9931 9.13354C37.98 9.27477 37.9689 9.41609 37.9598 9.55748C37.2914 9.83044 36.5912 10.0191 35.8755 10.1192C36.0289 9.75885 36.6437 9.33479 36.3163 8.93724C35.891 8.58795 35.4358 8.0972 34.9434 7.78524C34.9482 7.78294 34.9532 7.77983 34.9581 7.77718ZM34.5446 8.37345C34.8755 8.68825 35.2262 8.98194 35.5945 9.25277C35.4032 9.53893 35.2097 9.81645 35.0125 10.1004C34.2368 10.0031 34.5092 8.9203 34.5446 8.37345ZM32.771 5.45947C32.1439 5.88571 31.4964 6.26126 30.9241 6.75742C30.6736 6.97239 30.9926 7.33342 31.2635 7.19415C32.1228 6.72321 32.9397 6.20585 33.7946 5.71959C33.6703 6.69211 33.5515 7.66532 33.4383 8.63922C32.5498 8.41895 31.6185 7.99271 30.7293 7.83938C30.4106 7.76738 30.1666 8.24143 30.4948 8.39234C30.6413 8.45962 30.7937 8.52667 30.9484 8.59337C30.9528 8.60109 30.9567 8.6091 30.96 8.61733C30.4176 9.24839 29.4868 9.70182 28.6658 9.36498C29.2168 8.71986 29.7712 8.0957 30.3064 7.45404C30.4412 7.23861 30.4045 7.17986 30.3401 6.92032C30.2378 6.50744 30.1516 6.08408 30.0362 5.67339C30.9478 5.60166 31.8594 5.53035 32.771 5.45947ZM29.4877 6.04814C29.5467 6.41213 29.6261 6.77261 29.7252 7.12791C29.4584 7.41902 29.1768 7.70944 28.8978 8.0047C28.4526 8.18533 28.211 8.30422 27.7129 8.4655C28.3478 7.69838 28.9218 6.86433 29.4877 6.04814ZM26.0993 6.0827C26.25 6.34474 26.4183 6.59637 26.6032 6.83588C26.8098 7.09796 27.1382 6.76284 27.0288 6.50974C26.8251 6.08315 26.591 5.6715 26.3284 5.27791C26.7292 4.95823 27.1572 4.60007 27.6346 4.42232C27.6686 4.45722 27.7094 4.48489 27.7545 4.50365C28.5522 5.88294 27.4655 8.01149 25.9994 8.39188C26.0539 7.62373 26.0872 6.85392 26.0993 6.0827ZM19.3554 5.17262C20.5359 4.62359 21.7594 4.17105 23.0139 3.81948C23.311 3.77916 23.5287 3.94366 23.778 4.0743C24.241 4.36599 24.9438 4.49363 25.2345 4.97885C24.9983 5.46557 24.6184 5.85437 24.2159 6.21598C23.8292 5.9395 23.4976 5.70323 23.1319 5.40071C23.2394 5.33061 23.343 5.25482 23.4423 5.17365C23.7462 4.92505 23.3578 4.54962 23.0568 4.6776C22.3718 4.96883 21.7176 5.27307 20.9749 5.39253C20.8339 5.37502 19.2321 5.77604 19.3554 5.17227V5.17262ZM22.209 8.00308C22.8202 7.88552 23.4039 7.65542 23.9299 7.32467C23.9136 7.78634 24.0295 8.24312 24.2639 8.6421C23.4521 8.64294 22.6419 8.71347 21.8423 8.85291C21.8022 8.65707 21.6508 8.50662 21.5316 8.34373C21.0084 7.73697 21.1682 6.85834 21.1239 6.11242C21.5819 6.04951 22.0301 5.92953 22.4579 5.7553C22.8085 6.10839 23.2003 6.34201 23.5493 6.6792C23.0432 6.9672 22.5017 7.16466 21.9519 7.39621C21.5789 7.55265 21.8652 8.06264 22.2091 8.00274L22.209 8.00308ZM19.018 6.05252C19.4854 6.20757 20.0666 6.19951 20.4999 6.17394C20.434 6.59625 20.4166 7.0246 20.4479 7.45081C19.5027 7.56521 18.9641 7.0877 18.9719 6.12417C18.9847 6.09878 19.0002 6.07477 19.018 6.05252ZM19.0203 8.25284C19.545 8.29802 20.0729 8.29084 20.5961 8.23141C20.6825 8.51209 20.8162 8.77619 20.9916 9.01246C20.7126 9.07006 20.4342 9.13173 20.1564 9.19748C19.6935 8.90867 19.2509 8.58898 18.8317 8.24062C18.8988 8.24477 18.9626 8.24846 19.0203 8.25284ZM16.2036 3.64034C17.0405 3.90093 17.9016 4.03997 18.7364 4.28834C18.7604 4.37044 18.7915 4.45034 18.8292 4.52715C18.6365 4.64915 18.3583 4.70502 18.227 4.87275C17.9412 5.32284 17.8027 5.8561 17.6534 6.39892C16.1269 6.10113 15.9409 4.98116 16.2036 3.64034ZM14.8573 8.22599C14.9584 7.91219 15.0712 7.60288 15.1917 7.29621C15.9895 7.33065 16.7813 7.45015 17.5533 7.65264C17.6256 8.4549 18.4963 8.98597 19.0932 9.46347C18.3617 9.65471 17.6325 9.85654 16.9008 10.045C16.7944 9.85262 16.5871 9.71392 16.4298 9.56116C16.7372 9.47519 17.0345 9.35682 17.3166 9.20807C17.6538 9.02652 17.4226 8.50271 17.0583 8.59947C16.2793 8.83759 15.4716 9.03343 14.6555 8.90948C14.7352 8.68772 14.7843 8.45259 14.8573 8.22599ZM13.1153 8.67746C12.792 8.5072 12.4789 8.33048 12.1673 8.14754C12.7927 8.06022 13.421 8.14328 14.0443 8.19685C14.0078 8.35479 13.9376 8.50029 13.8955 8.66041C13.5524 9.26994 13.1726 10.0215 13.6537 10.6851C12.2143 10.7453 12.2248 9.77601 11.8253 8.70477C12.1501 8.92972 12.5127 9.09532 12.8961 9.19379C13.2002 9.26867 13.409 8.83206 13.1153 8.67746ZM14.335 14.7551C12.2579 13.8128 10.1822 12.6716 8.66786 10.9386C13.102 12.766 18.1297 10.0381 22.7442 9.4879C25.5301 9.08723 28.1736 10.1193 30.8642 10.6443C34.6093 11.4417 38.9557 10.9602 41.5478 7.88316C40.726 10.1033 38.7391 11.6643 36.9658 13.3148C35.641 14.4869 34.263 15.6593 32.56 16.2384C29.4219 17.3739 30.9877 15.064 32.5054 14.0976C33.1406 13.6599 33.8365 13.3579 34.5378 13.0439C34.9023 12.8807 34.6359 12.3421 34.2753 12.4254C30.7594 13.1218 29.6311 17.4734 25.9156 17.2638C26.2756 16.8066 26.5281 16.2752 26.6546 15.7086C26.6717 15.6389 26.6632 15.5654 26.6307 15.5013C26.5982 15.4373 26.5438 15.3868 26.4772 15.3589C26.4106 15.331 26.3363 15.3276 26.2674 15.3492C26.1985 15.3708 26.1396 15.4161 26.1013 15.4769C25.7569 16.0875 25.5097 16.7918 24.9681 17.2635C24.2081 17.2571 23.4177 17.0638 22.8755 16.5075C22.2214 15.489 21.5268 14.5952 20.8258 13.6413C20.6293 13.3835 20.4045 12.9781 20.1097 12.8205C19.5098 12.4998 19.1149 13.1316 19.1121 13.6594C19.1088 14.0167 19.2032 14.3681 19.3853 14.6763C19.5673 14.9844 19.8303 15.2377 20.1459 15.4091C20.4602 15.5859 20.837 15.1448 20.5446 14.896C20.1916 14.6044 19.9687 14.1863 19.9244 13.7324C20.7777 14.8118 21.5752 15.9334 22.314 17.0931C19.4878 16.8281 16.8715 15.926 14.335 14.7551ZM19.7174 28.3166C18.9993 28.4444 17.5357 27.6397 18.2094 26.8453C18.7614 27.3174 19.4383 27.6222 20.1596 27.7234C20.3227 28.0518 20.054 28.2656 19.717 28.3166H19.7174ZM18.9977 30.9406C18.4598 30.4891 18.3868 29.573 18.5466 28.8845C18.904 29.0527 19.2964 29.1344 19.6917 29.1227C19.8006 29.4011 19.8716 29.6927 19.9028 29.9897C19.932 30.4467 19.68 31.5134 18.9972 30.9406H18.9977ZM18.6363 18.2474C17.9878 18.0109 17.3688 17.7015 16.7912 17.3251C16.7364 17.1321 16.7296 16.9287 16.7715 16.7326C17.3496 16.9407 17.939 17.1163 18.537 17.2585C18.5013 17.5914 18.5351 17.928 18.6363 18.2474ZM19.7403 21.4022C19.3956 21.1894 19.1229 20.879 18.9572 20.511C18.9941 20.0825 19.0332 19.6556 19.0746 19.2302C19.3615 19.3013 19.6425 19.3942 19.9151 19.508C19.7824 20.1176 19.7659 20.7844 19.7403 21.4022ZM19.783 26.8452C19.4669 26.7505 19.1664 26.6104 18.8911 26.4294C18.8346 25.8858 18.8009 25.3392 18.7867 24.7907C19.0211 25.0598 19.3593 25.3552 19.7162 25.4661C19.733 25.9261 19.746 26.3864 19.783 26.8452ZM19.7064 22.2087C19.6798 23.0144 19.6759 23.8205 19.6948 24.627C18.5187 24.0224 18.8083 22.654 18.8742 21.5728C19.0975 21.8468 19.3826 22.0646 19.7064 22.2087ZM20.0506 18.6703C19.9126 18.6371 19.7749 18.6011 19.6376 18.5642C19.3128 18.2713 19.2734 17.8248 19.2262 17.4149C20.1848 17.6161 21.1377 17.7803 22.1077 17.8959C22.1567 18.3448 22.3508 18.7658 22.6611 19.0959C21.7823 19.0123 20.9101 18.8701 20.0506 18.6703ZM21.1466 24.4593C20.8424 24.316 20.6286 24.0137 20.5016 23.72C20.5094 23.4027 20.5214 23.0852 20.5445 22.77C20.8207 23.058 20.9517 23.4274 21.1449 23.7811C21.1459 24.0102 21.1444 24.2289 21.1466 24.4593ZM20.4787 24.851C20.6737 25.0414 20.9085 25.1869 21.1664 25.2772C21.1857 25.8082 21.2401 26.3373 21.3294 26.8612C20.3076 26.8506 20.5132 25.5487 20.4784 24.8505L20.4787 24.851ZM21.3965 29.1495C21.0949 29.1862 20.7632 29.0524 20.6555 28.7571C20.863 28.5677 20.9998 28.3141 21.0436 28.0376C21.442 28.1025 21.9496 27.66 22.2207 28.1053C22.4736 28.6371 21.9142 29.1416 21.3965 29.1491V29.1495ZM21.7368 31.4204C21.3204 32.0091 20.7711 31.5932 20.5384 31.0994C20.6945 30.7301 20.7682 30.3316 20.7545 29.9313C21.0743 30.0415 21.4194 30.0575 21.7481 29.9774C21.8879 30.4612 22.0773 30.938 21.7368 31.4196V31.4204ZM21.9136 20.678C21.642 20.4328 21.4727 20.1182 21.6305 19.7825C22.7729 19.9597 23.9248 20.0698 25.0802 20.1123C25.0937 20.5103 25.3238 20.9582 25.546 21.2741C24.3159 21.2168 23.0967 21.0165 21.9136 20.6775V20.678ZM24.6878 19.2454C23.8456 19.3352 23.106 18.7501 22.8516 17.9757C23.9678 18.0794 25.0889 18.12 26.2097 18.0973C26.2751 18.5757 26.609 19.022 26.9336 19.2918C26.1825 19.3019 25.4316 19.2829 24.6878 19.245V19.2454ZM29.6813 19.8962C29.7441 20.2987 29.944 20.6676 30.2477 20.9413C29.0546 21.1772 27.8412 21.2968 26.6247 21.2984C26.2308 21.0164 25.9549 20.6006 25.8492 20.13C27.1306 20.1454 28.4114 20.0671 29.6813 19.8958V19.8962ZM28.7059 19.2039C27.9995 19.1518 27.1831 18.8061 26.9725 18.0755C28.1753 18.0316 29.3731 17.8986 30.556 17.6778C30.6956 18.1261 30.9973 18.5073 31.4028 18.748C30.518 18.9731 29.616 19.1254 28.7059 19.2034V19.2039ZM31.318 17.5165C32.3299 17.286 33.3153 16.9534 34.2591 16.5238C34.5112 16.8019 34.8504 16.9873 35.2219 17.0499C34.457 17.6302 33.4891 18.0535 32.6758 18.3533C32.0757 18.4574 31.5587 18.0173 31.318 17.5161V17.5165ZM33.6777 18.8147C33.8791 19.0887 34.1535 19.3015 34.47 19.4291C33.4556 19.9852 32.3756 20.4141 31.2548 20.706C30.8692 20.5059 30.5008 20.1906 30.4312 19.7804C31.549 19.591 32.6392 19.2665 33.6777 18.8143V18.8147ZM34.3402 18.4958C35.0258 18.1511 35.6682 17.7274 36.2542 17.2336C36.3839 17.8397 35.7816 18.5079 35.2836 18.8896C34.9309 18.8785 34.5949 18.7381 34.3404 18.4954L34.3402 18.4958ZM36.086 16.1856C36.0338 16.2592 35.977 16.3305 35.9178 16.4007C35.5389 16.4596 35.1486 16.4339 34.8756 16.2136C35.2607 16.0242 35.5948 15.7482 35.9572 15.5264C36.1476 15.4148 36.2233 15.2621 36.3269 15.4963C36.4239 15.7156 36.2061 16.0158 36.086 16.1852V16.1856ZM5.60117 29.8023C8.06106 25.2509 10.4203 23.4515 13.4353 21.0524C14.8041 19.9876 16.6926 18.5136 18.2249 20.1042C18.0104 22.0759 17.9683 24.0623 18.099 26.0412C16.9288 26.2415 17.0717 27.9096 17.8885 28.4681C17.049 29.923 18.291 32.0906 19.9541 32.2019C20.271 33.106 21.4956 33.4815 22.3521 32.9968C23.4914 32.3121 23.5081 30.7932 23.3255 29.602C24.1607 28.8878 23.7585 27.6805 23.2776 26.8792C22.4975 25.5378 22.8069 24.1159 23.1274 22.7014C23.977 22.6844 24.8242 22.9771 25.6597 23.1369C26.8005 23.3545 27.9603 23.4592 29.1219 23.4494C29.7901 25.3387 29.9832 27.3421 30.0223 29.3333C30.0359 29.729 30.5835 29.7098 30.6277 29.3333C30.8526 27.4159 30.5637 25.3104 29.902 23.4262C31.191 23.3558 32.469 23.1505 33.7146 22.8137C34.1236 23.1902 34.4265 23.6491 34.8001 24.055C34.9105 24.4538 35.4905 24.2739 35.4244 23.8746C35.3345 23.3759 35.1633 22.895 34.9175 22.451C36.0863 22.0584 37.373 21.5011 38.5608 22.1363C40.7792 23.4807 41.8346 26.0929 42.5164 28.4735C45.1938 37.2593 40.7022 46.3483 31.3706 48.2656C30.7285 47.5012 29.8424 45.8668 28.8341 45.7217C26.8531 45.4742 24.8547 45.3961 22.8733 45.1508C22.5446 45.1108 22.4365 45.5004 22.5369 45.7326C22.9343 46.6484 23.3442 47.5588 23.7665 48.4639C20.9647 48.2091 18.1936 47.6908 15.4904 46.9159C16.3765 46.3469 15.8219 45.4915 15.2352 44.9542C14.8047 44.5217 14.4812 44.1011 13.8417 44.0542C12.8334 43.9805 11.8117 43.9349 10.8016 43.9102C10.3465 43.8987 10.0455 44.0792 9.75292 44.3344C5.0504 41.3337 3.1248 34.8057 5.60105 29.8015L5.60117 29.8023ZM4.41797 39.9859C4.54541 40.385 4.70886 40.7718 4.90633 41.1416C4.5902 41.092 4.27113 41.063 3.95118 41.0549C4.09131 40.6922 4.25 40.337 4.41739 39.9852L4.41797 39.9859ZM4.04967 39.0655C3.73101 39.7077 3.40007 40.374 3.13767 41.0585C2.65641 41.0666 2.1763 41.1079 1.70078 41.1819C2.42087 40.4106 3.20654 39.7022 4.04909 39.0648L4.04967 39.0655ZM2.8928 41.7768C2.7757 42.1702 2.69798 42.5741 2.6608 42.9826C2.29853 42.6797 1.80483 42.3072 1.41832 41.9564C1.90634 41.8712 2.3985 41.8112 2.8928 41.7768Z" fill="#F5B700" stroke="black" stroke-width="2" mask="url(#path-1-inside-1_137_95)"/>
</svg>
