<svg width="68" height="120" viewBox="0 0 68 120" fill="none" xmlns="http://www.w3.org/2000/svg">
<path d="M65.7769 86.1629C66.2929 85.081 66.5509 83.9347 66.4219 82.6982C66.0865 79.6714 63.5065 74.8156 61.1974 70.9774C66.9895 61.0598 60.8491 51.4127 59.2624 49.1973C58.9657 43.543 54.6571 23.0509 52.4383 17.461C52.2706 17.036 51.9223 16.0184 52.2577 15.5934C52.8898 14.7948 55.5085 14.6789 57.0694 14.8979C57.7789 15.0009 58.4755 14.7047 58.9012 14.138C59.3269 13.5712 59.4043 12.8113 59.1076 12.1673C58.927 11.7938 54.67 2.82933 42.8278 0.279088C29.2183 -2.64467 14.3446 18.3626 14.2027 18.5816C11.5324 22.4584 7.57207 43.5172 6.56587 49.0299C5.18557 50.8975 -1.48373 60.8537 4.57927 71.0804C4.75987 71.3896 5.04367 71.6214 5.35327 71.776C3.18607 75.4725 0.928572 79.8646 0.618972 82.6724C0.477072 83.896 0.747972 85.0553 1.26397 86.1372C-0.116328 89.6405 -1.22573 94.7796 2.78617 98.1671C4.50187 99.6096 5.95957 100.55 7.18507 101.181C6.93997 102.92 6.70777 104.169 6.52717 104.71C6.34657 105.264 6.14017 105.753 5.94667 106.204C5.34037 107.673 4.70827 109.192 5.50807 110.802C6.25627 112.335 7.97197 113.314 11.6098 114.306C11.7517 114.344 11.9065 114.383 12.0871 114.409C11.8936 115.723 12.1903 117.062 12.9901 118.105C13.8028 119.161 14.9896 119.78 16.2538 119.78H24.484C25.6708 119.78 26.8189 119.226 27.6187 118.273C28.2766 117.474 28.6507 116.457 28.7152 115.388C30.7018 115.413 32.74 115.426 34.7911 115.426C35.5393 115.426 36.2875 115.426 37.0228 115.426C37.0873 116.47 37.4614 117.487 38.1064 118.273C38.9062 119.226 40.0414 119.78 41.2411 119.78H49.4713C50.7355 119.78 51.9352 119.174 52.735 118.105C53.4187 117.204 53.7541 116.07 53.7154 114.937C57.0565 114.718 59.3914 114.422 59.9461 114.048C61.3393 113.121 61.4038 112.296 59.5462 101.323C60.8362 100.704 62.3842 99.7256 64.2547 98.1542C68.2795 94.7668 67.1701 89.6276 65.7769 86.1243V86.1629ZM32.0692 52.6878C32.3401 52.3529 32.6884 52.3014 32.869 52.3014C33.0496 52.3014 33.4108 52.3529 33.6688 52.6878C36.1327 55.7919 37.1002 58.4838 36.2617 59.8748C35.6683 60.8537 33.8365 60.6734 33.4753 60.6348C33.0625 60.5832 32.6626 60.5832 32.2498 60.6348C31.8886 60.6863 30.0568 60.8537 29.4634 59.8748C28.6249 58.4709 29.5924 55.7919 32.0563 52.6878H32.0692ZM9.02977 52.2885C14.3188 54.3622 20.0851 55.4828 25.774 55.9336C24.8839 58.6384 25.3741 60.5832 26.161 61.8841C27.193 63.5972 29.1667 64.5632 31.5532 64.5632C31.9402 64.5632 32.3401 64.5374 32.7529 64.4859C32.8432 64.4859 32.9206 64.4859 32.998 64.4859C35.9134 64.8594 38.3773 63.8805 39.577 61.8841C40.3768 60.5704 40.867 58.5997 39.9253 55.8305C47.5879 55.1736 53.8831 53.6924 56.8114 52.5075C58.2949 54.9032 60.8878 60.184 59.2108 65.9027L58.1401 64.0995C57.6499 63.2752 56.6437 62.9403 55.7665 63.288C54.8764 63.6358 54.3862 64.576 54.5926 65.5163C54.6055 65.6064 56.1019 72.3556 54.1024 77.2628C53.638 76.0264 52.993 74.7641 52.1158 73.8496C51.5482 73.2572 50.6581 73.0897 49.9099 73.4246C49.1617 73.7724 48.7102 74.558 48.7876 75.3695C48.8521 76.0006 50.0647 90.6581 32.8561 98.4376C15.6475 90.6581 16.8601 76.0006 16.9246 75.3824C17.0149 74.558 16.5634 73.7724 15.8152 73.4246C15.5572 73.3087 15.2734 73.2443 15.0025 73.2443C14.4865 73.2443 13.9705 73.4504 13.5964 73.8496C12.7192 74.7641 12.0742 76.0264 11.6098 77.2628C9.61027 72.3684 11.0938 65.6064 11.1196 65.5163C11.326 64.5889 10.8358 63.6487 9.94567 63.288C9.05557 62.9403 8.04937 63.288 7.57207 64.0995L6.50137 65.9027C4.78567 60.0036 7.58497 54.5812 9.04267 52.2885H9.02977ZM7.71397 97.0594C7.01737 96.6086 6.20467 96.0161 5.27587 95.2304C3.72787 93.9296 3.62467 91.9203 4.12777 89.8209C5.49517 91.0573 7.00447 92.062 8.20417 92.7575C8.03647 94.2773 7.86877 95.7199 7.71397 97.0594ZM4.45027 83.1232C4.63087 81.5261 5.81767 78.9244 7.26247 76.2453C7.66237 77.9841 8.34607 79.6843 9.37807 81.1912C9.14587 83.6127 8.90077 86.0856 8.65567 88.4684C6.42397 86.9357 4.25677 84.8878 4.45027 83.1232ZM52.4125 111.163C50.6065 107.943 47.4976 106.346 43.5115 106.771C41.899 106.938 39.2803 107.84 37.8097 111.588C34.4944 111.627 31.0888 111.64 27.8896 111.588C26.419 107.84 23.7874 106.938 22.1749 106.758C18.3436 106.346 15.3121 107.801 13.4803 110.777C13.1578 110.712 12.8611 110.661 12.616 110.596C9.61027 109.772 9.04267 109.205 9.00397 109.205C9.00397 108.961 9.30067 108.226 9.51997 107.685C9.73927 107.157 9.98437 106.578 10.1908 105.934C10.9777 103.577 12.1774 92.384 13.0417 83.5998C13.0546 83.5998 13.0804 83.5998 13.0933 83.5998C13.4674 83.471 13.777 83.2263 13.9963 82.9172C15.6604 88.9579 20.098 97.0594 31.708 102.134C31.9531 102.237 32.224 102.302 32.482 102.302H33.2173C33.4882 102.302 33.7462 102.25 33.9913 102.134C45.6013 97.0465 50.0389 88.945 51.703 82.9172C51.9223 83.2263 52.2319 83.4581 52.606 83.5998C52.6576 83.6256 52.7221 83.6256 52.7737 83.6384C53.4703 88.7776 54.412 94.3675 55.2634 99.3649C56.0116 103.757 56.8501 108.639 57.0436 110.854C56.0116 110.97 54.3991 111.073 52.4125 111.176V111.163ZM56.347 81.1268C57.7015 79.1176 58.4239 76.7605 58.7464 74.455C60.6298 77.7136 62.3455 81.1526 62.5648 83.1104C62.7841 85.1068 59.9848 87.4638 57.4822 89.0352C57.0565 86.3433 56.6695 83.6513 56.3599 81.1268H56.347ZM61.7392 95.2304C60.5911 96.1964 59.6365 96.8662 58.8496 97.3428C58.6174 95.9904 58.3852 94.5865 58.1401 93.1439C59.4043 92.4484 61.249 91.3149 62.8873 89.8337C63.3904 91.9332 63.2872 93.9425 61.7392 95.2433V95.2304Z" fill="white"/>
</svg>
