<svg width="68" height="120" viewBox="0 0 68 120" fill="none" xmlns="http://www.w3.org/2000/svg">
<path d="M65.7769 86.1629C66.2929 85.081 66.5509 83.9347 66.4219 82.6982C66.0865 79.6714 63.5065 74.8156 61.1974 70.9774C66.9895 61.0598 60.8491 51.4127 59.2624 49.1973C58.9657 43.543 54.6571 23.0509 52.4383 17.461C52.2706 17.036 51.9223 16.0184 52.2577 15.5934C52.8898 14.7948 55.5085 14.6789 57.0694 14.8979C57.7789 15.0009 58.4755 14.7047 58.9012 14.138C59.3269 13.5712 59.4043 12.8113 59.1076 12.1673C58.927 11.7938 54.67 2.82933 42.8278 0.279088C29.2183 -2.64467 14.3446 18.3626 14.2027 18.5816C11.5324 22.4584 7.57207 43.5172 6.56587 49.0299C5.18557 50.8975 -1.48373 60.8537 4.57927 71.0804C4.75987 71.3896 5.04367 71.6214 5.35327 71.776C3.18607 75.4725 0.928572 79.8646 0.618972 82.6724C0.477072 83.896 0.747972 85.0553 1.26397 86.1372C-0.116328 89.6405 -1.22573 94.7796 2.78617 98.1671C4.50187 99.6096 5.95957 100.55 7.18507 101.181C6.93997 102.92 6.70777 104.169 6.52717 104.71C6.34657 105.264 6.14017 105.753 5.94667 106.204C5.34037 107.673 4.70827 109.192 5.50807 110.802C6.25627 112.335 7.97197 113.314 11.6098 114.306C11.7517 114.344 11.9065 114.383 12.0871 114.409C11.8936 115.723 12.1903 117.062 12.9901 118.105C13.8028 119.161 14.9896 119.78 16.2538 119.78H24.484C25.6708 119.78 26.8189 119.226 27.6187 118.273C28.2766 117.474 28.6507 116.457 28.7152 115.388C30.7018 115.413 32.74 115.426 34.7911 115.426C35.5393 115.426 36.2875 115.426 37.0228 115.426C37.0873 116.47 37.4614 117.487 38.1064 118.273C38.9062 119.226 40.0414 119.78 41.2411 119.78H49.4713C50.7355 119.78 51.9352 119.174 52.735 118.105C53.4187 117.204 53.7541 116.07 53.7154 114.937C57.0565 114.718 59.3914 114.422 59.9461 114.048C61.3393 113.121 61.4038 112.296 59.5462 101.323C60.8362 100.704 62.3842 99.7256 64.2547 98.1542C68.2795 94.7668 67.1701 89.6276 65.7769 86.1243V86.1629ZM32.0692 52.6878C32.3401 52.3529 32.6884 52.3014 32.869 52.3014C33.0496 52.3014 33.4108 52.3529 33.6688 52.6878C36.1327 55.7919 37.1002 58.4838 36.2617 59.8748C35.6683 60.8537 33.8365 60.6734 33.4753 60.6348C33.0625 60.5832 32.6626 60.5832 32.2498 60.6348C31.8886 60.6863 30.0568 60.8537 29.4634 59.8748C28.6249 58.4709 29.5924 55.7919 32.0563 52.6878H32.0692ZM9.02977 52.2885C14.3188 54.3622 20.0851 55.4828 25.774 55.9336C24.8839 58.6384 25.3741 60.5832 26.161 61.8841C27.193 63.5972 29.1667 64.5632 31.5532 64.5632C31.9402 64.5632 32.3401 64.5374 32.7529 64.4859C32.8432 64.4859 32.9206 64.4859 32.998 64.4859C35.9134 64.8594 38.3773 63.8805 39.577 61.8841C40.3768 60.5704 40.867 58.5997 39.9253 55.8305C47.5879 55.1736 53.8831 53.6924 56.8114 52.5075C58.2949 54.9032 60.8878 60.184 59.2108 65.9027L58.1401 64.0995C57.6499 63.2752 56.6437 62.9403 55.7665 63.288C54.8764 63.6358 54.3862 64.576 54.5926 65.5163C54.6055 65.6064 56.1019 72.3556 54.1024 77.2628C53.638 76.0264 52.993 74.7641 52.1158 73.8496C51.5482 73.2572 50.6581 73.0897 49.9099 73.4246C49.1617 73.7724 48.7102 74.558 48.7876 75.3695C48.8521 76.0006 50.0647 90.6581 32.8561 98.4376C15.6475 90.6581 16.8601 76.0006 16.9246 75.3824C17.0149 74.558 16.5634 73.7724 15.8152 73.4246C15.5572 73.3087 15.2734 73.2443 15.0025 73.2443C14.4865 73.2443 13.9705 73.4504 13.5964 73.8496C12.7192 74.7641 12.0742 76.0264 11.6098 77.2628C9.61027 72.3684 11.0938 65.6064 11.1196 65.5163C11.326 64.5889 10.8358 63.6487 9.94567 63.288C9.05557 62.9403 8.04937 63.288 7.57207 64.0995L6.50137 65.9027C4.78567 60.0036 7.58497 54.5812 9.04267 52.2885H9.02977ZM7.71397 97.0594C7.01737 96.6086 6.20467 96.0161 5.27587 95.2304C3.72787 93.9296 3.62467 91.9203 4.12777 89.8209C5.49517 91.0573 7.00447 92.062 8.20417 92.7575C8.03647 94.2773 7.86877 95.7199 7.71397 97.0594ZM4.45027 83.1232C4.63087 81.5261 5.81767 78.9244 7.26247 76.2453C7.66237 77.9841 8.34607 79.6843 9.37807 81.1912C9.14587 83.6127 8.90077 86.0856 8.65567 88.4684C6.42397 86.9357 4.25677 84.8878 4.45027 83.1232ZM52.4125 111.163C50.6065 107.943 47.4976 106.346 43.5115 106.771C41.899 106.938 39.2803 107.84 37.8097 111.588C34.4944 111.627 31.0888 111.64 27.8896 111.588C26.419 107.84 23.7874 106.938 22.1749 106.758C18.3436 106.346 15.3121 107.801 13.4803 110.777C13.1578 110.712 12.8611 110.661 12.616 110.596C9.61027 109.772 9.04267 109.205 9.00397 109.205C9.00397 108.961 9.30067 108.226 9.51997 107.685C9.73927 107.157 9.98437 106.578 10.1908 105.934C10.9777 103.577 12.1774 92.384 13.0417 83.5998C13.0546 83.5998 13.0804 83.5998 13.0933 83.5998C13.4674 83.471 13.777 83.2263 13.9963 82.9172C15.6604 88.9579 20.098 97.0594 31.708 102.134C31.9531 102.237 32.224 102.302 32.482 102.302H33.2173C33.4882 102.302 33.7462 102.25 33.9913 102.134C45.6013 97.0465 50.0389 88.945 51.703 82.9172C51.9223 83.2263 52.2319 83.4581 52.606 83.5998C52.6576 83.6256 52.7221 83.6256 52.7737 83.6384C53.4703 88.7776 54.412 94.3675 55.2634 99.3649C56.0116 103.757 56.8501 108.639 57.0436 110.854C56.0116 110.97 54.3991 111.073 52.4125 111.176V111.163ZM56.347 81.1268C57.7015 79.1176 58.4239 76.7605 58.7464 74.455C60.6298 77.7136 62.3455 81.1526 62.5648 83.1104C62.7841 85.1068 59.9848 87.4638 57.4822 89.0352C57.0565 86.3433 56.6695 83.6513 56.3599 81.1268H56.347ZM61.7392 95.2304C60.5911 96.1964 59.6365 96.8662 58.8496 97.3428C58.6174 95.9904 58.3852 94.5865 58.1401 93.1439C59.4043 92.4484 61.249 91.3149 62.8873 89.8337C63.3904 91.9332 63.2872 93.9425 61.7392 95.2433V95.2304Z" fill="black"/>
<path fill-rule="evenodd" clip-rule="evenodd" d="M40.4016 22.9199L42.57 20.7797L45.8881 24.0545L43.7089 26.1948C44.6275 27.5291 45.2721 29.0525 45.5962 30.6855H48.6743V35.3158H45.5962C45.2739 36.947 44.6275 38.474 43.7089 39.8065L45.8881 41.9486L42.57 45.2252L40.4016 43.0849C39.0497 43.981 37.5062 44.6278 35.8516 44.9371V47.9751L31.1604 47.9716V44.9336C29.4951 44.6243 27.9623 43.9792 26.6104 43.0814L24.4419 45.2216L21.1221 41.945L23.2906 39.803C22.3827 38.4705 21.7274 36.9453 21.4051 35.3122H18.3377V30.6852H21.4051C21.7274 29.0522 22.3845 27.5287 23.2906 26.1944L21.1221 24.0542L24.4419 20.7793L26.6104 22.9195C27.9623 22.0235 29.4951 21.3766 31.1604 21.0674V18.0294H35.8516V21.0674C37.5062 21.3749 39.0497 22.0221 40.4016 22.9199ZM46.6367 17.1337V18.7473C46.6367 19.1149 46.3234 19.4242 45.9509 19.4242H39.3023V20.8592C38.8582 20.6489 38.4052 20.4722 37.9396 20.3114V18.7473C37.9396 18.3691 38.2422 18.0704 38.6254 18.0704H45.263V17.1338C44.4161 16.8457 43.8001 16.0592 43.8001 15.1226C43.8001 13.9473 44.7688 13.0018 45.9489 13.0018C47.1289 13.0018 48.0976 13.9491 48.0976 15.1226C48.0994 16.0592 47.4837 16.8439 46.6367 17.1337ZM20.3755 17.1337V18.7473C20.3755 19.1149 20.6782 19.4242 21.0613 19.4242H27.699V20.8592C28.143 20.6489 28.6068 20.4722 29.0706 20.3114V18.7473C29.0706 18.3691 28.7572 18.0704 28.3848 18.0704L21.7362 18.0687V17.132C22.5939 16.8439 23.2098 16.0575 23.2098 15.1208C23.2098 13.9455 22.2411 13 21.0611 13C19.8703 13 18.9123 13.9473 18.9123 15.1208C18.9123 16.0592 19.5178 16.8439 20.3755 17.1337ZM21.7364 48.868V47.933H28.385C28.7575 47.933 29.0709 47.6238 29.0709 47.2562V45.6939C28.6071 45.533 28.1433 45.3563 27.6992 45.146V46.5793H21.0616C20.6784 46.5793 20.3758 46.8886 20.3758 47.2562V48.868C19.5288 49.1578 18.9129 49.9531 18.9129 50.8792C18.9129 52.0545 19.8708 53 21.0616 53C22.2416 53 23.2104 52.0545 23.2104 50.8792C23.2104 49.9549 22.5959 49.1578 21.7364 48.868ZM21.5663 39.7274H16.3002C15.917 39.7274 15.6144 40.0261 15.6144 40.3955V42.1769C14.7567 42.4562 14.1408 43.2532 14.1408 44.1881C14.1408 45.3528 15.1095 46.3089 16.3002 46.3089C17.4802 46.3089 18.449 45.3546 18.449 44.1881C18.449 43.2532 17.833 42.4562 16.9753 42.1769V41.0724H20.1931L21.5663 39.7274ZM17.0558 32.0111C16.6923 31.3431 15.976 30.8748 15.1487 30.8748C13.9687 30.8748 13 31.8309 13 32.9955C13 34.1708 13.9687 35.1163 15.1487 35.1163C15.976 35.1163 16.6923 34.6568 17.0558 33.9905V32.0111ZM20.1947 24.9296H16.9752V23.8251C17.8329 23.5476 18.4489 22.7488 18.4489 21.8138C18.4489 20.6492 17.4802 19.6931 16.3001 19.6931C15.1094 19.6931 14.1407 20.6474 14.1407 21.8138C14.1407 22.7488 14.7567 23.5458 15.6143 23.8251V25.6065C15.6143 25.9741 15.917 26.2746 16.3001 26.2746H21.5662L20.1947 24.9296ZM20.2735 15.1208C20.2735 14.6931 20.6263 14.345 21.0614 14.345C21.4948 14.345 21.8386 14.6932 21.8386 15.1208C21.8386 15.5397 21.4858 15.8878 21.0614 15.8878C20.6281 15.8896 20.2735 15.5397 20.2735 15.1208ZM15.5122 21.8137C15.5122 21.386 15.856 21.0485 16.3 21.0485C16.7334 21.0485 17.0772 21.386 17.0772 21.8137C17.0772 22.2414 16.7244 22.5914 16.3 22.5914C15.8649 22.5896 15.5122 22.2414 15.5122 21.8137ZM14.3715 32.9956C14.3715 32.5679 14.7135 32.2304 15.1486 32.2304C15.582 32.2304 15.9365 32.5679 15.9365 32.9956C15.9365 33.4233 15.5838 33.7733 15.1486 33.7733C14.7261 33.7715 14.3715 33.4251 14.3715 32.9956ZM15.5122 44.188C15.5122 43.7603 15.856 43.4103 16.3 43.4103C16.7334 43.4103 17.0772 43.7585 17.0772 44.188C17.0772 44.6068 16.7244 44.955 16.3 44.955C15.8649 44.955 15.5122 44.6068 15.5122 44.188ZM20.2735 50.8808C20.2735 50.4531 20.6263 50.1138 21.0614 50.1138C21.4948 50.1138 21.8386 50.4514 21.8386 50.8808C21.8386 51.3085 21.4858 51.6585 21.0614 51.6585C20.6281 51.6567 20.2735 51.3085 20.2735 50.8808ZM45.2636 48.8679V47.933H38.626C38.2428 47.933 37.9402 47.6237 37.9402 47.2561V45.6938C38.4057 45.5329 38.8588 45.3562 39.3029 45.1459V46.5792H45.9515C46.3239 46.5792 46.6373 46.8885 46.6373 47.2561V48.8679C47.486 49.1578 48.1002 49.953 48.1002 50.8791C48.1002 52.0544 47.1422 52.9999 45.9515 52.9999C44.7607 52.9999 43.8027 52.0544 43.8027 50.8791C43.8027 49.9548 44.4166 49.1577 45.2636 48.8679ZM45.4462 39.7273H50.7123C51.0848 39.7273 51.3981 40.026 51.3981 40.3954V42.1768C52.2469 42.4561 52.8611 43.2531 52.8611 44.1881C52.8611 45.3527 51.9031 46.3088 50.7123 46.3088C49.5215 46.3088 48.5636 45.3545 48.5636 44.1881C48.5636 43.2531 49.1796 42.4561 50.0265 42.1768V41.0723H46.8088L45.4462 39.7273ZM49.955 32.011C50.3077 31.343 51.0348 30.8747 51.8513 30.8747C53.042 30.8747 54 31.8308 54 32.9955C54 34.1707 53.042 35.1162 51.8513 35.1162C51.024 35.1162 50.3077 34.6568 49.955 33.9904V32.011ZM46.8089 24.9295H50.0266V23.825C49.1796 23.5475 48.5637 22.7487 48.5637 21.8138C48.5637 20.6491 49.5324 19.693 50.7124 19.693C51.9032 19.693 52.8612 20.6473 52.8612 21.8138C52.8612 22.7487 52.2452 23.5457 51.3982 23.825V25.6064C51.3982 25.974 51.0849 26.2745 50.7124 26.2745L45.4463 26.2763L46.8089 24.9295ZM46.7372 15.1207C46.7372 14.6931 46.3845 14.3449 45.9494 14.3449C45.516 14.3449 45.1615 14.6931 45.1615 15.1207C45.1615 15.5396 45.5142 15.8878 45.9494 15.8878C46.3845 15.8878 46.7372 15.5396 46.7372 15.1207ZM51.5005 21.8136C51.5005 21.3859 51.1477 21.0484 50.7126 21.0484C50.2792 21.0484 49.9247 21.3859 49.9247 21.8136C49.9247 22.2413 50.2774 22.5913 50.7126 22.5913C51.1459 22.5895 51.5005 22.2413 51.5005 21.8136ZM52.6393 32.9955C52.6393 32.5679 52.2866 32.2303 51.8514 32.2303C51.4181 32.2303 51.0743 32.5679 51.0743 32.9955C51.0743 33.4232 51.4163 33.7732 51.8514 33.7732C52.2865 33.7714 52.6393 33.425 52.6393 32.9955ZM51.5005 44.1879C51.5005 43.7602 51.1477 43.4102 50.7126 43.4102C50.2792 43.4102 49.9247 43.7584 49.9247 44.1879C49.9247 44.6067 50.2774 44.9549 50.7126 44.9549C51.1459 44.9549 51.5005 44.6067 51.5005 44.1879ZM46.7372 50.8807C46.7372 50.4531 46.3845 50.1137 45.9494 50.1137C45.516 50.1137 45.1615 50.4513 45.1615 50.8807C45.1615 51.3084 45.5142 51.6584 45.9494 51.6584C46.3845 51.6566 46.7372 51.3085 46.7372 50.8807ZM41.3295 32.5675C41.3295 34.9481 40.239 37.0689 38.5254 38.4935V40.176C38.5254 40.6638 38.1225 41.0526 37.6373 41.0526H36.7491V39.4497H35.3775V41.0526H34.1867V39.4497H32.824V41.0526H31.6243V39.4497H30.2616V41.0526H29.3735C28.8793 41.0526 28.4764 40.6638 28.4764 40.176V38.4935C26.761 37.0709 25.6723 34.9483 25.6723 32.5675C25.6723 22.4 41.3295 22.4 41.3295 32.5675ZM34.8331 33.3929C35.0659 34.2995 36.185 34.8067 37.3346 34.5293C38.4949 34.25 39.2416 33.2833 39.0196 32.3678C38.9085 31.9401 38.5952 31.6008 38.1726 31.3923L34.8331 33.3929ZM32.1687 33.3929C31.9466 34.2995 30.8257 34.8067 29.6672 34.5293C28.5176 34.25 27.7709 33.2833 27.993 32.3678C28.104 31.9401 28.4173 31.6008 28.831 31.3923L32.1687 33.3929ZM32.6539 37.5956C32.3925 37.8536 31.9574 37.8536 31.6852 37.5956C31.4238 37.327 31.4238 36.8992 31.6852 36.6412L32.3817 35.9537C32.6951 35.6551 33.098 35.496 33.5009 35.496C33.9055 35.496 34.3174 35.6551 34.62 35.9537H34.6289L35.3148 36.6412C35.5869 36.8992 35.5869 37.3287 35.3148 37.5956C35.0533 37.8536 34.6182 37.8536 34.346 37.5956L33.6602 36.9081C33.619 36.8675 33.5581 36.848 33.4991 36.848C33.4489 36.848 33.388 36.8692 33.3486 36.9081L32.6539 37.5956Z" fill="white"/>
</svg>
