<svg width="80" height="100" viewBox="0 0 80 100" fill="none" xmlns="http://www.w3.org/2000/svg">
<path d="M21.9728 54.6294C22.3779 55.508 23.6218 54.5632 22.9746 53.8925C22.4774 53.3963 21.7034 54.0241 21.9728 54.6294Z" fill="#F5B700"/>
<path d="M60.944 54.0249C60.5385 53.3284 59.4902 53.9393 59.8945 54.6384C59.9318 54.713 59.9839 54.7791 60.0478 54.8328C60.1116 54.8864 60.1858 54.9264 60.2657 54.9502C60.3456 54.974 60.4295 54.9811 60.5123 54.9711C60.5951 54.9612 60.675 54.9343 60.7469 54.8922C60.8189 54.8502 60.8815 54.7938 60.9308 54.7265C60.9801 54.6593 61.0151 54.5826 61.0335 54.5013C61.052 54.42 61.0536 54.3358 61.0382 54.2538C61.0228 54.1719 60.9907 54.094 60.944 54.0249Z" fill="#F5B700"/>
<path d="M60.1387 65.9039C59.7565 65.0435 58.5187 65.8748 59.1641 66.5607C59.5966 67.0334 60.4171 66.479 60.1387 65.9039Z" fill="#F5B700"/>
<path d="M22.4433 17.6959C21.8725 17.1302 20.984 17.9839 21.5534 18.5654C22.1357 19.1406 23.015 18.2839 22.4433 17.6959Z" fill="#F5B700"/>
<path d="M24.8128 8.9267C24.3891 8.46766 23.5625 8.9363 23.7745 9.53118C24.096 10.5174 25.512 9.69294 24.8128 8.9267Z" fill="#F5B700"/>
<path d="M27.0104 4.84172C27.573 5.41468 28.4546 4.52796 27.884 3.96812C27.305 3.4014 26.4467 4.2662 27.0104 4.84172Z" fill="#F5B700"/>
<path d="M58.5785 18.5725C59.3541 19.2639 60.1854 17.8604 59.1848 17.5391H59.1909C58.5992 17.3473 58.124 18.1471 58.5785 18.5725Z" fill="#F5B700"/>
<path d="M56.5656 10.2794C57.1642 10.8944 58.0776 9.85572 57.3922 9.34548C56.8123 8.86404 56.013 9.75636 56.5656 10.2794Z" fill="#F5B700"/>
<path d="M53.4902 5.20261C54.0692 5.76917 54.9275 4.90437 54.3638 4.32885C53.8012 3.75589 52.9196 4.64277 53.4902 5.20261Z" fill="#F5B700"/>
<path d="M42.093 17.4828C41.415 15.0885 38.04 17.2964 40.2221 18.7148C40.1925 19.1565 40.1901 19.6002 40.195 20.0428C40.2032 20.8108 41.3565 20.8069 41.385 20.0428C41.4029 19.5932 41.4037 19.1484 41.433 18.6988C41.6573 18.5918 41.8421 18.4165 41.9606 18.1981C42.0792 17.9796 42.1255 17.7292 42.093 17.4828Z" fill="#F5B700"/>
<path d="M78.7 75.4858C77.8051 74.8752 76.368 75.2045 75.3467 75.0426C77.6747 72.3055 73.388 71.4069 71.6936 70.0581C73.9355 69.0768 74.6279 68.6559 73.0744 66.3461C72.5971 65.688 72.1682 65.2763 71.3499 65.6565C70.5292 66.0398 69.7449 66.4968 69.0067 67.0218C69.3907 62.2885 69.5976 57.5386 69.6816 52.7943C70.0781 52.4515 70.3767 52.0098 70.5472 51.5142C72.7533 51.6214 74.0562 48.7237 72.6592 47.0539C74.0587 45.6765 73.3559 42.9755 71.4842 42.5002C73.9173 41.4944 74.4282 39.5544 74.5976 37.1311C74.6525 36.2597 73.6283 35.6384 73.0287 35.1047C72.2823 34.44 71.5069 33.8087 70.7171 33.197C70.0312 32.6655 69.3344 32.1487 68.6335 31.6376C68.0543 31.2154 67.1091 30.2218 66.3749 30.2581C65.7427 30.3064 65.1161 30.4118 64.5029 30.5731C66.2869 27.0927 68.649 23.94 70.6424 20.6131C70.7297 19.3659 70.7186 18.1137 70.6093 16.8682C70.5664 16.4495 70.6328 15.8035 70.3205 15.4341C63.5205 11.6261 65.1069 4.69634 55.5544 2.88306C53.9485 1.68882 51.8091 1.14722 49.8015 1.12834C48.9568 1.05666 48.0999 1.02018 47.6685 1.89378C42.8988 1.6461 38.1194 1.6461 33.3496 1.89378C32.9927 1.26978 32.4256 1.05346 31.7167 1.12818C29.5146 1.07778 27.2424 1.58562 25.4349 2.88098C16.6288 4.6029 17.4859 10.4053 12.0523 14.5888C10.8363 15.2512 10.3661 15.3544 10.4128 16.8691C10.4083 17.6821 10.0117 20.8127 10.716 21.1411C12.112 23.424 13.7216 25.5712 15.0919 27.872C14.1195 27.2493 13.1802 26.384 11.9515 26.6387C7.89379 27.7699 5.14243 34.6523 5.70627 38.5587C5.76707 39.0927 5.98419 39.5866 6.43331 39.8707C8.31571 41.7203 10.7603 43.0759 13.3818 43.4093C13.0896 49.4349 13.2339 55.4907 13.6 61.517C11.2146 60.793 9.52003 64.0117 11.4283 65.597C10.8995 66.1353 10.5934 66.8535 10.5714 67.6078C9.26419 67.8911 9.64339 69.3251 9.92979 70.2547C9.02595 70.4936 8.10883 70.9693 8.11299 72.0352C8.10195 72.0395 8.08915 72.045 8.07955 72.0491C8.11395 72.021 8.00131 72.0551 7.98451 72.0643C7.68691 71.1136 7.40547 69.4018 6.05283 69.8723C4.78883 70.3239 3.55363 71.0549 2.42979 71.7821C1.83299 72.1683 0.382589 72.9501 1.13603 73.8024C1.28238 74.4478 1.5194 75.0691 1.84003 75.648C2.25155 76.2525 2.97603 75.5621 3.45603 75.3866C3.79203 77.9541 5.81971 77.3976 7.64803 77.024C8.62563 76.8438 9.85731 76.753 10.669 76.1245C10.9311 77.0483 12.0741 77.0483 12.8517 77.0698C14.1512 77.061 16.6859 77.2645 17.6271 76.3264C18.84 76.3698 20.0529 76.4129 21.2659 76.4555C21.8144 77.3821 23.0147 77.3208 24.1514 77.3784C25.3227 77.2962 27.6571 77.9931 28.3887 77.0079C37.0589 77.2619 45.7632 77.1096 54.4267 76.7613C55.2267 78.1629 57.5402 77.2984 58.8823 77.3747C59.8832 77.3239 61.1703 77.4597 61.7259 76.46L63.7739 76.38C63.9624 76.9386 64.396 77.0907 64.981 77.1618C67.0387 77.3378 69.2255 77.5123 71.2539 77.1328C71.2359 78.8475 72.5879 78.7035 73.8362 78.7397C74.9733 78.8218 76.1741 78.9664 77.3127 78.8773C78.1059 78.8152 78.6048 78.4085 78.8167 77.6427C78.9987 76.9871 79.3491 75.993 78.7 75.4858ZM63.6376 74.516C63.6443 74.804 63.5858 75.0909 63.6106 75.3877L62.0056 75.4517C62.3371 72.6659 62.6795 69.8882 62.9048 67.0919C64.6015 67.1014 66.2982 67.1004 67.9951 67.0888C67.8295 69.1397 67.6291 71.1867 67.3939 73.2299C66.1616 73.3538 63.9791 72.8984 63.6376 74.516ZM18.096 74.4875C18.0106 73.2875 16.5903 73.1535 15.6415 73.0434C15.5455 72.2278 15.4548 71.4115 15.3695 70.5946C15.754 70.4665 16.0934 70.23 16.3467 69.9136C17.3935 70.8317 19.328 70.4226 20.2719 69.5296C20.4608 71.5114 20.6827 73.4912 20.9723 75.4579C19.9986 75.4153 19.0248 75.3726 18.0509 75.3299C18.0996 75.052 18.1148 74.7691 18.096 74.4875ZM8.35331 40.1399C11.9978 39.2875 14.8296 32.3874 14.6893 28.9322C15.9053 29.5082 15.6618 30.6256 15.4299 31.7491C14.6645 35.052 12.7063 39.7098 9.17683 40.7363C8.89603 40.5467 8.62275 40.3453 8.35331 40.1399ZM65.7639 33.7002C67.1211 33.657 68.7435 32.8178 69.8645 33.9621C69.5658 35.3823 69.3855 36.8547 68.7183 38.1701C67.7832 37.3835 66.8871 36.5482 65.9128 35.8104C65.4712 35.476 64.9378 36.1962 65.3269 36.5698C66.8904 37.9387 68.4157 39.7909 70.5066 40.2936C69.2746 41.4879 67.4626 41.996 65.7715 42.0224C66.5656 41.6503 67.5779 41.1744 68.1319 40.5039C68.3909 40.1904 68.1571 39.6498 67.7106 39.78C66.4389 40.2576 65.3546 41.3151 63.9917 41.6016C63.4706 41.3447 62.9956 41.0035 62.5856 40.5919C63.0077 38.5447 63.5245 36.5571 64.7002 34.809C64.7853 34.7363 64.8406 34.6346 64.8554 34.5237C64.8701 34.4127 64.8434 34.3001 64.7802 34.2077C64.3133 33.4544 63.8378 32.7109 63.3586 31.9647C64.3552 31.7159 65.3647 31.5219 66.3826 31.3835C66.8244 31.7035 67.2655 32.024 67.7059 32.345C66.9101 32.388 66.1242 32.601 65.5768 33.0109C65.5094 33.0536 65.4574 33.1168 65.4284 33.1913C65.3995 33.2657 65.3952 33.3475 65.4161 33.4245C65.437 33.5016 65.4821 33.5699 65.5446 33.6195C65.6072 33.6691 65.684 33.6974 65.7639 33.7002ZM71.6595 35.4152C72.7424 36.5794 71.9512 38.252 71.2495 39.3861C70.66 39.2838 70.0905 39.0884 69.5624 38.8072C70.1554 37.6039 70.7485 36.0824 70.7911 34.6952C71.0834 34.9317 71.3729 35.1717 71.6595 35.4152ZM14.3935 43.9648H19.4293C19.2394 47.3019 19.2255 50.6562 19.3139 54.0072C17.6461 54.0072 15.9783 54.0063 14.3104 54.0141C14.2325 50.6621 14.2503 47.3095 14.3935 43.9648ZM28.7069 15.6426C31.4922 15.5359 34.2779 15.4596 37.064 15.4136C33.301 19.8223 38.3424 20.3647 27.4683 19.4965C27.1061 18.2165 27.393 16.9779 27.3963 15.6944C27.832 15.6735 28.272 15.664 28.7069 15.6426ZM61.8495 39.2299C61.6175 37.0389 62.0215 34.7776 62.5794 32.6589C62.9867 33.3073 63.3992 33.9529 63.8167 34.5957C62.5943 35.8133 62.2671 37.6197 61.8495 39.2299ZM62.2175 48.5467C62.2567 46.3139 65.3803 46.3143 65.4192 48.5467C65.3805 50.7794 62.2568 50.7791 62.2179 48.5467H62.2175ZM21.5274 62.32C23.6304 62.3582 23.6301 65.6787 21.5274 65.7168C19.424 65.6776 19.424 62.3571 21.5274 62.32ZM23.2429 42.928C22.0883 42.1949 20.8701 41.4439 19.5007 41.2213C19.908 40.7405 20.2347 40.1968 20.4682 39.6115C21.3882 41.0203 22.7645 42.0456 24.2002 42.9282L23.2429 42.928ZM68.5775 43.9539C68.6301 45.1972 68.6643 46.4411 68.6802 47.6855C67.99 47.4716 67.2436 47.536 66.6002 47.8648C66.4782 47.3111 66.1971 46.8051 65.7913 46.4092C65.3855 46.0132 64.8728 45.7444 64.3163 45.636C64.5741 45.1222 64.6809 44.5458 64.6243 43.9738C65.9405 43.9328 67.2599 43.9647 68.5775 43.9543V43.9539ZM25.2679 56.4914C25.3071 54.2587 28.4307 54.2591 28.4696 56.4914C28.4304 58.7242 25.3067 58.7239 25.2679 56.4914ZM58.0181 42.2768C57.2706 42.525 56.4592 42.5952 55.6914 42.7656C55.4007 42.4333 55.4151 41.9165 55.1794 41.54C56.2786 41.02 57.3283 40.4752 58.5194 40.1285C59.7215 39.7109 60.5354 39.4085 60.7845 40.9879C59.8387 41.3544 58.9991 41.9511 58.0181 42.2768ZM30.2008 44.6971C28.0978 44.6587 28.0981 41.3383 30.2008 41.3003C32.304 41.3387 32.304 44.659 30.2008 44.6971ZM43.9192 36.0442C42.6279 36.3939 41.3744 36.6608 40.0472 36.5831C38.1232 36.5915 38.1123 35.5051 39.5858 34.5498C40.8389 33.8093 42.3218 33.7242 43.7159 33.7277C45.1464 34.2021 45.6384 35.4309 43.92 36.0442H43.9192ZM29.2517 37.9072C29.9971 38.0203 32.824 38.6664 30.8976 39.4344C29.1888 40.1815 26.9906 40.2368 25.3616 39.2605C23.8034 37.8426 28.5355 37.6827 29.2517 37.9072ZM33.3031 28.6813C34.3879 29.2253 35.1763 30.1151 35.988 30.9763C36.3818 31.6003 36.8799 33.0563 35.6891 33.1095C34.6241 32.9994 33.6094 32.6 32.7549 31.9547C31.9429 31.3429 30.0963 29.3447 31.5591 28.4741C32.0978 28.1291 32.8064 28.3797 33.3031 28.6813ZM50.1109 28.88C49.749 30.5154 45.3829 30.1386 44.1893 29.6279C43.1925 27.2555 49.657 27.2619 50.1109 28.88ZM37.3579 36.7439C37.2243 36.9511 37.3768 37.3607 37.2671 37.5944C37.472 38.1064 35.1651 37.8301 34.8128 37.8749C34.1418 37.8474 32.6597 37.8981 32.2663 37.372C32.3128 35.569 36.2615 36.3597 37.3578 36.741L37.3579 36.7439ZM44.1373 30.9039C44.1303 31.7621 43.8995 32.381 42.9591 32.2077C42.1152 32.1576 41.272 32.0674 40.436 31.9418C39.6487 31.8234 38.8637 31.6786 38.0879 31.4991C37.6346 31.3943 37.6839 31.3144 37.8431 30.8591C37.9723 30.5254 38.1719 30.2234 38.4282 29.9736C40.3558 30.1067 42.267 30.4177 44.1373 30.9027V30.9039ZM30.9072 33.92C31.2872 33.7837 32.0135 33.4517 32.4229 33.5055C32.7154 33.5439 32.7075 33.6919 32.8253 33.9855C32.8944 34.1584 33.0887 34.4691 33.1293 34.7154C31.8591 35.3677 30.4677 35.7816 29.1807 36.3877C28.9549 36.0056 28.801 35.5864 28.5858 35.201C29.2259 34.5775 30.0951 34.2541 30.9072 33.92ZM47.072 31.9925C47.1204 31.943 47.1584 31.8843 47.1839 31.8199C47.2094 31.7555 47.2218 31.6867 47.2203 31.6175C47.2215 31.8027 50.1191 31.9183 50.4791 31.9455C51.2354 32.06 53.4853 31.7344 52.4055 33.092C51.2179 33.3202 49.9213 33.252 48.7056 33.2584C47.5261 33.2293 46.9103 33.568 47.072 31.9925ZM58.3274 31.1189C57.3391 31.5219 54.3834 32.7901 54.464 30.8296C55.5946 30.1646 56.8336 29.7042 58.1242 29.4696C58.6143 29.4056 58.9191 29.6591 59.0453 30.1634C59.1927 30.7507 58.7944 30.896 58.3279 31.1189H58.3274ZM26.1699 32.5816C25.9311 32.7794 25.6332 32.892 25.3232 32.9016C23.9018 31.9896 24.9189 30.068 24.9824 28.7336C25.5277 29.5 26.2304 30.1768 26.7571 30.956C27.2722 31.5271 26.6584 32.192 26.1704 32.5816H26.1699ZM26.7856 33.4575C28.9386 31.8107 27.9704 30.7232 26.5786 29.0575C27.9573 29.8415 30.3499 30.1546 30.2266 32.1805C29.7946 31.9475 28.6205 31.2272 28.6637 32.225C28.8122 32.6717 29.456 32.833 29.8021 33.089C29.2227 33.3154 28.6724 33.6103 28.1631 33.9675C27.7624 33.7458 27.2258 33.6765 26.7861 33.4575H26.7856ZM26.6888 50.5979C26.6992 50.6023 26.7093 50.6072 26.7199 50.6109C26.7109 50.6239 26.7007 50.636 26.692 50.6493L26.6888 50.5979ZM29.8967 49.3536C27.7936 49.3152 27.7939 45.9949 29.8967 45.9568C32 45.9952 32 49.3155 29.8971 49.3536H29.8967ZM38.3939 39.5872C38.3948 39.0819 38.4917 38.5814 38.6795 38.1123C40.0513 38.4956 41.3849 39.0041 42.6635 39.6314C43.6763 40.033 43.8779 40.5325 43.1829 41.4219C43.2789 41.3957 42.8259 41.2163 42.7467 41.1871C41.2968 40.6531 39.8498 40.1088 38.3944 39.5872H38.3939ZM45.2549 38.1237C44.0858 38.9138 44.0816 39.0011 43.5831 37.4933C44.4181 37.0731 49.041 34.3682 49.0779 34.8237C49.1074 35.1121 49.1613 35.3974 49.2392 35.6767C47.9416 36.5402 46.6147 37.36 45.2554 38.1237H45.2549ZM52.9227 35.3823C53.248 34.885 53.9408 33.7608 54.6736 33.2933C54.4613 34.6833 54.3507 36.087 54.3429 37.4931C53.5327 37.4565 52.7511 37.2275 51.9815 36.9914C52.2504 36.4299 52.5654 35.8917 52.9232 35.3823H52.9227ZM60.9299 35.2195C60.8314 35.3105 60.7075 35.3692 60.5747 35.3879C60.4419 35.4065 60.3065 35.3843 60.1867 35.324C59.9918 35.0821 59.7713 34.8618 59.5291 34.6671C59.3024 34.2736 58.9296 34.2842 59.0898 33.7976C59.3165 33.1576 59.5607 31.7688 60.5147 32.3256C60.9872 32.5591 61.0587 32.9709 61.2507 33.4101C61.1179 34.0042 61.0112 34.6088 60.9304 35.2195H60.9299ZM23.3159 35.9376C23.7682 35.6299 24.2394 35.351 24.7267 35.1024C25.5447 34.6613 26.4891 34.0271 26.8351 35.2944C26.9525 35.7711 26.6271 35.9136 26.2805 36.1557C25.7944 36.4954 25.3025 36.8265 24.8048 37.1488C24.3071 37.4712 23.8033 37.7833 23.2933 38.0853C22.9146 38.3103 22.0263 39.0144 21.4947 38.9469C20.5907 37.792 22.5383 36.4666 23.3159 35.9376ZM51.7959 38.3554C51.7484 38.2357 51.7252 38.1077 51.7277 37.9789C52.625 38.4363 53.8656 38.5111 54.7896 38.545C54.9439 38.5479 55.0931 38.49 55.2051 38.3839C55.3171 38.2777 55.3828 38.1318 55.3882 37.9776C55.386 36.3827 55.4943 34.7896 55.712 33.2096C56.8701 34.0416 58.0579 34.8963 59.1287 35.8336C58.4063 36.6592 57.0106 36.7283 56.3587 37.5843C56.3304 37.6347 56.3139 37.6908 56.3102 37.7484C56.3066 37.8061 56.316 37.8638 56.3378 37.9173C56.3596 37.9708 56.3931 38.0187 56.436 38.0574C56.4788 38.0961 56.5299 38.1247 56.5853 38.141C57.6216 38.333 58.6757 37.3631 59.5578 36.893C59.4912 37.5576 59.2565 38.204 59.0656 38.8434C57.8149 39.1055 56.6051 39.5344 55.4685 40.1186C55.4402 39.6195 55.2347 38.456 54.5651 39.1304C54.2706 39.5784 54.4915 40.1845 54.5307 40.6824C54.4347 40.7485 54.3407 40.8162 54.2485 40.8853C53.6568 39.8523 52.7183 39.0762 51.7951 38.3554H51.7959ZM27.456 52.3117C27.4951 50.0791 30.6187 50.0794 30.6576 52.3117C30.6184 54.544 27.4949 54.544 27.456 52.3117ZM47.5098 38.6547C49.001 36.5331 55.5717 42.0467 52.7131 42.7416C52.4095 42.759 52.1051 42.7269 51.8119 42.6464C50.4197 41.9331 46.6466 40.7653 47.5098 38.6547ZM44.6536 21.7699C42.1439 21.7255 39.6341 21.6752 37.1245 21.6336C36.5739 20.3291 36.8002 18.7506 37.2504 17.3843C37.5361 16.8838 37.9291 16.4528 38.4011 16.1222C38.8731 15.7915 39.4125 15.5695 39.9805 15.472C44.2984 14.8783 45.3301 18.0122 44.6536 21.7699ZM25.8336 60.3002C25.7944 62.533 22.6707 62.5326 22.632 60.3002C22.6711 58.0675 25.7947 58.0679 25.8336 60.3002ZM33.4816 42.928C33.2277 42.0282 33.5491 41.7544 34.4059 41.6544C35.1048 41.4883 35.8169 41.3833 36.5339 41.3405C37.2037 41.3007 37.8756 41.3136 38.5434 41.3789C39.0919 41.4335 39.2925 41.3629 39.3339 41.9415C39.3614 42.2259 39.3353 42.5129 39.257 42.7877C39.1725 42.816 39.096 42.8644 39.0343 42.9287L33.4816 42.928ZM47.6357 42.9296C46.6131 42.1696 45.6487 41.3547 46.4552 40.0186C46.9032 41.3411 48.3282 42.3035 49.7656 42.9298L47.6357 42.9296ZM61.7786 42.5776C63.8816 42.616 63.8815 45.9365 61.7786 45.9744C59.6751 45.9368 59.6754 42.6163 61.7781 42.5783L61.7786 42.5776ZM67.8586 52.2157C65.7555 52.1775 65.7559 48.857 67.8586 48.8189C69.9607 48.8579 69.9603 52.1784 67.8575 52.2163L67.8586 52.2157ZM53.6677 15.696C54.281 16.4952 54.2917 18.672 53.9178 19.5557C52.9453 20.0128 51.4573 19.7711 50.5059 19.753C49.7611 19.7389 49.0179 19.708 48.2736 19.6675C47.4736 19.6376 46.4867 19.7335 46.0301 18.9498C45.9231 17.5839 45.4957 16.2829 44.4213 15.4219C47.5045 15.4767 50.5866 15.568 53.6677 15.696ZM20.4266 43.9639H24.8698C24.6749 47.409 24.7621 50.9078 24.8971 54.3544C24.5134 54.7393 24.2398 55.2201 24.1052 55.7466C23.9705 56.2732 23.9795 56.8263 24.1314 57.3482C22.3275 57.3802 20.9725 59.2888 21.472 61.0632C21.1981 61.0679 20.9264 61.1133 20.6658 61.1979C20.3463 55.4563 20.2666 49.7116 20.4266 43.9639ZM19.4112 66.6109C19.372 68.8435 16.2483 68.8432 16.2096 66.6109C16.2487 64.3782 19.3723 64.3786 19.4112 66.6109ZM32.1851 50.2109C33.5309 49.5338 33.8069 47.4144 33.0845 46.2123C33.5889 45.5609 33.9029 44.7824 33.9917 43.9634C41.2829 43.9605 48.5741 43.9593 55.8653 43.9597C56.0105 47.213 56.0492 50.474 55.9815 53.7427C48.2303 53.8968 40.4749 53.8666 32.7227 53.9253C33.3771 52.6995 33.1 51.3226 32.1851 50.2111V50.2109ZM64.5211 51.8152C64.5691 52.7458 65.3211 53.5952 66.2376 54.0072C65.3645 54.0065 64.4915 54.0065 63.6184 54.0072C63.6328 53.3539 63.6439 52.7006 63.6517 52.0474C63.9517 52.0154 64.2449 51.9372 64.5208 51.8154L64.5211 51.8152ZM63.5946 55.0165C65.2693 55.0255 66.9442 55.0271 68.6186 55.012C68.5248 58.7066 68.3509 62.4023 68.0725 66.089C66.3786 66.0815 64.6845 66.0823 62.9906 66.0824C63.2923 62.4008 63.4936 58.7122 63.5943 55.0167L63.5946 55.0165ZM52.3896 14.6091C48.1557 14.4811 43.8986 14.2304 39.6767 14.3818C35.9007 14.3368 32.1218 14.4581 28.3487 14.6218C27.9326 14.543 27.5648 14.3025 27.3258 13.953C27.3646 12.6003 27.6081 11.2613 28.048 9.98162C36.4133 9.69362 44.7962 9.78194 53.1575 10.1448C53.7303 11.9871 54.1512 14.3592 52.3896 14.6091ZM12.4111 39.936C14.8152 37.3259 16.2965 33.999 16.6277 30.4659C17.1735 30.9656 17.6756 31.5111 18.1285 32.0963C18.3845 33.5186 15.5306 34.1098 16.4853 35.9843C15.5131 36.2626 14.9751 37.7179 15.5389 38.6029C13.1733 38.5229 13.8395 41.2403 12.5848 42.241C11.8149 42.0592 11.0697 41.7852 10.3653 41.425C11.1583 41.0759 11.8987 40.4499 12.4111 39.936ZM16.6803 37.0133C17.3683 36.5645 18.0891 37.4843 17.7221 38.1349C16.9418 39.1559 15.713 37.7843 16.6803 37.0125V37.0133ZM14.0669 41.5715C14.3189 40.781 14.7389 38.9064 15.9069 39.7392C16.3762 40.2082 15.9451 41.0272 15.3496 40.5299C15.0746 40.3002 14.4938 40.509 14.665 40.9285C15.529 42.6795 17.7455 41.0131 16.8762 39.5002C18.4463 39.6695 19.4522 37.7402 18.4319 36.5698C19.2251 36.2178 19.7027 35.2898 18.8735 34.492C18.4752 34.1088 17.8683 34.7138 18.2663 35.1C18.8487 35.6645 17.0495 36.5435 17.2451 35.132C17.4815 34.2851 18.4931 33.9221 18.8024 33.0935C21.532 37.3495 18.9464 43.0455 13.5661 42.4037C13.7746 42.1535 13.9434 41.8729 14.0669 41.5715ZM19.344 55.0168C19.4168 57.2747 19.532 59.5301 19.6659 61.7768C19.0871 62.2948 18.7328 63.0179 18.6784 63.7928C17.3085 63.3128 15.7458 64.0883 15.2064 65.3957C15.1031 65.3115 14.994 65.2346 14.88 65.1655C14.625 61.7895 14.4333 58.4022 14.336 55.0122C16.0053 55.0271 17.6744 55.0256 19.344 55.0168ZM13.4277 66.0104C15.5307 66.0487 15.5304 69.3691 13.4277 69.4071C11.324 69.3688 11.3243 66.048 13.4271 66.0104H13.4277ZM27.3898 62.5335C27.7006 62.1391 27.9241 61.6833 28.0454 61.196C28.1668 60.7088 28.1833 60.2014 28.0938 59.7074C30.1338 59.7451 31.3928 57.3147 30.8432 55.4885C31.2737 55.4317 31.6737 55.235 31.9813 54.9285C39.9744 54.8711 47.9682 54.8519 55.9607 54.7272C55.8688 58.4299 55.6567 62.1323 55.3485 65.8205C46.1141 66.0054 36.8746 65.9522 27.6391 66.035C27.5454 64.8685 27.4621 63.7013 27.3891 62.5335H27.3898ZM73.9944 72.9205C74.7816 73.219 75.0295 73.6971 74.3874 74.3362C73.8754 74.7959 73.0032 74.2624 72.4531 74.0359C71.7851 73.7607 71.1263 73.4642 70.4731 73.1559C70.2295 73.0405 68.9691 72.5787 68.9234 72.3867C68.9733 72.0078 69.3013 71.4624 69.5139 71.1432C70.3239 70.2915 71.4659 71.5139 72.2488 71.881C72.8352 72.2184 73.4149 72.569 73.9938 72.9205H73.9944ZM65.9504 13.421C66.5562 14.1388 67.249 14.7784 68.0128 15.325C66.74 15.2242 65.4656 15.1379 64.1927 15.0469C63.5367 14.9999 63.5367 16.0258 64.1927 16.0709C65.9165 16.1883 67.64 16.3269 69.3651 16.4266C69.3551 17.2983 69.4306 18.1978 69.1891 19.048C68.4816 19.477 67.436 19.2445 66.6275 19.2677C65.4874 19.244 64.2983 19.0963 63.1471 19.1274C63.2402 13.7626 61.6847 16.5346 60.3349 10.6239C61.6125 10.645 62.8875 10.7039 64.1634 10.7767C64.7175 11.6855 65.2658 12.597 65.9504 13.421ZM63.1544 9.20002C63.2848 9.38706 63.4104 9.57698 63.5346 9.76818C62.3634 9.66386 61.1773 9.64658 60.004 9.62898C59.3418 7.83874 58.5128 5.98754 57.2983 4.53378C59.7851 5.24658 61.7472 7.08802 63.1544 9.20002ZM56.304 4.94658C57.6853 6.5493 58.4883 8.56146 59.1952 10.5322C59.6664 11.9979 59.9533 13.5541 60.7931 14.8698C59.4713 14.6705 58.1294 14.641 56.8 14.7821C56.3973 14.8322 56.2157 15.4597 56.6947 15.5602C57.4246 15.6888 58.1638 15.7567 58.9048 15.7634C61.0272 15.7099 61.8727 15.7032 61.9403 18.1173C61.9989 18.6893 62.2683 19.7746 61.5714 20.0309H56.9458C56.5488 19.9296 56.1651 19.8346 56.0354 19.3343C55.7431 13.3519 55.421 5.58914 49.4311 2.37314C49.4641 2.3068 49.5137 2.25014 49.5751 2.20866C52.0712 2.14402 54.6346 3.04274 56.304 4.94658ZM40.5111 2.6853C42.8928 2.7141 45.2744 2.77682 47.6515 2.93394C50.2971 4.38402 51.952 6.25154 52.832 9.18402C44.7027 8.77058 36.5652 8.69901 28.4194 8.9693C29.4311 6.7533 30.8922 3.89858 33.257 2.94194C35.672 2.77842 38.0915 2.71458 40.5111 2.6853ZM30.7421 2.21842C30.9731 2.20578 31.2047 2.2013 31.4362 2.20098C31.496 2.24078 31.5454 2.29433 31.5802 2.35714C25.6259 5.60514 25.1706 13.3362 24.9861 19.3349C24.8581 19.8359 24.4751 19.9311 24.0787 20.0315H19.4501C18.7531 19.7755 19.0223 18.6899 19.081 18.1179C19.1495 15.7019 19.9952 15.7114 22.1167 15.7642C22.8577 15.7574 23.5969 15.6894 24.3267 15.5608C24.8019 15.4611 24.6279 14.8333 24.2213 14.7827C22.8913 14.6415 21.5488 14.6711 20.2263 14.8706C21.2229 13.2722 21.5591 11.3835 22.1783 9.61538C23.4472 5.72354 26.3423 2.24418 30.7421 2.21842ZM21.2221 5.69986C21.9772 5.21847 22.7908 4.83569 23.6431 4.56082C22.6007 5.84082 21.9258 7.36578 21.2976 8.88082C20.1863 8.9269 19.0675 8.97026 17.9584 9.07186C18.8511 7.80706 19.9221 6.5533 21.2224 5.69986H21.2221ZM15.072 13.421C15.9293 12.3891 16.5751 11.2211 17.2842 10.0914C18.4987 10.0154 19.7127 9.9389 20.9283 9.88466C20.3418 11.636 20.0751 13.5773 18.8386 15.0272C17.5387 16.2432 17.9151 18.1813 17.8719 19.8123C16.2203 19.7034 14.6431 19.7923 13.0266 19.632C12.4549 19.5968 11.9357 19.6229 11.4928 19.3227C11.473 18.3561 11.5172 17.3893 11.6253 16.4285C13.3611 16.3293 15.0954 16.1885 16.8298 16.0709C17.4839 16.0263 17.4877 15.0002 16.8298 15.0469C15.5568 15.1379 14.2826 15.2242 13.0096 15.325C13.7734 14.7784 14.4662 14.1388 15.072 13.421ZM10.2221 28.872C10.9485 28.0576 12.825 26.8573 13.4775 28.376C10.1093 29.0255 7.23827 36.1111 8.08547 39.1578C6.26371 39.517 6.72051 37.4187 6.84307 36.301C7.23475 33.6357 8.31235 30.8759 10.2221 28.872ZM9.23203 71.8298C10.0021 70.9095 12.9975 70.8093 14.1711 70.8602C14.1815 71.3171 14.4344 72.0678 13.9951 72.3373C12.4693 72.8237 10.7458 72.6778 9.16787 72.8839C9.15107 72.516 9.09843 72.1373 9.23203 71.8298ZM2.87443 72.8285C4.00963 72.1383 5.12563 71.4685 6.36819 70.9651C6.56587 71.3668 6.71864 71.789 6.82371 72.2242C5.31971 72.8774 3.99683 73.9915 2.49635 74.6829C2.30307 74.2762 2.14435 73.8573 1.95587 73.4483C2.18307 73.188 2.63683 72.9802 2.87491 72.8285H2.87443ZM7.35443 75.9586C6.83624 76.0495 6.31555 76.1241 5.79235 76.1826C5.08691 76.3814 4.56227 75.989 4.61059 75.1838C6.03075 74.8062 7.44051 74.315 8.92115 74.2123C9.43139 74.1605 10.0331 73.9763 10.1319 74.621C10.2963 75.6941 8.06403 75.8344 7.35475 75.9586H7.35443ZM16.7664 75.488C16.2082 76.0539 13.5677 75.9306 12.7051 75.9306C11.4224 76.0294 11.5565 75.5829 11.4635 74.3635C12.5149 74.6499 17.777 73.293 16.7664 75.488ZM23.2304 76.3386C22.6659 76.3093 22.1943 76.3512 22.0027 75.6797C21.7826 74.9067 21.7805 73.9805 21.6859 73.1813C21.4939 71.4822 21.2917 69.7758 21.1722 68.0733C23.2541 68.6722 25.0995 66.7078 25.5242 64.8223C25.8298 68.4586 26.22 72.1042 26.8042 75.7023C26.7836 75.8645 26.7271 76.0201 26.6388 76.1578C26.5504 76.2955 26.4325 76.4117 26.2936 76.4981L23.2304 76.3386ZM51.14 75.8939C43.6592 76.0405 36.1741 76.1205 28.6928 75.9848C28.3491 72.9861 27.9511 70.0413 27.7205 67.035C36.9016 66.9434 46.0837 66.9486 55.2643 66.8048C55.0346 69.8154 54.6208 72.7995 54.2699 75.7903C53.224 75.8435 52.1866 75.871 51.1405 75.8938L51.14 75.8939ZM60.5835 76.2224C59.3456 76.4824 57.9882 76.3984 56.7123 76.5215C56.5608 76.4383 56.4312 76.3203 56.3343 76.1771C56.2375 76.0339 56.1761 75.8697 56.1554 75.6981C57.6434 65.5504 58.4154 55.2467 58.1426 44.9874C58.4055 46.081 59.4327 47.1575 60.508 47.4424C59.4339 49.1488 60.5711 51.7352 62.6155 52.012C62.5267 59.4701 62.0323 66.9177 61.1346 74.3221C61.0647 74.8811 61.1439 75.9171 60.584 76.2223L60.5835 76.2224ZM67.0736 76.2224C66.4744 76.2228 65.8756 76.1896 65.28 76.1231C64.7168 76.0394 64.6967 75.9695 64.6615 75.4066C64.6559 75.3181 64.6258 74.6978 64.625 74.6066C65.064 74.364 65.6042 74.4021 66.1221 74.3895C67.4392 74.4085 68.8309 74.289 70.1317 74.5194C70.6088 74.6512 70.6938 74.7613 70.7802 75.2178C70.8234 75.4502 70.8707 76.0131 70.6277 76.1742C69.4443 76.244 68.2598 76.2601 67.0741 76.2224H67.0736ZM76.9648 77.7264C75.5011 77.6872 73.9448 77.7397 72.4762 77.5077C72.4126 77.031 72.3922 76.5495 72.4152 76.0691C74.2091 76.2291 76.0843 76.2347 77.849 76.4438C77.8605 77.0659 77.6696 77.6706 76.9653 77.7258L76.9648 77.7264Z" fill="#F5B700"/>
</svg>
