<svg width="80" height="78" viewBox="0 0 80 78" fill="none" xmlns="http://www.w3.org/2000/svg">
<mask id="path-1-inside-1_137_81" fill="white">
<path d="M78.7 74.4858C77.8051 73.8752 76.368 74.2045 75.3467 74.0426C77.6747 71.3055 73.388 70.4069 71.6936 69.0581C73.9355 68.0768 74.6279 67.6559 73.0744 65.3461C72.5971 64.688 72.1682 64.2763 71.3499 64.6565C70.5292 65.0398 69.7449 65.4968 69.0067 66.0218C69.3907 61.2885 69.5976 56.5386 69.6816 51.7943C70.0781 51.4515 70.3767 51.0098 70.5472 50.5142C72.7533 50.6214 74.0562 47.7237 72.6592 46.0539C74.0587 44.6765 73.3559 41.9755 71.4842 41.5002C73.9173 40.4944 74.4282 38.5544 74.5976 36.1311C74.6525 35.2597 73.6283 34.6384 73.0287 34.1047C72.2823 33.44 71.5069 32.8087 70.7171 32.197C70.0312 31.6655 69.3344 31.1487 68.6335 30.6376C68.0543 30.2154 67.1091 29.2218 66.3749 29.2581C65.7427 29.3064 65.1161 29.4118 64.5029 29.5731C66.2869 26.0927 68.649 22.94 70.6424 19.6131C70.7297 18.3659 70.7186 17.1137 70.6093 15.8682C70.5664 15.4495 70.6328 14.8035 70.3205 14.4341C63.5205 10.6261 65.1069 3.69634 55.5544 1.88306C53.9485 0.688819 51.8091 0.14722 49.8015 0.12834C48.9568 0.0566597 48.0999 0.0201798 47.6685 0.89378C42.8988 0.6461 38.1194 0.6461 33.3496 0.89378C32.9927 0.26978 32.4256 0.0534597 31.7167 0.12818C29.5146 0.0777797 27.2424 0.58562 25.4349 1.88098C16.6288 3.6029 17.4859 9.4053 12.0523 13.5888C10.8363 14.2512 10.3661 14.3544 10.4128 15.8691C10.4083 16.6821 10.0117 19.8127 10.716 20.1411C12.112 22.424 13.7216 24.5712 15.0919 26.872C14.1195 26.2493 13.1802 25.384 11.9515 25.6387C7.89379 26.7699 5.14243 33.6523 5.70627 37.5587C5.76707 38.0927 5.98419 38.5866 6.43331 38.8707C8.31571 40.7203 10.7603 42.0759 13.3818 42.4093C13.0896 48.4349 13.2339 54.4907 13.6 60.517C11.2146 59.793 9.52003 63.0117 11.4283 64.597C10.8995 65.1353 10.5934 65.8535 10.5714 66.6078C9.26419 66.891 9.64339 68.3251 9.92979 69.2547C9.02595 69.4936 8.10883 69.9693 8.11299 71.0352C8.10195 71.0395 8.08915 71.045 8.07955 71.0491C8.11395 71.021 8.00131 71.0551 7.98451 71.0643C7.68691 70.1136 7.40547 68.4018 6.05283 68.8723C4.78883 69.3238 3.55363 70.0549 2.42979 70.7821C1.83299 71.1683 0.382589 71.9501 1.13603 72.8024C1.28238 73.4478 1.5194 74.0691 1.84003 74.648C2.25155 75.2525 2.97603 74.5621 3.45603 74.3866C3.79203 76.9541 5.81971 76.3976 7.64803 76.024C8.62563 75.8438 9.85731 75.753 10.669 75.1245C10.9311 76.0483 12.0741 76.0483 12.8517 76.0698C14.1512 76.061 16.6859 76.2645 17.6271 75.3264C18.84 75.3698 20.0529 75.4129 21.2659 75.4555C21.8144 76.3821 23.0147 76.3208 24.1514 76.3784C25.3227 76.2962 27.6571 76.9931 28.3887 76.0078C37.0589 76.2619 45.7632 76.1096 54.4267 75.7613C55.2267 77.1629 57.5402 76.2984 58.8823 76.3747C59.8832 76.3239 61.1703 76.4597 61.7259 75.46L63.7739 75.38C63.9624 75.9386 64.396 76.0907 64.981 76.1618C67.0387 76.3378 69.2255 76.5123 71.2539 76.1328C71.2359 77.8475 72.5879 77.7035 73.8362 77.7397C74.9733 77.8218 76.1741 77.9664 77.3127 77.8773C78.1059 77.8152 78.6048 77.4085 78.8167 76.6427C78.9987 75.987 79.3491 74.993 78.7 74.4858ZM63.6376 73.516C63.6443 73.804 63.5858 74.0909 63.6106 74.3877L62.0056 74.4517C62.3371 71.6659 62.6795 68.8882 62.9048 66.0919C64.6015 66.1015 66.2982 66.1004 67.9951 66.0888C67.8295 68.1397 67.6291 70.1867 67.3939 72.2299C66.1616 72.3538 63.9791 71.8984 63.6376 73.516ZM18.096 73.4875C18.0106 72.2875 16.5903 72.1535 15.6415 72.0434C15.5455 71.2278 15.4548 70.4115 15.3695 69.5946C15.754 69.4665 16.0934 69.23 16.3467 68.9136C17.3935 69.8317 19.328 69.4226 20.2719 68.5296C20.4608 70.5114 20.6827 72.4912 20.9723 74.4579C19.9986 74.4153 19.0248 74.3726 18.0509 74.3299C18.0996 74.052 18.1148 73.7691 18.096 73.4875ZM8.35331 39.1399C11.9978 38.2875 14.8296 31.3874 14.6893 27.9322C15.9053 28.5082 15.6618 29.6256 15.4299 30.7491C14.6645 34.052 12.7063 38.7098 9.17683 39.7363C8.89603 39.5467 8.62275 39.3453 8.35331 39.1399ZM65.7639 32.7002C67.1211 32.657 68.7435 31.8178 69.8645 32.9621C69.5658 34.3823 69.3855 35.8547 68.7183 37.1701C67.7832 36.3835 66.8871 35.5482 65.9128 34.8104C65.4712 34.476 64.9378 35.1962 65.3269 35.5698C66.8904 36.9387 68.4157 38.7909 70.5066 39.2936C69.2746 40.4879 67.4626 40.996 65.7715 41.0224C66.5656 40.6503 67.5779 40.1744 68.1319 39.5039C68.3909 39.1904 68.1571 38.6498 67.7106 38.78C66.4389 39.2576 65.3546 40.3151 63.9917 40.6016C63.4706 40.3447 62.9956 40.0035 62.5856 39.5919C63.0077 37.5447 63.5245 35.5571 64.7002 33.809C64.7853 33.7363 64.8406 33.6346 64.8554 33.5237C64.8701 33.4127 64.8434 33.3001 64.7802 33.2077C64.3133 32.4544 63.8378 31.7109 63.3586 30.9647C64.3552 30.7159 65.3647 30.5219 66.3826 30.3835C66.8244 30.7035 67.2655 31.024 67.7059 31.345C66.9101 31.388 66.1242 31.601 65.5768 32.0109C65.5094 32.0536 65.4574 32.1168 65.4284 32.1913C65.3995 32.2657 65.3952 32.3475 65.4161 32.4245C65.437 32.5016 65.4821 32.5699 65.5446 32.6195C65.6072 32.6691 65.684 32.6974 65.7639 32.7002ZM71.6595 34.4152C72.7424 35.5794 71.9512 37.252 71.2495 38.3861C70.66 38.2838 70.0905 38.0884 69.5624 37.8072C70.1554 36.6039 70.7485 35.0824 70.7911 33.6952C71.0834 33.9317 71.3729 34.1717 71.6595 34.4152ZM14.3935 42.9648H19.4293C19.2394 46.3019 19.2255 49.6562 19.3139 53.0072C17.6461 53.0072 15.9783 53.0063 14.3104 53.0141C14.2325 49.6621 14.2503 46.3095 14.3935 42.9648ZM28.7069 14.6426C31.4922 14.5359 34.2779 14.4596 37.064 14.4136C33.301 18.8223 38.3424 19.3647 27.4683 18.4965C27.1061 17.2165 27.393 15.9779 27.3963 14.6944C27.832 14.6735 28.272 14.664 28.7069 14.6426ZM61.8495 38.2299C61.6175 36.0389 62.0215 33.7776 62.5794 31.6589C62.9867 32.3073 63.3992 32.9529 63.8167 33.5957C62.5943 34.8133 62.2671 36.6197 61.8495 38.2299ZM62.2175 47.5467C62.2567 45.3139 65.3803 45.3143 65.4192 47.5467C65.3805 49.7794 62.2568 49.7791 62.2179 47.5467H62.2175ZM21.5274 61.32C23.6304 61.3583 23.6301 64.6787 21.5274 64.7168C19.424 64.6776 19.424 61.3571 21.5274 61.32ZM23.2429 41.928C22.0883 41.1949 20.8701 40.4439 19.5007 40.2213C19.908 39.7405 20.2347 39.1968 20.4682 38.6115C21.3882 40.0203 22.7645 41.0456 24.2002 41.9282L23.2429 41.928ZM68.5775 42.9539C68.63 44.1972 68.6643 45.4411 68.6802 46.6855C67.99 46.4716 67.2436 46.536 66.6002 46.8648C66.4782 46.3111 66.1971 45.8051 65.7913 45.4092C65.3855 45.0132 64.8728 44.7444 64.3163 44.636C64.5741 44.1222 64.6809 43.5458 64.6243 42.9738C65.9405 42.9328 67.2599 42.9647 68.5775 42.9543V42.9539ZM25.2679 55.4914C25.3071 53.2587 28.4307 53.2591 28.4696 55.4914C28.4304 57.7242 25.3067 57.7239 25.2679 55.4914ZM58.0181 41.2768C57.2706 41.525 56.4592 41.5952 55.6914 41.7656C55.4007 41.4333 55.4151 40.9165 55.1794 40.54C56.2786 40.02 57.3283 39.4752 58.5194 39.1285C59.7215 38.7109 60.5354 38.4085 60.7845 39.9879C59.8387 40.3544 58.9991 40.9511 58.0181 41.2768ZM30.2008 43.6971C28.0978 43.6587 28.0981 40.3383 30.2008 40.3003C32.304 40.3387 32.304 43.6591 30.2008 43.6971ZM43.9192 35.0442C42.6279 35.3939 41.3744 35.6608 40.0472 35.5831C38.1232 35.5915 38.1123 34.5051 39.5858 33.5498C40.8389 32.8093 42.3218 32.7242 43.7159 32.7277C45.1464 33.2021 45.6384 34.4309 43.92 35.0442H43.9192ZM29.2517 36.9072C29.9971 37.0203 32.824 37.6664 30.8976 38.4344C29.1888 39.1815 26.9906 39.2368 25.3616 38.2605C23.8034 36.8426 28.5355 36.6827 29.2517 36.9072ZM33.3031 27.6813C34.3879 28.2253 35.1763 29.1151 35.988 29.9763C36.3818 30.6003 36.8799 32.0563 35.6891 32.1095C34.6241 31.9994 33.6094 31.6 32.7549 30.9547C31.9429 30.3429 30.0963 28.3447 31.5591 27.4741C32.0978 27.1291 32.8064 27.3797 33.3031 27.6813ZM50.1109 27.88C49.749 29.5154 45.3829 29.1386 44.1893 28.6279C43.1925 26.2555 49.657 26.2619 50.1109 27.88ZM37.3579 35.7439C37.2243 35.9511 37.3768 36.3607 37.2671 36.5944C37.472 37.1064 35.1651 36.8301 34.8128 36.8749C34.1418 36.8474 32.6597 36.8981 32.2663 36.372C32.3128 34.569 36.2615 35.3597 37.3578 35.741L37.3579 35.7439ZM44.1373 29.9039C44.1303 30.7621 43.8995 31.381 42.9591 31.2077C42.1152 31.1576 41.272 31.0674 40.436 30.9418C39.6487 30.8234 38.8637 30.6786 38.0879 30.4991C37.6346 30.3943 37.6839 30.3144 37.8431 29.8591C37.9723 29.5254 38.1719 29.2234 38.4282 28.9736C40.3558 29.1067 42.267 29.4177 44.1373 29.9027V29.9039ZM30.9072 32.92C31.2872 32.7837 32.0135 32.4517 32.4229 32.5055C32.7154 32.5439 32.7075 32.6919 32.8253 32.9855C32.8944 33.1584 33.0887 33.4691 33.1293 33.7154C31.8591 34.3677 30.4677 34.7816 29.1807 35.3877C28.9549 35.0056 28.801 34.5864 28.5858 34.201C29.2259 33.5775 30.0951 33.2541 30.9072 32.92ZM47.072 30.9925C47.1204 30.943 47.1584 30.8843 47.1839 30.8199C47.2094 30.7555 47.2218 30.6867 47.2203 30.6175C47.2215 30.8027 50.1191 30.9183 50.4791 30.9455C51.2354 31.06 53.4853 30.7344 52.4055 32.092C51.2179 32.3202 49.9213 32.252 48.7056 32.2584C47.5261 32.2293 46.9103 32.568 47.072 30.9925ZM58.3274 30.1189C57.3391 30.5219 54.3834 31.7901 54.464 29.8296C55.5946 29.1646 56.8336 28.7042 58.1242 28.4696C58.6143 28.4056 58.9191 28.6591 59.0453 29.1634C59.1927 29.7507 58.7944 29.896 58.3279 30.1189H58.3274ZM26.1699 31.5816C25.9311 31.7794 25.6332 31.892 25.3232 31.9016C23.9018 30.9896 24.9189 29.068 24.9824 27.7336C25.5277 28.5 26.2304 29.1768 26.7571 29.956C27.2722 30.5271 26.6584 31.192 26.1704 31.5816H26.1699ZM26.7856 32.4575C28.9386 30.8107 27.9704 29.7232 26.5786 28.0575C27.9573 28.8415 30.3499 29.1546 30.2266 31.1805C29.7946 30.9475 28.6205 30.2272 28.6637 31.225C28.8122 31.6717 29.456 31.833 29.8021 32.089C29.2227 32.3154 28.6724 32.6103 28.1631 32.9675C27.7624 32.7458 27.2258 32.6765 26.7861 32.4575H26.7856ZM26.6888 49.5979C26.6992 49.6023 26.7093 49.6072 26.7199 49.6109C26.7109 49.6239 26.7007 49.636 26.692 49.6493L26.6888 49.5979ZM29.8967 48.3536C27.7936 48.3152 27.7939 44.9949 29.8967 44.9568C32 44.9952 32 48.3155 29.8971 48.3536H29.8967ZM38.3939 38.5872C38.3948 38.0819 38.4917 37.5814 38.6795 37.1123C40.0513 37.4956 41.3849 38.0041 42.6635 38.6314C43.6763 39.033 43.8779 39.5325 43.1829 40.4219C43.2789 40.3957 42.8259 40.2163 42.7467 40.1871C41.2968 39.6531 39.8498 39.1088 38.3944 38.5872H38.3939ZM45.2549 37.1237C44.0858 37.9138 44.0816 38.0011 43.5831 36.4933C44.4181 36.0731 49.041 33.3682 49.0779 33.8237C49.1074 34.1121 49.1613 34.3974 49.2392 34.6767C47.9416 35.5402 46.6147 36.36 45.2554 37.1237H45.2549ZM52.9227 34.3823C53.248 33.885 53.9408 32.7608 54.6736 32.2933C54.4613 33.6833 54.3507 35.087 54.3429 36.4931C53.5327 36.4565 52.7511 36.2275 51.9815 35.9914C52.2504 35.4299 52.5654 34.8917 52.9232 34.3823H52.9227ZM60.9299 34.2195C60.8314 34.3105 60.7074 34.3692 60.5747 34.3879C60.4419 34.4065 60.3065 34.3843 60.1867 34.324C59.9918 34.082 59.7713 33.8618 59.5291 33.6671C59.3024 33.2736 58.9296 33.2842 59.0898 32.7976C59.3165 32.1576 59.5607 30.7688 60.5147 31.3256C60.9872 31.5591 61.0587 31.9709 61.2507 32.4101C61.1179 33.0042 61.0112 33.6088 60.9304 34.2195H60.9299ZM23.3159 34.9376C23.7682 34.6299 24.2394 34.351 24.7267 34.1024C25.5447 33.6613 26.4891 33.0271 26.8351 34.2944C26.9525 34.7711 26.6271 34.9136 26.2805 35.1557C25.7944 35.4954 25.3025 35.8265 24.8048 36.1488C24.3071 36.4712 23.8033 36.7833 23.2933 37.0853C22.9146 37.3103 22.0263 38.0144 21.4947 37.9469C20.5907 36.792 22.5383 35.4666 23.3159 34.9376ZM51.7959 37.3554C51.7484 37.2357 51.7252 37.1077 51.7277 36.9789C52.625 37.4363 53.8656 37.5111 54.7896 37.545C54.9439 37.5479 55.0931 37.49 55.2051 37.3839C55.3171 37.2777 55.3828 37.1318 55.3882 36.9776C55.386 35.3827 55.4943 33.7896 55.712 32.2096C56.8701 33.0416 58.0579 33.8963 59.1287 34.8336C58.4063 35.6592 57.0106 35.7283 56.3587 36.5843C56.3304 36.6347 56.3139 36.6908 56.3102 36.7484C56.3066 36.8061 56.316 36.8638 56.3378 36.9173C56.3596 36.9708 56.3931 37.0187 56.436 37.0574C56.4788 37.0961 56.5299 37.1247 56.5853 37.141C57.6216 37.333 58.6757 36.3631 59.5578 35.893C59.4912 36.5576 59.2565 37.204 59.0656 37.8434C57.8149 38.1055 56.6051 38.5344 55.4685 39.1186C55.4402 38.6195 55.2347 37.456 54.5651 38.1304C54.2706 38.5784 54.4915 39.1845 54.5307 39.6824C54.4347 39.7485 54.3407 39.8162 54.2485 39.8853C53.6568 38.8523 52.7183 38.0762 51.7951 37.3554H51.7959ZM27.456 51.3117C27.4951 49.0791 30.6187 49.0794 30.6576 51.3117C30.6184 53.544 27.4949 53.544 27.456 51.3117ZM47.5098 37.6547C49.001 35.5331 55.5717 41.0467 52.7131 41.7416C52.4095 41.759 52.1051 41.7269 51.8119 41.6464C50.4197 40.9331 46.6466 39.7653 47.5098 37.6547ZM44.6536 20.7699C42.1439 20.7255 39.6341 20.6752 37.1245 20.6336C36.5739 19.3291 36.8002 17.7506 37.2504 16.3843C37.5361 15.8838 37.9291 15.4528 38.4011 15.1222C38.8731 14.7915 39.4125 14.5695 39.9805 14.472C44.2984 13.8783 45.3301 17.0122 44.6536 20.7699ZM25.8336 59.3002C25.7944 61.533 22.6707 61.5327 22.632 59.3002C22.6711 57.0675 25.7947 57.0679 25.8336 59.3002ZM33.4816 41.928C33.2277 41.0282 33.5491 40.7544 34.4059 40.6544C35.1048 40.4883 35.8169 40.3833 36.5339 40.3405C37.2037 40.3007 37.8756 40.3136 38.5434 40.3789C39.0919 40.4335 39.2925 40.3629 39.3339 40.9415C39.3614 41.2259 39.3353 41.5129 39.257 41.7877C39.1725 41.816 39.096 41.8644 39.0343 41.9287L33.4816 41.928ZM47.6357 41.9296C46.6131 41.1696 45.6487 40.3547 46.4552 39.0186C46.9032 40.3411 48.3282 41.3035 49.7656 41.9298L47.6357 41.9296ZM61.7786 41.5776C63.8816 41.616 63.8815 44.9365 61.7786 44.9744C59.6751 44.9368 59.6754 41.6163 61.7781 41.5783L61.7786 41.5776ZM67.8586 51.2157C65.7555 51.1775 65.7559 47.857 67.8586 47.8189C69.9607 47.8579 69.9603 51.1784 67.8575 51.2163L67.8586 51.2157ZM53.6677 14.696C54.281 15.4952 54.2917 17.672 53.9178 18.5557C52.9453 19.0128 51.4573 18.7711 50.5059 18.753C49.7611 18.7389 49.0179 18.708 48.2736 18.6675C47.4736 18.6376 46.4867 18.7335 46.0301 17.9498C45.9231 16.5839 45.4957 15.2829 44.4213 14.4219C47.5045 14.4767 50.5866 14.568 53.6677 14.696ZM20.4266 42.9639H24.8698C24.6749 46.409 24.7621 49.9079 24.8971 53.3544C24.5134 53.7393 24.2398 54.2201 24.1052 54.7466C23.9705 55.2732 23.9795 55.8263 24.1314 56.3482C22.3275 56.3802 20.9725 58.2888 21.472 60.0632C21.1981 60.0679 20.9264 60.1133 20.6658 60.1979C20.3463 54.4563 20.2666 48.7116 20.4266 42.9639ZM19.4112 65.6109C19.372 67.8435 16.2483 67.8432 16.2096 65.6109C16.2487 63.3782 19.3723 63.3786 19.4112 65.6109ZM32.1851 49.2109C33.5309 48.5338 33.8069 46.4144 33.0845 45.2123C33.5889 44.5609 33.9029 43.7824 33.9917 42.9634C41.2829 42.9605 48.5741 42.9593 55.8653 42.9597C56.0105 46.213 56.0492 49.474 55.9815 52.7427C48.2303 52.8968 40.4749 52.8666 32.7227 52.9253C33.3771 51.6995 33.1 50.3226 32.1851 49.2111V49.2109ZM64.5211 50.8152C64.5691 51.7458 65.3211 52.5952 66.2376 53.0072C65.3646 53.0065 64.4915 53.0065 63.6184 53.0072C63.6328 52.3539 63.6439 51.7006 63.6517 51.0474C63.9517 51.0154 64.2449 50.9372 64.5208 50.8154L64.5211 50.8152ZM63.5946 54.0165C65.2693 54.0255 66.9442 54.0271 68.6186 54.012C68.5248 57.7066 68.3509 61.4023 68.0725 65.089C66.3786 65.0815 64.6845 65.0823 62.9906 65.0824C63.2923 61.4008 63.4936 57.7122 63.5943 54.0167L63.5946 54.0165ZM52.3896 13.6091C48.1557 13.4811 43.8986 13.2304 39.6767 13.3818C35.9007 13.3368 32.1218 13.4581 28.3487 13.6218C27.9326 13.543 27.5648 13.3025 27.3258 12.953C27.3646 11.6003 27.6081 10.2613 28.048 8.98162C36.4133 8.69362 44.7962 8.78194 53.1575 9.14482C53.7303 10.9871 54.1512 13.3592 52.3896 13.6091ZM12.4111 38.936C14.8152 36.3259 16.2965 32.999 16.6277 29.4659C17.1735 29.9656 17.6756 30.5111 18.1285 31.0963C18.3845 32.5186 15.5306 33.1098 16.4853 34.9843C15.5131 35.2626 14.9751 36.7179 15.5389 37.6029C13.1733 37.5229 13.8395 40.2403 12.5848 41.241C11.8149 41.0592 11.0697 40.7852 10.3653 40.425C11.1583 40.0759 11.8987 39.4499 12.4111 38.936ZM16.6803 36.0133C17.3683 35.5645 18.0891 36.4843 17.7221 37.1349C16.9418 38.1559 15.713 36.7843 16.6803 36.0125V36.0133ZM14.0669 40.5715C14.3189 39.781 14.7389 37.9064 15.9069 38.7392C16.3762 39.2082 15.9451 40.0272 15.3496 39.5299C15.0746 39.3002 14.4938 39.509 14.665 39.9285C15.529 41.6795 17.7455 40.0131 16.8762 38.5002C18.4463 38.6695 19.4522 36.7402 18.4319 35.5698C19.2251 35.2178 19.7027 34.2898 18.8735 33.492C18.4752 33.1088 17.8683 33.7138 18.2663 34.1C18.8487 34.6645 17.0495 35.5435 17.2451 34.132C17.4815 33.2851 18.4931 32.9221 18.8024 32.0935C21.532 36.3495 18.9464 42.0455 13.5661 41.4037C13.7746 41.1535 13.9434 40.8729 14.0669 40.5715ZM19.344 54.0168C19.4168 56.2747 19.532 58.5301 19.6659 60.7768C19.0871 61.2948 18.7328 62.0179 18.6784 62.7928C17.3085 62.3128 15.7458 63.0883 15.2064 64.3957C15.1031 64.3115 14.994 64.2346 14.88 64.1655C14.625 60.7895 14.4333 57.4022 14.336 54.0122C16.0053 54.0271 17.6744 54.0256 19.344 54.0168ZM13.4277 65.0104C15.5307 65.0487 15.5304 68.3691 13.4277 68.4071C11.324 68.3688 11.3243 65.048 13.4271 65.0104H13.4277ZM27.3898 61.5335C27.7006 61.1391 27.9241 60.6833 28.0454 60.196C28.1668 59.7088 28.1833 59.2014 28.0938 58.7074C30.1338 58.7451 31.3928 56.3147 30.8432 54.4885C31.2737 54.4317 31.6737 54.235 31.9813 53.9285C39.9744 53.8711 47.9682 53.8519 55.9607 53.7272C55.8688 57.4299 55.6567 61.1323 55.3485 64.8205C46.1141 65.0054 36.8746 64.9522 27.6391 65.035C27.5454 63.8685 27.4621 62.7013 27.3891 61.5335H27.3898ZM73.9944 71.9205C74.7816 72.219 75.0295 72.6971 74.3874 73.3362C73.8754 73.7959 73.0032 73.2624 72.4531 73.0358C71.7851 72.7606 71.1263 72.4642 70.4731 72.1559C70.2295 72.0405 68.9691 71.5787 68.9234 71.3867C68.9733 71.0078 69.3013 70.4624 69.5139 70.1432C70.3239 69.2915 71.4659 70.5139 72.2488 70.881C72.8352 71.2184 73.4149 71.569 73.9938 71.9205H73.9944ZM65.9504 12.421C66.5562 13.1388 67.249 13.7784 68.0128 14.325C66.74 14.2242 65.4656 14.1379 64.1927 14.0469C63.5367 13.9999 63.5367 15.0258 64.1927 15.0709C65.9165 15.1883 67.64 15.3269 69.3651 15.4266C69.3551 16.2983 69.4306 17.1978 69.1891 18.048C68.4816 18.477 67.436 18.2445 66.6275 18.2677C65.4874 18.244 64.2983 18.0963 63.1471 18.1274C63.2402 12.7626 61.6847 15.5346 60.3349 9.62386C61.6125 9.64498 62.8875 9.70386 64.1634 9.77666C64.7175 10.6855 65.2658 11.597 65.9504 12.421ZM63.1544 8.20002C63.2848 8.38706 63.4104 8.57698 63.5346 8.76818C62.3634 8.66386 61.1773 8.64658 60.004 8.62898C59.3418 6.83874 58.5128 4.98754 57.2983 3.53378C59.7851 4.24658 61.7472 6.08802 63.1544 8.20002ZM56.304 3.94658C57.6853 5.5493 58.4883 7.56146 59.1952 9.53218C59.6664 10.9979 59.9533 12.5541 60.7931 13.8698C59.4713 13.6705 58.1294 13.641 56.8 13.7821C56.3973 13.8322 56.2157 14.4597 56.6947 14.5602C57.4246 14.6888 58.1638 14.7567 58.9048 14.7634C61.0272 14.7099 61.8727 14.7032 61.9403 17.1173C61.9989 17.6893 62.2683 18.7746 61.5714 19.0309H56.9458C56.5488 18.9296 56.1651 18.8346 56.0354 18.3343C55.7431 12.3519 55.421 4.58914 49.4311 1.37314C49.4641 1.3068 49.5137 1.25014 49.5751 1.20866C52.0712 1.14402 54.6346 2.04274 56.304 3.94658ZM40.5111 1.6853C42.8928 1.7141 45.2744 1.77682 47.6515 1.93394C50.2971 3.38402 51.952 5.25154 52.832 8.18402C44.7027 7.77058 36.5652 7.69901 28.4194 7.9693C29.4311 5.7533 30.8922 2.89858 33.257 1.94194C35.672 1.77842 38.0915 1.71458 40.5111 1.6853ZM30.7421 1.21842C30.9731 1.20578 31.2047 1.2013 31.4362 1.20098C31.496 1.24078 31.5454 1.29433 31.5802 1.35714C25.6259 4.60514 25.1706 12.3362 24.9861 18.3349C24.8581 18.8359 24.4751 18.9311 24.0787 19.0315H19.4501C18.7531 18.7755 19.0223 17.6899 19.081 17.1179C19.1495 14.7019 19.9952 14.7114 22.1167 14.7642C22.8577 14.7574 23.5969 14.6894 24.3267 14.5608C24.8019 14.4611 24.6279 13.8333 24.2213 13.7827C22.8913 13.6415 21.5488 13.6711 20.2263 13.8706C21.2229 12.2722 21.5591 10.3835 22.1783 8.61538C23.4472 4.72354 26.3423 1.24418 30.7421 1.21842ZM21.2221 4.69986C21.9772 4.21847 22.7908 3.83569 23.6431 3.56082C22.6007 4.84082 21.9258 6.36578 21.2976 7.88082C20.1863 7.9269 19.0675 7.97026 17.9584 8.07186C18.8511 6.80706 19.9221 5.5533 21.2224 4.69986H21.2221ZM15.072 12.421C15.9293 11.3891 16.5751 10.2211 17.2842 9.09138C18.4987 9.01538 19.7127 8.9389 20.9283 8.88466C20.3418 10.636 20.0751 12.5773 18.8386 14.0272C17.5387 15.2432 17.9151 17.1813 17.8719 18.8123C16.2203 18.7034 14.6431 18.7923 13.0266 18.632C12.4549 18.5968 11.9357 18.6229 11.4928 18.3227C11.473 17.3561 11.5172 16.3893 11.6253 15.4285C13.3611 15.3293 15.0954 15.1885 16.8298 15.0709C17.4839 15.0263 17.4877 14.0002 16.8298 14.0469C15.5568 14.1379 14.2826 14.2242 13.0096 14.325C13.7734 13.7784 14.4662 13.1388 15.072 12.421ZM10.2221 27.872C10.9485 27.0576 12.825 25.8573 13.4775 27.376C10.1093 28.0255 7.23827 35.1111 8.08547 38.1578C6.26371 38.517 6.72051 36.4187 6.84307 35.301C7.23475 32.6357 8.31235 29.8759 10.2221 27.872ZM9.23203 70.8298C10.0021 69.9095 12.9975 69.8093 14.1711 69.8602C14.1815 70.3171 14.4344 71.0678 13.9951 71.3373C12.4693 71.8237 10.7458 71.6778 9.16787 71.8838C9.15107 71.516 9.09843 71.1373 9.23203 70.8298ZM2.87443 71.8285C4.00963 71.1383 5.12563 70.4685 6.36819 69.9651C6.56587 70.3668 6.71864 70.789 6.82371 71.2242C5.31971 71.8774 3.99683 72.9915 2.49635 73.6829C2.30307 73.2762 2.14435 72.8573 1.95587 72.4483C2.18307 72.188 2.63683 71.9802 2.87491 71.8285H2.87443ZM7.35443 74.9586C6.83624 75.0495 6.31555 75.1241 5.79235 75.1826C5.08691 75.3815 4.56227 74.989 4.61059 74.1838C6.03075 73.8062 7.44051 73.315 8.92115 73.2123C9.43139 73.1605 10.0331 72.9763 10.1319 73.621C10.2963 74.6941 8.06403 74.8344 7.35475 74.9586H7.35443ZM16.7664 74.488C16.2082 75.0539 13.5677 74.9306 12.7051 74.9306C11.4224 75.0295 11.5565 74.5829 11.4635 73.3635C12.5149 73.6499 17.777 72.293 16.7664 74.488ZM23.2304 75.3386C22.6659 75.3093 22.1943 75.3512 22.0027 74.6797C21.7826 73.9067 21.7805 72.9805 21.6859 72.1813C21.4939 70.4822 21.2917 68.7758 21.1722 67.0733C23.2541 67.6722 25.0995 65.7079 25.5242 63.8223C25.8298 67.4586 26.22 71.1042 26.8042 74.7023C26.7836 74.8645 26.7271 75.0201 26.6388 75.1578C26.5504 75.2955 26.4325 75.4117 26.2936 75.4981L23.2304 75.3386ZM51.14 74.8939C43.6592 75.0405 36.1741 75.1205 28.6928 74.9848C28.3491 71.9861 27.9511 69.0413 27.7205 66.035C36.9016 65.9434 46.0837 65.9486 55.2643 65.8048C55.0346 68.8154 54.6208 71.7995 54.2699 74.7903C53.224 74.8435 52.1866 74.871 51.1405 74.8938L51.14 74.8939ZM60.5835 75.2224C59.3456 75.4824 57.9882 75.3984 56.7123 75.5215C56.5608 75.4383 56.4312 75.3203 56.3343 75.1771C56.2375 75.0339 56.1761 74.8697 56.1554 74.6981C57.6434 64.5504 58.4154 54.2467 58.1426 43.9874C58.4055 45.081 59.4327 46.1575 60.508 46.4424C59.4339 48.1488 60.5711 50.7352 62.6155 51.012C62.5267 58.4701 62.0323 65.9177 61.1346 73.3221C61.0647 73.8811 61.1439 74.9171 60.584 75.2223L60.5835 75.2224ZM67.0736 75.2224C66.4744 75.2228 65.8756 75.1896 65.28 75.1231C64.7168 75.0394 64.6967 74.9694 64.6615 74.4066C64.6559 74.3181 64.6258 73.6978 64.625 73.6066C65.064 73.364 65.6042 73.4021 66.1221 73.3894C67.4392 73.4085 68.8309 73.289 70.1317 73.5194C70.6088 73.6512 70.6938 73.7613 70.7802 74.2178C70.8234 74.4502 70.8707 75.0131 70.6277 75.1742C69.4443 75.244 68.2598 75.2601 67.0741 75.2224H67.0736ZM76.9648 76.7264C75.5011 76.6872 73.9448 76.7397 72.4762 76.5077C72.4126 76.031 72.3922 75.5495 72.4152 75.0691C74.2091 75.2291 76.0843 75.2347 77.849 75.4438C77.8605 76.0659 77.6696 76.6706 76.9653 76.7258L76.9648 76.7264Z"/>
</mask>
<path d="M78.7 74.4858C77.8051 73.8752 76.368 74.2045 75.3467 74.0426C77.6747 71.3055 73.388 70.4069 71.6936 69.0581C73.9355 68.0768 74.6279 67.6559 73.0744 65.3461C72.5971 64.688 72.1682 64.2763 71.3499 64.6565C70.5292 65.0398 69.7449 65.4968 69.0067 66.0218C69.3907 61.2885 69.5976 56.5386 69.6816 51.7943C70.0781 51.4515 70.3767 51.0098 70.5472 50.5142C72.7533 50.6214 74.0562 47.7237 72.6592 46.0539C74.0587 44.6765 73.3559 41.9755 71.4842 41.5002C73.9173 40.4944 74.4282 38.5544 74.5976 36.1311C74.6525 35.2597 73.6283 34.6384 73.0287 34.1047C72.2823 33.44 71.5069 32.8087 70.7171 32.197C70.0312 31.6655 69.3344 31.1487 68.6335 30.6376C68.0543 30.2154 67.1091 29.2218 66.3749 29.2581C65.7427 29.3064 65.1161 29.4118 64.5029 29.5731C66.2869 26.0927 68.649 22.94 70.6424 19.6131C70.7297 18.3659 70.7186 17.1137 70.6093 15.8682C70.5664 15.4495 70.6328 14.8035 70.3205 14.4341C63.5205 10.6261 65.1069 3.69634 55.5544 1.88306C53.9485 0.688819 51.8091 0.14722 49.8015 0.12834C48.9568 0.0566597 48.0999 0.0201798 47.6685 0.89378C42.8988 0.6461 38.1194 0.6461 33.3496 0.89378C32.9927 0.26978 32.4256 0.0534597 31.7167 0.12818C29.5146 0.0777797 27.2424 0.58562 25.4349 1.88098C16.6288 3.6029 17.4859 9.4053 12.0523 13.5888C10.8363 14.2512 10.3661 14.3544 10.4128 15.8691C10.4083 16.6821 10.0117 19.8127 10.716 20.1411C12.112 22.424 13.7216 24.5712 15.0919 26.872C14.1195 26.2493 13.1802 25.384 11.9515 25.6387C7.89379 26.7699 5.14243 33.6523 5.70627 37.5587C5.76707 38.0927 5.98419 38.5866 6.43331 38.8707C8.31571 40.7203 10.7603 42.0759 13.3818 42.4093C13.0896 48.4349 13.2339 54.4907 13.6 60.517C11.2146 59.793 9.52003 63.0117 11.4283 64.597C10.8995 65.1353 10.5934 65.8535 10.5714 66.6078C9.26419 66.891 9.64339 68.3251 9.92979 69.2547C9.02595 69.4936 8.10883 69.9693 8.11299 71.0352C8.10195 71.0395 8.08915 71.045 8.07955 71.0491C8.11395 71.021 8.00131 71.0551 7.98451 71.0643C7.68691 70.1136 7.40547 68.4018 6.05283 68.8723C4.78883 69.3238 3.55363 70.0549 2.42979 70.7821C1.83299 71.1683 0.382589 71.9501 1.13603 72.8024C1.28238 73.4478 1.5194 74.0691 1.84003 74.648C2.25155 75.2525 2.97603 74.5621 3.45603 74.3866C3.79203 76.9541 5.81971 76.3976 7.64803 76.024C8.62563 75.8438 9.85731 75.753 10.669 75.1245C10.9311 76.0483 12.0741 76.0483 12.8517 76.0698C14.1512 76.061 16.6859 76.2645 17.6271 75.3264C18.84 75.3698 20.0529 75.4129 21.2659 75.4555C21.8144 76.3821 23.0147 76.3208 24.1514 76.3784C25.3227 76.2962 27.6571 76.9931 28.3887 76.0078C37.0589 76.2619 45.7632 76.1096 54.4267 75.7613C55.2267 77.1629 57.5402 76.2984 58.8823 76.3747C59.8832 76.3239 61.1703 76.4597 61.7259 75.46L63.7739 75.38C63.9624 75.9386 64.396 76.0907 64.981 76.1618C67.0387 76.3378 69.2255 76.5123 71.2539 76.1328C71.2359 77.8475 72.5879 77.7035 73.8362 77.7397C74.9733 77.8218 76.1741 77.9664 77.3127 77.8773C78.1059 77.8152 78.6048 77.4085 78.8167 76.6427C78.9987 75.987 79.3491 74.993 78.7 74.4858ZM63.6376 73.516C63.6443 73.804 63.5858 74.0909 63.6106 74.3877L62.0056 74.4517C62.3371 71.6659 62.6795 68.8882 62.9048 66.0919C64.6015 66.1015 66.2982 66.1004 67.9951 66.0888C67.8295 68.1397 67.6291 70.1867 67.3939 72.2299C66.1616 72.3538 63.9791 71.8984 63.6376 73.516ZM18.096 73.4875C18.0106 72.2875 16.5903 72.1535 15.6415 72.0434C15.5455 71.2278 15.4548 70.4115 15.3695 69.5946C15.754 69.4665 16.0934 69.23 16.3467 68.9136C17.3935 69.8317 19.328 69.4226 20.2719 68.5296C20.4608 70.5114 20.6827 72.4912 20.9723 74.4579C19.9986 74.4153 19.0248 74.3726 18.0509 74.3299C18.0996 74.052 18.1148 73.7691 18.096 73.4875ZM8.35331 39.1399C11.9978 38.2875 14.8296 31.3874 14.6893 27.9322C15.9053 28.5082 15.6618 29.6256 15.4299 30.7491C14.6645 34.052 12.7063 38.7098 9.17683 39.7363C8.89603 39.5467 8.62275 39.3453 8.35331 39.1399ZM65.7639 32.7002C67.1211 32.657 68.7435 31.8178 69.8645 32.9621C69.5658 34.3823 69.3855 35.8547 68.7183 37.1701C67.7832 36.3835 66.8871 35.5482 65.9128 34.8104C65.4712 34.476 64.9378 35.1962 65.3269 35.5698C66.8904 36.9387 68.4157 38.7909 70.5066 39.2936C69.2746 40.4879 67.4626 40.996 65.7715 41.0224C66.5656 40.6503 67.5779 40.1744 68.1319 39.5039C68.3909 39.1904 68.1571 38.6498 67.7106 38.78C66.4389 39.2576 65.3546 40.3151 63.9917 40.6016C63.4706 40.3447 62.9956 40.0035 62.5856 39.5919C63.0077 37.5447 63.5245 35.5571 64.7002 33.809C64.7853 33.7363 64.8406 33.6346 64.8554 33.5237C64.8701 33.4127 64.8434 33.3001 64.7802 33.2077C64.3133 32.4544 63.8378 31.7109 63.3586 30.9647C64.3552 30.7159 65.3647 30.5219 66.3826 30.3835C66.8244 30.7035 67.2655 31.024 67.7059 31.345C66.9101 31.388 66.1242 31.601 65.5768 32.0109C65.5094 32.0536 65.4574 32.1168 65.4284 32.1913C65.3995 32.2657 65.3952 32.3475 65.4161 32.4245C65.437 32.5016 65.4821 32.5699 65.5446 32.6195C65.6072 32.6691 65.684 32.6974 65.7639 32.7002ZM71.6595 34.4152C72.7424 35.5794 71.9512 37.252 71.2495 38.3861C70.66 38.2838 70.0905 38.0884 69.5624 37.8072C70.1554 36.6039 70.7485 35.0824 70.7911 33.6952C71.0834 33.9317 71.3729 34.1717 71.6595 34.4152ZM14.3935 42.9648H19.4293C19.2394 46.3019 19.2255 49.6562 19.3139 53.0072C17.6461 53.0072 15.9783 53.0063 14.3104 53.0141C14.2325 49.6621 14.2503 46.3095 14.3935 42.9648ZM28.7069 14.6426C31.4922 14.5359 34.2779 14.4596 37.064 14.4136C33.301 18.8223 38.3424 19.3647 27.4683 18.4965C27.1061 17.2165 27.393 15.9779 27.3963 14.6944C27.832 14.6735 28.272 14.664 28.7069 14.6426ZM61.8495 38.2299C61.6175 36.0389 62.0215 33.7776 62.5794 31.6589C62.9867 32.3073 63.3992 32.9529 63.8167 33.5957C62.5943 34.8133 62.2671 36.6197 61.8495 38.2299ZM62.2175 47.5467C62.2567 45.3139 65.3803 45.3143 65.4192 47.5467C65.3805 49.7794 62.2568 49.7791 62.2179 47.5467H62.2175ZM21.5274 61.32C23.6304 61.3583 23.6301 64.6787 21.5274 64.7168C19.424 64.6776 19.424 61.3571 21.5274 61.32ZM23.2429 41.928C22.0883 41.1949 20.8701 40.4439 19.5007 40.2213C19.908 39.7405 20.2347 39.1968 20.4682 38.6115C21.3882 40.0203 22.7645 41.0456 24.2002 41.9282L23.2429 41.928ZM68.5775 42.9539C68.63 44.1972 68.6643 45.4411 68.6802 46.6855C67.99 46.4716 67.2436 46.536 66.6002 46.8648C66.4782 46.3111 66.1971 45.8051 65.7913 45.4092C65.3855 45.0132 64.8728 44.7444 64.3163 44.636C64.5741 44.1222 64.6809 43.5458 64.6243 42.9738C65.9405 42.9328 67.2599 42.9647 68.5775 42.9543V42.9539ZM25.2679 55.4914C25.3071 53.2587 28.4307 53.2591 28.4696 55.4914C28.4304 57.7242 25.3067 57.7239 25.2679 55.4914ZM58.0181 41.2768C57.2706 41.525 56.4592 41.5952 55.6914 41.7656C55.4007 41.4333 55.4151 40.9165 55.1794 40.54C56.2786 40.02 57.3283 39.4752 58.5194 39.1285C59.7215 38.7109 60.5354 38.4085 60.7845 39.9879C59.8387 40.3544 58.9991 40.9511 58.0181 41.2768ZM30.2008 43.6971C28.0978 43.6587 28.0981 40.3383 30.2008 40.3003C32.304 40.3387 32.304 43.6591 30.2008 43.6971ZM43.9192 35.0442C42.6279 35.3939 41.3744 35.6608 40.0472 35.5831C38.1232 35.5915 38.1123 34.5051 39.5858 33.5498C40.8389 32.8093 42.3218 32.7242 43.7159 32.7277C45.1464 33.2021 45.6384 34.4309 43.92 35.0442H43.9192ZM29.2517 36.9072C29.9971 37.0203 32.824 37.6664 30.8976 38.4344C29.1888 39.1815 26.9906 39.2368 25.3616 38.2605C23.8034 36.8426 28.5355 36.6827 29.2517 36.9072ZM33.3031 27.6813C34.3879 28.2253 35.1763 29.1151 35.988 29.9763C36.3818 30.6003 36.8799 32.0563 35.6891 32.1095C34.6241 31.9994 33.6094 31.6 32.7549 30.9547C31.9429 30.3429 30.0963 28.3447 31.5591 27.4741C32.0978 27.1291 32.8064 27.3797 33.3031 27.6813ZM50.1109 27.88C49.749 29.5154 45.3829 29.1386 44.1893 28.6279C43.1925 26.2555 49.657 26.2619 50.1109 27.88ZM37.3579 35.7439C37.2243 35.9511 37.3768 36.3607 37.2671 36.5944C37.472 37.1064 35.1651 36.8301 34.8128 36.8749C34.1418 36.8474 32.6597 36.8981 32.2663 36.372C32.3128 34.569 36.2615 35.3597 37.3578 35.741L37.3579 35.7439ZM44.1373 29.9039C44.1303 30.7621 43.8995 31.381 42.9591 31.2077C42.1152 31.1576 41.272 31.0674 40.436 30.9418C39.6487 30.8234 38.8637 30.6786 38.0879 30.4991C37.6346 30.3943 37.6839 30.3144 37.8431 29.8591C37.9723 29.5254 38.1719 29.2234 38.4282 28.9736C40.3558 29.1067 42.267 29.4177 44.1373 29.9027V29.9039ZM30.9072 32.92C31.2872 32.7837 32.0135 32.4517 32.4229 32.5055C32.7154 32.5439 32.7075 32.6919 32.8253 32.9855C32.8944 33.1584 33.0887 33.4691 33.1293 33.7154C31.8591 34.3677 30.4677 34.7816 29.1807 35.3877C28.9549 35.0056 28.801 34.5864 28.5858 34.201C29.2259 33.5775 30.0951 33.2541 30.9072 32.92ZM47.072 30.9925C47.1204 30.943 47.1584 30.8843 47.1839 30.8199C47.2094 30.7555 47.2218 30.6867 47.2203 30.6175C47.2215 30.8027 50.1191 30.9183 50.4791 30.9455C51.2354 31.06 53.4853 30.7344 52.4055 32.092C51.2179 32.3202 49.9213 32.252 48.7056 32.2584C47.5261 32.2293 46.9103 32.568 47.072 30.9925ZM58.3274 30.1189C57.3391 30.5219 54.3834 31.7901 54.464 29.8296C55.5946 29.1646 56.8336 28.7042 58.1242 28.4696C58.6143 28.4056 58.9191 28.6591 59.0453 29.1634C59.1927 29.7507 58.7944 29.896 58.3279 30.1189H58.3274ZM26.1699 31.5816C25.9311 31.7794 25.6332 31.892 25.3232 31.9016C23.9018 30.9896 24.9189 29.068 24.9824 27.7336C25.5277 28.5 26.2304 29.1768 26.7571 29.956C27.2722 30.5271 26.6584 31.192 26.1704 31.5816H26.1699ZM26.7856 32.4575C28.9386 30.8107 27.9704 29.7232 26.5786 28.0575C27.9573 28.8415 30.3499 29.1546 30.2266 31.1805C29.7946 30.9475 28.6205 30.2272 28.6637 31.225C28.8122 31.6717 29.456 31.833 29.8021 32.089C29.2227 32.3154 28.6724 32.6103 28.1631 32.9675C27.7624 32.7458 27.2258 32.6765 26.7861 32.4575H26.7856ZM26.6888 49.5979C26.6992 49.6023 26.7093 49.6072 26.7199 49.6109C26.7109 49.6239 26.7007 49.636 26.692 49.6493L26.6888 49.5979ZM29.8967 48.3536C27.7936 48.3152 27.7939 44.9949 29.8967 44.9568C32 44.9952 32 48.3155 29.8971 48.3536H29.8967ZM38.3939 38.5872C38.3948 38.0819 38.4917 37.5814 38.6795 37.1123C40.0513 37.4956 41.3849 38.0041 42.6635 38.6314C43.6763 39.033 43.8779 39.5325 43.1829 40.4219C43.2789 40.3957 42.8259 40.2163 42.7467 40.1871C41.2968 39.6531 39.8498 39.1088 38.3944 38.5872H38.3939ZM45.2549 37.1237C44.0858 37.9138 44.0816 38.0011 43.5831 36.4933C44.4181 36.0731 49.041 33.3682 49.0779 33.8237C49.1074 34.1121 49.1613 34.3974 49.2392 34.6767C47.9416 35.5402 46.6147 36.36 45.2554 37.1237H45.2549ZM52.9227 34.3823C53.248 33.885 53.9408 32.7608 54.6736 32.2933C54.4613 33.6833 54.3507 35.087 54.3429 36.4931C53.5327 36.4565 52.7511 36.2275 51.9815 35.9914C52.2504 35.4299 52.5654 34.8917 52.9232 34.3823H52.9227ZM60.9299 34.2195C60.8314 34.3105 60.7074 34.3692 60.5747 34.3879C60.4419 34.4065 60.3065 34.3843 60.1867 34.324C59.9918 34.082 59.7713 33.8618 59.5291 33.6671C59.3024 33.2736 58.9296 33.2842 59.0898 32.7976C59.3165 32.1576 59.5607 30.7688 60.5147 31.3256C60.9872 31.5591 61.0587 31.9709 61.2507 32.4101C61.1179 33.0042 61.0112 33.6088 60.9304 34.2195H60.9299ZM23.3159 34.9376C23.7682 34.6299 24.2394 34.351 24.7267 34.1024C25.5447 33.6613 26.4891 33.0271 26.8351 34.2944C26.9525 34.7711 26.6271 34.9136 26.2805 35.1557C25.7944 35.4954 25.3025 35.8265 24.8048 36.1488C24.3071 36.4712 23.8033 36.7833 23.2933 37.0853C22.9146 37.3103 22.0263 38.0144 21.4947 37.9469C20.5907 36.792 22.5383 35.4666 23.3159 34.9376ZM51.7959 37.3554C51.7484 37.2357 51.7252 37.1077 51.7277 36.9789C52.625 37.4363 53.8656 37.5111 54.7896 37.545C54.9439 37.5479 55.0931 37.49 55.2051 37.3839C55.3171 37.2777 55.3828 37.1318 55.3882 36.9776C55.386 35.3827 55.4943 33.7896 55.712 32.2096C56.8701 33.0416 58.0579 33.8963 59.1287 34.8336C58.4063 35.6592 57.0106 35.7283 56.3587 36.5843C56.3304 36.6347 56.3139 36.6908 56.3102 36.7484C56.3066 36.8061 56.316 36.8638 56.3378 36.9173C56.3596 36.9708 56.3931 37.0187 56.436 37.0574C56.4788 37.0961 56.5299 37.1247 56.5853 37.141C57.6216 37.333 58.6757 36.3631 59.5578 35.893C59.4912 36.5576 59.2565 37.204 59.0656 37.8434C57.8149 38.1055 56.6051 38.5344 55.4685 39.1186C55.4402 38.6195 55.2347 37.456 54.5651 38.1304C54.2706 38.5784 54.4915 39.1845 54.5307 39.6824C54.4347 39.7485 54.3407 39.8162 54.2485 39.8853C53.6568 38.8523 52.7183 38.0762 51.7951 37.3554H51.7959ZM27.456 51.3117C27.4951 49.0791 30.6187 49.0794 30.6576 51.3117C30.6184 53.544 27.4949 53.544 27.456 51.3117ZM47.5098 37.6547C49.001 35.5331 55.5717 41.0467 52.7131 41.7416C52.4095 41.759 52.1051 41.7269 51.8119 41.6464C50.4197 40.9331 46.6466 39.7653 47.5098 37.6547ZM44.6536 20.7699C42.1439 20.7255 39.6341 20.6752 37.1245 20.6336C36.5739 19.3291 36.8002 17.7506 37.2504 16.3843C37.5361 15.8838 37.9291 15.4528 38.4011 15.1222C38.8731 14.7915 39.4125 14.5695 39.9805 14.472C44.2984 13.8783 45.3301 17.0122 44.6536 20.7699ZM25.8336 59.3002C25.7944 61.533 22.6707 61.5327 22.632 59.3002C22.6711 57.0675 25.7947 57.0679 25.8336 59.3002ZM33.4816 41.928C33.2277 41.0282 33.5491 40.7544 34.4059 40.6544C35.1048 40.4883 35.8169 40.3833 36.5339 40.3405C37.2037 40.3007 37.8756 40.3136 38.5434 40.3789C39.0919 40.4335 39.2925 40.3629 39.3339 40.9415C39.3614 41.2259 39.3353 41.5129 39.257 41.7877C39.1725 41.816 39.096 41.8644 39.0343 41.9287L33.4816 41.928ZM47.6357 41.9296C46.6131 41.1696 45.6487 40.3547 46.4552 39.0186C46.9032 40.3411 48.3282 41.3035 49.7656 41.9298L47.6357 41.9296ZM61.7786 41.5776C63.8816 41.616 63.8815 44.9365 61.7786 44.9744C59.6751 44.9368 59.6754 41.6163 61.7781 41.5783L61.7786 41.5776ZM67.8586 51.2157C65.7555 51.1775 65.7559 47.857 67.8586 47.8189C69.9607 47.8579 69.9603 51.1784 67.8575 51.2163L67.8586 51.2157ZM53.6677 14.696C54.281 15.4952 54.2917 17.672 53.9178 18.5557C52.9453 19.0128 51.4573 18.7711 50.5059 18.753C49.7611 18.7389 49.0179 18.708 48.2736 18.6675C47.4736 18.6376 46.4867 18.7335 46.0301 17.9498C45.9231 16.5839 45.4957 15.2829 44.4213 14.4219C47.5045 14.4767 50.5866 14.568 53.6677 14.696ZM20.4266 42.9639H24.8698C24.6749 46.409 24.7621 49.9079 24.8971 53.3544C24.5134 53.7393 24.2398 54.2201 24.1052 54.7466C23.9705 55.2732 23.9795 55.8263 24.1314 56.3482C22.3275 56.3802 20.9725 58.2888 21.472 60.0632C21.1981 60.0679 20.9264 60.1133 20.6658 60.1979C20.3463 54.4563 20.2666 48.7116 20.4266 42.9639ZM19.4112 65.6109C19.372 67.8435 16.2483 67.8432 16.2096 65.6109C16.2487 63.3782 19.3723 63.3786 19.4112 65.6109ZM32.1851 49.2109C33.5309 48.5338 33.8069 46.4144 33.0845 45.2123C33.5889 44.5609 33.9029 43.7824 33.9917 42.9634C41.2829 42.9605 48.5741 42.9593 55.8653 42.9597C56.0105 46.213 56.0492 49.474 55.9815 52.7427C48.2303 52.8968 40.4749 52.8666 32.7227 52.9253C33.3771 51.6995 33.1 50.3226 32.1851 49.2111V49.2109ZM64.5211 50.8152C64.5691 51.7458 65.3211 52.5952 66.2376 53.0072C65.3646 53.0065 64.4915 53.0065 63.6184 53.0072C63.6328 52.3539 63.6439 51.7006 63.6517 51.0474C63.9517 51.0154 64.2449 50.9372 64.5208 50.8154L64.5211 50.8152ZM63.5946 54.0165C65.2693 54.0255 66.9442 54.0271 68.6186 54.012C68.5248 57.7066 68.3509 61.4023 68.0725 65.089C66.3786 65.0815 64.6845 65.0823 62.9906 65.0824C63.2923 61.4008 63.4936 57.7122 63.5943 54.0167L63.5946 54.0165ZM52.3896 13.6091C48.1557 13.4811 43.8986 13.2304 39.6767 13.3818C35.9007 13.3368 32.1218 13.4581 28.3487 13.6218C27.9326 13.543 27.5648 13.3025 27.3258 12.953C27.3646 11.6003 27.6081 10.2613 28.048 8.98162C36.4133 8.69362 44.7962 8.78194 53.1575 9.14482C53.7303 10.9871 54.1512 13.3592 52.3896 13.6091ZM12.4111 38.936C14.8152 36.3259 16.2965 32.999 16.6277 29.4659C17.1735 29.9656 17.6756 30.5111 18.1285 31.0963C18.3845 32.5186 15.5306 33.1098 16.4853 34.9843C15.5131 35.2626 14.9751 36.7179 15.5389 37.6029C13.1733 37.5229 13.8395 40.2403 12.5848 41.241C11.8149 41.0592 11.0697 40.7852 10.3653 40.425C11.1583 40.0759 11.8987 39.4499 12.4111 38.936ZM16.6803 36.0133C17.3683 35.5645 18.0891 36.4843 17.7221 37.1349C16.9418 38.1559 15.713 36.7843 16.6803 36.0125V36.0133ZM14.0669 40.5715C14.3189 39.781 14.7389 37.9064 15.9069 38.7392C16.3762 39.2082 15.9451 40.0272 15.3496 39.5299C15.0746 39.3002 14.4938 39.509 14.665 39.9285C15.529 41.6795 17.7455 40.0131 16.8762 38.5002C18.4463 38.6695 19.4522 36.7402 18.4319 35.5698C19.2251 35.2178 19.7027 34.2898 18.8735 33.492C18.4752 33.1088 17.8683 33.7138 18.2663 34.1C18.8487 34.6645 17.0495 35.5435 17.2451 34.132C17.4815 33.2851 18.4931 32.9221 18.8024 32.0935C21.532 36.3495 18.9464 42.0455 13.5661 41.4037C13.7746 41.1535 13.9434 40.8729 14.0669 40.5715ZM19.344 54.0168C19.4168 56.2747 19.532 58.5301 19.6659 60.7768C19.0871 61.2948 18.7328 62.0179 18.6784 62.7928C17.3085 62.3128 15.7458 63.0883 15.2064 64.3957C15.1031 64.3115 14.994 64.2346 14.88 64.1655C14.625 60.7895 14.4333 57.4022 14.336 54.0122C16.0053 54.0271 17.6744 54.0256 19.344 54.0168ZM13.4277 65.0104C15.5307 65.0487 15.5304 68.3691 13.4277 68.4071C11.324 68.3688 11.3243 65.048 13.4271 65.0104H13.4277ZM27.3898 61.5335C27.7006 61.1391 27.9241 60.6833 28.0454 60.196C28.1668 59.7088 28.1833 59.2014 28.0938 58.7074C30.1338 58.7451 31.3928 56.3147 30.8432 54.4885C31.2737 54.4317 31.6737 54.235 31.9813 53.9285C39.9744 53.8711 47.9682 53.8519 55.9607 53.7272C55.8688 57.4299 55.6567 61.1323 55.3485 64.8205C46.1141 65.0054 36.8746 64.9522 27.6391 65.035C27.5454 63.8685 27.4621 62.7013 27.3891 61.5335H27.3898ZM73.9944 71.9205C74.7816 72.219 75.0295 72.6971 74.3874 73.3362C73.8754 73.7959 73.0032 73.2624 72.4531 73.0358C71.7851 72.7606 71.1263 72.4642 70.4731 72.1559C70.2295 72.0405 68.9691 71.5787 68.9234 71.3867C68.9733 71.0078 69.3013 70.4624 69.5139 70.1432C70.3239 69.2915 71.4659 70.5139 72.2488 70.881C72.8352 71.2184 73.4149 71.569 73.9938 71.9205H73.9944ZM65.9504 12.421C66.5562 13.1388 67.249 13.7784 68.0128 14.325C66.74 14.2242 65.4656 14.1379 64.1927 14.0469C63.5367 13.9999 63.5367 15.0258 64.1927 15.0709C65.9165 15.1883 67.64 15.3269 69.3651 15.4266C69.3551 16.2983 69.4306 17.1978 69.1891 18.048C68.4816 18.477 67.436 18.2445 66.6275 18.2677C65.4874 18.244 64.2983 18.0963 63.1471 18.1274C63.2402 12.7626 61.6847 15.5346 60.3349 9.62386C61.6125 9.64498 62.8875 9.70386 64.1634 9.77666C64.7175 10.6855 65.2658 11.597 65.9504 12.421ZM63.1544 8.20002C63.2848 8.38706 63.4104 8.57698 63.5346 8.76818C62.3634 8.66386 61.1773 8.64658 60.004 8.62898C59.3418 6.83874 58.5128 4.98754 57.2983 3.53378C59.7851 4.24658 61.7472 6.08802 63.1544 8.20002ZM56.304 3.94658C57.6853 5.5493 58.4883 7.56146 59.1952 9.53218C59.6664 10.9979 59.9533 12.5541 60.7931 13.8698C59.4713 13.6705 58.1294 13.641 56.8 13.7821C56.3973 13.8322 56.2157 14.4597 56.6947 14.5602C57.4246 14.6888 58.1638 14.7567 58.9048 14.7634C61.0272 14.7099 61.8727 14.7032 61.9403 17.1173C61.9989 17.6893 62.2683 18.7746 61.5714 19.0309H56.9458C56.5488 18.9296 56.1651 18.8346 56.0354 18.3343C55.7431 12.3519 55.421 4.58914 49.4311 1.37314C49.4641 1.3068 49.5137 1.25014 49.5751 1.20866C52.0712 1.14402 54.6346 2.04274 56.304 3.94658ZM40.5111 1.6853C42.8928 1.7141 45.2744 1.77682 47.6515 1.93394C50.2971 3.38402 51.952 5.25154 52.832 8.18402C44.7027 7.77058 36.5652 7.69901 28.4194 7.9693C29.4311 5.7533 30.8922 2.89858 33.257 1.94194C35.672 1.77842 38.0915 1.71458 40.5111 1.6853ZM30.7421 1.21842C30.9731 1.20578 31.2047 1.2013 31.4362 1.20098C31.496 1.24078 31.5454 1.29433 31.5802 1.35714C25.6259 4.60514 25.1706 12.3362 24.9861 18.3349C24.8581 18.8359 24.4751 18.9311 24.0787 19.0315H19.4501C18.7531 18.7755 19.0223 17.6899 19.081 17.1179C19.1495 14.7019 19.9952 14.7114 22.1167 14.7642C22.8577 14.7574 23.5969 14.6894 24.3267 14.5608C24.8019 14.4611 24.6279 13.8333 24.2213 13.7827C22.8913 13.6415 21.5488 13.6711 20.2263 13.8706C21.2229 12.2722 21.5591 10.3835 22.1783 8.61538C23.4472 4.72354 26.3423 1.24418 30.7421 1.21842ZM21.2221 4.69986C21.9772 4.21847 22.7908 3.83569 23.6431 3.56082C22.6007 4.84082 21.9258 6.36578 21.2976 7.88082C20.1863 7.9269 19.0675 7.97026 17.9584 8.07186C18.8511 6.80706 19.9221 5.5533 21.2224 4.69986H21.2221ZM15.072 12.421C15.9293 11.3891 16.5751 10.2211 17.2842 9.09138C18.4987 9.01538 19.7127 8.9389 20.9283 8.88466C20.3418 10.636 20.0751 12.5773 18.8386 14.0272C17.5387 15.2432 17.9151 17.1813 17.8719 18.8123C16.2203 18.7034 14.6431 18.7923 13.0266 18.632C12.4549 18.5968 11.9357 18.6229 11.4928 18.3227C11.473 17.3561 11.5172 16.3893 11.6253 15.4285C13.3611 15.3293 15.0954 15.1885 16.8298 15.0709C17.4839 15.0263 17.4877 14.0002 16.8298 14.0469C15.5568 14.1379 14.2826 14.2242 13.0096 14.325C13.7734 13.7784 14.4662 13.1388 15.072 12.421ZM10.2221 27.872C10.9485 27.0576 12.825 25.8573 13.4775 27.376C10.1093 28.0255 7.23827 35.1111 8.08547 38.1578C6.26371 38.517 6.72051 36.4187 6.84307 35.301C7.23475 32.6357 8.31235 29.8759 10.2221 27.872ZM9.23203 70.8298C10.0021 69.9095 12.9975 69.8093 14.1711 69.8602C14.1815 70.3171 14.4344 71.0678 13.9951 71.3373C12.4693 71.8237 10.7458 71.6778 9.16787 71.8838C9.15107 71.516 9.09843 71.1373 9.23203 70.8298ZM2.87443 71.8285C4.00963 71.1383 5.12563 70.4685 6.36819 69.9651C6.56587 70.3668 6.71864 70.789 6.82371 71.2242C5.31971 71.8774 3.99683 72.9915 2.49635 73.6829C2.30307 73.2762 2.14435 72.8573 1.95587 72.4483C2.18307 72.188 2.63683 71.9802 2.87491 71.8285H2.87443ZM7.35443 74.9586C6.83624 75.0495 6.31555 75.1241 5.79235 75.1826C5.08691 75.3815 4.56227 74.989 4.61059 74.1838C6.03075 73.8062 7.44051 73.315 8.92115 73.2123C9.43139 73.1605 10.0331 72.9763 10.1319 73.621C10.2963 74.6941 8.06403 74.8344 7.35475 74.9586H7.35443ZM16.7664 74.488C16.2082 75.0539 13.5677 74.9306 12.7051 74.9306C11.4224 75.0295 11.5565 74.5829 11.4635 73.3635C12.5149 73.6499 17.777 72.293 16.7664 74.488ZM23.2304 75.3386C22.6659 75.3093 22.1943 75.3512 22.0027 74.6797C21.7826 73.9067 21.7805 72.9805 21.6859 72.1813C21.4939 70.4822 21.2917 68.7758 21.1722 67.0733C23.2541 67.6722 25.0995 65.7079 25.5242 63.8223C25.8298 67.4586 26.22 71.1042 26.8042 74.7023C26.7836 74.8645 26.7271 75.0201 26.6388 75.1578C26.5504 75.2955 26.4325 75.4117 26.2936 75.4981L23.2304 75.3386ZM51.14 74.8939C43.6592 75.0405 36.1741 75.1205 28.6928 74.9848C28.3491 71.9861 27.9511 69.0413 27.7205 66.035C36.9016 65.9434 46.0837 65.9486 55.2643 65.8048C55.0346 68.8154 54.6208 71.7995 54.2699 74.7903C53.224 74.8435 52.1866 74.871 51.1405 74.8938L51.14 74.8939ZM60.5835 75.2224C59.3456 75.4824 57.9882 75.3984 56.7123 75.5215C56.5608 75.4383 56.4312 75.3203 56.3343 75.1771C56.2375 75.0339 56.1761 74.8697 56.1554 74.6981C57.6434 64.5504 58.4154 54.2467 58.1426 43.9874C58.4055 45.081 59.4327 46.1575 60.508 46.4424C59.4339 48.1488 60.5711 50.7352 62.6155 51.012C62.5267 58.4701 62.0323 65.9177 61.1346 73.3221C61.0647 73.8811 61.1439 74.9171 60.584 75.2223L60.5835 75.2224ZM67.0736 75.2224C66.4744 75.2228 65.8756 75.1896 65.28 75.1231C64.7168 75.0394 64.6967 74.9694 64.6615 74.4066C64.6559 74.3181 64.6258 73.6978 64.625 73.6066C65.064 73.364 65.6042 73.4021 66.1221 73.3894C67.4392 73.4085 68.8309 73.289 70.1317 73.5194C70.6088 73.6512 70.6938 73.7613 70.7802 74.2178C70.8234 74.4502 70.8707 75.0131 70.6277 75.1742C69.4443 75.244 68.2598 75.2601 67.0741 75.2224H67.0736ZM76.9648 76.7264C75.5011 76.6872 73.9448 76.7397 72.4762 76.5077C72.4126 76.031 72.3922 75.5495 72.4152 75.0691C74.2091 75.2291 76.0843 75.2347 77.849 75.4438C77.8605 76.0659 77.6696 76.6706 76.9653 76.7258L76.9648 76.7264Z" fill="#F5B700" stroke="black" stroke-width="2" mask="url(#path-1-inside-1_137_81)"/>
</svg>
