<svg width="80" height="72" viewBox="0 0 80 72" fill="none" xmlns="http://www.w3.org/2000/svg">
<path d="M29.4 0.5H10.1V11.5H29.4V0.5Z" fill="#DC0073"/>
<path d="M49.6 0.5H30.3V11.5H49.6V0.5Z" fill="#DC0073"/>
<path d="M69.9 0.5H50.6V11.5H69.9V0.5Z" fill="#DC0073"/>
<path d="M80 0.5H70.8V11.5H80V0.5Z" fill="#DC0073"/>
<path d="M9.2 0.5H0V11.5H9.2V0.5Z" fill="#DC0073"/>
<path d="M19.3 12.5H0V23.5H19.3V12.5Z" fill="#DC0073"/>
<path d="M39.5 12.5H20.2V23.5H39.5V12.5Z" fill="#DC0073"/>
<path d="M59.8 12.5H40.5V23.5H59.8V12.5Z" fill="#DC0073"/>
<path d="M80 12.5H60.7V23.5H80V12.5Z" fill="#DC0073"/>
<path d="M29.4 24.5H10.1V35.5H29.4V24.5Z" fill="#DC0073"/>
<path d="M49.6 24.5H30.3V35.5H49.6V24.5Z" fill="#DC0073"/>
<path d="M69.9 24.5H50.6V35.5H69.9V24.5Z" fill="#DC0073"/>
<path d="M80 24.5H70.8V35.5H80V24.5Z" fill="#DC0073"/>
<path d="M9.2 24.5H0V35.5H9.2V24.5Z" fill="#DC0073"/>
<path d="M19.3 36.5H0V47.5H19.3V36.5Z" fill="#DC0073"/>
<path d="M39.5 36.5H20.2V47.5H39.5V36.5Z" fill="#DC0073"/>
<path d="M59.8 36.5H40.5V47.5H59.8V36.5Z" fill="#DC0073"/>
<path d="M80 36.5H60.7V47.5H80V36.5Z" fill="#DC0073"/>
<path d="M29.4 48.4H10.1V59.4H29.4V48.4Z" fill="#DC0073"/>
<path d="M49.6 48.4H30.3V59.4H49.6V48.4Z" fill="#DC0073"/>
<path d="M69.9 48.4H50.6V59.4H69.9V48.4Z" fill="#DC0073"/>
<path d="M80 48.4H70.8V59.4H80V48.4Z" fill="#DC0073"/>
<path d="M9.2 48.4H0V59.4H9.2V48.4Z" fill="#DC0073"/>
<path d="M19.3 60.4H0V71.4H19.3V60.4Z" fill="#DC0073"/>
<path d="M39.5 60.4H20.2V71.4H39.5V60.4Z" fill="#DC0073"/>
<path d="M59.8 60.4H40.5V71.4H59.8V60.4Z" fill="#DC0073"/>
<path d="M80 60.4H60.7V71.4H80V60.4Z" fill="#DC0073"/>
</svg>
