<svg width="95" height="95" viewBox="0 0 95 95" fill="none" xmlns="http://www.w3.org/2000/svg">
<path d="M33.0552 27.6201H61.9371V27.6211L61.9478 27.6201C62.4879 27.6082 62.9452 28.0345 62.9693 28.585L62.9703 28.5938C62.9991 29.0666 62.9996 29.542 62.9996 30.0352V30.5352H69.4127C69.9431 30.5352 70.3827 30.9371 70.439 31.4639L70.4449 31.5713V34.7822C70.4387 42.6402 64.9866 49.4398 57.3209 51.1484L57.1373 51.1895L57.0259 51.3418C55.5909 53.3062 53.9084 55.0769 52.0259 56.6123L52.0201 56.6172C51.5661 56.9991 51.0555 57.315 50.5172 57.5537L50.2515 57.6719L50.2222 57.9609C50.0143 60.0219 50.456 62.0944 51.4761 63.8955L51.6197 64.1494H54.7964C55.0408 64.1495 55.2707 64.231 55.4517 64.3789L55.5259 64.4463C55.7213 64.6477 55.8287 64.9102 55.8287 65.1816V72.4775C55.8287 72.7508 55.7198 73.0149 55.522 73.2168C55.3322 73.4047 55.0738 73.5097 54.7964 73.5098H40.2037C39.9261 73.5097 39.667 73.405 39.4771 73.2168H39.4781C39.2803 73.0149 39.1714 72.7508 39.1714 72.4775V65.1816C39.1714 64.9101 39.2787 64.6477 39.4742 64.4463C39.6643 64.2561 39.9245 64.1494 40.2037 64.1494H43.3804L43.524 63.8955C44.5441 62.0944 44.9849 60.0217 44.7769 57.9609L44.7486 57.6719L44.482 57.5537C43.9438 57.3151 43.4338 56.999 42.98 56.6172L42.9781 56.6162L42.2867 56.0205C40.694 54.6094 39.2486 53.0431 37.9703 51.3369L37.8599 51.1895L37.6802 51.1484L37.3218 51.0645C29.9688 49.245 24.7408 42.7226 24.5601 35.1484L24.5552 34.7803V31.5713C24.5593 30.9928 25.0216 30.5352 25.5875 30.5352H31.942L31.9703 30.0654C31.9861 29.8051 31.9862 29.5415 31.9898 29.3027C31.9935 29.0571 32.0009 28.8244 32.0279 28.5898L32.0298 28.5703C32.0703 28.0275 32.5227 27.6124 33.0552 27.6201ZM63.0289 33.0889C62.9168 38.019 61.7199 42.8608 59.5259 47.2783L58.8648 48.6104L60.1959 47.9482C65.1939 45.4648 68.3661 40.3747 68.3804 34.7881V32.5996H63.0406L63.0289 33.0889ZM26.6197 34.7822L26.6295 35.3018C26.8234 40.649 29.9099 45.4922 34.7115 47.917L36.0757 48.6064L35.3824 47.2441C33.1491 42.8602 31.9638 38.0158 31.9107 33.0947L31.9058 32.5996H26.6197V34.7822Z" fill="#F5B700" stroke="black"/>
<path d="M47.5 0.5C48.0678 0.5 48.5322 0.964446 48.5322 1.53223V9.19336C48.5322 9.76115 48.0678 10.2256 47.5 10.2256C46.9322 10.2256 46.4677 9.76114 46.4677 9.19336V1.53223C46.4678 0.964457 46.9322 0.500017 47.5 0.5Z" fill="#F5B700" stroke="black"/>
<path d="M14.2672 14.2712C14.6473 13.895 15.2434 13.8689 15.653 14.197L15.7331 14.2673L21.1325 19.6726V19.6736C21.5268 20.0843 21.5186 20.7288 21.1237 21.1199L21.1198 21.1238C20.7287 21.5187 20.0843 21.5269 19.6735 21.1326L19.4967 20.9626L14.2663 15.7322H14.2672C13.8681 15.3248 13.8697 14.6767 14.2672 14.2712Z" fill="#F5B700" stroke="black"/>
<path d="M1.53223 46.4677H9.19336C9.76114 46.4677 10.2256 46.9321 10.2256 47.4999C10.2256 48.0677 9.76115 48.5321 9.19336 48.5321H1.53223C0.964446 48.5321 0.5 48.0677 0.5 47.4999C0.500017 46.9321 0.964457 46.4677 1.53223 46.4677Z" fill="#F5B700" stroke="black"/>
<path d="M20.4196 73.5338C20.6968 73.5347 20.9617 73.6417 21.1598 73.8317V73.8326C21.3311 74.0075 21.4378 74.2356 21.4615 74.4791L21.4664 74.5836C21.4606 74.8567 21.3468 75.1214 21.1471 75.3131L20.2506 76.1735H20.2926L15.7311 80.735C15.3526 81.1096 14.7472 81.1329 14.3405 80.8053L14.2614 80.735C13.8659 80.3315 13.8668 79.6737 14.2633 79.2711L19.6793 73.86L19.6803 73.861L19.6871 73.8531C19.8795 73.6527 20.1454 73.5389 20.4196 73.5338Z" fill="#F5B700" stroke="black"/>
<path d="M47.5 84.7742C48.0678 84.7742 48.5322 85.2386 48.5322 85.8064V93.4675C48.5322 94.0353 48.0678 94.4998 47.5 94.4998C46.9322 94.4997 46.4677 94.0353 46.4677 93.4675V85.8064C46.4678 85.2386 46.9322 84.7742 47.5 84.7742Z" fill="#F5B700" stroke="black"/>
<path d="M74.579 73.5342C74.8535 73.5387 75.1196 73.6521 75.3124 73.8525V73.8535L75.3202 73.8604L80.7372 79.2715C81.1328 79.6793 81.129 80.3253 80.7323 80.7295C80.3269 81.1305 79.6758 81.1337 79.2675 80.7334L73.8602 75.3203H73.8612L73.8534 75.3135L73.7821 75.2373C73.6268 75.0546 73.5392 74.8227 73.5341 74.584C73.5342 74.3036 73.6425 74.0352 73.8358 73.8359C74.0339 73.6437 74.3004 73.5355 74.579 73.5342Z" fill="#F5B700" stroke="black"/>
<path d="M85.8064 46.4677H93.4676C94.0353 46.4677 94.4998 46.9321 94.4998 47.4999C94.4998 48.0677 94.0354 48.5321 93.4676 48.5321H85.8064C85.5323 48.5321 85.2706 48.4231 85.0769 48.2294C84.8832 48.0357 84.7742 47.774 84.7742 47.4999C84.7742 46.9321 85.2387 46.4677 85.8064 46.4677Z" fill="#F5B700" stroke="black"/>
<path d="M79.2691 14.2653C79.6476 13.8905 80.2529 13.8672 80.6597 14.1949L80.7388 14.2653C81.1341 14.6688 81.1333 15.3266 80.7368 15.7291L75.3199 21.1393L75.313 21.1471C75.1202 21.348 74.8535 21.4609 74.5786 21.4655C74.3335 21.4643 74.0986 21.3803 73.9107 21.2291L73.8326 21.1598C73.6432 20.9626 73.5356 20.6995 73.5337 20.4235C73.5378 20.1479 73.6517 19.8805 73.8531 19.6871L74.7495 18.8268H74.7076L79.2691 14.2653Z" fill="#F5B700" stroke="black"/>
</svg>
