<svg width="95" height="95" viewBox="0 0 95 95" fill="none" xmlns="http://www.w3.org/2000/svg">
<path d="M70.9451 31.5676C70.9391 30.7177 70.2568 30.0354 69.4128 30.0354H63.4992C63.4992 29.5446 63.4992 29.0538 63.4693 28.563C63.4334 27.743 62.7511 27.1025 61.937 27.1205H33.0632C32.2611 27.1085 31.5908 27.731 31.5309 28.533C31.4711 29.0538 31.501 29.5446 31.4711 30.0354H25.5875C24.7436 30.0354 24.0612 30.7177 24.0552 31.5676V34.7878V34.7818C24.0732 42.868 29.6815 49.8651 37.5702 51.6367C39.0546 53.6179 40.7604 55.4134 42.6578 56.9996C43.1486 57.4126 43.6992 57.7537 44.2798 58.0111C44.4773 59.9683 44.0584 61.9375 43.0887 63.6494H40.2038C39.7968 63.6494 39.4077 63.805 39.1204 64.0923C38.8331 64.3856 38.6715 64.7746 38.6715 65.1816V72.4778C38.6715 72.8848 38.8331 73.2738 39.1204 73.5671C39.4077 73.8544 39.7968 74.01 40.2038 74.01H54.7961C55.2031 74.01 55.5922 73.8544 55.8795 73.5671C56.1668 73.2738 56.3284 72.8848 56.3284 72.4778V65.1816C56.3284 64.7746 56.1668 64.3856 55.8795 64.0923C55.5922 63.805 55.2031 63.6494 54.7961 63.6494H51.9112C50.9415 61.9375 50.5226 59.9684 50.7201 58.0111C51.3007 57.7537 51.8513 57.4126 52.3421 56.9996C54.2575 55.4375 55.9693 53.6358 57.4297 51.6367C65.3243 49.877 70.9387 42.874 70.9447 34.7818L70.9451 31.5676ZM27.1194 34.7878V33.0999H31.411C31.4649 38.0977 32.6679 43.0177 34.9364 47.4708C30.1481 45.0527 27.1254 40.1448 27.1194 34.7819V34.7878ZM67.8806 34.7878V34.7818C67.8686 40.1806 64.8041 45.1007 59.9738 47.5008C62.2003 43.0177 63.4154 38.1038 63.5291 33.1H67.8804L67.8806 34.7878Z" fill="#F5B700"/>
<path d="M49.0323 9.19355V1.53226C49.0323 0.688321 48.3439 0 47.5 0C46.6561 0 45.9677 0.688321 45.9677 1.53226V9.19355C45.9677 10.0375 46.6561 10.7258 47.5 10.7258C48.3439 10.7258 49.0323 10.0375 49.0323 9.19355Z" fill="#F5B700"/>
<path d="M13.9098 16.0826L19.3267 21.4994V21.4934C19.9312 22.074 20.8888 22.068 21.4753 21.4755C22.0679 20.8889 22.0739 19.9313 21.4933 19.3268L16.0826 13.9099C15.4781 13.3174 14.5145 13.3234 13.9158 13.9159C13.3233 14.5145 13.3173 15.4779 13.9098 16.0826Z" fill="#F5B700"/>
<path d="M1.53226 49.0322H9.19355C10.0375 49.0322 10.7258 48.3438 10.7258 47.4999C10.7258 46.656 10.0375 45.9677 9.19355 45.9677H1.53226C0.688321 45.9677 0 46.656 0 47.4999C0 48.3438 0.688321 49.0322 1.53226 49.0322Z" fill="#F5B700"/>
<path d="M13.9098 81.0902C14.5084 81.6828 15.4839 81.6828 16.0826 81.0902L21.4994 75.6734H21.4934C21.7927 75.3861 21.9603 74.991 21.9663 74.584C21.9663 74.171 21.8047 73.776 21.5174 73.4827C21.2241 73.1954 20.829 73.0338 20.4161 73.0338C20.0091 73.0398 19.614 73.2074 19.3267 73.5067L13.9099 78.9174C13.3173 79.5159 13.3173 80.4916 13.9098 81.0902Z" fill="#F5B700"/>
<path d="M49.0323 93.4677V85.8064C49.0323 84.9625 48.3439 84.2742 47.5 84.2742C46.6561 84.2742 45.9677 84.9625 45.9677 85.8064V93.4677C45.9677 94.3117 46.6561 95 47.5 95C48.3439 95 49.0323 94.3117 49.0323 93.4677Z" fill="#F5B700"/>
<path d="M75.6736 73.507C75.3863 73.2077 74.9913 73.0402 74.5843 73.0342C74.1713 73.0342 73.7763 73.1958 73.483 73.4831C73.1957 73.7764 73.0341 74.1714 73.0341 74.5844C73.04 74.9914 73.2076 75.3864 73.5069 75.6737L78.9176 81.0906C79.5221 81.6831 80.4857 81.6771 81.0844 81.0846C81.6769 80.4861 81.6829 79.5225 81.0904 78.9178L75.6736 73.507Z" fill="#F5B700"/>
<path d="M84.2742 47.4999C84.2742 47.9069 84.4358 48.296 84.7231 48.5833C85.0104 48.8706 85.3995 49.0322 85.8065 49.0322H93.4677C94.3117 49.0322 95 48.3438 95 47.4999C95 46.656 94.3117 45.9677 93.4677 45.9677H85.8065C84.9625 45.9677 84.2742 46.656 84.2742 47.4999Z" fill="#F5B700"/>
<path d="M81.0902 13.9099C80.4916 13.3173 79.5161 13.3173 78.9174 13.9099L73.5006 19.3267H73.5066C73.2073 19.614 73.0397 20.009 73.0337 20.4161C73.0337 20.829 73.1953 21.2241 73.4826 21.5174C73.7759 21.8047 74.1709 21.9663 74.5839 21.9663C74.9909 21.9603 75.386 21.7927 75.6733 21.4934L81.0901 16.0827C81.6827 15.4842 81.6827 14.5085 81.0902 13.9099Z" fill="#F5B700"/>
</svg>
